<svg id="Layer_15" data-name="Layer 15" xmlns="http://www.w3.org/2000/svg" width="100" height="100" viewBox="0 0 100 100">
  <defs>
    <style>
      .cls-1 {
        fill: gray;
      }

      .cls-2 {
        fill: #fff;
      }
    </style>
  </defs>
  <title>fat framed icons</title>
  <g>
    <path class="cls-1" d="M26.67,84.17A9.18,9.18,0,0,1,17.5,75V60.48a9.16,9.16,0,0,1-3.59-15.67l30-26.67a9.16,9.16,0,0,1,12.18,0l30,26.67A9.16,9.16,0,0,1,82.5,60.48V75a9.18,9.18,0,0,1-9.17,9.17H26.67Z"/>
    <path class="cls-2" d="M50,18.33A6.65,6.65,0,0,1,54.43,20l30,26.67A6.67,6.67,0,0,1,80,58.33V75a6.67,6.67,0,0,1-6.67,6.67H26.67A6.67,6.67,0,0,1,20,75V58.33a6.67,6.67,0,0,1-4.43-11.65L45.57,20A6.65,6.65,0,0,1,50,18.33m0-5a11.66,11.66,0,0,0-7.75,2.95l-30,26.67A11.65,11.65,0,0,0,15,62.2V75A11.68,11.68,0,0,0,26.67,86.67H73.33A11.68,11.68,0,0,0,85,75V62.2a11.65,11.65,0,0,0,2.75-19.25l-30-26.67A11.66,11.66,0,0,0,50,13.33h0Z"/>
  </g>
  <path class="cls-2" d="M72.67,52V74.33H67.33V55a0.67,0.67,0,0,0-.67-0.67H53.33a0.67,0.67,0,0,0-.67.67V74.33H27.33V52L50,32.54Z"/>
  <rect class="cls-2" x="54" y="55.67" width="12" height="18.67"/>
  <path class="cls-2" d="M73.58,51L50.43,31.16a0.66,0.66,0,0,0-.87,0L26.42,51H21.75L50,25.89,78.25,51H73.58Z"/>
  <rect class="cls-1" x="32.67" y="54.33" width="14.67" height="14.67" rx="0.67" ry="0.67"/>
  <rect class="cls-2" x="34" y="62.33" width="5.33" height="5.33"/>
  <rect class="cls-2" x="40.67" y="62.33" width="5.33" height="5.33"/>
  <rect class="cls-2" x="40.67" y="55.67" width="5.33" height="5.33"/>
  <rect class="cls-2" x="34" y="55.67" width="5.33" height="5.33"/>
  <circle class="cls-1" cx="61.67" cy="66.67" r="1.67"/>
</svg>
