<svg xmlns="http://www.w3.org/2000/svg" viewBox="0 0 100 100"><defs><style>.cls-1{fill:gray;}.cls-2{fill:#fff;}</style></defs><title>map-pin-bwl</title><g id="Layer_11" data-name="Layer 11"><path class="cls-1" d="M65,86.17a9.08,9.08,0,0,1-3.41-.66L50,80.87,38.4,85.51a9.11,9.11,0,0,1-6.81,0l-15-6A9.13,9.13,0,0,1,10.83,71V29a9.13,9.13,0,0,1,5.77-8.51l15-6a9.11,9.11,0,0,1,6.81,0L50,19.13l11.6-4.64a9.11,9.11,0,0,1,6.81,0l15,6A9.13,9.13,0,0,1,89.17,29V71a9.13,9.13,0,0,1-5.77,8.51l-15,6A9,9,0,0,1,65,86.17Z"/><path class="cls-2" d="M65,16.33a6.67,6.67,0,0,1,2.48.48l15,6A6.66,6.66,0,0,1,86.67,29V71a6.66,6.66,0,0,1-4.19,6.19l-15,6a6.65,6.65,0,0,1-5,0L50,78.18l-12.52,5a6.65,6.65,0,0,1-5,0l-15-6A6.66,6.66,0,0,1,13.33,71V29a6.66,6.66,0,0,1,4.19-6.19l15-6a6.65,6.65,0,0,1,5,0l12.52,5,12.52-5A6.67,6.67,0,0,1,65,16.33m0-5a11.47,11.47,0,0,0-4.33.84L50,16.43,39.33,12.17a11.58,11.58,0,0,0-8.66,0l-15,6A11.6,11.6,0,0,0,8.33,29V71a11.6,11.6,0,0,0,7.34,10.83l15,6a11.58,11.58,0,0,0,8.66,0L50,83.57l10.67,4.26a11.58,11.58,0,0,0,8.66,0l15-6A11.6,11.6,0,0,0,91.67,71V29a11.6,11.6,0,0,0-7.34-10.83l-15-6A11.47,11.47,0,0,0,65,11.33Z"/><polygon class="cls-2" points="34.33 76.02 20.67 70.55 20.67 29.45 34.33 23.98 34.33 76.02"/><polygon class="cls-2" points="49.33 70.55 35.67 76.02 35.67 23.98 49.33 29.45 49.33 70.55"/><path class="cls-2" d="M65.11,46.26a4.93,4.93,0,1,1,5-4.93A5,5,0,0,1,65.11,46.26Z"/><path class="cls-2" d="M50.67,70.55V29.45L64.33,24v7.55a9.79,9.79,0,0,0-9.19,10.38c.53,6.72,6,12.34,8.6,14.66a1.91,1.91,0,0,0,.59.36V76Z"/><path class="cls-2" d="M79.33,70.55,65.67,76V57a1.93,1.93,0,0,0,.82-.44c2.75-2.42,8.62-8.44,8.62-15.72,0-5-4.18-9.06-9.44-9.34V24l13.66,5.47Z"/></g></svg>