<svg id="Layer_11" data-name="Layer 11" xmlns="http://www.w3.org/2000/svg" width="100" height="100" viewBox="0 0 100 100">
  <defs>
    <style>
      .cls-1 {
        fill: #fff;
      }

      .cls-2 {
        fill: #c2d5e8;
      }

      .cls-3 {
        fill: #5586bc;
      }
    </style>
  </defs>
  <title>fat framed icons</title>
  <g>
    <g>
      <path d="M65,86.17a9.11,9.11,0,0,1-3.41-.66L50,80.87,38.4,85.51a9.16,9.16,0,0,1-6.81,0l-15-6A9.12,9.12,0,0,1,10.83,71V29a9.12,9.12,0,0,1,5.76-8.51l15-6a9.16,9.16,0,0,1,6.81,0L50,19.13l11.6-4.64a9.16,9.16,0,0,1,6.81,0l15,6A9.12,9.12,0,0,1,89.17,29V71a9.12,9.12,0,0,1-5.76,8.51l-15,6A9.12,9.12,0,0,1,65,86.17Z"/>
      <path class="cls-1" d="M65,16.33a6.67,6.67,0,0,1,2.48.48l15,6A6.67,6.67,0,0,1,86.67,29V71a6.67,6.67,0,0,1-4.19,6.19l-15,6a6.67,6.67,0,0,1-5,0L50,78.18l-12.52,5a6.67,6.67,0,0,1-5,0l-15-6A6.67,6.67,0,0,1,13.33,71V29a6.67,6.67,0,0,1,4.19-6.19l15-6a6.67,6.67,0,0,1,5,0l12.52,5,12.52-5A6.67,6.67,0,0,1,65,16.33m0-5a11.62,11.62,0,0,0-4.33.83L50,16.43,39.33,12.17a11.67,11.67,0,0,0-8.67,0l-15,6A11.61,11.61,0,0,0,8.33,29V71a11.61,11.61,0,0,0,7.33,10.83l15,6a11.67,11.67,0,0,0,8.67,0L50,83.57l10.67,4.27a11.67,11.67,0,0,0,8.67,0l15-6A11.61,11.61,0,0,0,91.67,71V29a11.61,11.61,0,0,0-7.33-10.83l-15-6A11.62,11.62,0,0,0,65,11.33h0Z"/>
    </g>
    <polygon class="cls-2" points="34.33 76.02 20.67 70.55 20.67 29.45 34.33 23.98 34.33 76.02"/>
    <polygon class="cls-3" points="49.33 70.55 35.67 76.02 35.67 23.98 49.33 29.45 49.33 70.55"/>
    <ellipse class="cls-1" cx="65.11" cy="41.33" rx="5" ry="4.92"/>
    <path class="cls-2" d="M50.67,70.55V29.45L64.33,24v7.54a9.79,9.79,0,0,0-9.19,10.38c0.53,6.72,6,12.35,8.6,14.67a2,2,0,0,0,.59.36V76Z"/>
    <path class="cls-3" d="M79.33,70.55L65.67,76V57a2,2,0,0,0,.82-0.43c2.75-2.42,8.62-8.45,8.62-15.72,0-5-4.18-9.07-9.45-9.34V24l13.67,5.47v41.1Z"/>
  </g>
</svg>
