<svg xmlns="http://www.w3.org/2000/svg" viewBox="0 0 1349.42 656.65"><defs><style>.cls-1{fill:#ffeaa3;}.cls-10,.cls-2{fill:#c4c6c8;}.cls-3{fill:#e5e6e7;}.cls-4{fill:#bcb39b;}.cls-5{fill:#fff;}.cls-6{fill:#f78469;}.cls-7{fill:#ec6a45;}.cls-8{fill:#e25d47;}.cls-9{fill:#db583a;}.cls-10,.cls-11{font-size:60px;font-family:Lato-Bold, Lato Bold;font-weight:700;letter-spacing:0.1em;}.cls-11{fill:#55afed;}.cls-12{fill:#358ecb;}.cls-13{fill:#59b1ed;}.cls-14{fill:#ac9d77;}.cls-15{fill:#bda67a;}.cls-16{fill:#f1704e;}.cls-17{fill:#e35731;}.cls-18{fill:#67a501;}.cls-19{fill:#6eb001;}.cls-20{fill:#83c406;}.cls-21{fill:#9d8559;}</style></defs><title>shop-skyline</title><g id="Layer_1" data-name="Layer 1"><circle class="cls-1" cx="815.43" cy="248.99" r="80.33"/><path class="cls-2" d="M362.37,656.65v-329a12,12,0,0,0-12-12h-154a12,12,0,0,0-12,12v329Z"/><path class="cls-3" d="M377.37,656.65v-329a12,12,0,0,0-12-12h-154a12,12,0,0,0-12,12v329Z"/><path class="cls-2" d="M787.51,656.65v-393a15,15,0,0,0-15-15H439.38a15,15,0,0,0-15,15v393Z"/><rect class="cls-4" x="617.81" y="509.5" width="78.2" height="147.16"/><path class="cls-3" d="M1083.22,656.65V332.93a15,15,0,0,0-15-15H871.86L852.52,248.7H735.1a15,15,0,0,0-15,15v393Z"/><rect class="cls-2" x="205.62" y="337.4" width="156.5" height="79" rx="12" ry="12"/><rect class="cls-5" x="208.87" y="334.15" width="156.5" height="79" rx="12" ry="12"/><rect class="cls-2" x="205.62" y="442.07" width="156.5" height="79" rx="12" ry="12"/><rect class="cls-5" x="208.87" y="438.82" width="156.5" height="79" rx="12" ry="12"/><rect class="cls-2" x="205.62" y="542.6" width="156.5" height="79" rx="12" ry="12"/><rect class="cls-5" x="208.87" y="539.35" width="156.5" height="79" rx="12" ry="12"/><polyline class="cls-6" points="642.03 461.46 720.13 461.46 720.13 397.19 639.12 461.46"/><polygon class="cls-7" points="642.03 461.46 346.31 461.46 424.41 397.19 720.13 397.19 642.03 461.46"/><polygon class="cls-5" points="424.41 397.19 346.31 461.46 590.87 461.46 668.97 397.19 424.41 397.19"/><polygon class="cls-7" points="424.41 397.19 346.31 461.46 539.71 461.46 617.81 397.19 424.41 397.19"/><polygon class="cls-5" points="424.41 397.19 346.31 461.46 488.55 461.46 566.65 397.19 424.41 397.19"/><polygon class="cls-7" points="424.41 397.19 346.31 461.46 437.39 461.46 515.49 397.19 424.41 397.19"/><polygon class="cls-5" points="424.41 397.19 346.31 461.46 386.23 461.46 464.33 397.19 424.41 397.19"/><rect class="cls-8" x="422.33" y="461.46" width="297.8" height="13.93"/><rect class="cls-9" x="346.31" y="461.46" width="295.82" height="13.93"/><rect class="cls-5" x="446.45" y="274.91" width="249.56" height="101.07" rx="14.97" ry="14.97"/><text class="cls-10" transform="translate(487.59 344.79)">SHOP</text><text class="cls-11" transform="translate(483.84 344.79)">SHOP</text><rect class="cls-12" x="456.48" y="531.43" width="135.01" height="95.45"/><rect class="cls-13" x="482.06" y="531.43" width="109.43" height="95.45"/><rect class="cls-14" x="446.45" y="626.89" width="145.05" height="12.38"/><rect class="cls-15" x="435.12" y="626.89" width="145.05" height="12.38"/><rect class="cls-12" x="923.24" y="531.43" width="135.01" height="95.45"/><rect class="cls-13" x="923.24" y="531.43" width="109.43" height="95.45"/><rect class="cls-14" x="923.24" y="626.89" width="145.05" height="12.38"/><rect class="cls-15" x="934.57" y="626.89" width="145.05" height="12.38"/><rect class="cls-12" x="746.67" y="531.43" width="135.01" height="95.45"/><rect class="cls-13" x="746.67" y="531.43" width="109.43" height="95.45"/><rect class="cls-14" x="746.67" y="626.89" width="145.05" height="12.38"/><rect class="cls-15" x="758" y="626.89" width="145.05" height="12.38"/><rect class="cls-12" x="629.27" y="522.81" width="54.9" height="79.65"/><rect class="cls-13" x="639.12" y="522.81" width="45.05" height="79.65"/><rect class="cls-16" x="950.47" y="484.12" width="117.29" height="27.45"/><polygon class="cls-5" points="896.4 411.34 896.4 489.01 950.47 489.01 950.47 462.91 896.4 411.34"/><rect class="cls-17" x="896.4" y="484.12" width="54.07" height="27.45"/><polygon class="cls-17" points="1013.7 411.34 896.4 411.34 950.47 484.13 1067.77 484.13 1013.7 411.34"/><polygon class="cls-5" points="935.08 411.34 989.15 484.13 1067.77 484.13 1013.7 411.34 935.08 411.34"/><polygon class="cls-17" points="973.76 411.34 1027.84 484.13 1067.77 484.13 1013.7 411.34 973.76 411.34"/><rect class="cls-16" x="801.57" y="484.12" width="117.29" height="27.45"/><polygon class="cls-5" points="747.5 411.34 747.5 489.01 801.57 489.01 801.57 462.91 747.5 411.34"/><rect class="cls-17" x="747.49" y="484.12" width="54.07" height="27.45"/><polygon class="cls-17" points="864.79 411.34 747.5 411.34 801.57 484.13 918.86 484.13 864.79 411.34"/><polygon class="cls-5" points="786.18 411.34 840.25 484.13 918.86 484.13 864.79 411.34 786.18 411.34"/><polygon class="cls-17" points="824.86 411.34 878.93 484.13 918.86 484.13 864.79 411.34 824.86 411.34"/><polygon class="cls-12" points="591.5 626.89 591.5 593.73 585.17 593.73 585.17 609.32 580.16 609.32 580.16 588.73 563.34 588.73 563.34 615.77 556.48 615.77 556.48 600.19 542.35 600.19 533.22 609.32 515.49 609.32 515.49 626.89 591.5 626.89"/><rect class="cls-5" x="642.13" y="543.6" width="31.01" height="9.57"/><polygon class="cls-12" points="796.6 605.06 770.09 605.06 761.82 596.79 746.67 596.79 746.67 626.89 833.18 626.89 833.18 613.07 804.61 613.07 796.6 605.06"/><rect class="cls-12" x="929.39" y="593.1" width="17.88" height="33.79"/><rect class="cls-12" x="975.56" y="593.1" width="17.89" height="33.79"/><rect class="cls-12" x="957.68" y="605.58" width="17.88" height="21.31"/><rect class="cls-12" x="945.2" y="582.7" width="17.89" height="44.18"/><path class="cls-2" d="M881.69,380a6.56,6.56,0,0,1-6.56,6.55h-82.4a6.55,6.55,0,0,1-6.55-6.55h0a6.56,6.56,0,0,1,6.55-6.56h82.4a6.56,6.56,0,0,1,6.56,6.56Z"/><path class="cls-2" d="M963.08,362.88a4.37,4.37,0,0,1-4.36,4.37H856.89a4.37,4.37,0,0,1-4.37-4.37h0a4.37,4.37,0,0,1,4.37-4.37H958.72a4.37,4.37,0,0,1,4.36,4.37Z"/><path class="cls-2" d="M833.93,327.32a8.73,8.73,0,0,1-8.73,8.73H766.74a8.73,8.73,0,0,1-8.74-8.73h0a8.74,8.74,0,0,1,8.74-8.74H825.2a8.73,8.73,0,0,1,8.73,8.74Z"/><path class="cls-2" d="M830.53,291.75a4.37,4.37,0,0,1-4.37,4.37H778.9a4.37,4.37,0,0,1-4.37-4.37h0a4.37,4.37,0,0,1,4.37-4.36h47.26a4.37,4.37,0,0,1,4.37,4.36Z"/><path class="cls-5" d="M159.37,190.77H414.18s4.52-38.85-44.59-39.44c0,0-10.65-53.26-85.8-46.75s-73.38,55-73.38,55S165.74,143.81,159.37,190.77Z"/><path class="cls-5" d="M614.55,52.75h155s2.75-23.62-27.13-24c0,0-6.47-32.39-52.18-28.43s-44.63,33.47-44.63,33.47S618.42,24.19,614.55,52.75Z"/><path class="cls-5" d="M904.56,130.41h207.86s3.69-31.69-36.38-32.17c0,0-8.69-43.45-70-38.14S946.2,105,946.2,105,909.75,92.1,904.56,130.41Z"/><path class="cls-5" d="M951.37,311.27H1165s3.79-32.57-37.39-33.06c0,0-8.94-44.66-72-39.2s-61.53,46.14-61.53,46.14S956.71,271.9,951.37,311.27Z"/></g><g id="Layer_6" data-name="Layer 6"><rect class="cls-12" x="629.27" y="615.77" width="54.9" height="40.88"/><rect class="cls-13" x="639.12" y="615.77" width="45.05" height="40.88"/><rect class="cls-12" x="664.41" y="639.27" width="19.76" height="17.38"/></g><g id="Layer_3" data-name="Layer 3"><path class="cls-18" d="M1349.42,656.65A44.53,44.53,0,0,0,1269,647.7a44.49,44.49,0,0,0-38.15-21.56,45,45,0,0,0-9.42,1,55,55,0,0,0-91.09,4.67,55,55,0,0,0-102,24.83Z"/><path class="cls-18" d="M524,656.65a55,55,0,0,0-102-24.83,55,55,0,0,0-102,24.83Z"/><path class="cls-18" d="M204,656.65a55,55,0,0,0-102-24.83A55,55,0,0,0,0,656.65Z"/><ellipse class="cls-19" cx="99.62" cy="503.65" rx="34" ry="125"/><ellipse class="cls-19" cx="1266.91" cy="565.87" rx="21.56" ry="79.25"/><ellipse class="cls-20" cx="1275.39" cy="569.01" rx="11.21" ry="41.2"/><ellipse class="cls-19" cx="1172.22" cy="503.65" rx="34" ry="125"/><path class="cls-20" d="M1198.35,511.58c0,41.89-7.08,75.84-15.81,75.84s-15.82-33.95-15.82-75.84,7.08-75.85,15.82-75.85S1198.35,469.69,1198.35,511.58Z"/><path class="cls-21" d="M105.12,656.65V608.94a5.5,5.5,0,0,0-11,0v47.71Z"/><path class="cls-21" d="M1270.4,656.65v-24a3.49,3.49,0,0,0-7,0v24Z"/><path class="cls-21" d="M1177.72,656.65V608.94a5.5,5.5,0,0,0-11,0v47.71Z"/></g></svg>