<svg xmlns="http://www.w3.org/2000/svg" viewBox="0 0 100 100"><defs><style>.cls-1{fill:#fff;}.cls-2{fill:#e1c5b6;}.cls-3{fill:#ceab97;}</style></defs><title>tag-alt-1</title><g id="Layer_15" data-name="Layer 15"><path class="cls-1" d="M75.87,88a14.75,14.75,0,0,1-3.73-.49,14.3,14.3,0,0,1-8.72-6.7l-3.43-6c-.39.1-.77.17-1.16.24a14.43,14.43,0,0,1-8.95,5.16,14.38,14.38,0,0,1-23.63-1.84l-5.17-9L13.35,56l-.18-.32A29.86,29.86,0,0,1,64.85,25.88c.1.15.1.15,23.46,40.56A14.38,14.38,0,0,1,75.87,88Z"/><path class="cls-1" d="M39.66,15A26.73,26.73,0,0,1,62.32,27.48L85.71,67.94A11.37,11.37,0,1,1,66,79.31l-4.67-8.08a11.31,11.31,0,0,1-4.16,1,11.4,11.4,0,0,1-8.95,5.17,11.38,11.38,0,0,1-19.39-.5l-5.18-9,0,0L16,54.53l-.11-.19A26.9,26.9,0,0,1,39.66,15m0-6A32.9,32.9,0,0,0,10.52,57.12l.23.4,7.69,13.36v.05l0,0,5.17,9A17.4,17.4,0,0,0,51.47,83a17.8,17.8,0,0,0,4.86-1.9A17.54,17.54,0,0,0,59,79.19l1.8,3.12a17.3,17.3,0,0,0,10.55,8.1,17.37,17.37,0,0,0,13.18-1.74,17.38,17.38,0,0,0,6.36-23.73C67.52,24.48,67.52,24.48,67.39,24.28A32.71,32.71,0,0,0,39.66,9Z"/><path d="M85.71,67.94,62.32,27.48A26.87,26.87,0,0,0,15.84,54.34l.11.19,7.7,13.38,0,0,5.18,9a11.38,11.38,0,0,0,19.39.5,11.4,11.4,0,0,0,8.95-5.17,11.31,11.31,0,0,0,4.16-1L66,79.31A11.37,11.37,0,1,0,85.71,67.94ZM27.88,60.77a4.15,4.15,0,0,0-.11.48L21.94,51.12a20,20,0,0,1,34.55-20h0l.45.73a19.9,19.9,0,0,1,2.5,7.32,20.15,20.15,0,0,1-2.5,12.64l-.07.12c0,.09-.1.18-.16.27a18.74,18.74,0,0,1-1.94,2.67l-.08.09a4.54,4.54,0,0,1-1,.82,4.46,4.46,0,0,1-6.11-1.64A4.48,4.48,0,0,1,48,49a11,11,0,0,0,2.48-5.43,11.09,11.09,0,0,0-1.33-7.22h0c-.1-.17-.25-.41-.51-.8a11.08,11.08,0,0,0-14.54-3.24.69.69,0,0,0-.25.94.7.7,0,0,0,.94.26,9.68,9.68,0,0,1,12.71,2.81l.47.73a9.48,9.48,0,0,1,1.16,6.3A9.72,9.72,0,0,1,47,48.13a5.82,5.82,0,0,0-1.41,4,5.85,5.85,0,0,0-8.95,5.15,6,6,0,0,0-1.58-.68,5.83,5.83,0,0,0-7.17,4.14ZM43,72.39a4.48,4.48,0,0,1-8.2,1.08l-5.17-9a4.48,4.48,0,0,1,3.87-6.71,4.69,4.69,0,0,1,1.17.15,4.46,4.46,0,0,1,2.72,2.09L42.57,69A4.44,4.44,0,0,1,43,72.39ZM52,67.22a4.49,4.49,0,0,1-5.49,3.17,4.42,4.42,0,0,1-2.71-2.09L38.6,59.36a4.48,4.48,0,1,1,7.75-4.48l5.17,8.95A4.46,4.46,0,0,1,52,67.22Zm6.86-2.44a4.5,4.5,0,0,1-6.12-1.64l-3.28-5.68.48.15A5.92,5.92,0,0,0,55.7,56l.11-.13a22.24,22.24,0,0,0,1.7-2.29l3,5.12A4.49,4.49,0,0,1,58.83,64.78Zm21.36,10A4.48,4.48,0,0,1,72,75.87L61.66,58h0l-3.34-5.78A21.45,21.45,0,0,0,60.8,39c0-.2-.06-.41-.1-.61l19,33A4.44,4.44,0,0,1,80.19,74.79Z"/><path class="cls-2" d="M85.71,67.94,62.32,27.48A26.87,26.87,0,0,0,15.84,54.34l.11.19,7.7,13.38,0,0,5.18,9a11.38,11.38,0,0,0,19.39.5,11.4,11.4,0,0,0,8.95-5.17,11.31,11.31,0,0,0,4.16-1L66,79.31A11.37,11.37,0,1,0,85.71,67.94Z"/><path d="M85.71,67.94,62.32,27.48A26.87,26.87,0,0,0,15.84,54.34l.11.19,7.7,13.38,0,0,5.18,9a11.38,11.38,0,0,0,19.39.5,11.4,11.4,0,0,0,8.95-5.17,11.31,11.31,0,0,0,4.16-1L66,79.31A11.37,11.37,0,1,0,85.71,67.94ZM27.88,60.77a4.15,4.15,0,0,0-.11.48L21.94,51.12a20,20,0,0,1,34.55-20h0l.45.73a19.9,19.9,0,0,1,2.5,7.32,20.15,20.15,0,0,1-2.5,12.64l-.07.12c0,.09-.1.18-.16.27a18.74,18.74,0,0,1-1.94,2.67l-.08.09a4.54,4.54,0,0,1-1,.82,4.46,4.46,0,0,1-6.11-1.64A4.48,4.48,0,0,1,48,49a11,11,0,0,0,2.48-5.43,11.09,11.09,0,0,0-1.33-7.22h0c-.1-.17-.25-.41-.51-.8a11.08,11.08,0,0,0-14.54-3.24.69.69,0,0,0-.25.94.7.7,0,0,0,.94.26,9.68,9.68,0,0,1,12.71,2.81l.47.73a9.48,9.48,0,0,1,1.16,6.3A9.72,9.72,0,0,1,47,48.13a5.82,5.82,0,0,0-1.41,4,5.85,5.85,0,0,0-8.95,5.15,6,6,0,0,0-1.58-.68,5.83,5.83,0,0,0-7.17,4.14ZM43,72.39a4.48,4.48,0,0,1-8.2,1.08l-5.17-9a4.48,4.48,0,0,1,3.87-6.71,4.69,4.69,0,0,1,1.17.15,4.46,4.46,0,0,1,2.72,2.09L42.57,69A4.44,4.44,0,0,1,43,72.39ZM52,67.22a4.49,4.49,0,0,1-5.49,3.17,4.42,4.42,0,0,1-2.71-2.09L38.6,59.36a4.48,4.48,0,1,1,7.75-4.48l5.17,8.95A4.46,4.46,0,0,1,52,67.22Zm6.86-2.44a4.5,4.5,0,0,1-6.12-1.64l-3.28-5.68.48.15A5.92,5.92,0,0,0,55.7,56l.11-.13a22.24,22.24,0,0,0,1.7-2.29l3,5.12A4.49,4.49,0,0,1,58.83,64.78Zm21.36,10A4.48,4.48,0,0,1,72,75.87L61.66,58h0l-3.34-5.78A21.45,21.45,0,0,0,60.8,39c0-.2-.06-.41-.1-.61l19,33A4.44,4.44,0,0,1,80.19,74.79Z"/><path class="cls-3" d="M43,72.39a4.48,4.48,0,0,1-8.2,1.08l-5.17-9a4.48,4.48,0,0,1,3.87-6.71,4.69,4.69,0,0,1,1.17.15,4.46,4.46,0,0,1,2.72,2.09L42.57,69A4.44,4.44,0,0,1,43,72.39Z"/><path class="cls-3" d="M52,67.22a4.49,4.49,0,0,1-5.49,3.17,4.42,4.42,0,0,1-2.71-2.09L38.6,59.36a4.48,4.48,0,1,1,7.75-4.48l5.17,8.95A4.46,4.46,0,0,1,52,67.22Z"/><path class="cls-3" d="M58.83,64.78a4.5,4.5,0,0,1-6.12-1.64l-3.28-5.68.48.15A5.92,5.92,0,0,0,55.7,56l.11-.13a22.24,22.24,0,0,0,1.7-2.29l3,5.12A4.49,4.49,0,0,1,58.83,64.78Z"/></g></svg>