<svg id="Layer_1" data-name="Layer 1" xmlns="http://www.w3.org/2000/svg" width="120" height="120" viewBox="0 0 120 120">
  <defs>
    <style>
      .shape {
      fill: white;
      }
    </style>
  </defs>
  <path class="shape" d="M102.5,68.46a1.45,1.45,0,0,1-1.33-1.54V58.27a41.74,41.74,0,0,0-22.87-37.4,18.48,18.48,0,0,0-36.59,0,41.74,41.74,0,0,0-22.87,37.4v8.65a1.45,1.45,0,0,1-1.33,1.54,10,10,0,0,0-10,10V90a10,10,0,0,0,10,10H39.69a21.25,21.25,0,0,0,40.62,0H102.5a10,10,0,0,0,10-10V78.46A10,10,0,0,0,102.5,68.46ZM68.75,93.75a8.75,8.75,0,0,1-17.5,0,8.41,8.41,0,0,1,.09-1.25H68.66A8.41,8.41,0,0,1,68.75,93.75ZM70.6,87.5H20V80.73A14,14,0,0,0,31.33,66.92V58.27A29.08,29.08,0,0,1,53,29.92a2.5,2.5,0,0,0,1.63-3.52A6.21,6.21,0,0,1,54,23.65a6,6,0,1,1,12,0,6.21,6.21,0,0,1-.64,2.75A2.5,2.5,0,0,0,67,29.92,29.08,29.08,0,0,1,88.67,58.27v8.65A14,14,0,0,0,100,80.73V87.5H70.6Z"/>
</svg>
