<svg id="Layer_1" data-name="Layer 1" xmlns="http://www.w3.org/2000/svg" width="85" height="85" viewBox="0 0 85 85">
  <defs>
    <style>
      .cls-1 {
        fill: #04AF6B;
      }

      .cls-2 {
        fill: #fff;
      }
    </style>
  </defs>
  <title>add-flat</title>
  <path class="cls-1" d="M72.08,90.68l-3.49.5a131.51,131.51,0,0,1-37.2,0l-3.49-.5a21.92,21.92,0,0,1-18.6-18.6L8.82,68.6a131.51,131.51,0,0,1,0-37.2l0.5-3.49a21.92,21.92,0,0,1,18.6-18.6l3.49-.5a131.51,131.51,0,0,1,37.2,0l3.49,0.5a21.92,21.92,0,0,1,18.6,18.6l0.5,3.49a131.51,131.51,0,0,1,0,37.2l-0.5,3.49A21.92,21.92,0,0,1,72.08,90.68Z" transform="translate(-7.5 -7.5)"/>
  <path class="cls-2" d="M65,42.5H57.5V35a7.5,7.5,0,0,0-15,0v7.5H35a7.5,7.5,0,0,0,0,15h7.5V65a7.5,7.5,0,0,0,15,0V57.5H65A7.5,7.5,0,0,0,65,42.5Z" transform="translate(-7.5 -7.5)"/>
</svg>
