<svg xmlns="http://www.w3.org/2000/svg" viewBox="0 0 100 100"><defs><style>.cls-1{isolation:isolate;}.cls-2{fill:#fff;}.cls-3,.cls-7{fill:#fed25f;}.cls-4,.cls-8{fill:#c2d5e8;}.cls-5,.cls-9{fill:#c2b59b;}.cls-6{fill:#fbad23;}.cls-7,.cls-8,.cls-9{opacity:0.5;mix-blend-mode:multiply;}</style></defs><title>explore-alt-2</title><g class="cls-1"><g id="Layer_15" data-name="Layer 15"><path d="M40.57,87.45a9.19,9.19,0,0,1-4.84-1.38A12.41,12.41,0,0,1,27,82.41L17.59,73a12.41,12.41,0,0,1-3.66-8.71A9.18,9.18,0,0,1,15.23,53l4.43-4.43a9.21,9.21,0,0,1,2.65-7.36L31.45,32a9.2,9.2,0,0,1,2.64-7.36l9.43-9.43a9.17,9.17,0,0,1,13,0l1.9,1.9a25.72,25.72,0,0,1,17,7.53,26.11,26.11,0,0,1,7.52,17l1.91,1.9a9.17,9.17,0,0,1,0,13l-9.43,9.43a9.12,9.12,0,0,1-6.48,2.68,8.51,8.51,0,0,1-.88,0L58.84,77.7a9.1,9.1,0,0,1-6.48,2.68,8.51,8.51,0,0,1-.88,0l-4.43,4.43A9.1,9.1,0,0,1,40.57,87.45Z"/><path class="cls-2" d="M50,15.05A6.63,6.63,0,0,1,54.71,17l2.6,2.6a23.18,23.18,0,0,1,16.26,6.83A23.5,23.5,0,0,1,80.4,42.69l2.6,2.6a6.66,6.66,0,0,1,0,9.42l-2.36,2.36-7.07,7.07a6.72,6.72,0,0,1-6.44,1.73l-5.34,5.34-4.72,4.72a6.7,6.7,0,0,1-6.5,1.71,5.68,5.68,0,0,1-.57.64L45.29,83a6.68,6.68,0,0,1-8.81.55l-.62,0a9.93,9.93,0,0,1-7.07-2.93l-9.43-9.43a9.93,9.93,0,0,1-2.93-7.07c0-.21,0-.42,0-.62A6.68,6.68,0,0,1,17,54.71L21.72,50c.2-.2.42-.39.64-.57a6.67,6.67,0,0,1,1.71-6.5l4.72-4.72,5.34-5.34a6.66,6.66,0,0,1,1.73-6.44l7.07-7.07L45.29,17A6.63,6.63,0,0,1,50,15.05m0-5a11.55,11.55,0,0,0-8.25,3.42l-2.36,2.35-7.07,7.07A11.68,11.68,0,0,0,28.91,31l-3.66,3.66-4.71,4.71a11.71,11.71,0,0,0-3.42,8.13l-3.65,3.66a11.69,11.69,0,0,0-2,13.8,14.92,14.92,0,0,0,4.37,9.77l9.43,9.43A14.92,14.92,0,0,0,35,88.55,11.71,11.71,0,0,0,40.57,90a11.55,11.55,0,0,0,8.25-3.42l3.66-3.65a11.58,11.58,0,0,0,8.13-3.42l4.71-4.71L69,71.09a11.61,11.61,0,0,0,8.13-3.41l7.07-7.07,2.35-2.36a11.66,11.66,0,0,0,0-16.5l-1.24-1.24a28.61,28.61,0,0,0-8.18-17.62A28.19,28.19,0,0,0,59.48,14.7l-1.23-1.23A11.55,11.55,0,0,0,50,10.05Z"/><polygon class="cls-3" points="42.93 32.56 41.51 31.14 47.64 25.02 74.98 52.36 68.86 58.48 67.44 57.07 42.93 32.56"/><path class="cls-4" d="M24.13,62.79,37.21,75.87A2.69,2.69,0,0,1,34,75.46L24.54,66A2.69,2.69,0,0,1,24.13,62.79Z"/><polygon class="cls-3" points="24.07 60.84 24.07 60.84 22.66 59.43 26.43 55.66 27.84 57.07 27.84 57.07 42.93 72.16 42.93 72.16 44.34 73.57 40.57 77.34 39.16 75.93 39.16 75.93 24.07 60.84"/><rect class="cls-5" x="35.55" y="52.45" width="5.33" height="18.67" transform="translate(-32.5 45.12) rotate(-45)"/><polygon class="cls-3" points="33.5 51.41 33.5 51.41 29.73 47.64 33.5 43.87 56.13 66.5 52.36 70.27 48.59 66.5 48.59 66.5 33.5 51.41"/><rect class="cls-5" x="44" y="34" width="12" height="32" transform="translate(-20.71 50) rotate(-45)"/><polygon class="cls-6" points="75.93 51.41 48.59 24.07 50 22.66 53.3 25.96 74.04 46.7 77.34 50 75.93 51.41"/><path class="cls-4" d="M73.05,43.82,56.18,27A16,16,0,0,1,73.05,43.82Z"/><polygon class="cls-7" points="55.19 44.81 67.44 57.07 68.86 58.48 74.98 52.36 61.31 38.69 55.19 44.81"/><path class="cls-8" d="M34,75.46a2.69,2.69,0,0,0,3.24.41l-6.54-6.54-1.41,1.41Z"/><polygon class="cls-7" points="39.16 75.93 39.16 75.93 40.57 77.34 44.34 73.57 42.93 72.16 42.93 72.16 35.39 64.61 31.61 68.39 39.16 75.93"/><rect class="cls-9" x="38.85" y="60.42" width="5.33" height="9.33" transform="translate(-33.86 48.42) rotate(-45)"/><polygon class="cls-7" points="48.59 66.5 48.59 66.5 52.36 70.27 56.13 66.5 44.81 55.19 41.04 58.96 48.59 66.5"/><rect class="cls-9" x="49.66" y="47.66" width="12" height="16" transform="translate(-23.05 55.66) rotate(-45)"/><polygon class="cls-7" points="77.34 50 74.04 46.7 63.67 36.33 62.26 37.74 75.93 51.41 77.34 50"/><path class="cls-8" d="M68.38,31.62l-3.77,3.77,8.44,8.43A15.84,15.84,0,0,0,68.38,31.62Z"/></g></g></svg>