<svg id="Layer_15" data-name="Layer 15" xmlns="http://www.w3.org/2000/svg" width="100" height="100" viewBox="0 0 100 100">
  <defs>
    <style>
      .cls-1 {
        fill: #fff;
      }

      .cls-2 {
        fill: #BCBEC0;
      }
    </style>
  </defs>
  <title>gear-alt-2</title>
  <g>
    <path d="M60,87.45a12.9,12.9,0,0,1-8.57-3.26L50,82.92,48.56,84.2a12.94,12.94,0,0,1-15,1.52l-6.23-3.6a12.9,12.9,0,0,1-6.2-13.78l0.39-1.89-1.83-.61A12.9,12.9,0,0,1,10.83,53.6V46.4a12.92,12.92,0,0,1,8.83-12.25l1.83-.61-0.39-1.89a12.9,12.9,0,0,1,6.2-13.78l6.23-3.6a12.9,12.9,0,0,1,15,1.52L50,17.08l1.44-1.28a12.94,12.94,0,0,1,15-1.52l6.23,3.6a12.9,12.9,0,0,1,6.2,13.78l-0.39,1.89,1.83,0.61A12.9,12.9,0,0,1,89.17,46.4V53.6a12.92,12.92,0,0,1-8.83,12.25l-1.83.61,0.39,1.89a12.9,12.9,0,0,1-6.2,13.78l-6.23,3.6A12.94,12.94,0,0,1,60,87.45h0Z"/>
    <path class="cls-1" d="M40,15a10.4,10.4,0,0,1,6.91,2.63L50,20.42l3.1-2.75a10.44,10.44,0,0,1,12.12-1.23L71.45,20a10.4,10.4,0,0,1,5,11.11l-0.83,4.06,3.93,1.31a10.4,10.4,0,0,1,7.12,9.88V53.6a10.42,10.42,0,0,1-7.12,9.88l-3.93,1.31,0.83,4.06a10.4,10.4,0,0,1-5,11.11l-6.23,3.6A10.4,10.4,0,0,1,53.1,82.33L50,79.58l-3.1,2.75a10.44,10.44,0,0,1-12.12,1.23L28.55,80a10.4,10.4,0,0,1-5-11.11l0.83-4.06-3.93-1.31a10.4,10.4,0,0,1-7.12-9.88V46.4a10.41,10.41,0,0,1,7.12-9.88l3.93-1.31-0.83-4.06a10.4,10.4,0,0,1,5-11.11l6.23-3.6h0A10.4,10.4,0,0,1,40,15m0-5v0a15.44,15.44,0,0,0-7.71,2.07l-6.23,3.6A15.4,15.4,0,0,0,18.6,31.87,15.41,15.41,0,0,0,8.33,46.4V53.6A15.4,15.4,0,0,0,18.6,68.13a15.4,15.4,0,0,0,7.45,16.16l6.23,3.6A15.41,15.41,0,0,0,50,86.26a15.4,15.4,0,0,0,17.72,1.63l6.23-3.6A15.4,15.4,0,0,0,81.4,68.13,15.42,15.42,0,0,0,91.67,53.6V46.4A15.4,15.4,0,0,0,81.4,31.87a15.4,15.4,0,0,0-7.45-16.16l-6.23-3.6A15.41,15.41,0,0,0,50,13.74,15.4,15.4,0,0,0,40,10h0Z"/>
  </g>
  <path class="cls-2" d="M71.91,55.18a0.67,0.67,0,0,0-.82.47,21.87,21.87,0,0,1-5.65,9.79,0.67,0.67,0,0,0,.8,1l0.14-.11a23.2,23.2,0,0,0,1.68-1.9l1.19,5.83a3.08,3.08,0,0,1-1.48,3.29l-6.23,3.6A3.08,3.08,0,0,1,58,76.84l-4.45-3.95A23.16,23.16,0,0,0,56,72.38l0.16-.07a0.67,0.67,0,0,0-.51-1.22,21.83,21.83,0,0,1-11.3,0A0.67,0.67,0,1,0,44,72.38a23,23,0,0,0,2.49.51L42,76.84a3.08,3.08,0,0,1-3.59.36l-6.23-3.6a3.08,3.08,0,0,1-1.48-3.29l1.19-5.83a23,23,0,0,0,1.69,1.9,0.67,0.67,0,0,0,.8.11l0.14-.11a0.67,0.67,0,0,0,0-.94,21.84,21.84,0,0,1-5.65-9.79,0.67,0.67,0,1,0-1.29.35,23.15,23.15,0,0,0,.8,2.41l-5.65-1.88a3.08,3.08,0,0,1-2.11-2.93V46.4a3.08,3.08,0,0,1,2.11-2.93l5.65-1.88a23.17,23.17,0,0,0-.8,2.41,0.67,0.67,0,1,0,1.29.35,21.87,21.87,0,0,1,5.65-9.79,0.67,0.67,0,0,0-.94-0.94,23.18,23.18,0,0,0-1.68,1.9l-1.19-5.83a3.08,3.08,0,0,1,1.48-3.29l6.23-3.6a3.08,3.08,0,0,1,3.59.36l4.45,4a23.15,23.15,0,0,0-2.49.51,0.67,0.67,0,0,0,.35,1.29,21.83,21.83,0,0,1,11.3,0A0.67,0.67,0,1,0,56,27.62a23,23,0,0,0-2.49-.51L58,23.16a3.08,3.08,0,0,1,3.59-.36l6.23,3.6a3.08,3.08,0,0,1,1.48,3.29l-1.19,5.83a23,23,0,0,0-1.69-1.9,0.67,0.67,0,0,0-.94.94,21.84,21.84,0,0,1,5.65,9.79,0.67,0.67,0,0,0,.82.47l0.16-.07A0.67,0.67,0,0,0,72.38,44a23.15,23.15,0,0,0-.8-2.41l5.65,1.88a3.08,3.08,0,0,1,2.11,2.93V53.6a3.08,3.08,0,0,1-2.11,2.93L71.58,58.4a23.17,23.17,0,0,0,.8-2.41A0.67,0.67,0,0,0,71.91,55.18Z"/>
  <path d="M44.67,40.76a10.67,10.67,0,1,0,14.57,3.9A10.68,10.68,0,0,0,44.67,40.76Z"/>
  <path class="cls-1" d="M54.67,58.08a9.33,9.33,0,1,1,3.42-12.75A9.26,9.26,0,0,1,54.67,58.08Z"/>
  <path d="M50,33.33A16.69,16.69,0,0,0,33.33,50,0.67,0.67,0,1,1,32,50,18,18,0,0,1,50,32,0.67,0.67,0,0,1,50,33.33Z"/>
</svg>
