<svg id="Layer_14" data-name="Layer 14" xmlns="http://www.w3.org/2000/svg" width="100" height="100" viewBox="0 0 100 100">
  <defs>
    <style>
      .cls-1 {
        fill: #fff;
      }

      .cls-2 {
        fill: #fff0c8;
      }

      .cls-3 {
        fill: #fed25f;
      }

      .cls-4 {
        fill: #fbad23;
      }

      .cls-5 {
        fill: #e14f4e;
      }
    </style>
  </defs>
  <title>fat framed icons</title>
  <g>
    <g>
      <path d="M48.59,93.23c-0.3,0-.6,0-0.9,0L18.52,90.54a10,10,0,0,1-9.05-9.05L6.81,52.31a10,10,0,0,1,2.89-8L42.58,11.46a16,16,0,0,1,22.63,0L88.54,34.79a16,16,0,0,1,0,22.63L55.66,90.3A9.93,9.93,0,0,1,48.59,93.23Z"/>
      <path class="cls-1" d="M53.89,9.27a13.41,13.41,0,0,1,9.55,4L86.77,36.56a13.5,13.5,0,0,1,0,19.09L80.41,62l-5.3,5.3-5.3,5.3L53.89,88.53a7.5,7.5,0,0,1-5.3,2.2q-0.34,0-.68,0l-17.5-1.59L18.74,88A7.5,7.5,0,0,1,12,81.26L10.89,69.59,9.3,52.09a7.5,7.5,0,0,1,2.17-6L27.38,30.2l5.3-5.3,5.3-5.3,6.36-6.36a13.41,13.41,0,0,1,9.55-4m0-5A18.38,18.38,0,0,0,40.81,9.69l-6.36,6.36-5.3,5.3-5.3,5.3L7.93,42.57a12.47,12.47,0,0,0-3.61,10L5.91,70,7,81.71A12.5,12.5,0,0,0,18.29,93L30,94.09l17.5,1.59c0.38,0,.76.05,1.13,0.05a12.42,12.42,0,0,0,8.84-3.66L73.34,76.16l5.3-5.3,5.3-5.3,6.36-6.36a18.5,18.5,0,0,0,0-26.16L67,9.69A18.38,18.38,0,0,0,53.89,4.27h0Z"/>
    </g>
    <polygon class="cls-1" points="64.5 66.26 57.08 58.83 57.08 58.83 57.08 58.83 49.12 50.88 33.74 35.5 37.98 31.26 53.36 46.64 68.74 62.02 64.5 66.26"/>
    <path class="cls-2" d="M31.43,80.92l-6.17-6.17-6.17-6.17L17.64,52.68l9.18,4.59L32,67.65a0.75,0.75,0,0,0,.34.34l10.38,5.19,4.59,9.18Z"/>
    <polygon class="cls-3" points="32.68 36.56 39.58 43.45 27.23 55.8 18.04 51.2 32.68 36.56"/>
    <polygon class="cls-4" points="63.44 67.32 48.8 81.96 44.2 72.77 56.55 60.42 63.44 67.32"/>
    <polygon class="cls-3" points="55.48 59.36 43.14 71.71 33.24 66.76 28.29 56.86 40.64 44.52 48.06 51.94 55.48 59.36"/>
    <polygon class="cls-1" points="69.8 60.95 54.42 45.58 39.05 30.2 43.29 25.95 74.05 56.71 69.8 60.95"/>
    <path class="cls-5" d="M44.35,24.89l5.83-5.83a5.25,5.25,0,0,1,7.42,0L80.94,42.39a5.26,5.26,0,0,1,0,7.42l-5.83,5.83Z"/>
    <path d="M57.08,21.71A0.75,0.75,0,0,1,56,22.77L55,21.71a1.54,1.54,0,0,0-2.12,0l-3.71,3.71a0.75,0.75,0,0,1-1.06-1.06l3.71-3.71a3,3,0,0,1,4.24,0Z"/>
  </g>
</svg>
