<svg xmlns="http://www.w3.org/2000/svg" viewBox="0 0 100 100"><defs><style>.cls-1{fill:gray;}.cls-2{fill:#fff;}</style></defs><title>search-list</title><g id="Layer_15" data-name="Layer 15"><path class="cls-1" d="M58.33,87.5a12.5,12.5,0,0,1-12-9.19,32,32,0,0,1-3.68-1.11L36,83.85A12.51,12.51,0,0,1,27,87.5a14.84,14.84,0,0,1-14.44-13A12.68,12.68,0,0,1,16.15,64l6.64-6.65A33.38,33.38,0,1,1,86,55.74a12.5,12.5,0,0,1,1,9.26,12.58,12.58,0,0,1,0,6.67A12.51,12.51,0,0,1,75,87.5ZM24.87,72.76a1.82,1.82,0,0,0,.68,1.69,2.37,2.37,0,0,0,1.33.71H27a.46.46,0,0,0,.22,0L36,66.42l-2.37-2.37ZM54.12,24.83a21,21,0,0,0-7.93,40.53l.09-.36a12.51,12.51,0,0,1,12-15.83H74.91a21.36,21.36,0,0,0,.26-3.29A21.07,21.07,0,0,0,54.12,24.83Z"/><path class="cls-2" d="M54.12,15A30.86,30.86,0,0,1,83.27,56.05a10,10,0,0,1,1.16,9,10,10,0,0,1,0,6.67A9.91,9.91,0,0,1,85,75,10,10,0,0,1,75,85H58.33a10,10,0,0,1-9.92-8.79A30,30,0,0,1,42,74.27l-.52.53-7.29,7.29A10.05,10.05,0,0,1,27,85,12.34,12.34,0,0,1,15.07,74.2a10.19,10.19,0,0,1,2.84-8.39l7.29-7.29.53-.52A30.88,30.88,0,0,1,54.12,15M48.35,68.7c0-.12,0-.24,0-.37A10,10,0,0,1,48.9,65a10,10,0,0,1,9.43-13.33H75a10,10,0,0,1,1.9.18A23.52,23.52,0,1,0,48.35,68.7M27,77.67a2.74,2.74,0,0,0,2-.77L39.49,66.42l-3-3-3-3L23.1,71c-1.25,1.25-.94,3.59.68,5.22a4.83,4.83,0,0,0,2.83,1.42,2.83,2.83,0,0,0,.41,0M54.12,10a35.91,35.91,0,0,0-34.2,46.73l-5.54,5.55A15.14,15.14,0,0,0,10.1,74.75,17.32,17.32,0,0,0,27,90a15,15,0,0,0,10.7-4.38l5.55-5.55,1.07.32a15,15,0,0,0,14,9.61H75A15,15,0,0,0,90,75a15.45,15.45,0,0,0-.37-3.33,15.22,15.22,0,0,0,0-6.67A15.45,15.45,0,0,0,90,61.67a14.92,14.92,0,0,0-1.32-6.16A35.9,35.9,0,0,0,54.12,10ZM43.35,61A19,19,0,0,1,41,59a18.53,18.53,0,1,1,31.65-13.1c0,.26,0,.52,0,.79H58.33A15,15,0,0,0,43.35,61Z"/><path class="cls-2" d="M70.76,29.24a23.53,23.53,0,1,0,6.91,16.64A23.43,23.43,0,0,0,70.76,29.24ZM54.12,65.91a20,20,0,1,1,20-20A19.94,19.94,0,0,1,54.12,65.91Z"/><path class="cls-2" d="M67.34,32.66a18.7,18.7,0,1,0,5.48,13.22A18.61,18.61,0,0,0,67.34,32.66Z"/><path class="cls-1" d="M84.43,65A10,10,0,0,0,75,51.67H73.3a20.18,20.18,0,0,0,.86-5.79,20,20,0,1,0-25.31,19.3,9.94,9.94,0,0,0,0,6.49A9.91,9.91,0,0,0,48.33,75a10,10,0,0,0,10,10H75A10,10,0,0,0,85,75a9.91,9.91,0,0,0-.57-3.33,10,10,0,0,0,0-6.67Zm-49-19.12A18.7,18.7,0,1,1,71.9,51.67H58.33a9.93,9.93,0,0,0-9.77,12.06A18.77,18.77,0,0,1,35.42,45.88Z"/><path class="cls-1" d="M54.79,31.35a.67.67,0,0,0-.67-.67,15.22,15.22,0,0,0-15.19,15.2.67.67,0,0,0,1.34,0A13.86,13.86,0,0,1,54.12,32,.67.67,0,0,0,54.79,31.35Z"/><path class="cls-2" d="M36.54,63.46l-3-3L23.1,71c-1.25,1.25-.94,3.59.68,5.22a4.83,4.83,0,0,0,2.83,1.42A2.81,2.81,0,0,0,29,76.9L39.49,66.42Z"/><path class="cls-2" d="M75,77.67H58.33a2.67,2.67,0,0,1,0-5.34H75a2.67,2.67,0,0,1,0,5.34Z"/><path class="cls-2" d="M75,71H58.33a2.67,2.67,0,0,1,0-5.33H75A2.67,2.67,0,1,1,75,71Z"/><path class="cls-2" d="M75,64.33H58.33a2.67,2.67,0,0,1,0-5.33H75a2.67,2.67,0,1,1,0,5.33Z"/></g></svg>