<svg id="Layer_2" data-name="Layer 2" xmlns="http://www.w3.org/2000/svg" width="100" height="100" viewBox="0 0 100 100">
  <defs>
    <style>
      .cls-1 {
        fill: #fff;
      }

      .cls-2 {
        fill: #bcbec0;
      }
    </style>
  </defs>
  <title>fat framed icons</title>
  <g>
    <g>
      <path d="M41.67,79.17a29.17,29.17,0,0,1,0-58.33H58.33a29.17,29.17,0,0,1,0,58.33H41.67Z"/>
      <path class="cls-1" d="M58.33,23.33a26.67,26.67,0,1,1,0,53.33H41.67a26.67,26.67,0,1,1,0-53.33H58.33m0-5H41.67a31.67,31.67,0,1,0,0,63.33H58.33a31.67,31.67,0,1,0,0-63.33h0Z"/>
    </g>
    <path class="cls-2" d="M58.33,69.33H41.67a19.33,19.33,0,1,1,0-38.67H58.33A19.33,19.33,0,1,1,58.33,69.33Z"/>
    <path d="M41.67,34.33A15.67,15.67,0,1,0,57.33,50,15.68,15.68,0,0,0,41.67,34.33Z"/>
    <path class="cls-1" d="M41.67,64.33A14.33,14.33,0,1,1,56,50,14.35,14.35,0,0,1,41.67,64.33Z"/>
    <path d="M42.33,40a0.67,0.67,0,0,1-.67.67A9.34,9.34,0,0,0,32.33,50,0.67,0.67,0,1,1,31,50,10.68,10.68,0,0,1,41.67,39.33,0.67,0.67,0,0,1,42.33,40Z"/>
  </g>
</svg>
