<svg id="Layer_1" data-name="Layer 1" xmlns="http://www.w3.org/2000/svg" width="100" height="100" viewBox="0 0 100 100">
  <defs>
    <style>
      .cls-1 {
        fill: none;
      }

      .cls-2 {
        fill: #fff;
      }
    </style>
  </defs>
  <title>Untitled-2</title>
  <g>
    <rect class="cls-1" x="10" y="10" width="80" height="80"/>
    <g>
      <path class="cls-2" d="M50,85.91A35.91,35.91,0,1,1,85.91,50,35.95,35.95,0,0,1,50,85.91Z"/>
      <path class="cls-2" d="M50,16.59A33.41,33.41,0,1,1,16.59,50,33.44,33.44,0,0,1,50,16.59m0-5A38.41,38.41,0,1,0,88.41,50,38.45,38.45,0,0,0,50,11.59h0Z"/>
    </g>
    <path d="M50,16.59A33.41,33.41,0,1,0,83.41,50,33.44,33.44,0,0,0,50,16.59Zm0,59.55A26.14,26.14,0,1,1,76.14,50,26.17,26.17,0,0,1,50,76.14Zm8.43-43.79-14.71,13a2.67,2.67,0,0,0-.85,1.46L38.93,66.13a1.6,1.6,0,0,0,2.64,1.52l14.71-13a2.67,2.67,0,0,0,.85-1.46l3.94-19.26A1.6,1.6,0,0,0,58.43,32.35ZM50,54a4,4,0,1,1,4-4A4,4,0,0,1,50,54Z"/>
  </g>
</svg>
