<svg id="Layer_1" data-name="Layer 1" xmlns="http://www.w3.org/2000/svg" width="100" height="100" viewBox="0 0 100 100">
  <defs>
    <style>
      .cls-1 {
        fill: none;
      }

      .cls-2 {
        fill: #fff;
      }
    </style>
  </defs>
  <title>Untitled-2</title>
  <rect class="cls-1" x="10" y="10" width="80" height="80"/>
  <g>
    <path class="cls-2" d="M53.6,87.15a8.83,8.83,0,0,1-2.43-.34A8.93,8.93,0,0,1,50,86.38a8.81,8.81,0,0,1-10.22-2.23l-2.26-2.57-3.25,1.1A8.81,8.81,0,0,1,23.2,71.21l6.1-16.14a26.17,26.17,0,1,1,41.39,0l6.1,16.14A8.81,8.81,0,0,1,65.73,82.67l-3.25-1.1-2.26,2.57A8.81,8.81,0,0,1,53.6,87.15Z"/>
    <path class="cls-2" d="M50,15.35A23.7,23.7,0,0,1,73.67,39,23.46,23.46,0,0,1,67.84,54.6l6.62,17.5a6.31,6.31,0,0,1-7.93,8.21l-4.83-1.63L58.34,82.5a6.31,6.31,0,0,1-8.34,1,6.31,6.31,0,0,1-8.34-1l-3.36-3.83-4.83,1.63a6.31,6.31,0,0,1-7.93-8.21l6.62-17.5A23.46,23.46,0,0,1,26.33,39,23.7,23.7,0,0,1,50,15.35m0-5a28.69,28.69,0,0,0-23.51,45.1L20.86,70.33A11.31,11.31,0,0,0,35.07,85l1.67-.56L37.9,85.8a11.31,11.31,0,0,0,11.62,3.41L50,89.06l0.48,0.15A11.31,11.31,0,0,0,62.1,85.8l1.16-1.32L64.93,85A11.31,11.31,0,0,0,79.14,70.33L73.51,55.46A28.69,28.69,0,0,0,50,10.35h0Z"/>
  </g>
  <g>
    <path d="M74.46,72.09L67.84,54.6A23.46,23.46,0,0,0,73.67,39a23.67,23.67,0,0,0-47.34,0A23.46,23.46,0,0,0,32.16,54.6l-6.62,17.5a6.31,6.31,0,0,0,7.93,8.21l4.83-1.63,3.36,3.83a6.31,6.31,0,0,0,8.34,1,6.31,6.31,0,0,0,8.34-1l3.36-3.83,4.83,1.63A6.31,6.31,0,0,0,74.46,72.09ZM54,77L50.72,57a17.88,17.88,0,0,0,9.46-3.15l7.37,19.51-8-2.7ZM40.44,70.65l-8,2.7,7.38-19.51A17.88,17.88,0,0,0,49.28,57L46,77ZM33.27,39A16.73,16.73,0,1,1,50,55.75,16.75,16.75,0,0,1,33.27,39Z"/>
    <path d="M52.46,45.23a1.89,1.89,0,0,0,2.68-1.95L54.8,40.59l1.85-2a1.89,1.89,0,0,0-1-3.15L53,34.94l-1.31-2.38a1.89,1.89,0,0,0-3.32,0L47,34.94l-2.66.51a1.89,1.89,0,0,0-1,3.15l1.85,2-0.34,2.69a1.89,1.89,0,0,0,2.68,1.95L50,44.08Z"/>
    <path d="M63.26,39A13.26,13.26,0,1,0,50,52.28,13.27,13.27,0,0,0,63.26,39ZM38,39A12,12,0,1,1,50,51,12,12,0,0,1,38,39Z"/>
  </g>
</svg>
