<svg id="Layer_1" data-name="Layer 1" xmlns="http://www.w3.org/2000/svg" width="151" height="133" viewBox="0 0 151 133">
  <defs>
    <style>
      .cls-1 {
        fill: white;
      }
    </style>
  </defs>
  <title>search</title>
  <path class="cls-1" d="M100.5,78.71a25,25,0,1,0-30,24.5c0,0.16,0,.33,0,0.5V113a5,5,0,0,0,10,0v-9.29c0-.17,0-0.33,0-0.5A25,25,0,0,0,100.5,78.71Zm-25,17.86A17.86,17.86,0,1,1,93.36,78.71,17.88,17.88,0,0,1,75.5,96.57ZM64.79,81.21a2.5,2.5,0,0,1-2.5-2.5A13.23,13.23,0,0,1,75.5,65.5a2.5,2.5,0,0,1,0,5,8.22,8.22,0,0,0-8.21,8.21A2.5,2.5,0,0,1,64.79,81.21ZM95.5,7a5,5,0,1,0-6,4.9s0,0.07,0,.1v1.86a1,1,0,0,0,2,0V12s0-.07,0-0.1A5,5,0,0,0,95.5,7Zm-5,3.57A3.57,3.57,0,1,1,94.07,7,3.58,3.58,0,0,1,90.5,10.57ZM88.36,7.5a0.5,0.5,0,0,1-.5-0.5A2.65,2.65,0,0,1,90.5,4.36a0.5,0.5,0,0,1,0,1A1.64,1.64,0,0,0,88.86,7,0.5,0.5,0,0,1,88.36,7.5ZM75.5,0A7.5,7.5,0,1,1,68,7.5,7.5,7.5,0,0,1,75.5,0ZM63.58,24.61c-1.71,3.3.55,7.39,4,7.39H83.4c3.46,0,5.72-4.09,4-7.39A13.14,13.14,0,0,0,63.58,24.61ZM151,43a5,5,0,1,0-6,4.9s0,0.07,0,.1v1.86a1,1,0,1,0,2,0V48s0-.07,0-0.1A5,5,0,0,0,151,43Zm-5,3.57A3.57,3.57,0,1,1,149.57,43,3.58,3.58,0,0,1,146,46.57Zm-2.14-3.07a0.5,0.5,0,0,1-.5-0.5A2.65,2.65,0,0,1,146,40.36a0.5,0.5,0,0,1,0,1A1.64,1.64,0,0,0,144.36,43,0.5,0.5,0,0,1,143.86,43.5ZM131,36a7.5,7.5,0,1,1-7.5,7.5A7.5,7.5,0,0,1,131,36ZM119.08,60.61c-1.71,3.3.55,7.39,4,7.39H138.9c3.46,0,5.72-4.09,4-7.39A13.14,13.14,0,0,0,119.08,60.61ZM133,108a5,5,0,1,0-6,4.9s0,0.07,0,.1v1.86a1,1,0,1,0,2,0V113s0-.07,0-0.1A5,5,0,0,0,133,108Zm-5,3.57a3.57,3.57,0,1,1,3.57-3.57A3.58,3.58,0,0,1,128,111.57Zm-2.14-3.07a0.5,0.5,0,0,1-.5-0.5,2.65,2.65,0,0,1,2.64-2.64,0.5,0.5,0,0,1,0,1,1.64,1.64,0,0,0-1.64,1.64A0.5,0.5,0,0,1,125.86,108.5ZM113,101a7.5,7.5,0,1,1-7.5,7.5A7.5,7.5,0,0,1,113,101Zm-11.92,24.61c-1.71,3.3.55,7.39,4,7.39H120.9c3.46,0,5.72-4.09,4-7.39A13.14,13.14,0,0,0,101.08,125.61ZM4,47.9S4,48,4,48v1.86a1,1,0,0,0,2,0V48s0-.07,0-0.1A5,5,0,1,0,4,47.9ZM1.43,43A3.57,3.57,0,1,1,5,46.57,3.58,3.58,0,0,1,1.43,43Zm5.21,0A1.64,1.64,0,0,0,5,41.36a0.5,0.5,0,0,1,0-1A2.65,2.65,0,0,1,7.64,43,0.5,0.5,0,0,1,6.64,43ZM27.5,43.5A7.5,7.5,0,1,1,20,36,7.5,7.5,0,0,1,27.5,43.5ZM20,53A13.54,13.54,0,0,0,8.08,60.61c-1.71,3.3.55,7.39,4,7.39H27.9c3.46,0,5.72-4.09,4-7.39A13.54,13.54,0,0,0,20,53Zm2,59.9s0,0.07,0,.1v1.86a1,1,0,0,0,2,0V113s0-.07,0-0.1A5,5,0,1,0,22,112.9ZM19.43,108A3.57,3.57,0,1,1,23,111.57,3.58,3.58,0,0,1,19.43,108Zm5.21,0A1.64,1.64,0,0,0,23,106.36a0.5,0.5,0,0,1,0-1A2.65,2.65,0,0,1,25.64,108,0.5,0.5,0,0,1,24.64,108Zm20.86,0.5A7.5,7.5,0,1,1,38,101,7.5,7.5,0,0,1,45.5,108.5ZM38,118a13.54,13.54,0,0,0-11.92,7.61c-1.71,3.3.55,7.39,4,7.39H45.9c3.46,0,5.72-4.09,4-7.39A13.54,13.54,0,0,0,38,118ZM75.5,49a1,1,0,0,1-1-1V47.5a1,1,0,0,1,2,0V48A1,1,0,0,1,75.5,49Zm0-3.5a1,1,0,0,1-1-1v-1a1,1,0,0,1,2,0v1A1,1,0,0,1,75.5,45.5Zm0-4a1,1,0,0,1-1-1v-1a1,1,0,0,1,2,0v1A1,1,0,0,1,75.5,41.5Zm0-4a1,1,0,0,1-1-1V36a1,1,0,0,1,2,0v0.5A1,1,0,0,1,75.5,37.5ZM47,69.73a1,1,0,0,1-.31,0l-0.48-.15a1,1,0,1,1,.62-1.9l0.48,0.15A1,1,0,0,1,47,69.73Zm-3.52-1.14a1,1,0,0,1-.31,0l-1-.33a1,1,0,1,1,.62-1.9l1,0.33A1,1,0,0,1,43.44,68.58Zm-4.06-1.32a1,1,0,0,1-.31,0l-1-.33a1,1,0,0,1,.62-1.9l1,0.33A1,1,0,0,1,39.39,67.27Zm-4.06-1.32a1,1,0,0,1-.31,0l-0.48-.15a1,1,0,0,1,.62-1.9L35.64,64A1,1,0,0,1,35.33,65.95ZM104,69.73a1,1,0,0,1-.31-2l0.48-.15a1,1,0,0,1,.62,1.9l-0.48.15A1,1,0,0,1,104,69.73Zm3.52-1.14a1,1,0,0,1-.31-2l1-.33a1,1,0,1,1,.62,1.9l-1,.33A1,1,0,0,1,107.56,68.58Zm4.06-1.32a1,1,0,0,1-.31-2l1-.33a1,1,0,1,1,.62,1.9l-1,.33A1,1,0,0,1,111.61,67.27Zm4.06-1.32a1,1,0,0,1-.31-2l0.48-.15a1,1,0,0,1,.62,1.9L116,65.9A1,1,0,0,1,115.67,65.95Zm-58.1,37.73a1,1,0,0,1-.81-1.59l0.29-.4a1,1,0,0,1,1.62,1.18l-0.29.4A1,1,0,0,1,57.57,103.67ZM50.14,113.9a1,1,0,0,1-.81-1.59l0.62-.85a1,1,0,0,1,1.62,1.18l-0.62.85A1,1,0,0,1,50.14,113.9Zm2.48-3.41a1,1,0,0,1-.81-1.59l0.62-.85A1,1,0,1,1,54,109.23l-0.62.85A1,1,0,0,1,52.62,110.49Zm2.48-3.41a1,1,0,0,1-.81-1.59l0.62-.85a1,1,0,0,1,1.62,1.18l-0.62.85A1,1,0,0,1,55.1,107.08ZM48,116.86a1,1,0,0,1-.81-1.59l0.29-.4A1,1,0,0,1,49.1,116l-0.29.4A1,1,0,0,1,48,116.86Zm45.43-13.19a1,1,0,0,1-.81-0.41l-0.29-.4a1,1,0,0,1,1.62-1.18l0.29,0.4A1,1,0,0,1,93.43,103.67ZM100.94,114a1,1,0,0,1-.81-0.41l-0.63-.86a1,1,0,0,1,1.62-1.18l0.63,0.86A1,1,0,0,1,100.94,114Zm-2.5-3.45a1,1,0,0,1-.81-0.41L97,109.29a1,1,0,0,1,1.62-1.18L99.24,109A1,1,0,0,1,98.43,110.57Zm-2.5-3.45a1,1,0,0,1-.81-0.41l-0.63-.86a1,1,0,0,1,1.62-1.18l0.63,0.86A1,1,0,0,1,95.93,107.12Zm7.18,9.88a1,1,0,0,1-.81-0.41l-0.29-.4a1,1,0,1,1,1.62-1.17l0.29,0.4A1,1,0,0,1,103.11,117Z"/>
</svg>
