<svg id="Layer_1" data-name="Layer 1" xmlns="http://www.w3.org/2000/svg" width="100" height="100" viewBox="0 0 100 100">
  <defs>
    <style>
      .cls-1 {
        fill: none;
      }

      .cls-2 {
        fill: #fff;
      }
    </style>
  </defs>
  <title>Untitled-2</title>
  <g>
    <rect class="cls-1" x="10" y="10" width="80" height="80"/>
    <g>
      <path class="cls-2" d="M75,86.34a13.54,13.54,0,0,1-3.5-.46,13.4,13.4,0,0,1-8.19-6.29l-3.47-6a13.32,13.32,0,0,1-1.53.31,13.53,13.53,0,0,1-8.65,5,13.5,13.5,0,0,1-22.29-1.61l-5-8.67-7.47-13-0.15-.27A28.47,28.47,0,0,1,64,26.89C64.11,27,64.11,27,86.7,66.1A13.5,13.5,0,0,1,75,86.34Z"/>
      <path class="cls-2" d="M40,16.16A25.84,25.84,0,0,1,61.91,28.23L84.53,67.35A11,11,0,0,1,75,83.84a11,11,0,0,1-2.85-.38,10.92,10.92,0,0,1-6.68-5.12L61,70.52a11,11,0,0,1-4,1,11,11,0,0,1-8.65,5A11,11,0,0,1,29.55,76l-5-8.67,0,0L17.07,54.38,17,54.19a26,26,0,0,1,23-38m0-5A31,31,0,0,0,12.54,56.51l0.2,0.37,7.44,12.92,0,0,5,8.7A16,16,0,0,0,51,81.19,16,16,0,0,0,58.92,77l2.24,3.88a16,16,0,0,0,27.7-16C66.25,25.74,66.25,25.74,66.14,25.56A30.83,30.83,0,0,0,40,11.16h0Z"/>
    </g>
    <path d="M84.53,67.35L61.91,28.23A26,26,0,0,0,17,54.19l0.1,0.19,7.45,12.93,0,0,5,8.67a11,11,0,0,0,18.75.49,11,11,0,0,0,8.65-5,11,11,0,0,0,4-1l4.51,7.82a10.92,10.92,0,0,0,6.68,5.12,11,11,0,0,0,8.34-1.1A11,11,0,0,0,84.53,67.35ZM28.61,60.41c0,0.15-.07.31-0.1,0.47l-5.64-9.8A19.31,19.31,0,0,1,56.27,31.79h0c0.15,0.23.29,0.46,0.43,0.71a19.21,19.21,0,0,1,2.42,7.08A19.45,19.45,0,0,1,56.71,51.8l-0.06.11-0.15.27a19.26,19.26,0,0,1-1.88,2.58l-0.07.09a4.33,4.33,0,0,1-6.43-5.79,10.68,10.68,0,0,0,1.11-12.23h0c-0.09-.16-0.24-0.39-0.49-0.77a10.71,10.71,0,0,0-14.06-3.13,0.67,0.67,0,1,0,.67,1.15A9.37,9.37,0,0,1,47.61,36.8l0.45,0.7a9.21,9.21,0,0,1,1.13,6.1,9.33,9.33,0,0,1-2.1,4.59,5.65,5.65,0,0,0-1.36,3.9,5.66,5.66,0,0,0-8.66,5A5.66,5.66,0,0,0,28.61,60.41ZM43.25,71.65a4.33,4.33,0,0,1-7.93,1l-5-8.65a4.33,4.33,0,0,1,3.74-6.49,4.36,4.36,0,0,1,1.13.15,4.3,4.3,0,0,1,2.63,2l5,8.65A4.3,4.3,0,0,1,43.25,71.65Zm8.65-5a4.33,4.33,0,0,1-7.93,1L39,59a4.33,4.33,0,0,1,7.5-4.33l5,8.65A4.3,4.3,0,0,1,51.9,66.65Zm6.63-2.37a4.33,4.33,0,0,1-5.91-1.58l-3.17-5.49,0.46,0.15a5.66,5.66,0,0,0,5.6-1.6l0.11-.12a20.7,20.7,0,0,0,1.64-2.21l2.86,5A4.33,4.33,0,0,1,58.53,64.29ZM79.19,74a4.33,4.33,0,0,1-7.93,1l-10-17.3h0L58,52.12a20.78,20.78,0,0,0,2.4-12.72c0-.2-0.06-0.4-0.09-0.59L78.76,70.68A4.3,4.3,0,0,1,79.19,74Z"/>
  </g>
</svg>
