<svg id="Layer_1" data-name="Layer 1" xmlns="http://www.w3.org/2000/svg" width="150" height="150" viewBox="0 0 150 150">
  <defs>
    <style>
      .cls-1 {
        fill: white;
      }

      .cls-2 {
        fill: #333;
      }
    </style>
  </defs>
  <title>walkthru</title>
  <g>
    <circle class="cls-1" cx="75" cy="75" r="75"/>
    <path class="cls-2" d="M112.06,64.41a37.06,37.06,0,1,0-44.44,36.32c0,0.24,0,.49,0,0.74v13.77a7.41,7.41,0,0,0,14.83,0V101.47c0-.25,0-0.5,0-0.74A37.13,37.13,0,0,0,112.06,64.41ZM75,90.88a26.47,26.47,0,1,1,26.47-26.47A26.5,26.5,0,0,1,75,90.88ZM59.12,68.12a3.71,3.71,0,0,1-3.71-3.71A19.61,19.61,0,0,1,75,44.82a3.71,3.71,0,1,1,0,7.41A12.19,12.19,0,0,0,62.82,64.41,3.71,3.71,0,0,1,59.12,68.12Z"/>
  </g>
</svg>
