<svg id="Layer_1" data-name="Layer 1" xmlns="http://www.w3.org/2000/svg" width="150" height="150" viewBox="0 0 150 150">
  <defs>
    <style>
      .cls-1 {
        fill: white;
      }

      .cls-2 {
        fill: #333;
      }
    </style>
  </defs>
  <title>walkthru</title>
  <g>
    <circle class="cls-1" cx="75" cy="75" r="75"/>
    <path class="cls-2" d="M75,117.36A42.36,42.36,0,1,1,117.36,75,42.41,42.41,0,0,1,75,117.36ZM75,38.8A36.2,36.2,0,1,0,111.2,75,36.24,36.24,0,0,0,75,38.8Zm26.19,41.59L77.77,57,76.69,55.9a18,18,0,0,0-11.4-4A18.42,18.42,0,0,0,51.59,82.7L64.68,95.95a7.34,7.34,0,0,0,5.24,2.16A6.74,6.74,0,0,0,75,95.95a7.34,7.34,0,0,0,1.85-3.39,6.66,6.66,0,0,0,3.39-1.85,7.34,7.34,0,0,0,1.85-3.39,6.66,6.66,0,0,0,3.39-1.85l5.24,5.24a7.44,7.44,0,0,0,10.47,0A7.16,7.16,0,0,0,101.19,80.39Zm-46.36-.62A14.07,14.07,0,0,1,74.69,59.91l0.46,0.46a15.38,15.38,0,0,1,3.08,4.47,14.08,14.08,0,0,1,.62,9.09v0.31a8.91,8.91,0,0,1-.77,2.16c-0.15.31-.31,0.46-0.46,0.77a3,3,0,0,1-4.78-3.39,8.29,8.29,0,0,0,.77-4.31,8.64,8.64,0,0,0-2.31-4.93l-0.46-.46a8.23,8.23,0,0,0-10.94.46A0.76,0.76,0,1,0,61,65.6a6.64,6.64,0,0,1,8.93-.46l0.46,0.46a6.47,6.47,0,0,1,1.85,4,6.92,6.92,0,0,1-.62,3.54,4.35,4.35,0,0,0-.31,2.77,4.48,4.48,0,0,0-5.24,5.24,4.4,4.4,0,0,0-4,1.23,4.21,4.21,0,0,0-1.23,2.93Zm17.1,13.09a3.08,3.08,0,0,1-4.16,0l-5.24-5.24a2.94,2.94,0,1,1,4.16-4.16l5.24,5.24A3.08,3.08,0,0,1,71.92,92.87Zm5.24-5.24a3.08,3.08,0,0,1-4.16,0l-5.24-5.24a2.94,2.94,0,0,1,4.16-4.16l5.24,5.24A2.8,2.8,0,0,1,77.16,87.63Zm5.24-5.24a3.08,3.08,0,0,1-4.16,0l-2.93-2.93a4.21,4.21,0,0,0,2.93-1.23A2.76,2.76,0,0,0,79,77.16V77a6.44,6.44,0,0,0,.62-1.54l2.77,2.77A3.08,3.08,0,0,1,82.39,82.39ZM98.1,87.63a3.08,3.08,0,0,1-4.16,0L83.47,77.16l-3.23-3.23a17,17,0,0,0-.46-8.78L98.1,83.47A3.08,3.08,0,0,1,98.1,87.63Z"/>
  </g>
</svg>
