<svg id="Layer_1" data-name="Layer 1" xmlns="http://www.w3.org/2000/svg" width="150" height="150" viewBox="0 0 150 150">
  <defs>
    <style>
      .cls-1 {
        fill: white;
      }

      .cls-2 {
        fill: #333;
      }
    </style>
  </defs>
  <title>walkthru</title>
  <g>
    <circle class="cls-1" cx="75" cy="75" r="75"/>
    <path class="cls-2" d="M112.15,73.17l-33.3-33.3-1.53-1.53a25.66,25.66,0,0,0-16.21-5.7,26.2,26.2,0,0,0-19.5,43.81L60.23,95.29a10.43,10.43,0,0,0,7.45,3.07,9.58,9.58,0,0,0,7.23-3.07,10.44,10.44,0,0,0,2.63-4.82,9.47,9.47,0,0,0,4.82-2.63A10.44,10.44,0,0,0,85,83,9.47,9.47,0,0,0,89.8,80.4l7.45,7.45a10.58,10.58,0,0,0,14.9,0A10.19,10.19,0,0,0,112.15,73.17Zm-65.94-.88A20,20,0,0,1,74.47,44l0.66,0.66A21.88,21.88,0,0,1,79.51,51,20,20,0,0,1,80.38,64v0.44a12.67,12.67,0,0,1-1.1,3.07c-0.22.44-.44,0.66-0.66,1.1a4.23,4.23,0,0,1-6.79-4.82,11.8,11.8,0,0,0,1.1-6.13,12.29,12.29,0,0,0-3.29-7L69,49.95a11.71,11.71,0,0,0-15.55.66A1.08,1.08,0,0,0,55,52.14a9.44,9.44,0,0,1,12.71-.66l0.66,0.66A9.21,9.21,0,0,1,71,57.83a9.85,9.85,0,0,1-.88,5,6.19,6.19,0,0,0-.44,3.94,6.37,6.37,0,0,0-7.45,7.45A6.26,6.26,0,0,0,56.51,76a6,6,0,0,0-1.75,4.16ZM70.53,90.91a4.38,4.38,0,0,1-5.91,0l-7.45-7.45a4.18,4.18,0,1,1,5.91-5.91L70.53,85A4.38,4.38,0,0,1,70.53,90.91ZM78,83.46a4.38,4.38,0,0,1-5.91,0L64.61,76a4.18,4.18,0,0,1,5.91-5.91L78,77.55A4,4,0,0,1,78,83.46ZM85.42,76a4.38,4.38,0,0,1-5.91,0l-4.16-4.16a6,6,0,0,0,4.16-1.75,3.93,3.93,0,0,0,1.1-1.53V68.35a9.15,9.15,0,0,0,.88-2.19l3.94,3.94A4.38,4.38,0,0,1,85.42,76Zm22.34,7.45a4.38,4.38,0,0,1-5.91,0L87,68.57,82.36,64a24.11,24.11,0,0,0-.66-12.49l26.07,26.07A4.38,4.38,0,0,1,107.77,83.46Zm-3.35,30.36c0,1.95-13.17,3.53-29.42,3.53s-29.42-1.58-29.42-3.53S58.75,110.3,75,110.3,104.42,111.88,104.42,113.83Z"/>
  </g>
</svg>
