<?xml version="1.0" encoding="utf-8"?>
<!-- Generator: Adobe Illustrator 22.0.1, SVG Export Plug-In . SVG Version: 6.00 Build 0)  -->
<svg version="1.1"
	 id="svg1936" inkscape:version="0.91 r13725" sodipodi:docname="Amazon logo without .com.svg" xmlns:cc="http://creativecommons.org/ns#" xmlns:dc="http://purl.org/dc/elements/1.1/" xmlns:inkscape="http://www.inkscape.org/namespaces/inkscape" xmlns:rdf="http://www.w3.org/1999/02/22-rdf-syntax-ns#" xmlns:sodipodi="http://sodipodi.sourceforge.net/DTD/sodipodi-0.dtd" xmlns:svg="http://www.w3.org/2000/svg"
	 xmlns="http://www.w3.org/2000/svg" xmlns:xlink="http://www.w3.org/1999/xlink" x="0px" y="0px" viewBox="0 0 602.3 181.5"
	 style="enable-background:new 0 0 602.3 181.5;" xml:space="preserve">
<style type="text/css">
	.st0{fill:#FF9900;}
	.st1{fill:#221F1F;}
</style>
<path class="st0" d="M373.6,141.9c-35,25.8-85.7,39.6-129.4,39.6c-61.2,0-116.4-22.7-158.1-60.3c-3.3-3-0.3-7,3.6-4.7
	c45,26.2,100.7,41.9,158.2,41.9c38.8,0,81.4-8,120.6-24.7C374.5,131.2,379.4,137.6,373.6,141.9 M388.2,125.3
	c-4.5-5.7-29.6-2.7-40.8-1.4c-3.4,0.4-4-2.6-0.9-4.7c20-14.1,52.8-10,56.7-5.3c3.8,4.7-1,37.6-19.8,53.4c-2.9,2.4-5.6,1.1-4.4-2.1
	C383.2,154.7,392.7,131,388.2,125.3"/>
<path class="st1" d="M348.1,19.8V6.1c0-2.1,1.6-3.5,3.5-3.5h61.3c2,0,3.5,1.4,3.5,3.5v11.7c0,2-1.7,4.5-4.6,8.6L380,71.8
	c11.8-0.3,24.3,1.5,34.9,7.5c2.4,1.4,3.1,3.4,3.3,5.3v14.6c0,2-2.2,4.3-4.5,3.1c-18.8-9.9-43.9-11-64.7,0.1
	c-2.1,1.2-4.4-1.2-4.4-3.1V85.4c0-2.2,0-6,2.3-9.4l36.8-52.7h-32C349.7,23.3,348.1,21.9,348.1,19.8 M124.6,105.2H106
	c-1.8-0.1-3.2-1.5-3.3-3.2V6.4c0-1.9,1.6-3.4,3.6-3.4h17.4c1.8,0.1,3.3,1.5,3.4,3.2v12.5h0.3c4.5-12.1,13.1-17.7,24.5-17.7
	c11.7,0,19,5.6,24.2,17.7c4.5-12.1,14.8-17.7,25.7-17.7c7.8,0,16.4,3.2,21.6,10.5c5.9,8,4.7,19.7,4.7,30l0,60.4
	c0,1.9-1.6,3.5-3.6,3.5h-18.6c-1.9-0.1-3.4-1.6-3.4-3.5V51c0-4,0.4-14.1-0.5-17.9c-1.4-6.4-5.6-8.2-11-8.2c-4.5,0-9.2,3-11.1,7.8
	s-1.7,12.9-1.7,18.3v50.7c0,1.9-1.6,3.5-3.6,3.5H156c-1.9-0.1-3.4-1.6-3.4-3.5l0-50.7c0-10.7,1.8-26.4-11.5-26.4
	c-13.4,0-12.9,15.3-12.9,26.4v50.7C128.2,103.7,126.6,105.2,124.6,105.2 M469.2,0.9c27.7,0,42.6,23.8,42.6,54
	c0,29.2-16.5,52.3-42.6,52.3c-27.2,0-41.9-23.8-41.9-53.4C427.2,24.1,442.2,0.9,469.2,0.9 M469.3,20.4c-13.7,0-14.6,18.7-14.6,30.4
	c0,11.7-0.2,36.7,14.4,36.7c14.4,0,15.1-20.1,15.1-32.4c0-8.1-0.3-17.7-2.8-25.4C479.4,23,475.2,20.4,469.3,20.4 M547.6,105.2h-18.6
	c-1.9-0.1-3.4-1.6-3.4-3.5l0-95.7c0.2-1.8,1.7-3.1,3.6-3.1h17.3c1.6,0.1,3,1.2,3.3,2.7v14.6h0.3c5.2-13.1,12.5-19.3,25.4-19.3
	c8.4,0,16.5,3,21.8,11.3c4.9,7.7,4.9,20.5,4.9,29.8v60.2c-0.2,1.7-1.8,3-3.6,3H580c-1.7-0.1-3.1-1.4-3.3-3v-52
	c0-10.5,1.2-25.8-11.7-25.8c-4.5,0-8.7,3-10.8,7.7c-2.6,5.8-3,11.7-3,18.1v51.5C551.3,103.7,549.6,105.2,547.6,105.2 M332.5,87.7
	c-3.4-4.7-7-8.5-7-17.3v-29c0-12.3,0.9-23.6-8.2-32.1c-7.2-6.9-19-9.3-28.1-9.3c-17.7,0-37.5,6.6-41.7,28.5
	c-0.4,2.3,1.3,3.6,2.8,3.9l18.1,1.9c1.7-0.1,2.9-1.7,3.3-3.4c1.5-7.6,7.9-11.2,15-11.2c3.9,0,8.2,1.4,10.5,4.9
	c2.6,3.8,2.3,9.1,2.3,13.5v2.4c-10.8,1.2-24.9,2-35.1,6.5c-11.7,5-19.9,15.3-19.9,30.5c0,19.4,12.2,29,27.9,29
	c13.2,0,20.5-3.1,30.7-13.6c3.4,4.9,4.5,7.3,10.7,12.4c1.4,0.7,3.2,0.7,4.4-0.4l0,0.1c3.7-3.3,10.5-9.2,14.3-12.4
	C333.9,91.4,333.7,89.3,332.5,87.7z M295.8,79.3c-3,5.2-7.7,8.5-12.9,8.5c-7.2,0-11.4-5.5-11.4-13.5c0-15.9,14.2-18.8,27.7-18.8v4
	l0,0C299.3,66.8,299.5,72.8,295.8,79.3z M88.1,88.6c-3.4-4.7-7-8.5-7-17.3v-29c0-12.3,0.9-23.6-8.2-32.1c-7.2-6.9-19-9.3-28.1-9.3
	C27.1,0.9,7.3,7.5,3.1,29.4c-0.4,2.3,1.3,3.6,2.8,3.9L24,35.3c1.7-0.1,2.9-1.7,3.2-3.4c1.5-7.6,7.9-11.2,15-11.2
	c3.8,0,8.2,1.4,10.5,4.9c2.6,3.8,2.3,9.1,2.3,13.5v2.4c-10.8,1.2-24.9,2-35.1,6.5C8.2,53,0,63.3,0,78.4c0,19.4,12.2,29,27.9,29
	c13.3,0,20.5-3.1,30.7-13.6c3.4,4.9,4.5,7.3,10.7,12.4c1.4,0.7,3.2,0.7,4.4-0.4l0.1,0.1c3.7-3.3,10.5-9.2,14.3-12.4
	C89.6,92.3,89.3,90.3,88.1,88.6z M51.4,79.3c-3,5.2-7.7,8.5-12.9,8.5c-7.2,0-11.3-5.5-11.3-13.5c0-15.9,14.2-18.8,27.7-18.8v4
	C54.9,66.8,55.1,72.8,51.4,79.3z"/>
</svg>
