<?xml version="1.0" encoding="utf-8"?>
<!-- Generator: Adobe Illustrator 22.0.1, SVG Export Plug-In . SVG Version: 6.00 Build 0)  -->
<svg version="1.1" id="Layer_1" xmlns="http://www.w3.org/2000/svg" xmlns:xlink="http://www.w3.org/1999/xlink" x="0px" y="0px"
	 viewBox="0 0 807 556.1" style="enable-background:new 0 0 807 556.1;" xml:space="preserve">
<style type="text/css">
	.st0{fill:#010101;}
	.st1{fill:#F6EB16;}
	.st2{fill:#FFFFFF;}
</style>
<g>
	<polygon class="st0" points="19,132.5 188.5,0 807,59.1 760.2,556.1 140.6,498 0,333.5 	"/>
	<polygon class="st1" points="29.2,137.6 192.5,11.3 795.7,69.2 751,544.8 145.8,486.8 10.2,329.5 	"/>
	<polygon class="st0" points="308.2,115.2 445.1,128.3 441.2,169.3 379.5,163.4 378.3,176.6 434.5,182 430.9,219.6 375,214.3 
		373.6,229.2 436.6,235.2 432.9,274.2 295,261 	"/>
	<path class="st0" d="M465.6,226l-25.9,38.2c0,0,32.5,17.5,77.7,21.4c45.1,4,78.1-8.9,88.7-30.5c10.6-21.5-2.1-46-23-52.8
		c-20.9-6.8-57.1-14-53.4-21.2c3.8-7.1,26.5-5.7,40.3,0.1c13.8,5.8,17.6,9.2,17.6,9.2l23.8-34c0,0-25.3-18.5-72.5-21.3
		c-47.3-2.8-82,20.9-84.5,42.9c-2.4,22,11.7,35,33.2,42.8c0,0,18.2,5.9,32,8.9c13.7,3,22.5,12.1,6.1,15.3
		C509.2,248.3,475.5,236.2,465.6,226z"/>
	<polygon class="st0" points="653.7,196.4 613.4,192.6 617.9,145.1 773.1,159.9 768.6,207.4 728.3,203.5 718.9,302.1 645.3,295.1 	
		"/>
	<path class="st0" d="M319.7,281.8l71.2,6.4l-7.6,82.7c0,0-7,19.8,16.7,22.1c23.7,2.3,22.7-19.1,22.7-19.1l7.8-81.7l71.5,6.8
		l-9.2,96.3c0,0-8.4,52.5-95.9,44.2c-87.4-8.3-86.2-63.6-86.2-63.6L319.7,281.8z"/>
	<polygon class="st0" points="584,307.1 604.4,347.3 630.8,311.5 713.8,319.4 636.4,396.2 630.4,458.9 557.5,451.9 563.4,390.2 
		501.3,299.5 	"/>
	<g>
		<path class="st0" d="M273.7,349.3c0,0,30-5.9,29.2-36.5c-0.8-30.7-62-38.3-62-38.3l-101-10l-13.8,146.3c0,0,80.6,8.5,104.1,10.4
			c23.5,1.9,70.8-0.1,75.5-30.4C310.3,360.5,273.7,349.3,273.7,349.3z M204.7,307.4c0,0,31-2.9,29.3,11.7c-1.7,14.5-31.2,8-31.2,8
			L204.7,307.4z M198.2,382l1.6-23.8c0,0,38.8-1.5,37.5,15.2S198.2,382,198.2,382z"/>
	</g>
	<g>
		<path class="st0" d="M258.9,181.7c0,0,30-5.9,29.2-36.5c-0.8-30.6-62-38.3-62-38.3l-101.1-10l-13.8,146.3c0,0,80.6,8.5,104.1,10.3
			c23.5,1.9,70.8-0.1,75.5-30.3C295.6,192.9,258.9,181.7,258.9,181.7z M190.6,140.2c0,0,31.1-2.8,29.3,11.7c-1.7,14.5-31.2,8-31.2,8
			L190.6,140.2z M184.1,214.8l1.6-23.8c0,0,38.8-1.4,37.5,15.2C222,222.9,184.1,214.8,184.1,214.8z"/>
	</g>
</g>
<path class="st0" d="M89.8,244.4c-1.4,15.1-14.8,26.2-29.9,24.7c-15.1-1.4-26.2-14.9-24.7-30c1.5-15.1,14.9-26.1,30-24.7
	C80.2,215.9,91.3,229.3,89.8,244.4z"/>
<path class="st2" d="M79.8,243.4c-0.9,9.5-9.4,16.5-18.9,15.6c-9.5-0.9-16.5-9.4-15.6-18.9c0.9-9.5,9.4-16.5,18.9-15.6
	C73.7,225.4,80.7,233.9,79.8,243.4z"/>
<g>
	<path class="st0" d="M714.3,333.8c0.6-6.5,6.4-11.2,12.9-10.6c6.5,0.6,11.3,6.4,10.7,12.9c-0.6,6.5-6.4,11.2-12.9,10.6
		C718.5,346,713.7,340.3,714.3,333.8z M735,335.8c0.5-5.5-3.1-9.9-8-10.3c-4.9-0.5-9.3,3.1-9.8,8.6c-0.5,5.5,3.1,9.9,8,10.3
		C730.1,344.8,734.4,341.3,735,335.8z M722.2,327.8l4.9,0.5c3.2,0.3,4.8,1.6,4.6,4.4c-0.2,2.3-1.6,3.3-3.8,3.3l3,6.2l-2.6-0.2
		l-2.9-6.1l-1.5-0.1l-0.5,5.7l-2.5-0.2L722.2,327.8z M724.1,333.7l2.2,0.2c1.5,0.1,2.8,0.1,2.9-1.7c0.2-1.5-1.2-1.9-2.5-2.1
		l-2.2-0.2L724.1,333.7z"/>
</g>
</svg>
