<?xml version="1.0" encoding="utf-8"?>
<!-- Generator: Adobe Illustrator 22.0.1, SVG Export Plug-In . SVG Version: 6.00 Build 0)  -->
<svg version="1.1" id="Layer_1" xmlns="http://www.w3.org/2000/svg" xmlns:xlink="http://www.w3.org/1999/xlink" x="0px" y="0px"
	 viewBox="0 0 349.9 310.6" style="enable-background:new 0 0 349.9 310.6;" xml:space="preserve">
<style type="text/css">
	.st0{fill:#FDE50D;}
	.st1{fill:#0E0E02;}
	.st2{fill:#231F20;}
</style>
<path class="st0" d="M173.2,201.6c-12.3-12.6-24.7-25.2-37-37.8c-16.6-17-33.3-34.1-49.9-51.2c-3.6-3.7-7.1-7.5-10.9-11.6
	c34.5-33.5,68.9-67,103.8-101c33.7,34.7,67.3,69.2,100.6,103.4c-5.3,5.5-10.1,10.7-15.2,15.8c-7.1,7.1-14.3,14-21.4,21
	c-13.8,13.5-27.6,27-41.5,40.5c-7.3,7-14.7,13.9-22.1,20.9c0.2-7.3,0.3-14.6,0.6-21.9c0.5-16.5,1-32.9,1.5-49.4
	c0.1-3.3-0.3-7.1,1.1-9.8c2.8-5.3,3.6-11,4.3-16.7c0.4-3.3,1.8-4.7,4.9-5.1c3.9-0.5,7.7,1.5,9.4,5.2c0.5,1.1,0.9,2.3,1.7,4.3
	c2-2.4,3.9-4.1,5-6.3c1.6-3.4-0.1-6.7-1.6-10c2.9-0.6,5.4-1.2,7.9-1.7c-1.7-7.5-6-10.3-16.3-10.7c2.8-3.6,3.7-3.9,10-2.7
	c-0.9-2.2-1.6-4-2.3-5.9c3.9-1.6,7.2,0,10.9,2c-1.3-5.8-4.6-9.2-9.4-10.8c-8.5-3-16.5-1.6-23.7,4.4c1-2.7,2.3-4.9,3.8-7.1
	c1.4-2.1,3.1-4,4.7-6.1c-1.6-0.2-4-0.4-7-0.7c1.3-2.5,2.4-4.6,3.5-6.6c-6.6-1.4-14.3,2-17.7,5.2c-5.9,5.6-6.7,12.6-5.1,20.7
	c-8.4-7.1-17-8.9-26.3-4.1c-5.4,2.7-7.8,7-7.2,11.5c3-2.7,6.2-4.6,10.7-3.1c-1.2,2.4-2.4,4.6-3.6,6.9c5-2.6,9.5-3.8,14.3,0.5
	c-4.9,1.7-9.7,3.2-12.6,7.7c-3.4,5.3-3.5,9.7,0,14.2c1.3-3.5,3.6-5.7,7.6-6.4c0,3.8,1.2,6.6,5.2,7.7c0.3-1.1,0.4-2.1,0.8-3
	c1.7-4.1,5.7-6.1,10.2-5.2c3.7,0.8,4.1,1.9,4.7,7.5c0.4,4.2,1.8,8.4,2.7,12.5c0.4,1.9,1.2,3.8,1.2,5.7c0.1,16,0,32,0,48
	C173.5,181.9,173.3,191.7,173.2,201.6z"/>
<path class="st1" d="M173.2,201.6c0.1-9.8,0.3-19.7,0.3-29.5c0.1-16,0.1-32,0-48c0-1.9-0.8-3.8-1.2-5.7c-0.9-4.2-2.3-8.3-2.7-12.5
	c-0.6-5.6-0.9-6.7-4.7-7.5c-4.5-0.9-8.5,1.1-10.2,5.2c-0.4,0.9-0.5,1.9-0.8,3c-4-1.1-5.2-3.9-5.2-7.7c-4,0.6-6.3,2.9-7.6,6.4
	c-3.5-4.5-3.4-8.9,0-14.2c2.9-4.5,7.6-6,12.6-7.7c-4.9-4.2-9.3-3-14.3-0.5c1.2-2.3,2.3-4.5,3.6-6.9c-4.5-1.5-7.7,0.4-10.7,3.1
	c-0.6-4.6,1.9-8.8,7.2-11.5c9.4-4.8,18-3,26.3,4.1c-1.6-8.1-0.8-15.2,5.1-20.7c3.4-3.2,11.1-6.6,17.7-5.2c-1.1,2-2.2,4.1-3.5,6.6
	c3,0.3,5.4,0.5,7,0.7c-1.6,2-3.2,4-4.7,6.1s-2.7,4.4-3.8,7.1c7.2-6,15.2-7.3,23.7-4.4c4.8,1.7,8.1,5.1,9.4,10.8
	c-3.7-2-7.1-3.6-10.9-2c0.7,1.9,1.5,3.7,2.3,5.9c-6.3-1.2-7.1-0.9-10,2.7c10.4,0.4,14.6,3.2,16.3,10.7c-2.5,0.5-5,1.1-7.9,1.7
	c1.6,3.4,3.2,6.7,1.6,10c-1,2.1-3,3.8-5,6.3c-0.8-2-1.2-3.1-1.7-4.3c-1.7-3.6-5.4-5.7-9.4-5.2c-3.2,0.4-4.5,1.8-4.9,5.1
	c-0.7,5.8-1.5,11.4-4.3,16.7c-1.4,2.7-1,6.5-1.1,9.8c-0.6,16.5-1,32.9-1.5,49.4c-0.2,7.3-0.4,14.6-0.6,21.9
	c-0.9,1.1-1.8,2.1-3.1,3.6C175.3,203.8,174.3,202.7,173.2,201.6z"/>
<g>
	<path class="st2" d="M0.6,287.8H17c4.1,0,6.9,0.7,8.5,2c1.6,1.4,2.4,3.5,2.4,6.5c0,3.3-0.8,5.5-2.4,6.6s-4.5,1.6-8.9,1.6H9.3v5.8
		H0.6V287.8z M9.3,293v6.3h5.9c1.7,0,2.7-0.2,3.1-0.5c0.5-0.4,0.7-1.3,0.7-2.7c0-1.3-0.3-2.1-0.8-2.5s-1.4-0.6-2.7-0.6L9.3,293
		L9.3,293z"/>
	<path class="st2" d="M31.5,287.8h8.7v22.6h-8.7V287.8z"/>
	<path class="st2" d="M43.8,310.4v-5.1L59.1,293H44.8v-5.2h25.4v5l-15.6,12.3h15.6v5.2H43.8V310.4z"/>
	<path class="st2" d="M72.3,310.4v-5.1L87.6,293H73.3v-5.2h25.4v5l-15.6,12.3h15.6v5.2H72.3V310.4z"/>
	<path class="st2" d="M99.4,310.4l9.8-22.6h13.1l9.8,22.6h-8.8l-1.7-3.9H110l-1.6,3.9H99.4z M111.9,302.1h8l-4.1-9.8L111.9,302.1z"
		/>
	<path class="st2" d="M149.9,287.8h8.7v8.5h2.4l8.5-8.5h10.4l-11.5,11.1l12.4,11.4h-10.7l-9.2-8.8h-2.4v8.8h-8.7v-22.5H149.9z"/>
	<path class="st2" d="M182.4,287.8h8.7v22.6h-8.7V287.8z"/>
	<path class="st2" d="M193.8,287.8h25.6v5.2h-8.5v17.3h-8.7V293h-8.5L193.8,287.8L193.8,287.8z"/>
	<path class="st2" d="M240.6,301.9h8.9v1.3c0,2.5-0.9,4.4-2.7,5.6s-4.7,1.8-8.8,1.8h-5.2c-4,0-7-0.6-8.9-1.9s-2.9-3.4-2.9-6.3v-6.5
		c0-3.1,1.1-5.2,3.3-6.5s6.2-1.9,12.1-1.9c5.2,0,8.7,0.5,10.5,1.5s2.7,2.9,2.7,5.7v1h-8.9v-0.4c0-1-0.4-1.7-1.1-2
		c-0.7-0.4-2.1-0.6-4.1-0.6c-2.3,0-3.8,0.3-4.5,0.8s-1,1.6-1,3.2v4.3c0,1.8,0.4,2.9,1.1,3.5c0.7,0.5,2.2,0.8,4.5,0.8
		c2.1,0,3.4-0.2,4.1-0.6c0.7-0.4,1-1.1,1-2.3v-0.5H240.6z"/>
	<path class="st2" d="M253.7,287.8h8.7v8.5h11.3v-8.5h8.7v22.6h-8.7v-8.8h-11.3v8.8h-8.7V287.8z"/>
	<path class="st2" d="M287.8,310.4v-22.6h23.5v4.9h-14.9v4.2h13.9v4.2h-13.9v4.4h15.1v4.9H287.8z"/>
	<path class="st2" d="M317.2,287.8h14.6l9.4,17.1v-17.1h8.7v22.6h-14.7l-9.3-16.9v16.9h-8.7V287.8z"/>
</g>
<g>
	<path class="st2" d="M31.5,265.3h6.4c0,0.8,0,1.4,0,1.9c0,4.5-1.4,7.6-4.2,9.4c-1.4,0.9-3.3,1.6-5.6,2s-5.4,0.6-9.1,0.6
		c-7.4,0-12.5-1.2-15.1-3.7c-1.7-1.7-2.8-4-3.3-7C0.2,265.9,0,263.1,0,260c0-3.6,0.2-6.5,0.6-8.5s1.2-3.8,2.2-5.2
		c2.5-3.5,7.8-5.2,15.8-5.2c6.3,0,10.7,0.7,13.4,2c2.8,1.4,4.5,3.8,5,7.3c0.1,0.8,0.2,1.9,0.2,3.4h-6.4c0-0.4,0-0.7,0-0.9
		c0-2.5-0.7-4.3-2.1-5.4c-0.8-0.6-2-1.1-3.7-1.3c-1.6-0.3-4-0.4-7-0.4c-5,0-8.2,0.9-9.5,2.7s-1.9,5.9-1.9,12.3
		c0,6.6,1.1,10.8,3.4,12.4c1.3,0.9,4.7,1.4,10.3,1.4c3.3,0,5.7-0.3,7.4-0.8c1.6-0.5,2.6-1.5,3.1-3C31.3,269.6,31.5,267.8,31.5,265.3
		z"/>
	<path class="st2" d="M53.6,252.1h-6.4c0.1-3.3,0.6-5.7,1.7-7.1c1.2-1.5,3.3-2.6,6.3-3.2c2.3-0.4,5.4-0.6,9.4-0.6
		c5.5,0,9.5,0.5,11.9,1.4c3.5,1.3,5.5,3.9,6,7.7c0.2,1.6,0.3,3,0.3,4v24.4h-6.4l0.5-4h-0.1c-1,1.3-2.2,2.2-3.6,2.9
		c-2.5,1.1-6.2,1.7-11.3,1.7c-3.5,0-6.3-0.2-8.3-0.7c-2.1-0.4-3.8-1.2-5.1-2.2c-2.1-1.6-3.2-4.4-3.2-8.3c0-2.2,0.4-4.2,1.1-5.9
		c0.7-1.7,1.7-3,3-3.7c2.4-1.5,6.7-2.2,12.8-2.2c4.8,0,8.5,0.4,11.1,1.3c1.3,0.4,2.3,1.3,3.1,2.5h0.1v-4.5c0-3.3-0.4-5.7-1.2-7.2
		c-0.6-1.2-2-2-4.1-2.4c-1.6-0.3-3.6-0.5-6.1-0.5c-5,0-8.2,0.5-9.7,1.4c-1.2,0.7-1.8,2.1-1.8,4C53.6,251.1,53.6,251.5,53.6,252.1z
		 M64.3,260.5c-5.5,0-9,0.6-10.6,1.7c-1.1,0.8-1.6,2.5-1.6,5.2c0,3,0.7,4.9,2.2,5.8c1.6,1,4.6,1.4,9.1,1.4c5.8,0,9.7-0.7,11.8-2.1
		c1.2-0.9,1.8-2.4,1.8-4.7c0-2.7-0.7-4.5-2-5.4C73.1,261.1,69.6,260.5,64.3,260.5z"/>
	<path class="st2" d="M101.3,225.9v52.7h-6.4v-52.7L101.3,225.9L101.3,225.9z"/>
	<path class="st2" d="M118.9,225.9v6.1h-6.4v-6.1H118.9z M118.9,241.7v36.9h-6.4v-36.9L118.9,241.7L118.9,241.7z"/>
	<path class="st2" d="M132,278.6v-32.4h-6.7v-4.5h6.7v-5.5c0-3.3,0.7-5.8,2.1-7.3c2.1-2.4,5.9-3.6,11.3-3.6c1.4,0,3.1,0.1,4.9,0.3
		v4.5c-2.1-0.2-3.8-0.3-5-0.3c-2.9,0-4.9,0.7-5.9,2c-0.6,0.8-0.9,2.1-0.9,3.8v6h11.9v4.5h-11.9v32.4H132V278.6z"/>
	<path class="st2" d="M175.3,241.2c3.8,0,6.7,0.2,8.9,0.6c2.2,0.4,3.9,1.1,5.3,2c2.2,1.5,3.6,3.9,4.2,7c0.5,2.8,0.7,5.9,0.7,9.4
		c0,5.8-0.6,10-1.7,12.4c-0.8,1.8-2,3.2-3.4,4.1c-1.5,1-3.5,1.6-6,2c-1.9,0.3-4.6,0.4-8.3,0.4c-4,0-7.1-0.2-9.2-0.6
		c-2.2-0.4-3.9-1.1-5.3-2c-2.2-1.6-3.6-3.9-4.2-7c-0.5-2.7-0.7-5.7-0.7-9.1c0-6.1,0.6-10.3,1.7-12.7c1.5-3.4,4.7-5.4,9.5-6.1
		C168.5,241.3,171.4,241.2,175.3,241.2z M174.7,245.8c-5,0-8.2,0.5-9.6,1.5c-1.4,1-2.2,2.7-2.5,5.2c-0.3,2.2-0.4,4.7-0.4,7.3
		c0,5.2,0.3,8.7,0.9,10.4c0.6,1.7,1.5,2.8,2.8,3.4c1.6,0.7,4.6,1,9,1c5.2,0,8.5-0.5,9.8-1.5s2.2-2.7,2.5-5.2
		c0.3-2.2,0.4-4.8,0.4-7.8c0-4.9-0.3-8.2-0.9-10c-0.6-1.7-1.5-2.8-2.8-3.4C182.3,246.1,179.3,245.8,174.7,245.8z"/>
	<path class="st2" d="M205,241.7h6.4l-0.6,4.2l0.1,0.1c1.4-1.9,2.9-3.2,4.6-3.9c2.2-0.9,4.9-1.4,8.1-1.4c4,0,7,0.8,9.1,2.5
		c2,1.6,3,4.2,3,7.8c0,0.6,0,1.5,0,2.7h-6.3c0-1.2,0-2.2,0-3c0-1.7-0.4-2.9-1.1-3.7c-1.1-1.2-3.2-1.8-6.2-1.8c-4.8,0-8,1.3-9.4,3.8
		c-0.8,1.4-1.2,3.8-1.2,7.2v22.1H205V241.7z"/>
	<path class="st2" d="M243,241.7h6.4l-0.2,5l0.2,0.1c0.7-1.4,1.5-2.4,2.4-3c2.5-1.8,6.6-2.7,12.2-2.7c7.3,0,12.1,1.6,14.3,4.8
		c1,1.4,1.5,4.3,1.5,8.7v24h-6.4V255c0-3.2-0.3-5.3-1-6.5c-1.1-1.9-4.2-2.9-9.2-2.9c-3.7,0-6.5,0.4-8.3,1.2c-2.8,1.2-4.4,3.3-5,6.1
		c-0.2,1.1-0.3,2.2-0.3,3.4v22.2H243V241.7z"/>
	<path class="st2" d="M297.9,225.9v6.1h-6.4v-6.1H297.9z M297.9,241.7v36.9h-6.4v-36.9L297.9,241.7L297.9,241.7z"/>
	<path class="st2" d="M315.9,252.1h-6.4c0.1-3.3,0.6-5.7,1.7-7.1c1.2-1.5,3.3-2.6,6.3-3.2c2.3-0.4,5.4-0.6,9.4-0.6
		c5.5,0,9.5,0.5,12,1.4c3.5,1.3,5.5,3.9,6,7.7c0.2,1.6,0.3,3,0.3,4v24.4h-6.4l0.5-4h-0.1c-1,1.3-2.2,2.2-3.6,2.9
		c-2.5,1.1-6.2,1.7-11.3,1.7c-3.5,0-6.3-0.2-8.3-0.7c-2.1-0.4-3.8-1.2-5.1-2.2c-2.1-1.6-3.2-4.4-3.2-8.3c0-2.2,0.4-4.2,1.1-5.9
		c0.7-1.7,1.7-3,3-3.7c2.4-1.5,6.7-2.2,12.8-2.2c4.8,0,8.5,0.4,11.1,1.3c1.3,0.4,2.3,1.3,3.1,2.5h0.1v-4.5c0-3.3-0.4-5.7-1.2-7.2
		c-0.6-1.2-2-2-4.1-2.4c-1.6-0.3-3.6-0.5-6.1-0.5c-5,0-8.2,0.5-9.7,1.4c-1.2,0.7-1.8,2.1-1.8,4C315.9,251.1,315.9,251.5,315.9,252.1
		z M326.6,260.5c-5.5,0-9,0.6-10.6,1.7c-1.1,0.8-1.6,2.5-1.6,5.2c0,3,0.7,4.9,2.2,5.8c1.6,1,4.6,1.4,9.1,1.4c5.8,0,9.7-0.7,11.8-2.1
		c1.2-0.9,1.8-2.4,1.8-4.7c0-2.7-0.7-4.5-2-5.4C335.4,261.1,331.9,260.5,326.6,260.5z"/>
</g>
</svg>
