<?xml version="1.0" encoding="utf-8"?>
<!-- Generator: Adobe Illustrator 22.0.1, SVG Export Plug-In . SVG Version: 6.00 Build 0)  -->
<svg version="1.1"
	 id="svg4243" inkscape:version="0.48.5 r10040" sodipodi:docname="New document 9" xmlns:cc="http://creativecommons.org/ns#" xmlns:dc="http://purl.org/dc/elements/1.1/" xmlns:inkscape="http://www.inkscape.org/namespaces/inkscape" xmlns:rdf="http://www.w3.org/1999/02/22-rdf-syntax-ns#" xmlns:sodipodi="http://sodipodi.sourceforge.net/DTD/sodipodi-0.dtd" xmlns:svg="http://www.w3.org/2000/svg"
	 xmlns="http://www.w3.org/2000/svg" xmlns:xlink="http://www.w3.org/1999/xlink" x="0px" y="0px" viewBox="0 0 1000 502.8"
	 style="enable-background:new 0 0 1000 502.8;" xml:space="preserve">
<style type="text/css">
	.st0{fill:#559821;}
	.st1{fill:#EE2722;}
	.st2{fill:#FFFFFF;}
</style>
<g id="layer1" transform="translate(297.14287,-275.24966)" inkscape:groupmode="layer" inkscape:label="Layer 1">
	<g id="g3714" transform="matrix(9.908954,0,0,-9.908954,568.04326,583.42973)">
		<path id="path3716" inkscape:connector-curvature="0" class="st0" d="M0,0l-3.1,1.4c-2.2,0.9-4.9,2.1-4.9,5.3
			c0,1.6,1.2,3.8,3.8,3.8c2.6,0,3.6-1.9,4.3-3.1c0.7-1.2,1.5-2.6,3.4-2.6c1.8,0,3,1.3,3,3.1c0,2.5-2.8,6.7-10.4,6.7
			c-7.9,0-10.9-4.8-10.9-9.2c0-5.8,5-8.3,6.9-9.1C-6.4-4.5-2.8-6.1-1.8-7c0.8-0.7,2-1.7,2-3.9c0-2.3-1.7-3.9-3.9-3.9
			c-2.5,0-3.6,1.6-5.1,3.8c-0.9,1.2-1.8,2.4-3.5,2.4c-1.8,0-3.2-1.5-3.2-3.4c0-2.5,3-7.6,11.6-7.6c9.3,0,11.3,6.3,11.3,9.8
			C7.4-3.6,2.9-1.4,0,0"/>
	</g>
	<g id="g3718" transform="matrix(9.908954,0,0,-9.908954,397.67166,384.71652)">
		<path id="path3720" inkscape:connector-curvature="0" class="st0" d="M0,0c0.1,1.3-0.4,2.1-0.9,3c-1.2,1.7-1.8,2.7-1.7,4.3
			c0.2,2.4,2.3,4,4.8,3.7c2.8-0.3,5.3-2.7,4.8-7.3c-0.7-7-7.5-12.2-9.8-12c-1,0.1-1.5,0.9-1.5,1.8c0.1,0.7,0.3,1,0.9,1.6
			C-1.5-3.2-0.2-1.7,0,0"/>
	</g>
	<g id="g3722" transform="matrix(9.908954,0,0,-9.908954,364.40334,517.06452)">
		<path id="path3724" inkscape:connector-curvature="0" class="st1" d="M0,0c-2.7,2.5-3.5,2-5.3,7.3c-0.8,2.6-2.4,5.7-5.1,6.6
			c-4.6,1.6-9.4-1.9-12.6-4.9c-3.4-3.3-4.8-7-13.5-12.8c-2.4-1.6-5.4-2.7-8.2-3.3c-3.6-0.7-6.6,0.4-10.2,0.7c-6.7,0.6-11.9-2-11.9-6
			c0-4,10.2-10.9,18.8-12.4c11-2,19.9-1.4,25.7,0.3c10.6,3.2,16.4,7.3,21.4,12.2C2.4-9.1,4.3-4.1,0,0"/>
	</g>
	<g id="g3726" transform="matrix(9.908954,0,0,-9.908954,189.00494,521.24016)">
		<path id="path3728" inkscape:connector-curvature="0" class="st2" d="M0,0c-7.5-5.8-10.8-8.3-11.8-5.7c-0.5,1.4,1.8,2.3,3.9,4.3
			c2.6,2.5,5.7,6.5,8.6,8.9c3.4,2.7,5.5,1.9,6.2,0.3C8,5.4,4.2,3.2,0,0 M-15.9-10.6c-2.3-0.9-6-1-6.3,0.3c-0.2,0.9,1.7,0.5,3.8,1.7
			c2.8,1.6,3.6,2.4,4.4,1.7C-13.1-7.8-13.1-9.4-15.9-10.6"/>
	</g>
	<g id="g3814" transform="matrix(9.908954,0,0,-9.908954,671.17367,743.79624)">
	</g>
</g>
</svg>
