<?xml version="1.0" encoding="utf-8"?>
<!-- Generator: Adobe Illustrator 22.0.1, SVG Export Plug-In . SVG Version: 6.00 Build 0)  -->
<svg version="1.1"
	 id="svg2" inkscape:output_extension="org.inkscape.output.svg.inkscape" inkscape:version="0.48.4 r9939" sodipodi:docname="GameStop.svg" sodipodi:version="0.32" xmlns:cc="http://creativecommons.org/ns#" xmlns:dc="http://purl.org/dc/elements/1.1/" xmlns:inkscape="http://www.inkscape.org/namespaces/inkscape" xmlns:rdf="http://www.w3.org/1999/02/22-rdf-syntax-ns#" xmlns:sodipodi="http://sodipodi.sourceforge.net/DTD/sodipodi-0.dtd" xmlns:svg="http://www.w3.org/2000/svg"
	 xmlns="http://www.w3.org/2000/svg" xmlns:xlink="http://www.w3.org/1999/xlink" x="0px" y="0px" viewBox="0 0 530.4 100.2"
	 style="enable-background:new 0 0 530.4 100.2;" xml:space="preserve">
<style type="text/css">
	.st0{fill:#FD0000;}
	.st1{fill:#FF0000;}
	.st2{fill:none;stroke:#FF0000;}
</style>
<g id="layer1" transform="translate(-81.145616,-438.12442)" inkscape:groupmode="layer" inkscape:label="Layer 1">
	
		<path id="text2396" inkscape:connector-curvature="0" sodipodi:nodetypes="cccsssccsssccccccccsssssccssssscccccsssssccccsssccscssssscccsssssccccsscssssccccsssccccssssccccccccsssccccsssssssccsssssccccsssccc" d="
		M140.4,475.1h-25.5v-7.9c0-5-0.2-8.1-0.7-9.4c-0.5-1.3-1.6-1.9-3.5-1.9c-1.6,0-2.6,0.5-3.2,1.6c-0.6,1.1-0.8,3.8-0.8,8.3v41.8
		c0,3.9,0.3,6.5,0.8,7.7c0.6,1.2,1.7,1.9,3.4,1.9c1.9,0,3.1-0.7,3.8-2.1c0.7-1.4,1-4.1,1-8.2v-10.3h-5.1v-13.2h29.9v46.8h-16.1
		l-2.4-6.2c-1.7,2.7-3.9,4.7-6.6,6.1c-2.6,1.3-5.8,2-9.4,2c-4.3,0-8.3-0.9-12-2.8c-3.7-1.8-6.6-4.1-8.5-6.9
		c-1.9-2.7-3.1-5.6-3.6-8.6c-0.5-3-0.7-7.5-0.7-13.5v-25.9c0-8.3,0.5-14.4,1.5-18.1c1-3.8,3.9-7.2,8.7-10.4c4.8-3.1,11-4.7,18.6-4.7
		c7.5,0,13.7,1.4,18.6,4.1c4.9,2.7,8.1,6,9.6,9.7c1.5,3.8,2.2,9.2,2.2,16.3V475.1L140.4,475.1z M169.3,486.4h-23v-4.8
		c0-5.5,0.7-9.8,2.2-12.8c1.4-3,4.3-5.6,8.6-7.9c4.3-2.3,9.9-3.4,16.8-3.4c8.3,0,15.6,1.3,19.8,3.9c4.2,2.6,6.7,5.8,7.6,9.6
		c0.8,3.8,1.3,11.6,1.3,23.4v35.9h-24.9v-6.4c-1.5,2.5-3.4,4.5-5.8,5.7c-2.4,1.3-5.2,1.9-8.4,1.9c-4.3,0-8.2-1.1-11.8-3.2
		s-5.4-6.8-5.4-14v-5.9c0-5.3,0.9-9,2.8-10.9c1.9-1.9,6.6-4.2,14.1-6.8c8-2.8,12.3-4.7,12.9-5.7c0.6-1,0.8-2.9,0.8-5.9
		c0-3.7-0.3-6.2-0.9-7.3c-0.6-1.1-1.7-1.7-3.1-1.7c-1.7,0-2.7,0.5-3.1,1.4c-0.4,1-0.6,3.4-0.6,7.4V486.4z M177.1,496.2
		c-3.9,2.5-6.2,4.7-6.8,6.4c-0.6,1.7-0.9,4.2-0.9,7.4c0,3.7,0.3,6.1,0.8,7.2c0.5,1.1,1.6,1.6,3.2,1.6c1.5,0,2.5-0.4,3-1.3
		c0.5-0.8,0.7-3.1,0.7-6.6L177.1,496.2L177.1,496.2z M234.2,458.7l-0.4,6.8c1.9-2.7,4.2-4.7,6.8-6.1c2.6-1.3,5.6-2,9-2
		c6.5,0,11.7,2.7,15.4,8.1c2.1-2.7,4.4-4.7,7-6.1c2.6-1.3,5.5-2,8.6-2c4.2,0,7.6,0.9,10.3,2.7c2.7,1.8,4.5,4,5.2,6.6
		c0.8,2.6,1.2,6.8,1.2,12.7v50.8h-23.7v-46.6c0-6.1-0.2-9.9-0.7-11.3c-0.5-1.5-1.5-2.2-3.2-2.2c-1.7,0-2.9,0.7-3.4,2.2
		c-0.5,1.4-0.8,5.2-0.8,11.4v46.6h-23.7v-45.4c0-7-0.2-11.2-0.6-12.6c-0.4-1.4-1.4-2.1-3.2-2.1c-1.1,0-2,0.4-2.8,1.1
		c-0.8,0.7-1.2,1.6-1.3,2.7c-0.1,1.1-0.1,3.3-0.1,6.8v49.5h-24.5v-71.4L234.2,458.7L234.2,458.7z M361.1,495.7h-31.7v15.5
		c0,3.2,0.3,5.3,0.8,6.2c0.5,0.9,1.5,1.4,3,1.4c1.9,0,3.1-0.6,3.7-1.9c0.6-1.2,0.9-3.6,0.9-7.2v-9.4h23.2v5.3
		c0,4.4-0.3,7.8-0.9,10.2c-0.6,2.4-2.1,4.9-4.4,7.6c-2.3,2.7-5.2,4.7-8.8,6.1c-3.5,1.3-8,2-13.3,2c-5.2,0-9.7-0.7-13.7-2
		s-7-3.1-9.2-5.5s-3.7-4.9-4.6-7.6c-0.8-2.8-1.3-6.8-1.3-12.1v-20.8c0-6.2,0.9-11.2,2.8-14.8c1.9-3.6,5-6.4,9.3-8.3
		c4.3-1.9,9.3-2.9,14.9-2.9c6.9,0,12.5,1.2,17,3.5c4.5,2.3,7.6,5.4,9.4,9.2c1.8,3.8,2.7,9.2,2.7,16.1L361.1,495.7L361.1,495.7z
		 M336.6,484.1v-5.2c0-3.7-0.2-6.1-0.7-7.2c-0.4-1.1-1.4-1.6-2.7-1.6c-1.7,0-2.7,0.5-3.1,1.4c-0.4,0.9-0.6,3.4-0.6,7.4v5.2
		L336.6,484.1L336.6,484.1z"/>
	
		<path id="path2405" inkscape:connector-curvature="0" sodipodi:nodetypes="cccssssccsssssssccccsssscczsssssssccccccccscccssscccccccccsssssssccsssssscccsssccsssccccscccccccccccsssccssscc" class="st0" d="
		M423.9,467.4h-23.7v-6.5c0-3-0.3-4.9-0.9-5.8c-0.6-0.8-1.6-1.2-3-1.2c-1.5,0-2.7,0.6-3.5,1.7c-0.8,1.1-1.2,2.8-1.2,5.1
		c0,2.9,0.4,5.1,1.3,6.6c0.8,1.5,3.3,3.2,7.2,5.3c11.3,6,18.5,10.9,21.4,14.8c2.9,3.8,4.4,10,4.4,18.6c0,6.2-0.8,10.8-2.5,13.7
		c-1.6,2.9-4.8,5.4-9.5,7.4c-4.7,2-10.1,3-16.4,3c-6.8,0-12.6-1.1-17.5-3.4c-4.8-2.3-8-5.2-9.5-8.8c-1.5-3.6-2.2-8.6-2.2-15.1v-5.7
		h23.7v10.6c0,3.3,0.3,5.4,1,6.3c0.7,0.9,1.8,1.4,3.5,1.4c1.7,0,3-0.6,3.8-1.8c0.8-1.2,1.2-2.9,1.2-5.3c0-5.1-0.8-8.5-2.4-10.1
		c-1.6-1.6-5.6-4.2-11.9-7.9c-6.3-3.7-11.3-6.4-13.4-8.1s-3.8-4-5.1-7c-1.4-3-2-6.8-2-11.4c0-6.7,1-12.6,2.9-15.7
		c1.9-3.1,5-5.5,9.3-7.2c4.3-1.7,10.2-2.6,16.3-2.6c6.6,0,12.3,1,16.9,2.9c4.7,1.9,7.8,4.3,9.3,7.2c1.5,2.9,2.3,8.9,2.3,15.8
		L423.9,467.4L423.9,467.4z M460.2,447.2v8.6h6.9v11.3h-6.9V508c0,4.7,0.3,7.3,0.8,7.9c0.5,0.5,1.8,0.8,5.8,0.8v11.5h-9.9
		c-5.6,0-9.6-0.2-11.9-0.6c-2.4-0.4-4.5-1.4-6.3-2.9s-2.9-3.2-3.4-5.1c-0.4-1.9-0.7-6.4-0.7-13.5v-38.9h-5.3v-11.3h5.3v-8.6
		L460.2,447.2L460.2,447.2z M528.4,481.8v17.5c0,6.4-0.4,11.1-1.1,14.1c-0.7,3-2.3,5.8-4.7,8.4c-2.4,2.6-5.4,4.5-9.2,5.8
		c-3.7,1.2-8,1.9-12.9,1.9c-5.4,0-10-0.5-13.7-1.6c-3.8-1.1-6.7-2.7-8.8-4.8s-3.6-4.7-4.5-7.8c-0.9-3-1.3-7.6-1.3-13.6v-18.3
		c0-6.6,0.8-11.8,2.4-15.6c1.6-3.7,4.5-6.7,8.7-9c4.2-2.3,9.6-3.4,16.1-3.4c5.5,0,10.2,0.7,14.1,2.2c3.9,1.5,7,3.3,9.1,5.7
		c2.1,2.3,3.6,4.7,4.4,7.2C528,473,528.4,476.8,528.4,481.8L528.4,481.8L528.4,481.8z M503.9,476.4c0-3.7-0.2-6-0.7-6.9
		c-0.4-1-1.4-1.4-2.8-1.4c-1.5,0-2.4,0.5-2.9,1.4c-0.5,1-0.7,3.3-0.7,6.9v32.2c0,3.4,0.2,5.6,0.7,6.6c0.5,1,1.4,1.5,2.8,1.5
		c1.5,0,2.4-0.5,2.9-1.4c0.5-0.9,0.7-2.9,0.7-6L503.9,476.4L503.9,476.4z M560.1,456.7l-0.4,6.3c2.2-2.5,4.6-4.5,7.2-5.7
		c2.6-1.3,5.5-1.9,8.6-1.9c14.5-0.5,19.6,7.4,19.8,21v30.1c0,6.5-0.4,11.1-1.3,13.9c-4.8,9.6-18,11.1-27.2,7.1
		c-2.6-1.3-4.9-3.1-7.1-5.6v16.4h-24.5v-81.6H560.1z M567,477.5c0-4.4-0.2-7.1-0.5-8c-0.4-0.9-1.4-1.4-3-1.4c-1.6,0-2.7,0.5-3.1,1.6
		c-0.5,1.1-0.7,3.7-0.7,7.8v29.6c0,4.3,0.2,7,0.7,8.1c0.5,1.1,1.5,1.6,3.1,1.6c1.6,0,2.6-0.5,2.9-1.5c0.4-1,0.6-3.4,0.6-7.2V477.5z"
		/>
	<path id="text2407" inkscape:connector-curvature="0" class="st1" d="M603.4,456.4V450h2.9c0.6,0,1,0.1,1.3,0.2
		c0.3,0.1,0.5,0.3,0.7,0.6s0.3,0.6,0.3,1c0,0.5-0.1,0.8-0.4,1.2c-0.3,0.3-0.8,0.5-1.4,0.6c0.2,0.1,0.4,0.2,0.5,0.3
		c0.3,0.2,0.5,0.5,0.7,0.9l1.1,1.8H608l-0.9-1.3c-0.3-0.4-0.5-0.7-0.6-0.9c-0.2-0.2-0.3-0.4-0.4-0.4c-0.1-0.1-0.3-0.1-0.4-0.2
		c-0.1,0-0.3,0-0.5,0h-1v2.9L603.4,456.4L603.4,456.4z M604.3,452.8h1.8c0.4,0,0.7,0,0.9-0.1c0.2-0.1,0.4-0.2,0.5-0.4
		c0.1-0.2,0.2-0.4,0.2-0.6c0-0.3-0.1-0.6-0.3-0.8c-0.2-0.2-0.6-0.3-1.1-0.3h-2.1V452.8z"/>
	
		<path id="path2411" sodipodi:cx="609.67633" sodipodi:cy="451.88562" sodipodi:rx="5.9415174" sodipodi:ry="5.9415174" sodipodi:type="arc" class="st2" d="
		M611.1,453.2c0,2.9-2.3,5.2-5.2,5.2s-5.2-2.3-5.2-5.2s2.3-5.2,5.2-5.2S611.1,450.3,611.1,453.2z"/>
</g>
</svg>
