<?xml version="1.0" encoding="utf-8"?>
<!-- Generator: Adobe Illustrator 22.0.1, SVG Export Plug-In . SVG Version: 6.00 Build 0)  -->
<svg version="1.1" id="Layer_1" xmlns="http://www.w3.org/2000/svg" xmlns:xlink="http://www.w3.org/1999/xlink" x="0px" y="0px"
	 viewBox="0 0 500 360.1" style="enable-background:new 0 0 500 360.1;" xml:space="preserve">
<path d="M38.6,0C29.4,0,0.1,2.9,0.1,40.5v267.2c0,0.3-1.6,26.4,12.6,41.5c7.1,7.3,17.1,11.3,27.3,10.8c10.1-0.2,19.7-4.1,27.1-10.9
	l0,0c1.9-1,4.2-1,6.1,0c2.3,1.9,3.6,4.9,3.3,7.9h5.1V189.5h12.6v-4.6H40.8v4.6h15.6v144c0.7,6.3-1,12.6-4.6,17.7
	c-3.1,3.2-7.4,4.9-11.8,4.6c-3.7,0.1-7.3-1.4-9.9-4.1c-5-5.1-7.3-14.8-7-28.7c0-0.4,0-0.6,0-0.8V29.9c0-1.1,1.2-25.4,14.6-25.4
	s29.5,33.9,35,98.6v10.2h4.6V3h-4.6v9l-0.4,0.3c-1.1,0.7-2.3,1.2-3.6,1.2c-1.8-0.5-3.3-1.5-4.6-2.8C57,4.4,48.1,0.6,38.6,0z
	 M403.2,357.4h58.1v-4.6h-20.1V213.1h24.9c17.6,1.1,32.7-12.2,33.9-29.8c0-0.4,0-0.7,0.1-1.1V40.5c0-34.1-43.7-34.8-44.1-34.8h-54
	v4.6h13.8v342.6H403v4.6L403.2,357.4z M257.4,356.9h53.5v-4.6h-14.2L258.2,5.9h-20.9c-1.9,18.1-34.1,327.6-34.1,331.9
	c-0.3,7.9-6.5,14.2-14.4,14.6H186v4.6h37.4v-4.6h-2c-7.6-0.3-13.6-6.8-13.3-14.4c0-0.3,0-0.6,0.1-0.9l12.9-125h34.8l15,140.3h-13.8
	v4.6L257.4,356.9z M442.4,207.3h-0.9V10.7h14.7c17.1,0,19.8,22.8,19.8,23.1v153c0,20-15.1,20.5-15.2,20.5L442.4,207.3L442.4,207.3z
	 M255.8,206.5H222v-1L238.7,48L255.8,206.5z"/>
</svg>
