<?xml version="1.0" encoding="utf-8"?>
<!-- Generator: Adobe Illustrator 22.0.1, SVG Export Plug-In . SVG Version: 6.00 Build 0)  -->
<svg version="1.1" id="Layer_1" xmlns="http://www.w3.org/2000/svg" xmlns:xlink="http://www.w3.org/1999/xlink" x="0px" y="0px"
	 viewBox="0 0 500 500" style="enable-background:new 0 0 500 500;" xml:space="preserve">
<style type="text/css">
	.st0{fill:#EE7125;}
	.st1{fill:#FFFFFF;}
</style>
<polygon class="st0" points="0,0 500,0 500,500 0,500 "/>
<path class="st1" d="M110.9,395.8l-13,13l-8.5-8.6l12.9-13l-33.5-33.5c-5.4-5.5-6.2-6.5-13-3c-2.5,1.3-5.2,1.3-7.2-0.8
	c-4.3-4.3,0.3-9.4,0.9-10l41.7-41.7c0.6-0.6,5.7-5.1,10-0.9c2.1,2.1,2.1,4.7,0.8,7.2c-3.5,6.8-2.5,7.5,3,13l77.3,77.4
	c5.5,5.5,6.2,6.5,13,3c2.5-1.3,5.1-1.3,7.2,0.8c4.3,4.3-0.3,9.4-0.9,10l-41.7,41.7c-0.6,0.6-5.8,5.1-10,0.9
	c-2.1-2.1-2.1-4.7-0.8-7.2c3.6-6.8,2.5-7.5-2.9-13L110.9,395.8L110.9,395.8z M110.4,500h-17c0-0.1,0.1-0.2,0.1-0.3
	c3.5-6.8,2.5-7.5-3-13l-77.4-77.3c-5.5-5.5-6.2-6.5-13-3c-0.1,0-0.1,0.1-0.2,0.1v-17L35.5,354c0.6-0.6,5.7-5.2,10-0.9
	c2.1,2.1,2.1,4.7,0.8,7.2c-3.5,6.8-2.5,7.5,3,13l77.3,77.3c5.5,5.5,6.2,6.5,13,3c2.5-1.3,5.2-1.3,7.2,0.7c4.3,4.3-0.3,9.4-0.9,10
	L110.4,500L110.4,500z"/>
<path class="st1" d="M322.7,66.8l38.9-38.9L472,138.3l-38.9,38.9c-0.6,0.6-5.8,5.2-10,0.9c-2.1-2.1-2.1-4.7-0.7-7.2
	c3.5-6.8,2.5-7.5-3-13L342,80.5c-5.5-5.4-6.2-6.5-13-2.9c-2.5,1.3-5.2,1.3-7.2-0.7C317.6,72.6,322.1,67.4,322.7,66.8L322.7,66.8z
	 M389.5,0h23.1L431,18.4c0.7,0.7,3.4,3.7-1,8.1c-2.5,2.5-4.7,1.8-7.7,0.3c-15.8-8.2-30.5-7.9-45.6,3l-8.6-8.6L389.5,0L389.5,0z
	 M500,85.3v25.1l-21.4,21.3l-8.5-8.5c10.5-13.4,11.5-30.7,3.6-46.4c-1.2-3.3-2.7-6.5,0-9.1c4.7-4.7,8.7,0.2,9.3,0.8L500,85.3
	L500,85.3z M417.6,70.6c4.6-7.8,1.6-16.4-2.7-23.3c-1.7-3.2-3.2-6.5-0.2-9.6c4.6-4.5,9.2,1.5,10.3,2.7l31.9,31.9
	c1.2,1.2,7.2,5.8,2.7,10.3c-3.1,3.1-6.3,1.6-9.6-0.2c-6.9-4.3-15.5-7.2-23.3-2.7L417.6,70.6L417.6,70.6z"/>
<path class="st1" d="M280.5,481.8L262.3,500h-9.7c0.3-0.6,0.6-1.2,0.9-1.8c1.1-2.1-1.3-4.2-2.6-5.4l-43.5-43.5
	c-1.3-1.2-3.3-3.6-5.4-2.6c-2.2,1.1-4.1,2.4-6.2,0.3c-2.2-2.2-0.3-4.5,1.3-6.1l21.2-21.2L280.5,481.8L280.5,481.8z"/>
<path class="st1" d="M419.6,218.5l20.3-20.3l52.8,52.8c3.1,3.1,3.5,3.7,7.3,1.7v9.6l-19.9,19.9c-0.3,0.3-3.2,2.9-5.6,0.5
	c-1.2-1.2-1.2-2.6-0.4-4.1c2-3.8,1.4-4.2-1.7-7.3L419.6,218.5L419.6,218.5z M475,201.8c0.3,0.3,2.2,2.7-0.3,5.1
	c-2.3,2.3-4.9,0.6-7-1c-5.2-3.6-11.8-7.9-19.2-6.7l-4.8-4.8l11.9-12L475,201.8L475,201.8z M403.9,234.2l11.9-11.9l4.8,4.8
	c-1.3,7.4,3.1,14,6.7,19.2c1.6,2.1,3.3,4.7,1,7c-2.5,2.5-4.8,0.7-5.1,0.3L403.9,234.2L403.9,234.2z"/>
<path class="st1" d="M150.6,251.6c-4.4,9.4-0.6,14.4,3.1,18.1l76.5,76.5c3.7,3.7,8.7,7.5,18.1,3.1l8.6,8.6
	c-34,28.4-73.8,17.8-103.2-11.6c-29.4-29.4-40-69.2-11.6-103.2L150.6,251.6L150.6,251.6z M254.9,342.7c4.4-9.4,0.6-14.5-3.1-18.1
	l-76.4-76.5c-3.7-3.7-8.7-7.5-18.1-3.1l-8.6-8.6c34-28.4,73.9-17.8,103.2,11.6c29.4,29.4,40,69.2,11.6,103.2L254.9,342.7
	L254.9,342.7z"/>
<path class="st1" d="M417.7,183.5c-2.1-2-4.7-2.1-7.2-0.7c-6.8,3.5-7.5,2.5-13-3l-77.4-77.3c-5.5-5.5-6.5-6.2-3-13
	c1.3-2.5,1.3-5.2-0.8-7.2c-4.3-4.3-9.4,0.3-10,0.9L267.5,122l31.8,58.9l-0.3,0.3l-61.1-29.5L200.5,189c-1.8,1.8-6.2,6.2-1.6,10.8
	c3.5,3.6,7.8-0.1,9.7-1.8c2.7-2.3,5-1.2,8.6-0.3c3.1,0.7,6,2.2,9,3.7L348.3,262l4.3-4.3l-59.7-110.4l68.6,68.5c5.5,5.5,6.5,6.2,3,13
	c-1.3,2.5-1.3,5.2,0.8,7.2c4.3,4.3,9.4-0.3,10-0.9l41.7-41.7C417.4,192.9,422,187.8,417.7,183.5L417.7,183.5z"/>
<path class="st1" d="M302.3,261.4L276.9,236l-32.6-16.1l-0.3,0.3l49.7,49.7c16.1,20.8,0.9,24.5,7.3,30.8c4.6,4.6,10.3-1.8,11.9-3.4
	l16.8-16.8c1.6-1.6,7.9-7.3,3.4-11.9C326.8,262.3,323.1,277.5,302.3,261.4L302.3,261.4z"/>
<path class="st1" d="M222.2,416c13.9-14.3,35.5-16.3,57.9,4.2c20.4,18.6,17.9,44.1,4.2,57.9l-4.8-4.8c4.4-5.7-0.1-10.7-3.3-13.9
	L240.8,424c-3.2-3.1-8.1-7.6-13.9-3.2L222.2,416L222.2,416z"/>
<path class="st1" d="M253.1,385l21.9-21.9l62.1,62.1l-21.9,21.9c-0.3,0.3-3.2,2.9-5.6,0.5c-1.2-1.2-1.2-2.7-0.4-4.1
	c2-3.8,1.4-4.2-1.6-7.3L264,392.7c-3.1-3.1-3.5-3.6-7.3-1.7c-1.4,0.8-2.9,0.8-4.1-0.4C250.2,388.3,252.8,385.3,253.1,385L253.1,385z
	 M278.8,359.4l18.5-18.5l16.9,16.8c0.4,0.4,1.9,2.1-0.6,4.6c-1.4,1.4-2.6,1-4.3,0.2c-8.9-4.6-17.2-4.4-25.7,1.7L278.8,359.4
	L278.8,359.4z M336,416.6c5.9-7.5,6.5-17.3,2.1-26.2c-0.7-1.8-1.5-3.6,0-5.1c2.7-2.7,4.9,0.1,5.2,0.4l16.6,16.6l-19.1,19.1
	L336,416.6L336,416.6z M306.5,387.1c2.6-4.4,0.9-9.2-1.5-13.1c-1-1.8-1.8-3.7-0.1-5.4c2.6-2.6,5.2,0.8,5.8,1.5l17.9,17.9
	c0.7,0.7,4.1,3.2,1.5,5.8c-1.7,1.7-3.6,0.9-5.4-0.1c-3.9-2.4-8.7-4.1-13.1-1.5L306.5,387.1L306.5,387.1z"/>
<path class="st1" d="M329.3,308.8c7.9-7.9,13.4-11.7,19.5-13.4c9.8-2.5,17.7,0.6,24.7,7.5c7,7,10,14.9,7.5,24.7
	c-1.7,6.1-5.5,11.6-13.4,19.5l-4.8-4.8c4-5.8,0.8-9.5-3.2-13.6l-12.5-12.5c-3.7-3.7-7.9-6.4-13-2.6L329.3,308.8L329.3,308.8z
	 M314.5,342.2c-3.1-3.1-3.5-3.7-7.3-1.7c-1.4,0.8-2.9,0.7-4.1-0.4c-2.4-2.4,0.2-5.3,0.5-5.6l21.9-21.9l52.8,52.8
	c3.1,3.1,3.5,3.7,7.3,1.7c1.4-0.7,2.9-0.8,4.1,0.4c2.4,2.4-0.2,5.3-0.5,5.6l-23.5,23.5c-0.3,0.3-2.6,2.3-5-0.1
	c-1.2-1.2-1.4-2.5-0.6-3.9c2-3.8,1-3.8-2.1-6.9L314.5,342.2L314.5,342.2z"/>
<path class="st1" d="M381.9,263.4c-2.5,5.3-0.3,8.1,1.7,10.2l43,43c2.1,2.1,4.9,4.2,10.2,1.7l4.8,4.8c-19.2,16-41.6,10.1-58.1-6.5
	c-16.5-16.5-22.5-38.9-6.5-58.1L381.9,263.4L381.9,263.4z M440.6,314.6c2.5-5.3,0.3-8.1-1.7-10.2l-43-43c-2.1-2.1-4.9-4.2-10.2-1.8
	l-4.8-4.8c19.2-16,41.6-10,58.1,6.5c16.5,16.5,22.5,38.9,6.5,58.1L440.6,314.6L440.6,314.6z"/>
<path class="st1" d="M59.9,189.3L79,170.2l49.6,49.6c2.9,2.9,3.3,3.4,6.9,1.6c1.3-0.7,2.7-0.7,3.8,0.4c2.3,2.3-0.2,5-0.5,5.3
	l-22.1,22.1c-0.3,0.3-3,2.7-5.3,0.5c-1.1-1.1-1.1-2.5-0.4-3.8c1.9-3.6,1.3-4-1.6-6.9L59.9,189.3L59.9,189.3z M111.9,173.6
	c0.3,0.3,2,2.5-0.3,4.8c-2.2,2.2-4.6,0.5-6.6-0.9c-4.8-3.4-11.1-7.5-18-6.3l-4.5-4.5l11.2-11.2L111.9,173.6L111.9,173.6z
	 M45.2,204.1l11.2-11.2l4.5,4.5c-1.2,6.9,2.9,13.2,6.3,18c1.5,2,3.1,4.4,0.9,6.5c-2.3,2.3-4.5,0.6-4.8,0.3L45.2,204.1L45.2,204.1z"
	/>
<path class="st1" d="M169.2,179.3c2.9,2.9,3.3,3.4,6.9,1.6c1.3-0.7,2.7-0.7,3.8,0.4c2.3,2.3-0.2,5-0.5,5.3l-22.1,22.1
	c-0.3,0.3-3,2.7-5.3,0.5c-1.1-1.1-1.1-2.5-0.4-3.8c1.9-3.6,1.3-4-1.6-6.9l-40.9-40.9c-2.9-2.9-3.3-3.4-6.9-1.6
	c-1.3,0.7-2.7,0.7-3.8-0.4c-2.3-2.3,0.2-5,0.5-5.3l22.1-22.1c0.3-0.3,3-2.7,5.3-0.5c1.1,1.1,1.1,2.5,0.4,3.8c-1.9,3.6-1.3,4,1.6,6.9
	L169.2,179.3L169.2,179.3z M160.9,150.2l-6.9,6.9l-4.5-4.5l6.9-6.9L138.7,128c-2.9-2.9-3.3-3.4-6.9-1.6c-1.3,0.7-2.7,0.7-3.8-0.4
	c-2.3-2.3,0.2-5,0.5-5.3l22.1-22.1c0.3-0.3,3-2.7,5.3-0.5c1.1,1.1,1.1,2.5,0.4,3.8c-1.9,3.6-1.3,4,1.6,6.9l40.9,40.9
	c2.9,2.9,3.3,3.4,6.9,1.6c1.3-0.7,2.7-0.7,3.8,0.4c2.3,2.3-0.2,5-0.5,5.3l-22.1,22.1c-0.3,0.3-3,2.7-5.3,0.5
	c-1.1-1.1-1.1-2.5-0.4-3.8c1.9-3.6,1.3-4-1.6-6.9L160.9,150.2L160.9,150.2z"/>
<path class="st1" d="M157.9,91.3l20.6-20.6l58.3,58.3l-20.6,20.6c-0.3,0.3-3,2.7-5.3,0.5c-1.1-1.1-1.1-2.5-0.4-3.8
	c1.9-3.6,1.3-4-1.6-6.9l-40.9-40.9c-2.9-2.9-3.3-3.4-6.9-1.6c-1.3,0.7-2.7,0.7-3.8-0.4C155.2,94.4,157.6,91.6,157.9,91.3L157.9,91.3
	z M182,67.2l17.4-17.4l15.8,15.8c0.4,0.4,1.8,1.9-0.5,4.3c-1.3,1.3-2.5,0.9-4.1,0.2c-8.4-4.3-16.2-4.1-24.1,1.6L182,67.2L182,67.2z
	 M235.8,121.1c5.5-7.1,6.1-16.2,2-24.6c-0.6-1.7-1.4-3.4,0-4.8c2.5-2.5,4.6,0.1,4.9,0.4l15.6,15.6l-17.9,17.9L235.8,121.1
	L235.8,121.1z M208.1,93.3c2.4-4.1,0.9-8.7-1.4-12.3c-0.9-1.7-1.7-3.4-0.1-5.1c2.4-2.4,4.8,0.8,5.5,1.4l16.8,16.8
	c0.6,0.6,3.8,3,1.4,5.5c-1.6,1.6-3.4,0.9-5.1-0.1c-3.7-2.3-8.2-3.8-12.3-1.4L208.1,93.3L208.1,93.3z"/>
<path class="st1" d="M466.9,479.7c0-8.1,6.2-14,13.6-14c7.3,0,13.5,5.9,13.5,14c0,8.1-6.2,14.1-13.5,14.1
	C473.1,493.8,466.9,487.8,466.9,479.7L466.9,479.7z M480.4,491.4c6,0,10.8-5,10.8-11.8c0-6.7-4.8-11.7-10.8-11.7
	c-6.1,0-10.9,5-10.9,11.7C469.6,486.4,474.3,491.4,480.4,491.4L480.4,491.4z M477.6,487.8h-2.3l0-16.2h5.9c3.6,0,5.4,1.4,5.4,4.6
	c0,2.9-1.7,4.2-4,4.5l4.4,7.1h-2.6l-4.1-7h-2.7V487.8L477.6,487.8z M480.4,478.7c2,0,3.7-0.2,3.7-2.6c0-2-1.7-2.4-3.4-2.4h-3.2l0,5
	L480.4,478.7L480.4,478.7z"/>
</svg>
