<?xml version="1.0" encoding="utf-8"?>
<!-- Generator: Adobe Illustrator 22.0.1, SVG Export Plug-In . SVG Version: 6.00 Build 0)  -->
<svg version="1.1"
	 id="svg8" inkscape:version="0.92.2 (5c3e80d, 2017-08-06)" sodipodi:docname="iTunes logo.svg" xmlns:cc="http://creativecommons.org/ns#" xmlns:dc="http://purl.org/dc/elements/1.1/" xmlns:inkscape="http://www.inkscape.org/namespaces/inkscape" xmlns:rdf="http://www.w3.org/1999/02/22-rdf-syntax-ns#" xmlns:sodipodi="http://sodipodi.sourceforge.net/DTD/sodipodi-0.dtd" xmlns:svg="http://www.w3.org/2000/svg"
	 xmlns="http://www.w3.org/2000/svg" xmlns:xlink="http://www.w3.org/1999/xlink" x="0px" y="0px" viewBox="0 0 187.5 187.5"
	 style="enable-background:new 0 0 187.5 187.5;" xml:space="preserve">
<style type="text/css">
	.st0{fill:url(#path1093_1_);}
	.st1{opacity:0.192;enable-background:new    ;}
	.st2{fill:#FFFFFF;}
</style>
<g id="layer1" transform="translate(-284.1986,-143.22636)" inkscape:groupmode="layer" inkscape:label="Capa 1">
	<g id="g1233">
		
			<linearGradient id="path1093_1_" gradientUnits="userSpaceOnUse" x1="202.2991" y1="368.1216" x2="239.9263" y2="319.2839" gradientTransform="matrix(2.8346 0 0 -2.8346 -248.2345 1212.0216)">
			<stop  offset="0" style="stop-color:#FF5E50"/>
			<stop  offset="0.249" style="stop-color:#FE5C6C"/>
			<stop  offset="0.3765" style="stop-color:#E3658A"/>
			<stop  offset="0.497" style="stop-color:#B87EB0"/>
			<stop  offset="0.6267" style="stop-color:#916CFF"/>
			<stop  offset="0.7628" style="stop-color:#70BCFB;stop-opacity:0.9192"/>
			<stop  offset="1" style="stop-color:#21C7FE"/>
		</linearGradient>
		<circle id="path1093" class="st0" cx="377.9" cy="237" r="93.7"/>
		<path id="circle1107" inkscape:connector-curvature="0" class="st1" d="M378.7,160.7c-42.4,0-76.9,34.4-76.9,76.9
			c0,42.4,34.4,76.9,76.9,76.9c42.4,0,76.9-34.4,76.9-76.9C455.5,195.1,421.1,160.7,378.7,160.7z M417.2,176c1.8,0,3.2,1,3.7,2.8
			c0.2,0.6,0.2,12,0.2,45.4l-0.1,44.6l-0.5,1.7c-1.6,5.7-5.5,9.7-11,11.3c-3.9,1.2-9.6,1.6-12.4,0.9c-2.5-0.6-4.3-1.6-6.3-3.6
			c-2.9-2.9-4.1-5.8-4.1-9.6c0-2.1,0.4-3.7,1.4-5.8c1.4-3,3.2-4.8,6.5-6.4c2.6-1.3,5-2,11.9-3.4c4.5-0.9,5.6-1.4,6.5-2.4
			c1.2-1.4,1.2-0.9,1.1-23.7c-0.1-19.8-0.1-20.9-0.4-21.5c-0.5-0.8-1.7-1.2-2.8-1.1c-1.3,0.2-45.8,9.2-46.9,9.5
			c-1.2,0.3-2.1,1.3-2.4,2.7c-0.2,0.8-0.2,9.5-0.2,31.1c0,33.1,0,32.3-1.3,35.9c-0.4,1-1.1,2.4-1.5,3.1c-1.1,1.7-3.3,3.8-5,4.9
			c-4.1,2.4-12,3.6-16.3,2.5c-4.5-1.2-7.8-4.2-9.3-8.6c-0.7-2.1-0.9-5.5-0.4-7.8c0.5-2.4,1.8-4.6,3.4-6.3c2.9-2.9,6.4-4.3,15.6-6.2
			c2-0.4,4.1-0.9,4.6-1.1c1.1-0.4,2.3-1.5,2.8-2.7c0.4-0.8,0.4-2.7,0.5-35.8l0.1-34.9l0.5-1c0.6-1.2,1.8-2.3,3-2.7
			c0.8-0.3,47-9.7,54.9-11.2C414.7,176.2,416.6,176,417.2,176L417.2,176z"/>
		<path id="circle1095" class="st2" d="M377.9,151.1c-47.4,0-85.9,38.4-85.9,85.9s38.4,85.9,85.9,85.9s85.9-38.4,85.9-85.9
			S425.4,151.1,377.9,151.1z M416.5,175.4c1.8,0,3.2,1,3.7,2.8c0.2,0.6,0.2,12,0.2,45.4l-0.1,44.6l-0.5,1.7
			c-1.6,5.7-5.5,9.7-11,11.3c-3.9,1.2-9.6,1.6-12.4,0.9c-2.5-0.6-4.3-1.6-6.3-3.6c-2.9-2.9-4.1-5.8-4.1-9.6c0-2.1,0.4-3.7,1.4-5.8
			c1.4-3,3.2-4.8,6.5-6.4c2.6-1.3,5-2,11.9-3.4c4.5-0.9,5.6-1.4,6.5-2.4c1.2-1.4,1.2-0.9,1.1-23.7c-0.1-19.8-0.1-20.9-0.4-21.5
			c-0.5-0.8-1.7-1.2-2.8-1.1c-1.3,0.2-45.8,9.2-46.9,9.5c-1.2,0.3-2.1,1.3-2.4,2.7c-0.2,0.8-0.2,9.5-0.2,31.1
			c0,33.1,0,32.3-1.3,35.9c-0.4,1-1.1,2.4-1.5,3.1c-1.1,1.7-3.3,3.8-5,4.9c-4.1,2.4-12,3.6-16.3,2.5c-4.5-1.2-7.8-4.2-9.3-8.6
			c-0.7-2.1-0.9-5.5-0.4-7.8c0.5-2.4,1.8-4.6,3.4-6.3c2.9-2.9,6.4-4.3,15.6-6.2c2-0.4,4.1-0.9,4.6-1.1c1.1-0.4,2.3-1.5,2.8-2.7
			c0.4-0.8,0.4-2.7,0.5-35.8l0.1-34.9l0.5-1c0.6-1.2,1.8-2.3,3-2.7c0.8-0.3,47-9.7,54.9-11.2C414,175.6,415.9,175.4,416.5,175.4z"/>
	</g>
</g>
</svg>
