<?xml version="1.0" encoding="utf-8"?>
<!-- Generator: Adobe Illustrator 22.0.1, SVG Export Plug-In . SVG Version: 6.00 Build 0)  -->
<svg version="1.1"
	 id="Layer_1" xmlns:cc="http://creativecommons.org/ns#" xmlns:dc="http://purl.org/dc/elements/1.1/" xmlns:rdf="http://www.w3.org/1999/02/22-rdf-syntax-ns#"
	 xmlns="http://www.w3.org/2000/svg" xmlns:xlink="http://www.w3.org/1999/xlink" x="0px" y="0px" viewBox="0 0 375 309.2"
	 style="enable-background:new 0 0 375 309.2;" xml:space="preserve">
<style type="text/css">
	.st0{fill:#FFFFFF;}
	.st1{fill:#0468B3;}
	.st2{display:none;fill:#FFFFFF;}
</style>
<g transform="matrix(.54144 0 0 .54144 189.83 139.2)">
	<g transform="translate(413.98 501.21)">
		<path class="st0" d="M-418.3-719.8c169.8,0,307.4,110.5,307.4,246.7c0,136.2-137.6,246.7-307.4,246.7
			c-169.8,0-307.4-110.5-307.4-246.7C-725.7-609.3-588.1-719.8-418.3-719.8"/>
	</g>
	<g transform="translate(413.98 509.84)">
		<path class="st1" d="M-418.3-739.2c-84.6,0-164.2,26.5-224.1,74.6c-29.4,23.6-52.5,51.1-68.7,81.8c-16.9,32-25.4,66-25.4,101.1
			c0,35.1,8.5,69.1,25.4,101.1c16.2,30.7,39.3,58.2,68.7,81.8c60,48.2,139.6,74.6,224.1,74.6c84.6,0,164.2-26.4,224.1-74.6
			c29.4-23.6,52.5-51.1,68.7-81.8c16.8-32,25.4-66,25.4-101.1c0-35.1-8.6-69.1-25.4-101.1c-16.2-30.7-39.3-58.2-68.7-81.8
			C-254.1-712.7-333.7-739.2-418.3-739.2"/>
	</g>
	<g transform="translate(413.98 532.02)">
		<path class="st1" d="M-418.3-789.1c-92.1,0-178.8,29.4-244.1,82.9c-32,26.2-57.1,56.7-74.7,90.7c-18.3,35.4-27.6,73.1-27.6,111.9
			c0,38.8,9.3,76.5,27.6,111.9c17.6,34,42.7,64.5,74.7,90.7c65.3,53.4,152,82.9,244.1,82.9c92.1,0,178.8-29.5,244.1-82.9
			c31.9-26.2,57.1-56.8,74.7-90.7C-81.3-427.1-72-464.7-72-503.6c0-38.8-9.3-76.5-27.5-111.9c-17.6-34.1-42.8-64.6-74.7-90.7
			C-239.5-759.7-326.2-789.1-418.3-789.1 M-418.3-778.3c185.3,0,335.5,123,335.5,274.8c0,151.8-150.2,274.8-335.5,274.8
			c-185.3,0-335.5-123-335.5-274.8C-753.8-655.3-603.6-778.3-418.3-778.3"/>
	</g>
	<g>
		<g transform="translate(341.5 339.16)">
			<path class="st0" d="M-436.4-355.2c0,0-3.8-2-10.6-1.8c-12,0.2-20.4,7.9-20.4,7.9l-3.1-8h-22.8h-0.5l-0.1,123.9h29v-75
				c0-6.8,3.3-10.2,5.9-12.5c7.7-7,22.6-7.2,22.6-7.2S-436.4-355.2-436.4-355.2z"/>
		</g>
		<g transform="translate(631.83 339.16)">
			<path class="st0" d="M-363.8-355.2c0,0-3.8-2-10.6-1.8c-12.1,0.2-20.4,7.9-20.4,7.9l-3.1-8h-22.8h-0.5l-0.1,123.9h29v-75
				c0-6.8,3.2-10.2,5.8-12.5c7.8-7,22.7-7.2,22.7-7.2S-363.8-355.2-363.8-355.2z"/>
		</g>
		<g transform="translate(512.4 224.66)">
			<path class="st0" d="M-393.7-97.6h0.7l0.8,0c0.5,0,0.9,0.1,1.2,0.2c0.5,0.2,0.8,0.5,0.9,0.9c0.1,0.3,0.2,0.8,0.2,1.6
				c0.1,0.8,0.1,1.3,0.2,1.8h3.2l-0.1-0.3c0-0.1-0.1-0.2-0.1-0.4c0-0.1,0-0.2,0-0.4v-1.2c0-1.3-0.4-2.3-1.1-2.9
				c-0.4-0.3-1-0.6-1.8-0.8c0.9-0.1,1.7-0.4,2.2-0.8c0.6-0.5,0.9-1.3,0.9-2.4c0-1.4-0.6-2.5-1.7-3.1c-0.7-0.4-1.5-0.6-2.6-0.7
				c-0.2,0-1.1,0-2.7,0h-3.6V-93h3.4C-393.7-93-393.7-97.6-393.7-97.6z M-390.5-100.4c-0.4,0.3-1.1,0.5-1.8,0.5h-1.3v-3.8h0.8
				c0.9,0,1.5,0.1,2,0.3c0.7,0.3,1,0.7,1,1.5C-389.9-101.2-390.1-100.7-390.5-100.4 M-383.7-107.7c-2.3-2.3-5-3.4-8.3-3.4
				c-3,0-5.7,1-8,3.2c-2.5,2.2-3.7,5.1-3.7,8.5c0,3.3,1.1,6,3.4,8.3c2.2,2.3,5,3.4,8.3,3.4c3.2,0,5.9-1.1,8.2-3.3
				c2.4-2.3,3.5-5.1,3.5-8.4C-380.3-102.7-381.4-105.4-383.7-107.7 M-385.2-106.3c1.9,1.9,2.8,4.2,2.8,6.8c0,2.7-0.9,4.9-2.8,6.9
				c-1.9,1.9-4.1,2.8-6.8,2.8c-2.7,0-4.9-1-6.8-2.8c-1.9-1.9-2.8-4.2-2.8-6.9c0-2.6,0.9-4.9,2.8-6.8c1.9-1.9,4.2-2.9,6.8-2.9
				C-389.3-109.2-387.1-108.2-385.2-106.3"/>
		</g>
		<g transform="translate(363.81 291.18)">
			<path class="st0" d="M-430.8-247.2c0-22.2,5.5-38.2,19.5-38.2c14,0,19.5,16.1,19.5,38.2c0,22.2-5.5,38.3-19.5,38.3
				C-425.3-209-430.8-225-430.8-247.2 M-363.8-247.1c0-34.3-16.2-62-47.7-62c-30.7,0-47.6,27.7-47.6,62c0,34.2,14.6,62,47.6,62
				C-379-185.1-363.8-212.9-363.8-247.1"/>
		</g>
		<g transform="translate(541.01 321.78)">
			<path class="st0" d="M-386.5-316.1c9.5,0,15,7.3,17.7,18.9h-35.2C-401.5-308.7-395.9-316.1-386.5-316.1 M-365.8-265.6
				c-1.8,15.6-7.5,26.1-18.7,26.1c-13.7,0-19.3-15.5-19.5-37h38.9v0h28.1v0c0.3-11.3-1.9-20.7-1.9-20.7h0
				c-5.1-24.7-20.5-42.6-45.7-42.6c-30.7,0-47.6,27.7-47.6,62c0,34.2,14.6,62,47.6,62c28.5,0,43.7-21.5,47-49.9
				C-337.7-265.6-365.8-265.6-365.8-265.6z"/>
		</g>
		<g transform="translate(461.05 260.49)">
			<path class="st0" d="M-406.5-178.2c-14,0-19.6-16.1-19.6-38.4c0-22.3,5.6-38.5,19.6-38.5c14.1,0,19.6,16.2,19.6,38.5
				C-386.9-194.3-392.4-178.2-406.5-178.2 M-359-150.5c-0.1-9,0-128.2,0-128.2h-30.8v6.8c-3.7-3.9-11.5-6.4-16.9-6.5
				c-30.9-0.8-47.9,27.5-47.9,61.9c0,34.4,14.7,62,47.9,62c6.5,0,12.2-2.7,17.3-4.7c1.4,24.2,2.2,104.2-50.9,105.9
				c-57.6,1.3-51.3-82.1-51.8-84.4c-3.9,0-31.3,0.1-31.3,0.1c0,0.2-4.2,105.2,79.7,105.2C-352.6-32.5-358.9-141.4-359-150.5"/>
		</g>
		<g transform="translate(329.79 444.73)">
			<path class="st0" d="M-439.3-592.7c-40.4,0-63.3,22.7-74.5,49.4l-0.1,0c-0.2,0.5-0.4,1-0.5,1.5c-0.1,0.1-0.1,0.3-0.2,0.4
				c-5.4,14.2-6,26-6,27.5c1.9,66.8-30.1,70.9-30.1,70.9c-0.5-5.7,0-77.8,0-77.8h-30.7v182.2h30.9v-75.9c0-3.1,27.3-0.2,29.1,34.6
				c0.2,3.1,0,41.4,0,41.4h32.6c-0.7-5,6.6-86.3-34.1-86.9c-6.5-0.1,33.6-9.3,32.4-69.2c-0.3-13.4,1.2-25.5,4.1-35.9
				c6.7-21.4,18.9-40.7,43.9-41.1c56.3-0.7,49.9,91,50.7,92.5c3.9,0,31.4,0,31.4,0C-360.7-479.5-355.2-592.7-439.3-592.7"/>
		</g>
	</g>
</g>
<path class="st2" d="M172.3,302.5c-69.6-5.6-127.8-41.2-153.3-93.7C4.7,179.6,2.5,146.5,12.8,116c7.2-21.4,17.4-37.6,34.9-55
	C61.1,47.5,73.7,38.2,90,29.8c20.3-10.5,39.1-16.7,63.1-21c14.2-2.5,54.2-2.5,68.6,0c43.7,7.7,78,24.6,105.6,52.1
	C340.6,74.3,348,84.3,355.3,99c18.8,37.8,17.4,81.4-3.8,118.5c-22.1,38.7-65,68.4-115.7,80C219.3,301.4,188.2,303.8,172.3,302.5
	L172.3,302.5z M223.7,291.1c40-7.1,73-23.7,98.5-49.4c51-51.4,50.7-124-0.6-175.2c-13-12.9-25.6-21.9-43.4-30.8
	C217,5.1,140.4,8,83.2,42.9C26.1,77.9,1.8,138,22,194.2c18.3,50.9,71.9,89.2,137.7,98.3C175.2,294.7,207.8,294,223.7,291.1
	L223.7,291.1z"/>
</svg>
