<?xml version="1.0" encoding="utf-8"?>
<!-- Generator: Adobe Illustrator 22.0.1, SVG Export Plug-In . SVG Version: 6.00 Build 0)  -->
<svg version="1.1"
	 id="svg5890" xmlns:cc="http://creativecommons.org/ns#" xmlns:dc="http://purl.org/dc/elements/1.1/" xmlns:rdf="http://www.w3.org/1999/02/22-rdf-syntax-ns#" xmlns:svg="http://www.w3.org/2000/svg"
	 xmlns="http://www.w3.org/2000/svg" xmlns:xlink="http://www.w3.org/1999/xlink" x="0px" y="0px" viewBox="0 0 500 229.5"
	 style="enable-background:new 0 0 500 229.5;" xml:space="preserve">
<style type="text/css">
	.st0{fill:#004990;}
	.st1{fill:#FFFFFF;}
</style>
<path id="path5808" class="st0" d="M250,0L120.9,55.3H40.3v22.6H0v151.7h500V77.9h-40.3V55.3h-80.5L250,0z"/>
<path class="st1" d="M369.3,95.7l0,24.5l15.9,0l3.3-24.5L369.3,95.7L369.3,95.7z M455,116.9c1,0,1.9-0.1,1.9-1.3
	c0-1-0.9-1.2-1.8-1.2h-1.7v2.5L455,116.9L455,116.9z M453.6,121.4h-1.2v-8h3.1c1.9,0,2.8,0.7,2.8,2.3c0,1.4-0.9,2.1-2.1,2.2l2.3,3.5
	h-1.4l-2.1-3.5h-1.4L453.6,121.4L453.6,121.4z M455,123.2c3.1,0,5.6-2.5,5.6-5.8c0-3.3-2.5-5.8-5.6-5.8c-3.2,0-5.7,2.5-5.7,5.8
	C449.4,120.7,451.9,123.2,455,123.2 M448,117.4c0-4,3.2-6.9,7.1-6.9c3.8,0,7,2.9,7,6.9c0,4-3.2,7-7,7
	C451.2,124.4,448,121.4,448,117.4 M79.8,179.2V95.6H56.9v103.5h58.2v-19.9H79.8z M309.8,199.1h54.4v-19.9h-31.4v-13h31.4V147h-31.4
	V134h31.4v-20h-54.4v0.1V199.1z M167.4,134h-20.1v45.1h20.1V134z M190.2,188.2c0,6-4.9,10.9-10.9,10.9h-44.1
	c-6,0-10.9-4.9-10.9-10.9v-63.4c0-6,4.9-10.9,10.9-10.9h44.1c6,0,10.9,4.9,10.9,10.9V188.2z M273.9,114v65.3h-13.8V114H240v65.3
	h-13.8V114h-22.9v74.3c0,6,4.9,10.9,10.9,10.9h27.1c4.6,0,8.8-3.2,8.8-7.7c0,4.6,4.2,7.7,8.8,7.7h27.1c6,0,10.9-4.9,10.9-10.9V114
	H273.9L273.9,114z M444.5,166.9L444.5,166.9l-0.1-0.3c-0.1-0.2-0.2-0.4-0.3-0.5l-0.1-0.3c-3.6-7.3-11.7-13.3-24.8-18.6l-0.5-0.2
	c-2.6-1-10.4-4.1-11.3-9.1c-0.2-1.4,0.3-3.6,1.9-4.9c1.6-1.7,4.2-2.5,7.5-2.5c5.3,0,11.4,2.2,14.5,3.5c6.6,2.7,12.4,5.2,12.5,5.2
	l0.6,0.2v-18.6l-0.2-0.1c-0.1-0.1-12.6-8-25.2-9.8c-1.4-0.1-2.9-0.2-4.3-0.2c-11.6,0-20.4,4.2-26.1,12.5c-4.8,6.8-5.3,17.7-1.3,25.7
	c5.3,9.1,13.7,12.9,21.9,16.6c3.4,1.5,6.8,3.1,10.1,5l0,0c3.7,2.2,5.6,5.6,4.8,8.6c-0.8,3.1-4.4,5.2-8.9,5.2c-0.6,0-1.2,0-1.8-0.1
	l-0.2,0c-8.7-1.2-26.2-7.7-26.4-7.8l-0.6-0.2v20.4l0.3,0.1c0.2,0.1,17.2,5.7,32.3,5.7h0c8.2,0,14.5-1.7,18.5-4.9
	c0.1-0.1,9.3-7.5,9.7-20.1C446.9,174,446.1,170.5,444.5,166.9"/>
</svg>
