<?xml version="1.0" encoding="utf-8"?>
<!-- Generator: Adobe Illustrator 22.0.1, SVG Export Plug-In . SVG Version: 6.00 Build 0)  -->
<svg version="1.1" id="Layer_1" xmlns="http://www.w3.org/2000/svg" xmlns:xlink="http://www.w3.org/1999/xlink" x="0px" y="0px"
	 viewBox="0 0 500 217.4" style="enable-background:new 0 0 500 217.4;" xml:space="preserve">
<style type="text/css">
	.st0{fill:#55565A;}
</style>
<path class="st0" d="M391.3,1.1h-21.2v212.2h21.2v-55.7l26.1-21.7l56,77.4H500l-66.6-92.4l63.9-55.4h-29.1l-76.9,67.4V1.1z
	 M145.4,61.1c-32.9,0-57.9,15.5-59.2,50v1.9h21.5v-1.9c0.5-22.3,15.2-31.5,36.4-31.5c20.4,0.3,35.3,5.2,35.6,27.7
	c-0.3,14.9-6.3,15.5-20.9,17.7c-18.8,2.2-38.3,3.5-53.3,9.8c-14.9,6-25.5,17.7-25.5,38.6c0,14.9,5.7,26.1,14.9,33.4
	s21.7,10.6,35.1,10.6h0.5c25.5,0,39.1-9.8,50.5-26.1c0.3,5.4,1.4,10.3,3.8,14.1c3.3,4.9,9.2,7.9,18.2,7.9h0.3
	c4.9,0,7.9-0.3,11.7-1.1l1.4-0.3v-19l-2.7,1.1c-1.1,0.5-3.3,1.1-4.9,1.1c-6.2-0.3-8.2-2.7-8.4-8.7v-76.9c0-19.8-7.1-32.1-17.7-39.1
	c-10.6-7.1-24.2-9-37-9h-0.3 M131.2,198.9c-15.8,0-30.2-10.3-30.2-26.6c0-13,8.2-19.3,20.9-23.4c12.5-4.1,29.3-5.2,44.3-7.9
	c3.5-0.8,9.2-1.4,13-4.1v19.3C179.3,182.6,157.1,198.6,131.2,198.9 M291.3,61.1H291c-45.1,0-69.6,36.1-69.8,78
	c0,41.8,24.7,78,69.8,78h0.3c32.6,0,56.2-22.3,60.9-57.3l0.3-2.2H331l-0.3,1.6c-2.2,23.1-19.3,39.4-39.7,39.4
	c-32.3,0-48.4-29.3-48.4-59.5S259,79.6,291,79.6c22,0,34,12.2,38.9,33.2l0.3,1.4h21.2l-0.3-2.2C347,78.5,322.6,61.1,291.3,61.1
	 M69.8,63.3c-22.6,0-40.2,11.4-50,30.2v-28H0v147.8h21.2v-78.8c0-28,19.3-49.7,48.4-49.7h4.9V63.3L69.8,63.3L69.8,63.3z M103,21.2
	c6-1.6,9.2-5.4,9.2-10.9c0-3-1.1-5.4-3-7.1c-1.9-1.6-4.9-2.4-8.4-2.4H88.6v0.3c0,0,0.5,10.6,0.5,16.3c0,8.4-0.5,24.5-0.5,24.5v0.3
	h6.5v-0.3c0,0-0.5-4.6-0.5-13.6V7.1c0-1.9-0.3-3-0.3-3.3h3.8c5.4,0,8.2,3,8.2,7.6c0,5.4-3.3,7.9-9.8,7.9h-1.1v0.3
	c8.7,15.5,12.2,22.6,12.2,22.6h6.8v-0.3C114.7,41.6,107.1,28.5,103,21.2 M244.6,21.2c6-1.6,9.2-5.4,9.2-10.9c0-3-1.1-5.4-3-7.1
	c-1.9-1.6-4.9-2.4-8.4-2.4h-12.2v0.3c0,0,0.5,10.6,0.5,16.3c0,8.4-0.5,24.5-0.5,24.5v0.3h6.5v-0.3c0,0-0.5-4.6-0.5-13.6V7.1
	c0-1.9-0.3-3-0.3-3.3h3.8c5.4,0,8.2,3,8.2,7.6c0,5.4-3.3,7.9-9.8,7.9H237l0.3,0.3c8.7,15.5,12.2,22.6,12.2,22.6h6.8v-0.3
	C256,41.6,248.4,28.5,244.6,21.2 M347.6,41.8l-2.2-41h-3.8c0,0-6.8,16.8-11.1,27.4c-0.5,1.1-0.8,2.2-1.4,3.5
	c-0.3-1.4-1.1-2.4-1.6-3.8c-4.9-10.3-12.2-27.2-12.2-27.2h-3.8l-2.4,41h4.3v-0.3c0,0,0.3-13,1.1-23.4c0-1.4,0.3-3.3,0.3-5.2v-0.5
	c0.5,1.4,1.4,3.8,2.2,5.2c4.9,10.6,11.1,25,11.1,25l0.3,0.3L339.7,16c0.5-1.4,1.1-2.4,1.4-3.5V16c0.5,10.6,0.8,25.3,0.8,25.3v0.3
	L347.6,41.8L347.6,41.8z M194.6,5.2c0.3,0,3.3-1.1,7.9-1.1h2.4v11.7c0,11.4-0.5,26.1-0.5,26.1v0.3h6.8v-0.3c0,0-0.5-14.7-0.5-26.1
	V6.2V4.1h2.4c4.9,0,7.6,1.1,7.6,1.1h0.3V0.8h-26.4L194.6,5.2L194.6,5.2z M178.8,17.1c-4.9-3-7.6-4.6-7.6-8.2c0-3.8,3.8-6.2,7.3-6.2
	c2.4,0,4.6,0.8,6,1.6c1.4,0.8,2.2,1.6,2.2,1.6l0.3,0.3V1.4c-1.4-0.3-4.6-1.4-7.9-1.4h-0.8c-6.5,0.3-12,4.6-12,10.9V12
	c0.5,5.4,4.1,7.9,9.5,11.1c4.3,2.4,7.1,4.6,7.6,8.2v1.1c0,3.8-3.3,7.1-7.3,7.3h-0.3c-2.7,0-4.9-0.8-6.3-1.6
	c-1.4-0.8-2.2-1.6-2.2-1.6l-0.3-0.3v5.2c1.4,0.5,4.9,1.4,8.7,1.4c7.1,0,13-5.2,13-12.5C188.9,24.2,185.3,20.9,178.8,17.1 M23.9,1.1
	c0,0,0.5,3.8,0.5,14.4v11.4c0,1.6,0.3,3.5,0.3,4.6c-0.8-1.4-1.6-3-2.4-3.8C14.7,17.1,3.5,1.1,3.5,1.1h-3v0.3c0,0,0.3,5.7,0.3,8.4
	C0.5,25.3,0,41.8,0,41.8v0.3h4.6v-0.3c0,0-0.5-4.6-0.5-14.4V16.3c0-1.4-0.3-3.5-0.3-4.6C4.3,13,5.2,13.9,6,15.2
	c7.6,10.6,18.8,26.4,18.8,26.4H28v-0.3c0,0-0.3-6.8-0.3-8.4c0-17.4,0.5-32.1,0.5-32.1V0.5C28.3,0.5,23.9,1.1,23.9,1.1z M280.7,39.4
	c-8.2,0-12.5-6.5-12.5-18.5c0-11.4,4.3-17.9,12.5-17.9c8.2,0,12.5,6.5,12.5,18.2C293.5,33.2,288.9,39.4,280.7,39.4 M280.7,0.3
	c-11.1,0-19,9-19,21.2s7.9,21.2,19,21.2c11.4,0,19-8.7,19-21.2c0-6.2-1.9-11.7-5.2-15.2C291.3,2.2,286.4,0.3,280.7,0.3 M135.3,39.1
	c-3,0-4.6-0.3-5.2-0.3c0-0.3,0.3-1.4,0.3-2.4v-0.3c0-3.3-0.3-9.2-0.3-14.7V6.5c0-1.1-0.3-1.9-0.3-2.4c0.5,0,2.4-0.3,6-0.3
	c9.8,0,14.9,6.2,14.9,17.1C151.1,32.6,145.9,39.1,135.3,39.1 M139.1,0.8h-14.7v0.3c0,0,0.3,13,0.3,20.4c0,7.6-0.3,20.4-0.3,20.4v0.3
	h12.8c6.2,0,11.4-1.9,14.7-5.7c3.5-3.8,5.2-9,5.2-15.5s-1.6-11.4-4.6-14.7C149.7,2.4,145.1,0.8,139.1,0.8 M58.7,39.4
	c-8.2,0-12.5-6.5-12.5-18.5C46.2,9.5,50.5,3,58.7,3s12.5,6.5,12.5,18.2C71.2,33.2,66.8,39.4,58.7,39.4 M58.7,0.3
	c-11.1,0-19,9-19,21.2s7.9,21.2,19,21.2c11.4,0,19-8.7,19-21.2c0-6.3-1.9-11.7-5.2-15.2C69.3,2.2,64.4,0.3,58.7,0.3"/>
</svg>
