<?xml version="1.0" encoding="utf-8"?>
<!-- Generator: Adobe Illustrator 22.0.1, SVG Export Plug-In . SVG Version: 6.00 Build 0)  -->
<svg version="1.1"
	 id="Layer_1" inkscape:version="0.44.1" sodipodi:docbase="C:\Documents and Settings\Sigurd\Mine dokumenter\Mine bilder" sodipodi:docname="Playstation logo colour.svg" sodipodi:version="0.32" xmlns:cc="http://web.resource.org/cc/" xmlns:dc="http://purl.org/dc/elements/1.1/" xmlns:inkscape="http://www.inkscape.org/namespaces/inkscape" xmlns:rdf="http://www.w3.org/1999/02/22-rdf-syntax-ns#" xmlns:sodipodi="http://sodipodi.sourceforge.net/DTD/sodipodi-0.dtd" xmlns:svg="http://www.w3.org/2000/svg"
	 xmlns="http://www.w3.org/2000/svg" xmlns:xlink="http://www.w3.org/1999/xlink" x="0px" y="0px" viewBox="0 0 713.2 541.9"
	 style="enable-background:new 0 0 713.2 541.9;" xml:space="preserve">
<style type="text/css">
	.st0{fill:#DE0029;}
	.st1{fill:#F3C202;}
	.st2{fill:#326DB3;}
	.st3{fill:#00AA9E;}
</style>
<g id="g3" transform="translate(-61.68556,-312.8684)">
	<path id="path7" class="st0" d="M446.5,425.5L446,854.7l-115-37.4V312.9l146.8,38.8c94,25.3,151.5,74.3,150.5,160.4
		c-0.9,100.1-47.2,140.3-137.4,114.1V428.8C490.9,405,446.5,403.6,446.5,425.5L446.5,425.5z"/>
	<path id="path9" class="st1" d="M278.2,734.1L224,752.3c-35.1,12.2-65-16.4-32.7-28.1l26.2-9.3l-98.6-31.3
		c-30.4,10.3-58.9,32.3-57,63.1c1.9,31.3,73.4,38.8,128.6,47.7c51.4,8.4,98.2,3.7,140.7-11.2v-32.3L278.2,734.1L278.2,734.1z
		 M447,854.7l100.5-35.1L446,787.4v65L447,854.7L447,854.7z"/>
	<path id="path11" class="st2" d="M714.3,760.8l1.9-0.5c43.9-15.4,62.6-36.9,58-57c-7.5-33.7-61.2-51.9-144-58
		c-59.4-4.2-117.8,8.9-174.8,28.5l-9.3,3.3l102.4,31.8l59.8-20.1c62.6-11.7,87.9,8.9,27.6,28.1l-29.9,10.3L714.3,760.8L714.3,760.8z
		 M331,612.1l-45.3,15.4l45.3,14V612.1L331,612.1z"/>
	<path id="path13" class="st3" d="M547.5,819.7l166.9-58.9l-108.5-33.7L446,781.8v5.6L547.5,819.7L547.5,819.7z M331,716.3
		l-52.8,17.8l52.8,16.8V716.3L331,716.3z M446,743.9v-66.9l102.4,31.8L446,743.9L446,743.9z M217.4,714.9L331,674.3v-32.7l-45.3-14
		l-164.5,55.6c-0.5,0-1.4,0.5-2.3,0.5L217.4,714.9L217.4,714.9z"/>
</g>
</svg>
