<?xml version="1.0" encoding="utf-8"?>
<!-- Generator: Adobe Illustrator 22.0.1, SVG Export Plug-In . SVG Version: 6.00 Build 0)  -->
<svg version="1.1" id="svg2" xmlns:svg="http://www.w3.org/2000/svg"
	 xmlns="http://www.w3.org/2000/svg" xmlns:xlink="http://www.w3.org/1999/xlink" x="0px" y="0px" viewBox="0 0 885.8 185.5"
	 style="enable-background:new 0 0 885.8 185.5;" xml:space="preserve">
<style type="text/css">
	.st0{fill:#3E902D;}
</style>
<path class="st0" d="M546.8,181.1h31.3V7.6h-31.3V181.1z M641.6,181.1H673V52.2h-31.4V181.1z M780.9,146.1
	c-10.4,20.1-18.5,35.4-19,35.4h-32.6l33.2-65.5l-38.7-63.6h33.9l19.9,33.2l16.7-33.2h33.9c0,0-15.9,31.9-32.3,64l39.1,65.1h-32.6
	L780.9,146.1 M186.1,125.4l-0.1-73.1h29.7c0.6,23.8-0.4,50.9,0,73.4c0,15.5,12.4,28.9,27.9,28.9c15.5,0,27.9-11.5,27.9-27.1
	l-0.1-75.2h30.1c0,38.1-0.4,45.6,0,74.2c0,31.9-26.4,57.8-58.3,57.8C211.3,184.2,186.1,157.3,186.1,125.4 M423.2,153.4
	c19.9,0,36.1-16.2,36.1-36.1c0-19.9-16.2-36.1-36.1-36.1c-19.9,0-36.1,16.2-36.1,36.1C387.1,137.3,403.3,153.4,423.2,153.4
	 M423.4,49c37.7,0,68.3,30.6,68.3,68.3c0,37.7-30.6,68.3-68.3,68.3c-37.7,0-68.7-32.7-68.7-70.4l0.1-107.6h31.3l-0.2,54.2
	C396.8,54.3,409.3,49,423.4,49 M68.2,106.8c19.9,0,36-16.1,36-35.9c0-19.8-16.1-35.9-36-35.9c-19.8,0-35.9,16.1-35.9,35.9
	C32.3,90.8,48.3,106.8,68.2,106.8 M68.2,2.6c37.7,0,68.3,30.6,68.3,68.3c0,37.7-30.6,68.3-68.3,68.3c-13.5,0-26.2-3.5-36.8-10.3
	l-0.1,52.4H0L0,69.6C0,31.9,30.5,2.6,68.2,2.6 M872.5,167.5c1.9,0,3.5-0.2,3.5-2.4c0-1.8-1.8-2.1-3.3-2.1h-3v4.5H872.5z
	 M869.7,176.2h-2.5v-15.2h5.7c3.7,0,5.6,1.3,5.6,4.4c0,2.8-1.7,3.9-4,4.2l4.3,6.7H876l-4-6.6h-2.4V176.2z M861.7,168.5
	c0,6.3,4.6,11,10.6,11c5.9,0,10.5-4.7,10.5-11c0-6.2-4.6-10.9-10.5-10.9C866.4,157.6,861.7,162.3,861.7,168.5 M858.8,168.5
	c0-7.8,6.3-13.3,13.6-13.3c7.2,0,13.5,5.5,13.5,13.3c0,7.9-6.3,13.4-13.5,13.4C865.1,181.9,858.8,176.4,858.8,168.5 M658.8,38.7
	c10.7,0,19.4-8.7,19.4-19.4c0-10.7-8.7-19.4-19.4-19.4c-10.7,0-19.4,8.7-19.4,19.4C639.4,30.1,648.1,38.7,658.8,38.7"/>
</svg>
