<?xml version="1.0" encoding="utf-8"?>
<!-- Generator: Adobe Illustrator 22.0.1, SVG Export Plug-In . SVG Version: 6.00 Build 0)  -->
<svg version="1.1" id="Layer_1" xmlns="http://www.w3.org/2000/svg" xmlns:xlink="http://www.w3.org/1999/xlink" x="0px" y="0px"
	 viewBox="0 0 500 130.5" style="enable-background:new 0 0 500 130.5;" xml:space="preserve">
<style type="text/css">
	.st0{fill:#C31230;}
</style>
<path class="st0" d="M173.6,30.4l17-30.4h31.1l-29.9,52.1l26.4,45.6h-29.9l-14.9-25.8l-30,54.7h-31.7l42.9-74.3L124.6,0h32.1
	L173.6,30.4z M32.5,25.3H10.8h-10H0V0h38.1h17.2h39.9v25.3h-0.7h-9.7H62.5v44.5v56.4v0.3H47.7H32.5v-0.3V69.8V25.3z M97.5,0h28.6
	v78.9c0,36.1-17.4,48.8-45.2,48.8c-6.5,0-10.4-0.1-16.1-2.1v-22.4c9,0.1,11.1-0.1,12.8-0.3c9.2-0.7,19.9-4.6,19.9-24.3V0L97.5,0z
	 M225.9,3.8V6h1.9c0.6,0,1.1-0.1,1.1-1c0.1-1.1-0.7-1.3-1.1-1.3C228,3.8,225.9,3.8,225.9,3.8z M225.2,3.1h2.8c1,0,1.9,0.1,1.9,1.5
	c0,0.8-0.3,1.1-0.8,1.5c0.7,0.4,0.7,0.6,0.7,1.5c0,0.8,0,1,0.3,1.5h-0.8l-0.1-0.8c-0.1-0.7,0.3-1.9-1.1-1.9h-2.1V9h-0.8L225.2,3.1
	L225.2,3.1z M227.3,1.3c-2.8,0-5,2.2-5,5s2.2,5,5,5s5-2.2,5-5C232.3,3.6,230.1,1.3,227.3,1.3 M227.3,11.9c-3.2,0-5.7-2.5-5.7-5.7
	c0-3.1,2.5-5.7,5.7-5.7c3.1,0,5.7,2.5,5.7,5.7C233,9.4,230.4,11.9,227.3,11.9 M179.1,110.9h-1.3c-0.1-1.4-0.3-3.6-2.1-4.4
	c-0.6-0.3-1.4-0.3-2.6-0.3l-1.8,16.5c-0.1,0.8-0.3,2.2,0.6,2.8c0.3,0.3,0.7,0.3,1.3,0.4l-0.1,0.8h-8.9l0.1-0.8c0.6,0,1-0.1,1.4-0.4
	c1-0.7,1.1-2.1,1.3-2.8l1.8-16.5c-1.3,0-2.1,0-2.6,0.3c-1.9,0.8-2.6,3.1-3.1,4.4h-1.3l1-6.3h16.5L179.1,110.9z M194.7,108.7
	c0.1-0.8,0.3-2.2-0.6-2.9c-0.3-0.3-0.7-0.3-1.3-0.4l0.1-0.8h8.9l-0.1,0.8c-0.6,0-1,0.1-1.4,0.4c-1,0.7-1.1,2.1-1.3,2.9l-1.5,13.9
	c-0.1,0.8-0.3,2.2,0.6,2.8c0.4,0.3,0.7,0.3,1.3,0.4l-0.1,0.8h-8.9l0.1-0.8c0.6,0,1-0.1,1.4-0.4c1-0.7,1.1-2.1,1.3-2.8l0.8-7.1h-9.2
	l-0.8,7.1c-0.1,0.8-0.3,2.2,0.6,2.8c0.3,0.3,0.7,0.3,1.3,0.4l-0.1,0.8h-8.9l0.1-0.8c0.6,0,1-0.1,1.4-0.4c1-0.7,1.1-2.1,1.3-2.8
	l1.5-13.9c0.1-0.8,0.3-2.2-0.6-2.9c-0.3-0.3-0.7-0.3-1.3-0.4l0.1-0.8h8.9l-0.1,0.8c-0.6,0-1,0.1-1.4,0.4c-1,0.7-1.1,2.1-1.3,2.9
	l-0.7,5.3h9.2L194.7,108.7z M199,125.8c0.6,0,1-0.1,1.4-0.4c1-0.7,1.1-2.1,1.3-2.8l1.5-13.9c0.1-0.8,0.3-2.2-0.6-2.9
	c-0.3-0.3-0.7-0.3-1.3-0.4l0.1-0.8h14.5l-0.1,5l-1.1,0.3c-0.6-2.1-1-3.1-2.8-3.8c-0.7-0.1-2.1-0.3-3.9-0.3l-1,8.8
	c1.5,0,3.2,0.1,4.2-1.5c0.3-0.6,0.4-1,0.7-1.5h1.3l-0.8,7.6h-1.3c0-0.7,0-1.1-0.3-1.5c-0.7-1.7-2.2-1.5-3.9-1.5l-0.6,5.1
	c-0.1,0.8-0.3,3.2,0.3,3.6c0.8,0.6,4,0.1,5-0.1c2.1-0.8,2.5-2.5,3.2-4.2l1.1,0.3l-1,5.8h-15.7L199,125.8z M241.4,110.9h-1.3
	c-0.1-1.4-0.3-3.6-2.1-4.4c-0.6-0.3-1.4-0.3-2.6-0.3l-1.8,16.5c-0.1,0.8-0.3,2.2,0.6,2.8c0.3,0.3,0.7,0.3,1.3,0.4l-0.1,0.8h-8.8
	l0.1-0.8c0.6,0,1-0.1,1.4-0.4c1-0.7,1.1-2.1,1.3-2.8l1.8-16.5c-1.3,0-2.1,0-2.6,0.3c-1.9,0.8-2.6,3.1-3.1,4.4h-1.3l1-6.3h16.5
	L241.4,110.9z M245.4,126c-2.2,1.7-6.7,1.3-8.8,0.7l0.6-4.7h1.8c0,1.1,0.3,2.6,1.3,3.2c0.6,0.3,1,0.1,1.3,0c1-0.6,1.1-1.9,1.1-2.8
	l1.5-13.8c0.1-0.8,0.3-2.2-0.7-2.9c-0.4-0.3-0.8-0.3-1.5-0.4l0.1-0.8h10l-0.1,0.8c-0.6,0-1.1,0.1-1.5,0.4c-1.1,0.7-1.3,2.1-1.4,2.9
	l-1.3,11.9C247.8,122.3,247.6,124.4,245.4,126 M259.7,105.5c-0.4,0-1.4,0.1-1.7,1c-0.3,0.7,0.3,1.9,1.1,3.3l1.7,3.2l2.1-2.4
	c1.4-1.5,2.4-2.9,2.2-4c0-0.8-0.6-1-1.5-1l0.1-0.8h7.2l-0.1,0.8c-1.5,0-2.5,1.3-4,3.2l-5,5.8l4,7.9c1.3,2.6,1.8,3.3,3.5,3.3
	l-0.1,0.8h-9.9l0.1-0.8c0.6,0,1.4-0.1,1.8-0.8c0.1-0.4-0.6-1.8-1.1-3.1l-1.9-3.8l-2.5,3.2c-1,1.1-2.2,2.6-1.9,3.6
	c0.1,0.6,0.8,0.8,1.4,0.8l-0.1,0.8h-7.5l0.1-0.8c1.9-0.1,3.1-1.3,5.3-4l4.3-5.1l-4.2-8.1c-1-2.1-1.3-2.9-2.9-3.1l0.1-0.8h9.6
	L259.7,105.5z M293.3,111h-1.3c-0.1-2.5-0.6-4.3-3.1-5.4c-1.7-0.7-4-0.7-6,1c-3.1,2.4-4,6.9-4.2,9.7c0,2.5,0.7,7.1,3.6,8.9
	c1.7,1,3.6,0.8,5.7-0.7c1.9-1.4,3.1-2.9,4.3-4.3l-0.3,4.3c-4.3,2.6-10.3,3.8-14.2,1.3c-3.3-2.1-4.3-5.1-4.3-8.6
	c0.1-3.3,1.3-7.5,4.9-10.4c4.6-3.6,11.7-2.6,15.1-1.3L293.3,111z M299.9,111.4c-1.1,3.6-1.4,9.4,1.1,12.6c1.4,1.7,3.1,2.2,4.6,1.8
	c2.4-0.6,3.5-2.2,4.4-4.6c1.5-3.8,1.9-9.7-0.4-13.6c-1.3-2.1-3.1-2.4-4.2-2.2c-0.3,0-0.8,0.1-1.4,0.4
	C301.7,106.9,300.6,109.5,299.9,111.4 M315.3,120.2c-1.4,3.6-4.4,5.7-7.8,6.7c-3.3,1-8.3,0.1-11.1-2.9c-2.4-2.6-2.6-6.8-1.9-9.7
	c1.1-4.3,4.3-7.4,6.8-8.6c5.6-2.8,11.3-0.8,13.8,3.2C317,112.1,316.7,116.6,315.3,120.2 M328.5,120.5l7.8-15.8h6.4l-0.1,0.8
	c-0.3,0-0.8,0-1.1,0.3c-1.1,0.8-1.1,1.9-1.3,3.1l-1.4,13.9c-0.1,2.1-0.1,3.1,1.8,3.2l-0.1,0.8h-8.8l0.1-0.8c0.6,0,1,0,1.4-0.4
	c1-0.7,1-1.8,1.1-2.9l1.3-13.5l-8.8,17.6h-1.5l-4.3-17l-1.5,12.1c-0.3,2.5-0.4,3.6,2.4,3.9l-0.1,0.8h-6.9l0.1-0.8
	c0.7,0,1.1-0.1,1.5-0.4c1-0.7,1.1-2.2,1.3-2.9l1.8-13.6c0.3-1.9,0.6-3.1-1.7-3.2l0.1-0.8h6.4L328.5,120.5z M352.7,113.1
	c0.7-1.7,0.8-4.4,0-6c-0.8-1.5-2.6-1.3-3.2-1.1l-1,9.2c0.4,0.1,0.8,0.3,1.7,0.3C351.3,115.3,352.2,114.4,352.7,113.1 M357.7,107.3
	c0.7,1.7,0.4,4.6-0.6,6.3c-1.8,2.9-5.3,3.1-7.6,3.1h-1.1l-0.7,6c-0.1,0.8-0.3,2.2,0.6,2.8c0.3,0.3,0.7,0.3,1.3,0.4l-0.1,0.8h-8.9
	l0.1-0.8c0.6,0,1-0.1,1.4-0.4c1-0.7,1.1-2.1,1.3-2.8l1.5-13.9c0.1-0.8,0.3-2.2-0.6-2.9c-0.3-0.3-0.7-0.3-1.3-0.4l0.1-0.8h8.2
	C353.1,104.6,356.4,104.5,357.7,107.3 M364.2,117.8l-1.7-6.9l-2.9,6.9H364.2z M365.3,104.6l4.9,17.6c0.7,2.4,1.1,3.1,2.5,3.3l-0.1,1
	h-8.9l0.1-0.8c0.6,0,1.3,0,1.7-0.7c0.4-0.6,0-1.8-0.4-3.5l-0.6-2.2h-5.6c-0.7,1.8-2.1,4.9-1.7,5.6s1,0.8,1.8,0.8l-0.1,0.8H352
	l0.1-0.7c1.8-0.3,2.4-1.1,3.8-3.9l8.3-17.5h1.1V104.6z M388,105.5l0.1-0.8h6.5l-0.1,0.8c-2.4,0.3-2.6,1.3-2.9,3.9l-1.9,17.5h-1.9
	l-11.5-17.1l-1.4,12.2c-0.3,2.6-0.1,3.6,2.1,3.8l-0.1,0.8h-6.5l0.1-0.8c2.4-0.3,2.6-1.3,2.9-3.8l1.4-12.5c0.1-1.3,0.4-2.8-0.8-3.6
	c-0.3-0.3-1-0.3-1.4-0.4l0.1-0.8h6.3l10.1,15l1.1-10.4C390.3,106.7,390.2,105.6,388,105.5 M395.5,105.7c-0.3-0.3-0.7-0.3-1.3-0.4
	l0.1-0.8h8.9l-0.1,0.8c-0.6,0-1,0.1-1.4,0.4c-1,0.7-1.1,2.1-1.3,2.9l-1.5,13.9c-0.1,0.8-0.3,2.2,0.6,2.8c0.3,0.3,0.7,0.3,1.3,0.4
	l-0.1,0.8h-8.8l0.1-0.8c0.6,0,1-0.1,1.4-0.4c1-0.7,1.1-2.1,1.3-2.8l1.5-13.9C396.2,107.8,396.4,106.4,395.5,105.7 M400.9,125.8
	c0.6,0,1-0.1,1.4-0.4c1-0.7,1.1-2.1,1.3-2.8l1.5-13.9c0.1-0.8,0.3-2.2-0.6-2.9c-0.3-0.3-0.7-0.3-1.3-0.4l0.1-0.8h14.5l-0.1,5
	l-1.1,0.3c-0.6-2.1-1-3.1-2.8-3.8c-0.7-0.1-2.1-0.3-3.9-0.3l-1,8.8c1.5,0,3.2,0.1,4.2-1.5c0.3-0.6,0.4-1,0.7-1.5h1.3l-0.8,7.6h-1.5
	c0-0.7-0.1-1.1-0.3-1.5c-0.7-1.7-2.2-1.5-3.9-1.5l-0.6,5.1c-0.1,0.8-0.3,3.2,0.3,3.6c0.8,0.6,4,0.1,5-0.1c2.1-0.8,2.5-2.5,3.2-4.2
	l1.1,0.3l-1,5.8h-15.7V125.8z M432.3,110.5l-1.3,0.1c0-1.3-0.3-3.9-1.9-4.7c-0.8-0.4-2.6-0.4-3.5,0.3c-1.1,0.8-1.5,2.2-1.7,3.2
	c0,1.7,1.4,2.5,2.8,3.3l1.5,0.8c2.8,1.7,4.3,2.8,4.2,6.1c-0.1,1.9-1.1,4.7-3.5,6.4c-2.6,1.8-8.3,1-10.8,0.1l0.6-5.6h1.3
	c0.1,2.1,0.4,4,2.6,5c1,0.4,2.6,0.6,3.9-0.3c1-0.8,1.5-2.1,1.7-3.3c0-2.2-1.9-3.2-3.3-3.9l-1.5-0.8c-2.1-1.1-3.6-2.1-3.8-5
	c-0.1-1.5,0.6-3.9,2.1-5.6c2.9-3.1,7.2-2.5,9.7-2.1c0,0,1.5,0.3,1.7,0.4L432.3,110.5z M433.1,122.6h3.6l-3.3,7.9h-3.2L433.1,122.6z
	 M447.1,105.7c-0.3-0.3-0.7-0.3-1.3-0.4l0.1-0.8h8.9l-0.1,0.8c-0.6,0-1,0.1-1.4,0.4c-1,0.7-1.1,2.1-1.3,2.9l-1.5,13.9
	c-0.1,0.8-0.3,2.2,0.6,2.8c0.3,0.3,0.7,0.3,1.3,0.4l-0.1,0.8h-8.9l0.1-0.8c0.6,0,1-0.1,1.4-0.4c1-0.7,1.1-2.1,1.3-2.8l1.5-13.9
	C447.8,107.8,448,106.4,447.1,105.7 M470.9,105.5l0.1-0.8h6.5l-0.1,0.8c-2.4,0.3-2.6,1.3-2.9,3.9l-1.9,17.5h-1.9l-11.5-17.1
	l-1.4,12.2c-0.3,2.6-0.1,3.6,2.1,3.8l-0.1,0.8h-6.5l0.1-0.8c2.4-0.3,2.6-1.3,2.9-3.8l1.4-12.5c0.1-1.3,0.4-2.8-0.8-3.6
	c-0.3-0.3-1-0.3-1.4-0.4l0.1-0.8h6.3l10.1,15l1.1-10.4C473.3,106.7,473.1,105.6,470.9,105.5 M495.1,111h-1.3
	c-0.1-2.5-0.6-4.3-3.1-5.4c-1.7-0.7-4-0.7-6,1c-2.9,2.4-4,6.9-4,9.7c0,2.5,0.7,7.1,3.6,8.9c1.7,1,3.6,0.8,5.7-0.7
	c1.9-1.4,3.1-2.9,4.3-4.3l-0.3,4.3c-4.3,2.8-10.3,3.8-14.2,1.3c-3.3-2.1-4.3-5.1-4.2-8.6c0.1-3.3,1.3-7.5,4.9-10.4
	c4.6-3.6,11.7-2.6,15.1-1.3L495.1,111z M495.4,123.8c0.3-0.7,1-1.3,1.7-1.4c0.7-0.1,1.5,0,2.2,0.7s0.8,1.5,0.7,2.2
	c-0.1,0.8-0.7,1.5-1.5,1.8c-0.8,0.3-1.7,0.1-2.4-0.4C495.2,126,494.9,124.8,495.4,123.8"/>
</svg>
