<?xml version="1.0" encoding="utf-8"?>
<!-- Generator: Adobe Illustrator 22.0.1, SVG Export Plug-In . SVG Version: 6.00 Build 0)  -->
<svg version="1.1"
	 id="Layer_1" xmlns:cc="http://creativecommons.org/ns#" xmlns:dc="http://purl.org/dc/elements/1.1/" xmlns:rdf="http://www.w3.org/1999/02/22-rdf-syntax-ns#"
	 xmlns="http://www.w3.org/2000/svg" xmlns:xlink="http://www.w3.org/1999/xlink" x="0px" y="0px" viewBox="0 0 500 120.7"
	 style="enable-background:new 0 0 500 120.7;" xml:space="preserve">
<style type="text/css">
	.st0{fill:#007DC6;}
	.st1{fill:#FFC220;}
</style>
<path class="st0" d="M0,25.3c0,0,12.4,51,14.4,59.3c2.3,9.7,6.5,13.2,18.5,10.8l7.8-31.6c2-7.9,3.3-13.4,4.6-21.4h0.2
	c0.9,8.1,2.2,13.6,3.8,21.5c0,0,3.2,14.3,4.8,21.9c1.6,7.5,6.1,12.3,17.9,9.7l18.5-70.1H75.6l-6.3,30.3c-1.7,8.8-3.2,15.7-4.4,23.8
	h-0.2c-1.1-8-2.5-14.6-4.2-23.2l-6.6-30.9H38.3l-7,30.1c-2,9.1-3.9,16.5-5,24.3H26c-1.2-7.3-2.8-16.6-4.6-25.5
	c0,0-4.2-21.5-5.6-28.9L0,25.3L0,25.3z M142.5,25.3v70.1h14.2V80.5V25.3L142.5,25.3L142.5,25.3z M342.9,25.3V77
	c0,7.1,1.3,12.1,4.2,15.2c2.5,2.7,6.6,4.4,11.6,4.4c4.2,0,8.3-0.8,10.3-1.5l-0.2-11.1c-1.5,0.4-3.1,0.6-5.4,0.6
	c-4.8,0-6.5-3.1-6.5-9.5V55.3h12.4V41.9h-12.4V25.3L342.9,25.3L342.9,25.3z M110.7,41.6c-8.8,0-15.9,2.5-19.7,4.7l2.8,9.6
	c3.5-2.2,9.1-4,14.4-4c8.7,0,10.2,4.9,10.2,8.1v0.8c-19,0-31.1,6.6-31.1,20c0,8.2,6.1,15.9,16.8,15.9c6.6,0,12-2.6,15.3-6.8h0.3
	c0,0,2.2,9.1,14.2,5.6c-0.6-3.8-0.8-7.8-0.8-12.7V64C133,52.1,127.9,41.6,110.7,41.6L110.7,41.6z M195.8,41.6
	c-8.9,0-12.9,4.5-15.3,8.3h-0.2v-7.2h-13.6v52.6H181V64.5c0-1.4,0.2-3,0.7-4.3c1.2-3.1,4.1-6.7,8.7-6.7c5.8,0,8.5,4.9,8.5,11.9v30
	h14.3V64.2c0-1.4,0.2-3,0.6-4.3c1.2-3.5,4.3-6.4,8.6-6.4c5.9,0,8.7,4.8,8.7,13.1v28.8h14.3v-31c0-16.3-8.3-22.8-17.7-22.8
	c-4.2,0-7.4,1-10.4,2.9c-2.5,1.5-4.7,3.7-6.7,6.6h-0.2C208,45.3,202.7,41.6,195.8,41.6L195.8,41.6z M274.3,41.6
	c-8.8,0-15.9,2.5-19.7,4.7l2.8,9.6c3.5-2.2,9.1-4,14.4-4c8.7,0,10.2,4.9,10.2,8.1v0.8c-19,0-31.1,6.6-31.1,20
	c0,8.2,6.1,15.9,16.8,15.9c6.6,0,12-2.6,15.3-6.8h0.3c0,0,2.2,9.1,14.2,5.6c-0.6-3.8-0.8-7.8-0.8-12.7V64
	C296.6,52.1,291.5,41.6,274.3,41.6L274.3,41.6z M333.7,41.6c-5.5,0-11.7,3.5-14.3,11.1H319v-9.9h-12.9v52.6h14.7v-27
	c0-1.5,0.1-2.7,0.3-3.9c1.1-5.6,5.4-9.3,11.6-9.3c1.7,0,2.9,0.2,4.2,0.4V41.9C335.9,41.7,335.1,41.6,333.7,41.6L333.7,41.6z
	 M118.8,70v6.6c0,1-0.1,2-0.4,2.8c-1.1,3.6-4.9,6.7-9.6,6.7c-3.9,0-7.1-2.2-7.1-7C101.7,72,109.7,70,118.8,70L118.8,70z M282.4,70
	v6.6c0,1-0.1,2-0.4,2.8c-1.1,3.6-4.9,6.7-9.6,6.7c-3.9,0-7.1-2.2-7.1-7C265.4,72,273.4,70,282.4,70L282.4,70z"/>
<path class="st1" d="M446.2,0c-4.6,0-8.2,2.6-8.2,5.7l2.8,31.6c0.3,1.9,2.6,3.4,5.5,3.4c2.8,0,5.1-1.5,5.5-3.4l2.8-31.6
	C454.5,2.6,450.8,0,446.2,0L446.2,0z M400.7,25.3c-2.4,0.1-5.1,1.9-6.8,4.8c-2.3,4-1.9,8.4,0.8,10l28.7,13.4c1.8,0.7,4.2-0.6,5.6-3
	c0,0,0,0,0,0c1.4-2.4,1.3-5.2-0.2-6.4l-26-18.2C402.3,25.5,401.5,25.3,400.7,25.3L400.7,25.3z M491.7,25.3c-0.8,0-1.6,0.2-2.2,0.5
	l-26,18.2c-1.5,1.2-1.6,4-0.2,6.4l0,0c1.4,2.4,3.8,3.7,5.6,3l28.8-13.4c2.7-1.6,3.1-6,0.8-10C496.8,27.2,494.1,25.4,491.7,25.3
	L491.7,25.3z M424.6,67c-0.4,0-0.7,0.1-1.1,0.2l-28.7,13.4c-2.7,1.6-3.1,6-0.8,10c2.3,4,6.3,5.9,9,4.3l26-18.2
	c1.5-1.2,1.6-4,0.2-6.4l0,0C428,68.2,426.2,67,424.6,67L424.6,67z M467.9,67c-1.6,0-3.4,1.2-4.6,3.2l0,0c-1.4,2.4-1.3,5.2,0.2,6.4
	l26,18.2c2.7,1.6,6.7-0.3,9.1-4.3c2.3-4,1.9-8.4-0.8-10l-28.8-13.4C468.6,67.1,468.2,67,467.9,67L467.9,67z M446.2,80.1
	c-2.8,0-5.1,1.5-5.4,3.4l-2.8,31.6c0,3.1,3.7,5.7,8.2,5.7c4.6,0,8.3-2.6,8.3-5.7l-2.8-31.6C451.4,81.6,449,80.1,446.2,80.1
	L446.2,80.1L446.2,80.1z"/>
</svg>
