<?xml version="1.0" encoding="utf-8"?>
<!-- Generator: Adobe Illustrator 22.0.1, SVG Export Plug-In . SVG Version: 6.00 Build 0)  -->
<svg version="1.1"
	 id="svg3760" xmlns:cc="http://creativecommons.org/ns#" xmlns:dc="http://purl.org/dc/elements/1.1/" xmlns:rdf="http://www.w3.org/1999/02/22-rdf-syntax-ns#" xmlns:svg="http://www.w3.org/2000/svg"
	 xmlns="http://www.w3.org/2000/svg" xmlns:xlink="http://www.w3.org/1999/xlink" x="0px" y="0px" viewBox="0 0 1000 349.5"
	 style="enable-background:new 0 0 1000 349.5;" xml:space="preserve">
<style type="text/css">
	.st0{fill:#5A2149;}
	.st1{fill:#A8D491;}
	.st2{fill:#FFD400;}
	.st3{fill:#ADBB37;}
	.st4{fill:#995BA2;}
</style>
<path class="st0" d="M989.6,176.1c-5.7,0.1-10.4-4.5-10.4-10.2c0-0.1,0-0.1,0-0.2c-0.1-5.8,4.5-10.5,10.3-10.6
	c5.8-0.1,10.5,4.5,10.6,10.3c0.2,5.7-4.3,10.5-10.1,10.7C989.8,176.1,989.7,176.1,989.6,176.1z M989.8,156.2c-5.2,0-9.4,4.2-9.4,9.4
	c0,5.2,4.2,9.4,9.4,9.4c5.2,0,9.4-4.2,9.4-9.4c0,0,0,0,0,0C999.2,160.5,995,156.3,989.8,156.2z M992.3,172.1l-2.7-5.7h-2.2v5.7h-1.5
	v-12.9h4c1.8-0.4,3.5,0.7,3.9,2.5c0.1,0.4,0.1,0.8,0,1.3c0.2,1.6-0.9,3.2-2.5,3.5l2.7,6h-1.7V172.1z M987.3,165.2h2.2
	c1.1,0.2,2.2-0.5,2.4-1.6c0-0.2,0.1-0.4,0-0.7c0-1.7-0.7-2.2-2.7-2.2h-2V165.2z M165.4,177.3h17.4l-24.3,72.8l-33.3-91.7h-19.4
	l-35.3,91.7l-24.3-72.8h17.4v-18.9H0v18.9h11.2l40.2,123H71l37-95.4l34.5,95.4h18.6l41.2-123h11.2v-18.9h-48.2V177.3z M353.7,279.9
	c-7.2,0-10.9-7-10.9-20.6v-61.6c0-28.3-18.4-42.5-55.1-42.5c-18,0-35.8,4-52.2,11.7v27.8h20.6l1.7-12.2c6.7-5.5,15-8.4,23.6-8.4
	c15.6,0,23.3,7.9,23.3,24.1v16.6h-6.5c-25.3,0-44.2,3.7-55.9,11.2s-17.6,19.1-17.6,35.3c-0.4,11.1,4.1,21.8,12.2,29.3
	c8.4,7.8,19.6,12,31,11.7c7.5,0,14.9-1.7,21.6-5c7.6-3.7,14.6-8.7,20.6-14.7c6.5,12.9,16.9,19.4,30.8,19.1c6.6,0,13.1-1.1,19.4-3.2
	l-1.7-19.4C357,279.6,355.4,279.9,353.7,279.9z M305,268c-3.6,3.1-7.6,5.6-11.9,7.7c-3.5,1.8-7.5,2.7-11.4,2.7
	c-5.3,0-10.4-2.3-13.9-6.2c-3.8-4.1-5.8-9.6-5.7-15.2c-0.4-7.5,3.2-14.7,9.4-18.9c6.2-4.2,15.6-6.2,28.3-6.2h5.2V268z M580.5,93.9
	c-16.4,0-28.6,5-36.8,14.7c-8.2,9.7-12.2,24.6-12.2,44.2v5.7h-23.1h-1.7h-44.5v18.9h15.6l-34,76l-33.8-76h15.6v-18.9h-68.1v18.9
	h11.2l53.7,120l-42,52.2h39.7l77.5-172.1h8.9h1.7h23.1v102.3h-18.9v18.9h79v-18.9h-22.1V177.1h35.5v-18.9h-35.5v-18.4
	c0-10.4,1.2-17.9,3.2-21.9c2-4,6-6,11.4-6c2.3,0,4.6,0.5,6.7,1.5c2.6,1.1,4.9,2.6,7,4.5v13.7H620v-29.1c-5.9-2.9-12-5-18.4-6.5
	C594.7,94.6,587.6,93.8,580.5,93.9z M750.1,279.9c-7.2,0-10.9-7-10.9-20.6v-61.6c0-28.3-18.4-42.5-55.1-42.5c-18,0-35.8,4-52.2,11.7
	v27.8h20.6l1.7-12.2c6.7-5.5,15-8.4,23.6-8.4c15.6,0,23.3,7.9,23.3,24.1v16.6h-6.5c-25.3,0-44.2,3.7-55.9,11.2
	c-11.7,7.5-17.6,19.1-17.6,35.3c-0.4,11.1,4.1,21.8,12.2,29.3c8.4,7.8,19.6,12,31,11.7c7.5,0,14.9-1.7,21.6-5
	c7.6-3.7,14.6-8.7,20.6-14.7c6.7,12.9,16.9,19.4,30.8,19.1c6.6,0,13.1-1.1,19.4-3.2l-1.7-19.4C753.5,279.6,751.8,279.9,750.1,279.9z
	 M701.4,268c-3.6,3.1-7.6,5.6-11.9,7.7c-3.5,1.8-7.5,2.7-11.4,2.7c-5.3,0-10.4-2.3-13.9-6.2c-3.8-4.1-5.8-9.6-5.7-15.2
	c-0.4-7.5,3.2-14.7,9.4-18.9c6.2-4.2,15.6-6.2,28.3-6.2h5.2V268z M826.1,158.5h-56.9v18.9h18.9v102.6h-18.9v18.9H845v-18.9h-18.9
	V158.5z M957.3,155.2c-19.1,0-33.8,9.7-44.7,29.6v-26.6h-56.9v18.9h18.9v102.6h-18.9v18.9h75.8v-18.9h-18.9v-76.8
	c8.9-11.9,19.6-18.1,31.5-17.9V198h22.1v-41C963.4,155.8,960.3,155.2,957.3,155.2z"/>
<polygon id="polygon3701" class="st1" points="875.3,45.2 865.9,9.4 830.1,0 807,22.9 852.5,68.3 "/>
<polygon id="polygon3703" class="st2" points="738.7,91.2 748.1,127.2 784.1,136.6 807,113.8 761.8,68.3 "/>
<polygon id="polygon3705" class="st3" points="784.1,0 748.1,9.4 738.7,45.2 761.8,68.3 807,22.9 "/>
<polygon id="polygon3707" class="st4" points="875.3,91.2 852.5,68.3 807,113.8 830.1,136.6 865.9,127.2 "/>
<rect id="rect3709" x="775" y="36.3" transform="matrix(0.7071 -0.7071 0.7071 0.7071 188.0776 590.6548)" class="st0" width="64.1" height="64.1"/>
</svg>
