<?xml version="1.0" encoding="utf-8"?>
<!-- Generator: Adobe Illustrator 22.0.1, SVG Export Plug-In . SVG Version: 6.00 Build 0)  -->
<svg version="1.1"
	 id="svg2985" inkscape:version="0.48.4 r9939" sodipodi:docname="Xbox_logo_2012.png" xmlns:cc="http://creativecommons.org/ns#" xmlns:dc="http://purl.org/dc/elements/1.1/" xmlns:inkscape="http://www.inkscape.org/namespaces/inkscape" xmlns:rdf="http://www.w3.org/1999/02/22-rdf-syntax-ns#" xmlns:sodipodi="http://sodipodi.sourceforge.net/DTD/sodipodi-0.dtd" xmlns:svg="http://www.w3.org/2000/svg"
	 xmlns="http://www.w3.org/2000/svg" xmlns:xlink="http://www.w3.org/1999/xlink" x="0px" y="0px" viewBox="0 0 688.8 208.1"
	 style="enable-background:new 0 0 688.8 208.1;" xml:space="preserve">
<style type="text/css">
	.st0{fill:#107C10;}
</style>
<path class="st0" d="M688.8,168.4l-47.5-64l43.4-58.1h-16.3l-35.3,47.4l-35.3-47.4h-16.2l43.3,58.2l-47.4,64h16.3l39.3-53l39.4,53
	h16.3 M365.2,168.4l-47.4-64l43.3-58.1h-16.2l-35.3,47.4l-35.3-47.4H258l43.4,58.2l-47.5,64h16.3l39.4-53l39.3,53h16.3 M422.1,155.6
	c0,0-30.6,0-36.3,0v-44.4c5.6,0,36.3,0,36.3,0c13.8,0,30.2,3.7,30.2,21.2C452.3,152.6,433.3,155.6,422.1,155.6z M385.8,59
	c5.6,0,36.3,0,36.3,0c9.8,0,26.3,2.4,26.3,19.4c0,12.8-9.6,20.5-26.3,20.5c0,0-30.6,0-36.3,0V59z M455.4,109
	c-2.6-2.2-5.3-3.9-8.1-5.1c8.9-4.8,14.8-13.9,14.8-24.4c0-7.8-2.9-33.2-40.1-33.2h-50.1V99c0,0-16.2,0-16.7,0
	c-2.2,2.8-7.1,9.5-9,12.2c1.8,0,25.7,0,25.7,0v57.2H422c27.2,0,44.1-13.7,44.1-35.7C466.2,123.1,462.5,114.9,455.4,109 M531.3,158.2
	c-26.5,0-45-20.9-45-50.9s18.5-50.9,45-50.9c26.4,0,44.8,20.9,44.8,50.9C576.1,137.2,557.7,158.2,531.3,158.2z M531.3,43.5
	c-34.8,0-59,26.2-59,63.8s24.2,63.8,59,63.8c34.6,0,58.8-26.2,58.8-63.8C590.1,69.7,565.9,43.5,531.3,43.5 M93.5,207.7
	c-16-1.5-32.2-7.3-46.1-16.4c-11.7-7.6-14.3-10.7-14.3-17c0-12.5,13.8-34.5,37.4-59.6c13.4-14.2,32-30.9,34.1-30.5
	c3.9,0.9,35.3,31.5,47,45.9c18.6,22.8,27.1,41.5,22.8,49.8c-3.3,6.3-23.8,18.7-38.8,23.4C123.2,207.3,106.9,208.9,93.5,207.7z
	 M17.4,161.2c-9.7-14.9-14.6-29.6-17-50.7c-0.8-7-0.5-11,1.8-25.4c2.8-17.9,13-38.6,25.3-51.4c5.2-5.4,5.7-5.6,12-3.4
	c7.7,2.6,15.9,8.3,28.7,19.9l7.5,6.7l-4.1,5c-18.9,23.2-38.9,56.2-46.4,76.6c-4.1,11.1-5.7,22.2-4,26.8
	C22.4,168.5,21.3,167.3,17.4,161.2z M187.4,163.7c0.9-4.7-0.3-13.3-3.1-21.9c-6.1-18.8-26.7-53.7-45.5-77.4l-5.9-7.5l6.4-5.9
	c8.4-7.7,14.2-12.3,20.5-16.2c5-3.1,12-5.8,15.1-5.8c1.9,0,8.5,6.9,13.8,14.4C197,54.9,203,69,206.1,83.7c2,9.5,2.1,29.7,0.3,39.2
	c-1.5,7.7-4.7,17.8-7.8,24.6c-2.3,5.1-8.1,15-10.7,18.3C186.7,167.3,186.7,167.3,187.4,163.7L187.4,163.7z M95.2,25.4
	c-8.7-4.4-22.1-9.2-29.6-10.5c-2.6-0.4-7-0.7-9.9-0.6c-6.1,0.3-5.8,0,4-4.6c8.2-3.9,15-6.1,24.2-8.1c10.4-2.2,29.9-2.2,40.2,0
	c11,2.3,24.1,7.2,31.4,11.7l2.2,1.3l-5-0.3c-9.9-0.5-24.4,3.5-40,11.1c-4.7,2.3-8.8,4.1-9.1,4C103.4,29.5,99.6,27.6,95.2,25.4z"/>
</svg>
