<svg id="Layer_10" data-name="Layer 10" xmlns="http://www.w3.org/2000/svg" width="320" height="100" viewBox="0 0 320 100">
  <defs>
    <style>
      .cls-1 {
        fill: #fff;
      }
    </style>
  </defs>
  <title>fat framed icons</title>
  <g>
    <path class="cls-1" d="M111.91,88.4a39.19,39.19,0,0,1-20.64-5.87,13.37,13.37,0,0,1-4.45-4.95h-5.2a13.22,13.22,0,0,1-2.1-.17,23.54,23.54,0,0,1-5.29.61H74a25.86,25.86,0,0,1-14.39-4.39,13.09,13.09,0,0,1-9.36,3.91H37.88A13.16,13.16,0,0,1,24.73,64.39V52.56a13.13,13.13,0,0,1-8.18-8.21l-3.06-9.11A13.13,13.13,0,0,1,19.6,19.5a50.89,50.89,0,0,1,24.11-6.1h0.57A51.16,51.16,0,0,1,68.5,19.52a13.14,13.14,0,0,1,3,2.24c0.78-.06,1.57-0.1,2.35-0.1a24.44,24.44,0,0,1,5.52.62,13.13,13.13,0,0,1,2.24-.19h12a13.12,13.12,0,0,1,6,1.42,25.3,25.3,0,0,1,14.95-1.26,13.12,13.12,0,0,1,2.05-.16h4.73a13.09,13.09,0,0,1,12.18-8.2h23.63a13.13,13.13,0,0,1,6.38,1.65h10.07a13.23,13.23,0,0,1,8.69,3.3,13.15,13.15,0,0,1,10.31-5h11.6a13.23,13.23,0,0,1,6.57,1.76,13.22,13.22,0,0,1,6.48-1.71h13a13.12,13.12,0,0,1,8.14,2.83,13.12,13.12,0,0,1,8.14-2.83h13.1a13.08,13.08,0,0,1,12.29,8.45,32.69,32.69,0,0,1,6.65-.68h0.19c16.78,0,28.52,11.47,28.52,27.89a13.13,13.13,0,0,1-1.38,5.88A13.13,13.13,0,0,1,303,67.56,30.81,30.81,0,0,1,279.91,78h-1a32.23,32.23,0,0,1-12.33-2.47,13.18,13.18,0,0,1-7,2H248.79a13.15,13.15,0,0,1-9-3.62H237a13.15,13.15,0,0,1-9,3.62H217.2a13.17,13.17,0,0,1-3.54-.48,13.1,13.1,0,0,1-3.51.48H198.89a13.12,13.12,0,0,1-9.68-4.25,13.16,13.16,0,0,1-2,1.33A31.38,31.38,0,0,1,173,78.1h-0.63a26.16,26.16,0,0,1-9.6-1.81,13.16,13.16,0,0,1-5.6,1.25H136.45c-5.34,6.92-14.09,10.86-24.22,10.86h-0.32Z"/>
    <path class="cls-1" d="M43.72,15.9h0.57a48.49,48.49,0,0,1,23,5.82,10.65,10.65,0,0,1,3.18,2.66,26.57,26.57,0,0,1,3.36-.21h0.08a21.67,21.67,0,0,1,5.38.68,10.64,10.64,0,0,1,2.3-.25h12a10.65,10.65,0,0,1,5.8,1.72,22.8,22.8,0,0,1,15-1.5,10.64,10.64,0,0,1,2.12-.21h6.54a10.65,10.65,0,0,1,10.36-8.2h23.63A10.65,10.65,0,0,1,162.78,18h10.75a10.65,10.65,0,0,1,9.08,5.08l0.16-.36a10.65,10.65,0,0,1,9.77-6.41h11.6a10.65,10.65,0,0,1,6.56,2.26,10.65,10.65,0,0,1,6.49-2.21h13a10.65,10.65,0,0,1,8.14,3.79,10.65,10.65,0,0,1,8.14-3.79h13.09a10.65,10.65,0,0,1,10.51,9,30.23,30.23,0,0,1,8.43-1.2h0.17c15.38,0,26,10.45,26,25.39a10.65,10.65,0,0,1-1.58,5.62,10.65,10.65,0,0,1-2,10.73,28.3,28.3,0,0,1-21.23,9.59h-1a29.49,29.49,0,0,1-12.62-2.84,10.65,10.65,0,0,1-6.74,2.41H248.79a10.65,10.65,0,0,1-8-3.62h-4.87a10.65,10.65,0,0,1-8,3.62H217.18a10.65,10.65,0,0,1-3.52-.6,10.64,10.64,0,0,1-3.52.6H198.89a10.65,10.65,0,0,1-9.4-5.64,10.65,10.65,0,0,1-3.45,3A28.69,28.69,0,0,1,173,75.6h-0.62a23.83,23.83,0,0,1-9.73-2.08A10.65,10.65,0,0,1,157.16,75h-22c-4.62,6.68-12.89,10.86-23,10.86h-0.32a36.72,36.72,0,0,1-19.33-5.5,10.65,10.65,0,0,1-4.13-5.32H81.62a10.64,10.64,0,0,1-2.17-.23,21,21,0,0,1-5.22.67H74A23.29,23.29,0,0,1,59.16,70.2,10.65,10.65,0,0,1,50.23,75H37.88A10.65,10.65,0,0,1,27.23,64.39V50.62a10.65,10.65,0,0,1-8.32-7.08l-3.06-9.1a10.65,10.65,0,0,1,5-12.75A48.21,48.21,0,0,1,43.72,15.9m0-5a53.38,53.38,0,0,0-25.28,6.39A15.64,15.64,0,0,0,11.12,36l3.06,9.09a15.64,15.64,0,0,0,8.06,9.1V64.39A15.66,15.66,0,0,0,37.88,80H50.23a15.6,15.6,0,0,0,9.63-3.3A28.36,28.36,0,0,0,74,80.52h0.31a25.84,25.84,0,0,0,5.33-.57,15.67,15.67,0,0,0,2,.13h3.78a15.72,15.72,0,0,0,4.41,4.48L90,84.65a41.68,41.68,0,0,0,22,6.25h0.36c10.41,0,19.51-3.92,25.37-10.86h19.51A15.65,15.65,0,0,0,162.83,79a28.63,28.63,0,0,0,9.54,1.62H173a33.84,33.84,0,0,0,15.33-3.69l0.14-.08,0.52-.3a15.62,15.62,0,0,0,9.91,3.53h11.23a15.7,15.7,0,0,0,3.54-.4,15.61,15.61,0,0,0,3.52.4H228a15.66,15.66,0,0,0,10-3.62h0.85a15.65,15.65,0,0,0,10,3.62h10.76a15.69,15.69,0,0,0,7.24-1.78,34.74,34.74,0,0,0,12.12,2.2h1a33.32,33.32,0,0,0,25-11.28,15.63,15.63,0,0,0,3.57-13.5,15.63,15.63,0,0,0,1.24-6.16A30.16,30.16,0,0,0,301,27.69c-5.62-5.49-13.53-8.52-22.28-8.52h-0.17a35.21,35.21,0,0,0-5.19.38,15.57,15.57,0,0,0-13.75-8.16H246.48a15.62,15.62,0,0,0-8.14,2.28,15.62,15.62,0,0,0-8.14-2.28h-13a15.71,15.71,0,0,0-6.47,1.4,15.71,15.71,0,0,0-6.58-1.46h-11.6a15.64,15.64,0,0,0-10.61,4.15A15.68,15.68,0,0,0,173.54,13h-9.45a15.62,15.62,0,0,0-7-1.65H133.47a15.59,15.59,0,0,0-13.77,8.2h-3.1a16,16,0,0,0-2,.12A27.77,27.77,0,0,0,99.65,20.8a15.61,15.61,0,0,0-6-1.21h-12a15.68,15.68,0,0,0-2.17.15,26.7,26.7,0,0,0-5.52-.58H73.86q-0.72,0-1.44,0a15.62,15.62,0,0,0-2.7-1.87A53.69,53.69,0,0,0,44.29,10.9H43.72Z"/>
  </g>
  <path d="M44,27.45A38,38,0,0,1,62.19,32l-3.09,9a34.23,34.23,0,0,0-8.89-2.93v27.2H37.87V38.09A32.94,32.94,0,0,0,29,41l-3.09-9.1A37.82,37.82,0,0,1,44,27.45m160.17,0.48-8.89,21.29h3.62V42.09h11.23v7.19h4.26v8.78h-4.26v7.24H198.89V58.05h-16v-8l9.58-22.14h11.6m55.41,0V65.19H248.76V44.85l-6.28,16.82h-8.09L228,44.85V65.29H217.2V28h13l8.14,19.48L246.48,28h13M157,28v9.32h-5.59V55.93h5.64v9.32H133.47V55.93h5.64V37.29h-5.64V28H157.1m16.45,1.65v8.14h6.81v7.56h-6.81v8.78a2.32,2.32,0,0,0,2.56,2.45,6,6,0,0,0,2.77-.77l2,8.2a18.4,18.4,0,0,1-8.3,1.81c-6.65,0-11-3.83-11-9.9V29.63h12m105.13,6.12c9.32,0,15.38,5.64,15.38,14.74L275.75,54a4.55,4.55,0,0,0,4.36,2.93,9.5,9.5,0,0,0,6.33-3.09l6.65,6a17.71,17.71,0,0,1-13.95,6c-9.79,0-16.18-5.86-16.18-14.8,0-9.21,6.12-15.17,15.65-15.17m-3.51,12.51,7-1.33a3.15,3.15,0,0,0-3.06-3.25h0c-2.13,0-3.51,1.65-4,4.52M109,35.7a9.7,9.7,0,0,1,7.61,3.19V36.23h12V62.9c0,8.09-6.65,13.31-16.29,13.31A26,26,0,0,1,98.5,72.37l3.78-8a18,18,0,0,0,8.89,2.56c3.51,0,5.43-1.44,5.43-3.67V60.45a9.46,9.46,0,0,1-7.29,3.09c-6.87,0-12-5.48-12-14.05,0-8.36,4.9-13.73,11.76-13.73M112.55,55c2.45,0,4-2.08,4-5.22s-1.6-5.32-4-5.32-4,2.08-4,5.32,1.6,5.22,4,5.22M74,35.75a10,10,0,0,1,7.72,3.41v-3h12V65.29h-12V62.37a9.45,9.45,0,0,1-7.4,3.35c-8.09,0-13.31-6-13.31-15.17,0-9,5.11-14.8,13-14.8m3.41,20.76c2.66,0,4.31-2.24,4.31-5.64s-1.7-5.64-4.31-5.64-4.47,2.24-4.47,5.64,1.7,5.64,4.36,5.64M44,16.8a48.21,48.21,0,0,0-23.23,5.79,10.65,10.65,0,0,0-5,12.75l3.06,9.1a10.65,10.65,0,0,0,8.32,7.08V65.29A10.65,10.65,0,0,0,37.88,75.94H50.23a10.65,10.65,0,0,0,8.93-4.84,23.29,23.29,0,0,0,15.08,5.32,21,21,0,0,0,5.22-.67,10.65,10.65,0,0,0,2.17.23h6.84a10.65,10.65,0,0,0,4.13,5.32,36.72,36.72,0,0,0,19.64,5.5c10.06,0,18.34-4.18,23-10.86H157.1a10.65,10.65,0,0,0,5.54-1.52,23.83,23.83,0,0,0,10,2.08A28.69,28.69,0,0,0,186,73.36a10.65,10.65,0,0,0,3.45-3,10.65,10.65,0,0,0,9.4,5.64h11.23a10.65,10.65,0,0,0,3.54-.6,10.65,10.65,0,0,0,3.54.6H228a10.65,10.65,0,0,0,8-3.62h4.87a10.65,10.65,0,0,0,8,3.62h10.75a10.65,10.65,0,0,0,6.75-2.41,29.49,29.49,0,0,0,12.91,2.83,28.31,28.31,0,0,0,21.94-9.58,10.65,10.65,0,0,0,2-10.73,10.65,10.65,0,0,0,1.58-5.62c0-14.94-10.65-25.39-26-25.39a30.23,30.23,0,0,0-8.6,1.2,10.65,10.65,0,0,0-10.51-9H246.48a10.65,10.65,0,0,0-8.14,3.79,10.65,10.65,0,0,0-8.14-3.79h-13a10.65,10.65,0,0,0-6.49,2.21,10.65,10.65,0,0,0-6.56-2.26h-11.6a10.65,10.65,0,0,0-9.77,6.41l-0.16.36a10.65,10.65,0,0,0-9.08-5.08H162.78a10.65,10.65,0,0,0-5.7-1.65H133.47a10.65,10.65,0,0,0-10.37,8.2h-6.51a10.65,10.65,0,0,0-2.16.21,22.8,22.8,0,0,0-15,1.5,10.65,10.65,0,0,0-5.8-1.72h-12a10.65,10.65,0,0,0-2.3.25,21.68,21.68,0,0,0-5.42-.68,26.62,26.62,0,0,0-3.41.21,10.65,10.65,0,0,0-3.18-2.66A48.49,48.49,0,0,0,44,16.8H44Z"/>
</svg>
