<svg id="Layer_1" data-name="Layer 1" xmlns="http://www.w3.org/2000/svg" viewBox="0 0 700 141.2"><title>combined-logo-black</title><path d="M203.88,28.12a72.33,72.33,0,0,1,34.64,8.61L232.64,54a65.06,65.06,0,0,0-16.91-5.57v51.76h-23.5V48.38A62.72,62.72,0,0,0,175.31,54l-5.87-17.32a71.94,71.94,0,0,1,34.44-8.51M508.66,29,491.75,69.55h6.88V56H520V69.65h8.1V86.36H520v13.78H498.63V86.36H468.25V71.17L486.48,29h22.08M614,29v70.9H593.54V61.24l-11.95,32h-15.4L554,61.24v38.9H533.48V29.23h24.81l15.5,37.08,15.4-37.18H614m-195,0V46.86H408.38V82.31h10.74V100h-45V82.31h10.73V46.86H374.15V29.13h45m31.3,3.14v15.5h13V62.15h-13V78.87a4.41,4.41,0,0,0,4.12,4.67,4.57,4.57,0,0,0,.74,0,11.46,11.46,0,0,0,5.27-1.47l3.85,15.6a35.11,35.11,0,0,1-15.8,3.44c-12.67,0-20.87-7.29-20.87-18.84v-50h22.79M650.57,43.92c17.73,0,29.27,10.74,29.27,28.06L644.9,78.56a8.65,8.65,0,0,0,8.3,5.57,18.08,18.08,0,0,0,12.06-5.87L677.92,89.6A33.71,33.71,0,0,1,651.38,101c-18.64,0-30.79-11.14-30.79-28.16,0-17.53,11.65-28.87,29.78-28.87m-6.69,23.8,13.37-2.53A6,6,0,0,0,651.23,59h-.05c-4,0-6.69,3.14-7.6,8.61m-316-23.8A18.48,18.48,0,0,1,342,49.9V44.83h22.79V95.58c0,15.39-12.66,25.32-31,25.32a49.45,49.45,0,0,1-26.23-7.29l7.19-15.2a34.23,34.23,0,0,0,16.92,4.87c6.68,0,10.33-2.74,10.33-7V90.92a18,18,0,0,1-13.88,5.87c-13.07,0-22.79-10.43-22.79-26.74,0-15.9,9.32-26.13,22.39-26.13m6.58,36.67c4.66,0,7.6-4,7.6-9.93s-3-10.13-7.6-10.13-7.6,4-7.6,10.13,3,9.93,7.6,9.93M260.9,43.92a19,19,0,0,1,14.69,6.48V44.73h22.79v55.41H275.59V94.57A18,18,0,0,1,261.51,101c-15.4,0-25.32-11.35-25.32-28.87,0-17.12,9.72-28.16,24.81-28.16m6.49,39.5c5.06,0,8.2-4.25,8.2-10.73S272.45,62,267.49,62,259,66.2,259,72.69s3.24,10.73,8.3,10.73M204,7.86a91.74,91.74,0,0,0-44.22,11,20.27,20.27,0,0,0-9.42,24.26l5.83,17.32A20.25,20.25,0,0,0,172,73.93v26.21a20.26,20.26,0,0,0,20.25,20.26h23.5a20.25,20.25,0,0,0,17-9.22,44.41,44.41,0,0,0,28.7,10.13,40,40,0,0,0,9.92-1.27,20.46,20.46,0,0,0,4.13.43h13a20.21,20.21,0,0,0,7.85,10.13,69.86,69.86,0,0,0,37.37,10.46c19.15,0,34.9-7.95,43.68-20.66h41.71a20.23,20.23,0,0,0,10.53-2.89,45.46,45.46,0,0,0,19,3.95,54.61,54.61,0,0,0,25.6-6,20.18,20.18,0,0,0,6.56-5.77,20.26,20.26,0,0,0,17.87,10.74H520a20.55,20.55,0,0,0,6.73-1.14,20.61,20.61,0,0,0,6.74,1.14h20.46a20.26,20.26,0,0,0,15.19-6.89h9.27a20.28,20.28,0,0,0,15.19,6.89h20.46a20.22,20.22,0,0,0,12.84-4.59,56.12,56.12,0,0,0,24.57,5.4A53.83,53.83,0,0,0,693.21,103,20.26,20.26,0,0,0,697,82.61a20.24,20.24,0,0,0,3-10.68c0-28.44-20.26-48.32-49.53-48.32a57.62,57.62,0,0,0-16.36,2.28,20.26,20.26,0,0,0-20-17.07H589.19A20.27,20.27,0,0,0,573.69,16a20.27,20.27,0,0,0-15.5-7.22H533.48A20.25,20.25,0,0,0,521.12,13a20.25,20.25,0,0,0-12.48-4.31H486.55A20.25,20.25,0,0,0,468,20.93l-.31.68a20.24,20.24,0,0,0-17.27-9.67H429.93A20.28,20.28,0,0,0,419.09,8.8H374.15a20.25,20.25,0,0,0-19.73,15.6H342a20.14,20.14,0,0,0-4.1.4,43.38,43.38,0,0,0-28.62,2.86,20.22,20.22,0,0,0-11-3.26H275.49a20.2,20.2,0,0,0-4.38.48,40.74,40.74,0,0,0-10.31-1.29,50.11,50.11,0,0,0-6.48.4,20.19,20.19,0,0,0-6-5.06A92.21,92.21,0,0,0,203.88,7.86h.1ZM145.5,99.12c-42.09-72.8-42.09-72.8-42.29-73.12A55.94,55.94,0,0,0,6.42,81.93L30,122.85a28.07,28.07,0,0,0,45.58,4.24,28.21,28.21,0,0,0,16-9.18l5.34,9.26a28,28,0,0,0,48.58-28ZM86.32,36.68h0c.28.43.55.86.81,1.31a35.82,35.82,0,0,1,4.49,13.18A36.22,36.22,0,0,1,87.13,74l-.12.21-.29.5a35.46,35.46,0,0,1-3.5,4.8l-.14.16a8.25,8.25,0,0,1-1.85,1.48A8.06,8.06,0,0,1,71.1,68.84a19.88,19.88,0,0,0,2.07-22.78h0c-.17-.3-.45-.73-.91-1.44A19.94,19.94,0,0,0,46.06,38.8,1.24,1.24,0,0,0,47.3,41,17.43,17.43,0,0,1,70.18,46l.85,1.3a17.18,17.18,0,0,1,2.09,11.36,17.43,17.43,0,0,1-3.9,8.54,10.53,10.53,0,0,0-2.54,7.26,10.55,10.55,0,0,0-16.13,9.28,10.76,10.76,0,0,0-2.84-1.23A10.57,10.57,0,0,0,34.79,90q-.1.44-.18.87L24.1,72.61A36,36,0,0,1,86.32,36.68Zm-49.13,54a8.1,8.1,0,0,1,7.78-6,8.28,8.28,0,0,1,2.09.28A8,8,0,0,1,52,88.69l9.3,16.11a8.06,8.06,0,1,1-14,8.06L38,96.75A8,8,0,0,1,37.19,90.63Zm16.92-3.18a8.06,8.06,0,1,1,14-8.06l9.3,16.11a8.06,8.06,0,0,1-14,8.06ZM73.61,84a8.63,8.63,0,0,0,.86.28,10.49,10.49,0,0,0,10.42-3l.2-.23A37.75,37.75,0,0,0,88.15,77l5.33,9.22a8.06,8.06,0,0,1-14,8Zm22,.94h0l-6-10.41a38.69,38.69,0,0,0,4.47-23.69c0-.37-.12-.74-.18-1.11l34.28,59.37a8.06,8.06,0,1,1-14,8.06Z" transform="translate(0)"/></svg>