<svg id="Layer_1" data-name="Layer 1" xmlns="http://www.w3.org/2000/svg" viewBox="0 0 430.09 163.6"><defs><style>.cls-1{fill:#fff;}</style></defs><title>tagit4me-retailer-logo</title><path d="M49,8a71,71,0,0,0-33,8.18,15,15,0,0,0-7.2,18.08l4.43,13a15,15,0,0,0,8.48,9,14.68,14.68,0,0,0,3.45,1V77.24a15,15,0,0,0,15,15H57.86a15,15,0,0,0,5.38-1A15.08,15.08,0,0,0,63,94v45.85a15,15,0,0,0,15,15H93.15a15.09,15.09,0,0,0,5.6-1.08,14.94,14.94,0,0,0,5.58,1.08h17.14a15,15,0,0,0,7.46-2A39.06,39.06,0,0,0,143,155.41a38,38,0,0,0,20-5.33,29.58,29.58,0,0,0,17.65,5.46h.17a39.61,39.61,0,0,0,15.22-3,31.91,31.91,0,0,0,13.36,2.84,28.21,28.21,0,0,0,6.47-.75,15,15,0,0,0,2.62.23h14.71a15.23,15.23,0,0,0,3.6-.44,15.23,15.23,0,0,0,3.6.44h14.71a14.86,14.86,0,0,0,7.92-2.27,31.42,31.42,0,0,0,13.53,3,36.34,36.34,0,0,0,11.93-2.09,14.88,14.88,0,0,0,1.48-.62A39.06,39.06,0,0,0,304,155.41a39.71,39.71,0,0,0,14.71-2.7,14.93,14.93,0,0,0,7.79,2.18h14.71a15,15,0,0,0,15-15v-8.72a15,15,0,0,0,10.92-14.44V103.46a15,15,0,0,0-5.71-11.78,14.9,14.9,0,0,0,5.77-3,42.1,42.1,0,0,0,18.35,4.07h1.26A40.39,40.39,0,0,0,417,79.18a15,15,0,0,0,2.79-15.27A15,15,0,0,0,422.09,56c0-21.26-15.22-36.11-37-36.11a42.39,42.39,0,0,0-12.59,1.82A15,15,0,0,0,357.62,8.8H338.94a15,15,0,0,0-11.59,5.48,15,15,0,0,0-11.66-5.56,14.11,14.11,0,0,0-2.14.16H297a14.93,14.93,0,0,0-9.24,3.18,15,15,0,0,0-9.44-3.34H261.64a15,15,0,0,0-13.77,9l-.38.89a15,15,0,0,0-13-7.5H218.9a15,15,0,0,0-8-2.28H177.09a15,15,0,0,0-14.64,11.74h-9.53a15,15,0,0,0-2.85.27,28.55,28.55,0,0,0-7.39-1h-.77A31.58,31.58,0,0,0,128.33,23a14.9,14.9,0,0,0-8.26-2.48H102.91a15.48,15.48,0,0,0-3.28.36,29.23,29.23,0,0,0-7.48-1h-.43a36.64,36.64,0,0,0-4.84.34A15,15,0,0,0,82,16.18,71,71,0,0,0,49,8Z"/><path class="cls-1" d="M49,8a71,71,0,0,1,33,8.18,15,15,0,0,1,4.86,4.09,36.64,36.64,0,0,1,4.84-.34h.43a29.23,29.23,0,0,1,7.48,1,15.48,15.48,0,0,1,3.28-.36h17.16A14.9,14.9,0,0,1,128.33,23a31.58,31.58,0,0,1,13.58-3.09h.77a28.55,28.55,0,0,1,7.39,1,15,15,0,0,1,2.85-.27h9.53A15,15,0,0,1,177.09,8.88h33.85a15,15,0,0,1,8,2.28h15.6a15,15,0,0,1,13,7.5l.38-.89a15,15,0,0,1,13.77-9h16.69a15,15,0,0,1,9.44,3.34A14.93,14.93,0,0,1,297,8.88h16.54a14.11,14.11,0,0,1,2.14-.16,15,15,0,0,1,11.66,5.56A15,15,0,0,1,338.94,8.8h18.68a15,15,0,0,1,14.85,12.88,42.39,42.39,0,0,1,12.59-1.82c21.81,0,37,14.85,37,36.11a15,15,0,0,1-2.27,7.94A15,15,0,0,1,417,79.18,40.39,40.39,0,0,1,386.8,92.79h-1.26a42.23,42.23,0,0,1-18.35-4.06,15,15,0,0,1-5.77,3,15,15,0,0,1,5.71,11.78v13.27a15,15,0,0,1-10.92,14.44v8.72a15,15,0,0,1-15,15H326.5a14.93,14.93,0,0,1-7.79-2.18,39.71,39.71,0,0,1-14.71,2.7,39.06,39.06,0,0,1-14.06-2.52,14.88,14.88,0,0,1-1.48.62,36.34,36.34,0,0,1-11.93,2.09,31.42,31.42,0,0,1-13.53-3,14.86,14.86,0,0,1-7.92,2.27H240.37a15.23,15.23,0,0,1-3.6-.44,15.23,15.23,0,0,1-3.6.44H218.46a15,15,0,0,1-2.62-.23,28.21,28.21,0,0,1-6.47.75A31.91,31.91,0,0,1,196,152.57a39.61,39.61,0,0,1-15.22,3h-.17A29.58,29.58,0,0,1,163,150.08a38,38,0,0,1-20,5.33,39.06,39.06,0,0,1-14.06-2.51,15,15,0,0,1-7.46,2H104.33a14.94,14.94,0,0,1-5.58-1.08,15.09,15.09,0,0,1-5.6,1.08H78a15,15,0,0,1-15-15V94a15.08,15.08,0,0,1,.26-2.79,15,15,0,0,1-5.38,1H40.17a15,15,0,0,1-15-15V57.31a14.68,14.68,0,0,1-3.45-1,15,15,0,0,1-8.49-9l-4.42-13A15,15,0,0,1,16,16.18,71,71,0,0,1,49,8m0-8A79,79,0,0,0,12.28,9.1a22.9,22.9,0,0,0-11,27.73l4.42,13A23,23,0,0,0,17.17,63.06V77.24a23,23,0,0,0,23,23H55v39.65a23,23,0,0,0,23,23H93.15a22.78,22.78,0,0,0,5.6-.69,22.74,22.74,0,0,0,5.58.69h17.14a23,23,0,0,0,7.89-1.4A48.17,48.17,0,0,0,143,163.41a46.89,46.89,0,0,0,19.67-4.12,38.62,38.62,0,0,0,18,4.25h.21a48.92,48.92,0,0,0,15.11-2.38,40.23,40.23,0,0,0,13.43,2.25,36.4,36.4,0,0,0,6.78-.64,22.34,22.34,0,0,0,2.31.12h14.71a22.8,22.8,0,0,0,3.6-.29,22.8,22.8,0,0,0,3.6.29h14.71a23.06,23.06,0,0,0,8.2-1.51,40.4,40.4,0,0,0,13.25,2.22,44.32,44.32,0,0,0,13.56-2.2,47.94,47.94,0,0,0,13.91,2,48.51,48.51,0,0,0,14.22-2.06,23.08,23.08,0,0,0,8.28,1.54h14.71a23,23,0,0,0,23-23V136.3a22.39,22.39,0,0,0,2.94-2.15,22.94,22.94,0,0,0,8-17.42V103.46a23.48,23.48,0,0,0-.3-3.77,54.26,54.26,0,0,0,10.57,1.08c.47,0,.93,0,1.4,0A48.36,48.36,0,0,0,423,84.48a22.93,22.93,0,0,0,5.34-19.74A23,23,0,0,0,430.09,56c0-12.46-4.52-23.74-12.75-31.76s-19.63-12.35-32.28-12.35a54.4,54.4,0,0,0-7.5.51A23.13,23.13,0,0,0,357.62.8H338.94a22.93,22.93,0,0,0-11.56,3.11A22.87,22.87,0,0,0,315.69.72,23.56,23.56,0,0,0,313,.88H297a23.07,23.07,0,0,0-9.17,1.91A23,23,0,0,0,278.33.72H261.64A23,23,0,0,0,246.4,6.5a23,23,0,0,0-11.9-3.34H221a23,23,0,0,0-10-2.28H177.09a23.16,23.16,0,0,0-20,11.74h-4.13a22.76,22.76,0,0,0-2.48.13,36.8,36.8,0,0,0-7.76-.83h-.9a40.2,40.2,0,0,0-13.1,2.28,22.91,22.91,0,0,0-8.61-1.67H102.91a23.44,23.44,0,0,0-3,.2,37.33,37.33,0,0,0-7.74-.81h-.51c-.56,0-1.11,0-1.66,0A23.31,23.31,0,0,0,85.75,9.1,79,79,0,0,0,49,0Z"/><path class="cls-1" d="M70.59,42.48a48.53,48.53,0,0,0-12.73-4.19V77.24H40.17V38.29a46.87,46.87,0,0,0-12.73,4.19L23,29.44a55.67,55.67,0,0,1,52,0ZM120,35.54v41.7H102.84V73.05a13.54,13.54,0,0,1-10.6,4.8c-11.59,0-19.06-8.54-19.06-21.72,0-12.89,7.32-21.2,18.68-21.2a14.32,14.32,0,0,1,11,4.88V35.54H120Zm-17.15,21c0-4.88-2.44-8.08-6.18-8.08s-6.25,3.27-6.25,8.15,2.44,8.08,6.25,8.08,6.18-3.2,6.18-8.08Zm67.16-21V73.81c0,11.59-9.53,19.06-23.33,19.06A37.21,37.21,0,0,1,127,87.38L132.42,76a26,26,0,0,0,12.73,3.66c5,0,7.77-2.06,7.77-5.26v-4a13.55,13.55,0,0,1-10.44,4.43c-9.83,0-17.15-7.86-17.15-20.13,0-12,7-19.67,16.85-19.67a13.89,13.89,0,0,1,10.74,4.5V35.62h17.16ZM152.85,55.06c0-4.58-2.29-7.63-5.72-7.63s-5.72,3-5.72,7.63,2.29,7.47,5.72,7.47,5.79-3,5.79-7.47Zm49.93-17.84V63.9h8.08V77.24H177.09V63.9h8.08V37.22h-8.08V23.88h33.85V37.22h-8.16Zm42.16,38.12a26.43,26.43,0,0,1-11.89,2.59c-9.53,0-15.71-5.49-15.71-14.18V26.16H234.5V37.83h9.75V48.65H234.5V61.23a3.31,3.31,0,0,0,3.1,3.52,3.51,3.51,0,0,0,.56,0,8.49,8.49,0,0,0,4-1.11Zm33.39-51.62L265.6,54.22h5.18V44h16.09V54.3H293V66.87h-6.1V77.24H270.78V66.87H247.91V55.44l13.73-31.72h16.69Zm37.36,0,11.66,27.91L338.94,23.8h18.68V77.17h-15.4V48l-9,24.09H321.63L312.49,48V77.24H297V23.88h18.68Zm80.58,37,9.53,8.54a25.4,25.4,0,0,1-20,8.54c-14,0-23.17-8.39-23.17-21.2,0-13.19,8.77-21.72,22.41-21.72,13.34,0,22,8.08,22,21.11l-26.22,5a6.51,6.51,0,0,0,6.25,4.2,13.62,13.62,0,0,0,9.15-4.42ZM380,52.77l10.06-1.91a4.5,4.5,0,0,0-4.38-4.64h0c-3.05.16-5,2.52-5.64,6.64Zm-275.7,87.12L98.84,128H93.15v11.91H78V94h22.17c12.43,0,19.55,5.95,19.55,16.42,0,6.67-2.55,11.64-7.26,14.51l9,14.92ZM93.15,116.47h7c3.27,0,5.17-2,5.17-5.56s-1.9-5.36-5.17-5.36h-7Zm58.8,9.29,8.17,7.32c-4.25,4.84-10,7.33-17.13,7.33-12,0-19.88-7.2-19.88-18.18,0-11.32,7.52-18.64,19.22-18.64,11.45,0,18.9,6.93,18.9,18.11L138.8,126a5.59,5.59,0,0,0,5.36,3.59C146.71,129.55,149.46,128.18,152,125.76ZM138,119l8.63-1.57c-.26-2.55-1.77-4-3.79-4C140.24,113.4,138.54,115.43,138,119Zm53,19.36c-2.36,1.37-6.41,2.22-10.2,2.22-8.18.06-13.48-4.71-13.48-12.16v-13h-4.9v-9.29h4.9v-10H182v10h8.37v9.29H182v10.79c0,1.9,1.12,3.08,2.88,3a12.14,12.14,0,0,0,3.66-.92Zm42.18-34.21v35.78H218.46v-3.6a11.61,11.61,0,0,1-9.09,4.12c-9.94,0-16.42-7.33-16.42-18.64,0-11,6.28-18.18,16-18.18a12.29,12.29,0,0,1,9.49,4.18v-3.66Zm-14.71,18c0-4.18-2.1-6.93-5.3-6.93s-5.36,2.75-5.36,6.93,2.09,6.93,5.36,6.93S218.46,126.35,218.46,122.16Zm36.62-18v35.78H240.37V104.11Zm-1.37-10a6,6,0,1,1-6-6A5.7,5.7,0,0,1,253.71,94.11ZM279.34,128a7.8,7.8,0,0,0,3.28-.85l.84,12.23a21.06,21.06,0,0,1-6.93,1.24c-7.78,0-14.91-4.77-14.91-15.56V91.36h14.72v33.35C276.34,127.07,277.64,128,279.34,128ZM313,125.76l8.17,7.32c-4.25,4.84-10,7.33-17.13,7.33-12,0-19.88-7.2-19.88-18.18,0-11.32,7.52-18.64,19.23-18.64,11.44,0,18.9,6.93,18.9,18.11L299.81,126a5.61,5.61,0,0,0,5.37,3.59C307.73,129.55,310.47,128.18,313,125.76ZM299,119l8.63-1.57c-.26-2.55-1.76-4-3.79-4C301.25,113.4,299.55,115.43,299,119Zm53.1-15.5v13.27c-6.6-1-10.92,1.38-10.92,6.09v17.07H326.5V104.11h14.71v5.23A12.74,12.74,0,0,1,352.13,103.46Z"/></svg>