<svg id="Layer_1" data-name="Layer 1" xmlns="http://www.w3.org/2000/svg" viewBox="0 0 55 55">
    <defs>
        <style>.cls-1{fill:#ffffff;}</style>
    </defs>
    <title>logo</title>
    <path class="cls-1"
          d="M27.5,55A27.5,27.5,0,1,1,55,27.5,27.53,27.53,0,0,1,27.5,55Zm0-51A23.5,23.5,0,1,0,51,27.5,23.53,23.53,0,0,0,27.5,4Zm17,27L29.3,15.8l-0.7-.7a11.71,11.71,0,0,0-7.4-2.6,12,12,0,0,0-8.9,20l8.5,8.6a4.76,4.76,0,0,0,3.4,1.4,4.37,4.37,0,0,0,3.3-1.4,4.77,4.77,0,0,0,1.2-2.2,4.32,4.32,0,0,0,2.2-1.2,4.77,4.77,0,0,0,1.2-2.2,4.32,4.32,0,0,0,2.2-1.2l3.4,3.4a4.83,4.83,0,0,0,6.8,0A4.65,4.65,0,0,0,44.5,31Zm-30.1-.4A9.13,9.13,0,0,1,27.3,17.7L27.6,18a10,10,0,0,1,2,2.9,9.14,9.14,0,0,1,.4,5.9V27a5.78,5.78,0,0,1-.5,1.4c-0.1.2-.2,0.3-0.3,0.5a1.93,1.93,0,0,1-3.1-2.2,5.38,5.38,0,0,0,.5-2.8,5.61,5.61,0,0,0-1.5-3.2l-0.3-.3a5.34,5.34,0,0,0-7.1.3,0.49,0.49,0,0,0,.7.7,4.31,4.31,0,0,1,5.8-.3l0.3,0.3A4.2,4.2,0,0,1,25.7,24a4.49,4.49,0,0,1-.4,2.3,2.82,2.82,0,0,0-.2,1.8,2.91,2.91,0,0,0-3.4,3.4,2.86,2.86,0,0,0-2.6.8,2.73,2.73,0,0,0-.8,1.9Zm11.1,8.5a2,2,0,0,1-2.7,0l-3.4-3.4A1.91,1.91,0,0,1,22.1,33l3.4,3.4A2,2,0,0,1,25.5,39.1Zm3.4-3.4a2,2,0,0,1-2.7,0l-3.4-3.4a1.91,1.91,0,0,1,2.7-2.7L28.9,33A1.82,1.82,0,0,1,28.9,35.7Zm3.4-3.4a2,2,0,0,1-2.7,0l-1.9-1.9a2.73,2.73,0,0,0,1.9-.8,1.79,1.79,0,0,0,.5-0.7V28.8a4.18,4.18,0,0,0,.4-1l1.8,1.8A2,2,0,0,1,32.3,32.3Zm10.2,3.4a2,2,0,0,1-2.7,0L33,28.9l-2.1-2.1a11,11,0,0,0-.3-5.7L42.5,33A2,2,0,0,1,42.5,35.7Z"/>
</svg>
