<!-- Generator: Adobe Illustrator 22.0.1, SVG Export Plug-In  -->
<svg version="1.1"
	 xmlns="http://www.w3.org/2000/svg" xmlns:xlink="http://www.w3.org/1999/xlink" xmlns:a="http://ns.adobe.com/AdobeSVGViewerExtensions/3.0/"
	 x="0px" y="0px" width="26px" height="26px" viewBox="0 0 26 26" style="enable-background:new 0 0 26 26;" xml:space="preserve">
<style type="text/css">
	.st0{fill:#FED25F;}
	.st1{fill:none;stroke:#000000;stroke-width:0.75;stroke-linecap:round;stroke-miterlimit:10;}
</style>
<defs>
</defs>
<g>
	<circle class="st0" cx="13" cy="13" r="12"/>
	<path d="M13,2c6.1,0,11,4.9,11,11s-4.9,11-11,11S2,19.1,2,13S6.9,2,13,2 M13,0C5.8,0,0,5.8,0,13s5.8,13,13,13s13-5.8,13-13
		S20.2,0,13,0L13,0z"/>
</g>
<path d="M10.6,17.6c-0.2,0-0.4,0-0.6-0.1s-0.3-0.1-0.4-0.2S9.3,17.1,9.2,17S9.1,16.7,9,16.6s-0.1-0.3-0.1-0.5s-0.1-0.3-0.1-0.5
	s0-0.3,0-0.5v-3.2H8.2v-1.3h0.7V8.4h2v2.1h1v1.3h-1v3.6c0,0.4,0.2,0.6,0.6,0.6c0.1,0,0.1,0,0.2,0s0.1,0,0.2,0s0.1,0,0.1,0
	s0.1,0,0.1,0v1.5c-0.4,0.1-0.8,0.1-1.2,0.1C10.7,17.6,10.6,17.6,10.6,17.6z M15,19.1V18c-0.8,0-1.5-0.3-1.9-0.8s-0.6-1.3-0.7-2.3
	l1.8-0.3c0,0.6,0.1,1.1,0.2,1.3s0.3,0.4,0.6,0.4c0.4,0,0.5-0.2,0.5-0.7c0-0.3,0-0.5-0.1-0.7s-0.2-0.4-0.3-0.6s-0.3-0.3-0.6-0.6
	L13.8,13c-0.2-0.2-0.4-0.3-0.5-0.5S13,12.2,12.9,12s-0.2-0.4-0.3-0.7s-0.1-0.5-0.1-0.8c0-0.8,0.2-1.3,0.6-1.8s1-0.7,1.8-0.8V6.9h0.6
	V8C15.8,8,16,8,16.2,8.1s0.4,0.2,0.5,0.3s0.3,0.2,0.4,0.4s0.2,0.3,0.3,0.5s0.1,0.3,0.2,0.5s0.1,0.4,0.1,0.5s0,0.3,0,0.5L15.8,11
	c0-0.2,0-0.3,0-0.4s0-0.2,0-0.3s0-0.2-0.1-0.3s-0.1-0.1-0.1-0.2s-0.1-0.1-0.2-0.1s-0.1,0-0.2,0c-0.2,0-0.3,0.1-0.4,0.2
	s-0.1,0.3-0.1,0.5c0,0.2,0,0.4,0.1,0.5s0.1,0.3,0.2,0.4s0.2,0.2,0.3,0.3s0.2,0.2,0.4,0.3l0.8,0.7c0.2,0.2,0.4,0.4,0.6,0.6
	s0.3,0.4,0.5,0.6s0.3,0.5,0.3,0.8s0.1,0.6,0.1,0.9c0,0.6-0.2,1.2-0.6,1.6s-0.9,0.7-1.6,0.8v1.2H15z"/>
<path class="st1" d="M4,13c0-5,4-9,9-9"/>
</svg>