<svg id="Layer_1" data-name="Layer 1" xmlns="http://www.w3.org/2000/svg" width="250" height="80" viewBox="0 0 250 80">
  <defs>
    <style>
      .cls-1 {
        fill: #fff;
      }

      .cls-2 {
        fill: #231f20;
      }
    </style>
  </defs>
  <title>text-logo</title>
  <g>
    <path class="cls-1" d="M37.84,21.7a28.53,28.53,0,0,1,13.68,3.4L49.2,31.9a25.72,25.72,0,0,0-6.68-2.2V50.14H33.24V29.7a24.75,24.75,0,0,0-6.68,2.2l-2.32-6.84a28.42,28.42,0,0,1,13.6-3.36M158.2,22.06l-6.68,16h2.72V32.7h8.44v5.4h3.2v6.6h-3.2v5.44h-8.44V44.7h-12v-6l7.2-16.64h8.72m41.64,0v28h-8.08V34.78L187,47.42h-6.08l-4.8-12.64V50.14H168v-28h9.8l6.12,14.64L190,22.1h9.8m-77,0v7H118.6v14h4.24v7H105.08v-7h4.24v-14h-4.24v-7h17.76m12.36,1.24v6.12h5.12v5.68H135.2v6.6a1.74,1.74,0,0,0,1.92,1.84A4.51,4.51,0,0,0,139.2,43l1.52,6.16a13.83,13.83,0,0,1-6.24,1.36c-5,0-8.24-2.88-8.24-7.44V23.34h9m79,4.6c7,0,11.56,4.24,11.56,11.08L212,41.62a3.42,3.42,0,0,0,3.28,2.2,7.14,7.14,0,0,0,4.76-2.32l5,4.48a13.31,13.31,0,0,1-10.48,4.48c-7.36,0-12.16-4.4-12.16-11.12,0-6.92,4.6-11.4,11.76-11.4m-2.64,9.4,5.28-1a2.37,2.37,0,0,0-2.32-2.44c-1.6,0-2.64,1.24-3,3.4m-124.8-9.4A7.29,7.29,0,0,1,92.4,30.3v-2h9V48.34c0,6.08-5,10-12.24,10A19.52,19.52,0,0,1,78.8,55.46l2.84-6a13.54,13.54,0,0,0,6.68,1.92c2.64,0,4.08-1.08,4.08-2.76V46.5a7.11,7.11,0,0,1-5.48,2.32c-5.16,0-9-4.12-9-10.56,0-6.28,3.68-10.32,8.84-10.32m2.6,14.48c1.84,0,3-1.56,3-3.92s-1.2-4-3-4-3,1.56-3,4,1.2,3.92,3,3.92m-29-14.48a7.51,7.51,0,0,1,5.8,2.56V28.26h9V50.14h-9v-2.2a7.1,7.1,0,0,1-5.56,2.52c-6.08,0-10-4.48-10-11.4,0-6.76,3.84-11.12,9.8-11.12m2.56,15.6c2,0,3.24-1.68,3.24-4.24s-1.28-4.24-3.24-4.24S59.6,36.74,59.6,39.3s1.28,4.24,3.28,4.24M37.84,9.7a40.24,40.24,0,0,0-19.39,4.85,12,12,0,0,0-5.57,14.37l2.32,6.84a12,12,0,0,0,6,6.9v7.48a12,12,0,0,0,12,12h9.28a12,12,0,0,0,7.21-2.41,22,22,0,0,0,10.83,2.73A20,20,0,0,0,64.63,62a12.11,12.11,0,0,0,1.49.09h2.71a12,12,0,0,0,3.32,3.31,31.29,31.29,0,0,0,17,4.85c8.12,0,15-3.09,19.28-8.16h14.44a12,12,0,0,0,4.27-.78,22.74,22.74,0,0,0,7.37,1.18,25.67,25.67,0,0,0,12-2.86l0.25-.14a12,12,0,0,0,7.46,2.6h8.44a12,12,0,0,0,2.66-.3,12,12,0,0,0,2.66.3h8.08a12,12,0,0,0,7.61-2.72h0.46a12,12,0,0,0,7.61,2.72h8.08a12,12,0,0,0,5.41-1.29,27.06,27.06,0,0,0,9.35,1.61,25.16,25.16,0,0,0,19.49-8.56,12,12,0,0,0,2.75-10.28,12,12,0,0,0,.91-4.6c0-13.37-9.91-23.08-23.56-23.08a27.56,27.56,0,0,0-3.91.27,12,12,0,0,0-10.46-6.11H190a12,12,0,0,0-6.12,1.68,12,12,0,0,0-6.12-1.68H168a12,12,0,0,0-4.86,1,12,12,0,0,0-4.94-1.07h-8.72a12,12,0,0,0-8,3.05,11.94,11.94,0,0,0-6.28-1.77h-7a12,12,0,0,0-5.32-1.24H105.08A12,12,0,0,0,94.6,16.26H92.4a12.12,12.12,0,0,0-1.49.09,21.13,21.13,0,0,0-11.22.81,12,12,0,0,0-4.57-.9h-9a12.11,12.11,0,0,0-1.61.11,20.5,20.5,0,0,0-4.19-.43l-1,0a12,12,0,0,0-2-1.37A40.45,40.45,0,0,0,37.84,9.7h0Z"/>
    <path class="cls-2" d="M37.84,21.7a28.53,28.53,0,0,1,13.68,3.4L49.2,31.9a25.72,25.72,0,0,0-6.68-2.2V50.14H33.24V29.7a24.75,24.75,0,0,0-6.68,2.2l-2.32-6.84a28.42,28.42,0,0,1,13.6-3.36M158.2,22.06l-6.68,16h2.72V32.7h8.44v5.4h3.2v6.6h-3.2v5.44h-8.44V44.7h-12v-6l7.2-16.64h8.72m41.64,0v28h-8.08V34.78L187,47.42h-6.08l-4.8-12.64V50.14H168v-28h9.8l6.12,14.64L190,22.1h9.8m-77,0v7H118.6v14h4.24v7H105.08v-7h4.24v-14h-4.24v-7h17.76m12.36,1.24v6.12h5.12v5.68H135.2v6.6a1.74,1.74,0,0,0,1.92,1.84A4.51,4.51,0,0,0,139.2,43l1.52,6.16a13.83,13.83,0,0,1-6.24,1.36c-5,0-8.24-2.88-8.24-7.44V23.34h9m79,4.6c7,0,11.56,4.24,11.56,11.08L212,41.62a3.42,3.42,0,0,0,3.28,2.2,7.14,7.14,0,0,0,4.76-2.32l5,4.48a13.31,13.31,0,0,1-10.48,4.48c-7.36,0-12.16-4.4-12.16-11.12,0-6.92,4.6-11.4,11.76-11.4m-2.64,9.4,5.28-1a2.37,2.37,0,0,0-2.32-2.44c-1.6,0-2.64,1.24-3,3.4m-124.8-9.4A7.29,7.29,0,0,1,92.4,30.3v-2h9V48.34c0,6.08-5,10-12.24,10A19.52,19.52,0,0,1,78.8,55.46l2.84-6a13.54,13.54,0,0,0,6.68,1.92c2.64,0,4.08-1.08,4.08-2.76V46.5a7.11,7.11,0,0,1-5.48,2.32c-5.16,0-9-4.12-9-10.56,0-6.28,3.68-10.32,8.84-10.32m2.6,14.48c1.84,0,3-1.56,3-3.92s-1.2-4-3-4-3,1.56-3,4,1.2,3.92,3,3.92m-29-14.48a7.51,7.51,0,0,1,5.8,2.56V28.26h9V50.14h-9v-2.2a7.1,7.1,0,0,1-5.56,2.52c-6.08,0-10-4.48-10-11.4,0-6.76,3.84-11.12,9.8-11.12m2.56,15.6c2,0,3.24-1.68,3.24-4.24s-1.28-4.24-3.24-4.24S59.6,36.74,59.6,39.3s1.28,4.24,3.28,4.24m-25-29.84a36.23,36.23,0,0,0-17.46,4.35,8,8,0,0,0-3.72,9.58L19,34.47a8,8,0,0,0,6.25,5.32V50.14a8,8,0,0,0,8,8h9.28a8,8,0,0,0,6.71-3.64,17.5,17.5,0,0,0,11.33,4A15.79,15.79,0,0,0,64.49,58a8,8,0,0,0,1.63.17h5.14a8,8,0,0,0,3.1,4A27.59,27.59,0,0,0,89.12,66.3c7.56,0,13.78-3.14,17.25-8.16h16.47A8,8,0,0,0,127,57a17.91,17.91,0,0,0,7.48,1.56,21.56,21.56,0,0,0,10.11-2.36,8,8,0,0,0,2.59-2.28,8,8,0,0,0,7.06,4.24h8.44a8,8,0,0,0,2.66-.45,8,8,0,0,0,2.66.45h8.08a8,8,0,0,0,6-2.72h3.66a8,8,0,0,0,6,2.72h8.08a8,8,0,0,0,5.07-1.81,22.16,22.16,0,0,0,9.7,2.13,21.27,21.27,0,0,0,16.49-7.2,8,8,0,0,0,1.49-8.06A8,8,0,0,0,233.76,39c0-11.23-8-19.08-19.56-19.08a22.72,22.72,0,0,0-6.46.9,8,8,0,0,0-7.9-6.74H190a8,8,0,0,0-6.12,2.85,8,8,0,0,0-6.12-2.85H168a8,8,0,0,0-4.88,1.66,8,8,0,0,0-4.93-1.7h-8.72a8,8,0,0,0-7.34,4.82l-0.12.27a8,8,0,0,0-6.82-3.82h-8.08a8,8,0,0,0-4.28-1.24H105.08a8,8,0,0,0-7.79,6.16H92.4a8,8,0,0,0-1.62.16,17.13,17.13,0,0,0-11.3,1.13,8,8,0,0,0-4.36-1.29h-9a8,8,0,0,0-1.73.19,16.29,16.29,0,0,0-4.07-.51,20,20,0,0,0-2.56.16,8,8,0,0,0-2.39-2A36.44,36.44,0,0,0,37.84,13.7h0Z"/>
    <path class="cls-1" d="M49.2,31.9a25.72,25.72,0,0,0-6.68-2.2V50.14H33.24V29.7a24.75,24.75,0,0,0-6.68,2.2l-2.32-6.84a29.21,29.21,0,0,1,27.28,0Zm25.92-3.64V50.14h-9v-2.2a7.1,7.1,0,0,1-5.56,2.52c-6.08,0-10-4.48-10-11.4,0-6.76,3.84-11.12,9.8-11.12a7.51,7.51,0,0,1,5.8,2.56V28.26h9Zm-9,11c0-2.56-1.28-4.24-3.24-4.24S59.6,36.74,59.6,39.3s1.28,4.24,3.28,4.24S66.12,41.86,66.12,39.3Zm35.24-11V48.34c0,6.08-5,10-12.24,10A19.52,19.52,0,0,1,78.8,55.46l2.84-6a13.54,13.54,0,0,0,6.68,1.92c2.64,0,4.08-1.08,4.08-2.76V46.5a7.11,7.11,0,0,1-5.48,2.32c-5.16,0-9-4.12-9-10.56,0-6.28,3.68-10.32,8.84-10.32A7.29,7.29,0,0,1,92.4,30.3v-2h9Zm-9,10.24c0-2.4-1.2-4-3-4s-3,1.56-3,4,1.2,3.92,3,3.92S92.4,40.86,92.4,38.5Zm26.2-9.36v14h4.24v7H105.08v-7h4.24v-14h-4.24v-7h17.76v7H118.6Zm22.12,20a13.83,13.83,0,0,1-6.24,1.36c-5,0-8.24-2.88-8.24-7.44V23.34h9v6.12h5.12v5.68H135.2v6.6a1.74,1.74,0,0,0,1.92,1.84A4.51,4.51,0,0,0,139.2,43ZM158.2,22.06l-6.68,16h2.72V32.7h8.44v5.4h3.2v6.6h-3.2v5.44h-8.44V44.7h-12v-6l7.2-16.64h8.72Zm19.6,0,6.12,14.64L190,22.1h9.8v28h-8.08V34.78L187,47.42h-6.08l-4.8-12.64V50.14H168v-28h9.8Zm42.28,19.4,5,4.48a13.31,13.31,0,0,1-10.48,4.48c-7.36,0-12.16-4.4-12.16-11.12,0-6.92,4.6-11.4,11.76-11.4,7,0,11.56,4.24,11.56,11.08L212,41.62a3.42,3.42,0,0,0,3.28,2.2A7.14,7.14,0,0,0,220.08,41.5Zm-8.52-4.16,5.28-1a2.37,2.37,0,0,0-2.32-2.44C212.92,33.94,211.88,35.18,211.56,37.34Z"/>
  </g>
</svg>
