<svg id="Layer_1" data-name="Layer 1" xmlns="http://www.w3.org/2000/svg" viewBox="0 0 80 80"><defs><style>.cls-1{fill:#231f20;}.cls-2{fill:#fff;}.cls-3{fill:#fbad23;}.cls-4{fill:#fff0c8;}.cls-5{fill:#fed25f;}</style></defs><title>framed</title><circle class="cls-1" cx="40" cy="40" r="37.5"/><path class="cls-2" d="M40,5A35,35,0,1,1,5,40,35,35,0,0,1,40,5m0-5A40,40,0,1,0,80,40,40,40,0,0,0,40,0Z"/><path class="cls-3" d="M40,67.67a27.69,27.69,0,1,1,19.56-8.11A27.57,27.57,0,0,1,40,67.67Z"/><circle cx="40" cy="40" r="24" transform="translate(-6.84 71.71) rotate(-79.1)"/><path class="cls-4" d="M40,17.33A22.67,22.67,0,0,0,24,56L56,24A22.59,22.59,0,0,0,40,17.33Z"/><path class="cls-5" d="M62.67,40A22.64,22.64,0,0,0,56,24L24,56a22.67,22.67,0,0,0,38.7-16Z"/><path d="M22.33,40A.67.67,0,1,1,21,40,19,19,0,0,1,40,21a.67.67,0,1,1,0,1.33A17.69,17.69,0,0,0,22.33,40Z"/><path d="M34.73,49.93a4.9,4.9,0,0,1-1.27-.2,3.48,3.48,0,0,1-1-.44,2.92,2.92,0,0,1-.69-.67,4.16,4.16,0,0,1-.46-.85,4.78,4.78,0,0,1-.28-1c-.06-.39-.11-.76-.14-1.11s0-.75,0-1.19v-7H29.44V34.64h1.45V30.06h4.3v4.58h2.17v2.78H35.19v7.81c0,.8.45,1.2,1.36,1.23h.38l.34,0,.27,0,.15,0v3.35a14.58,14.58,0,0,1-2.53.23Z"/><path d="M44.44,53.33V50.79a5.29,5.29,0,0,1-4.07-1.74,8.11,8.11,0,0,1-1.44-5l4-.61a7,7,0,0,0,.47,2.89,1.46,1.46,0,0,0,1.36.9c.8,0,1.19-.51,1.19-1.53a3.91,3.91,0,0,0-.31-1.58,4.4,4.4,0,0,0-.75-1.23,12.43,12.43,0,0,0-1.25-1.2l-1.88-1.62A15,15,0,0,1,40.65,39a8,8,0,0,1-.87-1.16,5,5,0,0,1-.64-1.49,7.69,7.69,0,0,1-.2-1.8,5.34,5.34,0,0,1,1.4-3.88,5.94,5.94,0,0,1,3.86-1.63V26.67h1.34v2.4a5.4,5.4,0,0,1,1.51.29A4.27,4.27,0,0,1,48.2,30a3.87,3.87,0,0,1,.81.85,4.52,4.52,0,0,1,.56,1,6.71,6.71,0,0,1,.33,1.09,9.24,9.24,0,0,1,.18,1.1c0,.32.05.68.07,1.07l-4,.53c0-.36,0-.66,0-.89s0-.48-.07-.75a2.93,2.93,0,0,0-.14-.64,2,2,0,0,0-.24-.45.78.78,0,0,0-.37-.3,1.41,1.41,0,0,0-.53-.08,1.1,1.1,0,0,0-.94.52,2.1,2.1,0,0,0-.32,1.13,3.68,3.68,0,0,0,.15,1.09,2.52,2.52,0,0,0,.51.95,7.56,7.56,0,0,0,.59.69c.15.16.41.39.77.72l1.8,1.58a15.18,15.18,0,0,1,1.27,1.27,10.73,10.73,0,0,1,1,1.38,6,6,0,0,1,.74,1.7,7.84,7.84,0,0,1,.25,2,5.14,5.14,0,0,1-4.8,5.29v2.56Z"/></svg>