<!-- Generator: Adobe Illustrator 19.2.0, SVG Export Plug-In  -->
<svg version="1.1"
	 xmlns="http://www.w3.org/2000/svg" xmlns:xlink="http://www.w3.org/1999/xlink" xmlns:a="http://ns.adobe.com/AdobeSVGViewerExtensions/3.0/"
	 x="0px" y="0px" width="400px" height="300px" viewBox="0 0 400 300" style="enable-background:new 0 0 400 300;"
	 xml:space="preserve">
<style type="text/css">
	.st0{fill:#FFFFFF;}
	.st1{fill:#F6F7F9;}
	.st2{fill:none;stroke:#000000;stroke-width:2;stroke-miterlimit:10;}
	.st3{fill:#C6C7C9;}
	.st4{fill:#333333;}
	.st5{fill:#F3C0C1;}
	.st6{fill:#FFFFFF;stroke:#333333;stroke-width:5;stroke-miterlimit:10;}
	.st7{fill:none;stroke:#333333;stroke-width:2.5;stroke-linecap:round;stroke-miterlimit:10;}
	.st8{fill:#999999;}
</style>
<defs>
</defs>
<rect class="st0" width="400" height="300"/>
<rect x="20" y="20" class="st1" width="360" height="260"/>
<path class="st2" d="M185,112.5l13.4-17.9c0.8-1.1,2.4-1.1,3.2,0l13.4,17.9H185z"/>
<g>
	<rect x="150" y="119" class="st3" width="100" height="75"/>
</g>
<g>
	<rect x="148.5" y="111" class="st0" width="103" height="78"/>
	<path class="st4" d="M250,112.5v75H150v-75H250 M253,109.5h-3H150h-3v3v75v3h3h100h3v-3v-75V109.5L253,109.5z"/>
</g>
<rect x="160" y="122.5" class="st5" width="80" height="55"/>
<g>
	<circle class="st6" cx="200" cy="150" r="16"/>
	<g>
		<circle class="st0" cx="200" cy="150" r="16"/>
	</g>
	<circle class="st4" cx="192" cy="154.8" r="1.6"/>
	<circle class="st4" cx="208" cy="154.8" r="1.6"/>
	<line class="st7" x1="198.4" y1="161.2" x2="203.2" y2="159.6"/>
</g>
<circle class="st8" cx="200" cy="94" r="2.5"/>
<g>
	<path class="st4" d="M89.1,221.4v2.8h-3.9v10.1h-3.4v-10.1h-3.8v-2.8H89.1z"/>
	<path class="st4" d="M100,228v6.3h-3.3v-5.3c0-1.1-0.6-1.8-1.7-1.8c-1.2,0-2,0.9-2,2.2v4.9h-3.3v-13.7h3.3v5.3
		c0.7-1.1,1.8-1.8,3.3-1.8C98.6,224.2,100,225.7,100,228z"/>
	<path class="st4" d="M105.5,224.3v10h-3.3v-10H105.5z M105.4,221.5c0,0.9-0.6,1.5-1.5,1.5c-0.9,0-1.5-0.6-1.5-1.5
		c0-0.9,0.6-1.5,1.5-1.5C104.8,220,105.4,220.6,105.4,221.5z"/>
	<path class="st4" d="M111.5,226.5c-0.6,0-0.9,0.2-0.9,0.6c0,1.3,5.2,0.7,5.2,4.1c0,2-1.8,3.2-4.2,3.2c-1.7,0-3.3-0.5-4.5-1.4l1-2.1
		c1.1,0.8,2.4,1.2,3.5,1.2c0.6,0,1.1-0.2,1.1-0.6c0-1.4-5.1-0.7-5.1-4.1c0-2.1,1.8-3.2,4.1-3.2c1.4,0,2.9,0.4,4.1,1.2l-1.1,2.1
		C113.5,226.8,112.3,226.5,111.5,226.5z"/>
	<path class="st4" d="M134,225.9c0,3-1.9,4.8-5.2,4.8h-2.3v3.6h-3.4v-12.9h5.7C132.1,221.4,134,223,134,225.9z M130.8,226
		c0-1.3-0.8-2-2.2-2h-2.1v4h2.1C130,228,130.8,227.3,130.8,226z"/>
	<path class="st4" d="M138.9,224.3v10h-3.3v-10H138.9z M138.8,221.5c0,0.9-0.6,1.5-1.5,1.5c-0.9,0-1.5-0.6-1.5-1.5
		c0-0.9,0.6-1.5,1.5-1.5C138.2,220,138.8,220.6,138.8,221.5z"/>
	<path class="st4" d="M145.9,226.9c-1.2,0-2,1-2,2.4c0,1.5,0.8,2.4,2,2.4c0.9,0,1.5-0.3,2-1.1l2.4,1.4c-0.8,1.5-2.4,2.4-4.5,2.4
		c-3.1,0-5.1-2-5.1-5.1c0-3.1,2.1-5.1,5.2-5.1c2,0,3.6,0.9,4.5,2.4l-2.4,1.4C147.4,227.3,146.8,226.9,145.9,226.9z"/>
	<path class="st4" d="M160.7,221.4v5.3h5.2v-5.3h3.4v12.9h-3.4v-5h-5.2v5h-3.4v-12.9H160.7z"/>
	<path class="st4" d="M180.7,227.8v6.5h-3.2v-1.1c-0.6,0.8-1.7,1.3-3,1.3c-2.1,0-3.4-1.3-3.4-3.1c0-1.9,1.3-3,3.8-3h2.6v-0.1
		c0-0.9-0.6-1.5-1.9-1.5c-0.8,0-1.9,0.3-3,0.8l-0.9-2.2c1.6-0.7,3-1.1,4.6-1.1C179.1,224.2,180.7,225.5,180.7,227.8z M177.5,230.9
		v-0.9h-2c-0.9,0-1.4,0.3-1.4,1c0,0.7,0.5,1.1,1.3,1.1C176.5,232.2,177.3,231.7,177.5,230.9z"/>
	<path class="st4" d="M186.4,226.5c-0.6,0-0.9,0.2-0.9,0.6c0,1.3,5.2,0.7,5.2,4.1c0,2-1.8,3.2-4.2,3.2c-1.7,0-3.3-0.5-4.5-1.4l1-2.1
		c1.1,0.8,2.4,1.2,3.5,1.2c0.6,0,1.1-0.2,1.1-0.6c0-1.4-5.1-0.7-5.1-4.1c0-2.1,1.8-3.2,4.1-3.2c1.4,0,2.9,0.4,4.2,1.2l-1.1,2.1
		C188.3,226.8,187.2,226.5,186.4,226.5z"/>
	<path class="st4" d="M206.5,227.7h2.9v5.1c-1.4,1-3.6,1.7-5.4,1.7c-3.9,0-6.9-2.8-6.9-6.6c0-3.8,3-6.6,7.1-6.6c1.9,0,4,0.7,5.3,1.9
		l-1.9,2.4c-0.9-0.9-2.2-1.4-3.4-1.4c-2.1,0-3.7,1.6-3.7,3.7c0,2.1,1.6,3.7,3.7,3.7c0.6,0,1.5-0.2,2.2-0.6V227.7z"/>
	<path class="st4" d="M221.8,229.3c0,3.1-2.2,5.1-5.5,5.1c-3.3,0-5.4-2-5.4-5.1c0-3.1,2.2-5.1,5.4-5.1
		C219.6,224.2,221.8,226.2,221.8,229.3z M214.2,229.3c0,1.5,0.9,2.5,2.1,2.5c1.3,0,2.2-1,2.2-2.5c0-1.5-0.9-2.5-2.2-2.5
		C215.1,226.9,214.2,227.9,214.2,229.3z"/>
	<path class="st4" d="M233.7,228v6.3h-3.3v-5.3c0-1.1-0.7-1.8-1.7-1.8c-1.1,0-1.8,0.8-2,1.9v5.3h-3.3v-10h3.3v1.6
		c0.7-1.1,1.8-1.8,3.3-1.8C232.2,224.2,233.7,225.7,233.7,228z"/>
	<path class="st4" d="M245.3,230.2h-6.9c0.3,1.1,1.1,1.8,2.3,1.8c0.8,0,1.7-0.3,2.3-1l1.7,1.7c-1,1.1-2.5,1.8-4.4,1.8
		c-3.3,0-5.3-2-5.3-5.1c0-3.1,2.1-5.1,5.2-5.1C243.8,224.2,245.6,226.5,245.3,230.2z M242.2,228.4c0-1.1-0.7-1.9-1.8-1.9
		c-1.1,0-1.8,0.8-2,1.9H242.2z"/>
	<path class="st4" d="M256.3,221.4l3.4,7.5l3.4-7.5h3.7v12.9h-3l0-8.2l-3,6.9h-2.2l-3-6.9v8.2h-3v-12.9H256.3z"/>
	<path class="st4" d="M272.6,224.3v10h-3.3v-10H272.6z M272.5,221.5c0,0.9-0.6,1.5-1.5,1.5c-0.9,0-1.5-0.6-1.5-1.5
		c0-0.9,0.6-1.5,1.5-1.5C271.8,220,272.5,220.6,272.5,221.5z"/>
	<path class="st4" d="M278.6,226.5c-0.6,0-0.9,0.2-0.9,0.6c0,1.3,5.2,0.7,5.2,4.1c0,2-1.8,3.2-4.2,3.2c-1.7,0-3.3-0.5-4.5-1.4l1-2.1
		c1.1,0.8,2.4,1.2,3.5,1.2c0.6,0,1.1-0.2,1.1-0.6c0-1.4-5.1-0.7-5.1-4.1c0-2.1,1.8-3.2,4.1-3.2c1.4,0,2.9,0.4,4.2,1.2l-1.1,2.1
		C280.5,226.8,279.4,226.5,278.6,226.5z"/>
	<path class="st4" d="M288.1,226.5c-0.6,0-0.9,0.2-0.9,0.6c0,1.3,5.2,0.7,5.2,4.1c0,2-1.8,3.2-4.2,3.2c-1.7,0-3.3-0.5-4.5-1.4l1-2.1
		c1.1,0.8,2.4,1.2,3.5,1.2c0.6,0,1.1-0.2,1.1-0.6c0-1.4-5.1-0.7-5.1-4.1c0-2.1,1.8-3.2,4.1-3.2c1.4,0,2.9,0.4,4.2,1.2l-1.1,2.1
		C290.1,226.8,288.9,226.5,288.1,226.5z"/>
	<path class="st4" d="M297.4,224.3v10h-3.3v-10H297.4z M297.3,221.5c0,0.9-0.6,1.5-1.5,1.5c-0.9,0-1.5-0.6-1.5-1.5
		c0-0.9,0.6-1.5,1.5-1.5C296.7,220,297.3,220.6,297.3,221.5z"/>
	<path class="st4" d="M310.2,228v6.3h-3.3v-5.3c0-1.1-0.7-1.8-1.7-1.8c-1.1,0-1.8,0.8-2,1.9v5.3H300v-10h3.3v1.6
		c0.7-1.1,1.8-1.8,3.3-1.8C308.7,224.2,310.2,225.7,310.2,228z"/>
	<path class="st4" d="M321.9,224.3v9.1c0,2.8-2.2,4.6-5.4,4.6c-1.8,0-3.3-0.6-4.5-1.3l1.1-2.3c0.9,0.6,2,1,3.1,1
		c1.5,0,2.4-0.8,2.4-1.9v-1.1c-0.6,0.8-1.6,1.3-2.8,1.3c-2.5,0-4.3-1.9-4.3-4.8c0-2.8,1.7-4.7,4.2-4.7c1.3,0,2.2,0.5,2.9,1.3v-1.2
		H321.9z M318.7,229c0-1.4-0.8-2.3-2-2.3c-1.2,0-2,1-2,2.3c0,1.4,0.8,2.3,2,2.3C317.9,231.3,318.7,230.4,318.7,229z"/>
</g>
</svg>
