<!-- Generator: Adobe Illustrator 19.2.0, SVG Export Plug-In  -->
<svg version="1.1"
	 xmlns="http://www.w3.org/2000/svg" xmlns:xlink="http://www.w3.org/1999/xlink" xmlns:a="http://ns.adobe.com/AdobeSVGViewerExtensions/3.0/"
	 x="0px" y="0px" width="800px" height="400px" viewBox="0 0 800 400" style="enable-background:new 0 0 800 400;"
	 xml:space="preserve">
<style type="text/css">
	.st0{fill:#01AF6B;}
	.st1{fill:#FFFFFF;}
	.st2{fill:#333333;}
</style>
<defs>
</defs>
<rect class="st0" width="800" height="400"/>
<circle class="st1" cx="400" cy="200" r="120"/>
<path class="st2" d="M459.3,183.1c0-32.7-26.6-59.3-59.3-59.3s-59.3,26.6-59.3,59.3c0,28.2,19.9,52.5,47.5,58.1c0,0.4,0,0.8,0,1.2
	v22c0,6.6,5.3,11.9,11.9,11.9s11.9-5.3,11.9-11.9v-22c0-0.4,0-0.8,0-1.2C439.5,235.5,459.3,211.2,459.3,183.1z M400,225.4
	c-23.4,0-42.4-19-42.4-42.4s19-42.4,42.4-42.4c23.4,0,42.4,19,42.4,42.4C442.3,206.4,423.4,225.4,400,225.4z M374.6,189
	c-3.3,0-5.9-2.7-5.9-5.9c0-17.3,14-31.3,31.3-31.3c3.3-0.2,6.1,2.3,6.2,5.6c0.2,3.3-2.3,6.1-5.6,6.2c-0.2,0-0.4,0-0.6,0
	c-10.8,0-19.5,8.7-19.5,19.5C380.5,186.3,377.9,189,374.6,189z"/>
</svg>
