<svg id="Layer_11" data-name="Layer 11" xmlns="http://www.w3.org/2000/svg" width="100" height="100" viewBox="0 0 100 100">
  <defs>
    <style>
      .cls-1 {
        fill: #fff;
      }

      .cls-2 {
        fill: #e14f4e;
      }
    </style>
  </defs>
  <title>fat framed icons</title>
  <g>
    <g>
      <path d="M41.67,87.5a9.17,9.17,0,0,1-9-7.47,9.16,9.16,0,0,1-11-4.07L13.36,61.53a9.17,9.17,0,0,1,2-11.53,9.17,9.17,0,0,1-2-11.53L21.69,24a9.16,9.16,0,0,1,11-4.07,9.17,9.17,0,0,1,9-7.47H58.33a9.16,9.16,0,0,1,9,7.47,9.16,9.16,0,0,1,11,4.07l8.33,14.43a9.17,9.17,0,0,1-2,11.53,9.17,9.17,0,0,1,2,11.53L78.31,76a9.16,9.16,0,0,1-11,4.07,9.17,9.17,0,0,1-9,7.47H41.67Z"/>
      <path class="cls-1" d="M58.33,15a6.67,6.67,0,0,1,6.6,7.61l-0.29,2,1.61-1.26a6.67,6.67,0,0,1,9.89,1.91l8.33,14.43a6.67,6.67,0,0,1-3.29,9.52l-1.9.76,1.9,0.76a6.67,6.67,0,0,1,3.29,9.52L76.14,74.72a6.67,6.67,0,0,1-9.89,1.91l-1.61-1.26,0.29,2A6.67,6.67,0,0,1,58.33,85H41.67a6.67,6.67,0,0,1-6.6-7.61l0.29-2-1.61,1.26a6.67,6.67,0,0,1-9.89-1.91L15.52,60.28a6.67,6.67,0,0,1,3.29-9.52l1.9-.76-1.9-.76a6.67,6.67,0,0,1-3.29-9.52l8.33-14.43a6.67,6.67,0,0,1,9.89-1.91l1.61,1.26-0.29-2A6.67,6.67,0,0,1,41.67,15H58.33m0-5H41.67A11.67,11.67,0,0,0,31,17a11.55,11.55,0,0,0-1.33-.08,11.67,11.67,0,0,0-10.1,5.83L11.19,37.22A11.67,11.67,0,0,0,11.92,50a11.67,11.67,0,0,0-.73,12.78l8.33,14.43A11.65,11.65,0,0,0,31,83a11.67,11.67,0,0,0,10.71,7H58.33A11.67,11.67,0,0,0,69,83a11.55,11.55,0,0,0,1.33.08,11.67,11.67,0,0,0,10.1-5.83l8.33-14.43A11.67,11.67,0,0,0,88.08,50a11.67,11.67,0,0,0,.73-12.78L80.47,22.78A11.65,11.65,0,0,0,69,17a11.67,11.67,0,0,0-10.71-7h0Z"/>
    </g>
    <path class="cls-2" d="M57.56,77.67H42.44L45,60a0.67,0.67,0,0,0-1.07-.62l-14.07,11-7.56-13.1,16.6-6.66a0.67,0.67,0,0,0,0-1.24l-16.6-6.66,7.56-13.1,14.07,11A0.67,0.67,0,0,0,45,40L42.44,22.33H57.56L55,40a0.67,0.67,0,0,0,1.07.62l14.07-11,7.56,13.1-16.6,6.66a0.67,0.67,0,0,0,0,1.24l16.6,6.66-7.56,13.1-14.07-11A0.67,0.67,0,0,0,55,60Z"/>
    <path d="M50.67,26.67a0.67,0.67,0,0,1-.67.67H48.2l1.58,11a0.67,0.67,0,0,1-.57.75h-0.1a0.67,0.67,0,0,1-.66-0.57l-1.69-11.8A0.67,0.67,0,0,1,47.43,26H50A0.67,0.67,0,0,1,50.67,26.67Z"/>
  </g>
</svg>
