<svg id="Layer_11" data-name="Layer 11" xmlns="http://www.w3.org/2000/svg" width="100" height="100" viewBox="0 0 100 100">
  <defs>
    <style>
      .cls-1 {
        fill: #fff;
      }

      .cls-2 {
        fill: #e14f4e;
      }
    </style>
  </defs>
  <title>fat framed icons</title>
  <g>
    <g>
      <path d="M45.51,87.5a12.5,12.5,0,0,1-12-9,12.49,12.49,0,0,1-13.75-5.9l-4.49-7.78A12.5,12.5,0,0,1,17,50a12.5,12.5,0,0,1-1.76-14.86l4.49-7.78a12.49,12.49,0,0,1,13.75-5.9,12.5,12.5,0,0,1,12-9h9a12.5,12.5,0,0,1,12,9,12.49,12.49,0,0,1,13.75,5.9l4.49,7.78A12.5,12.5,0,0,1,83,50a12.5,12.5,0,0,1,1.77,14.86l-4.49,7.78a12.49,12.49,0,0,1-13.75,5.9,12.5,12.5,0,0,1-12,9h-9Z"/>
      <path class="cls-1" d="M54.49,15a10,10,0,0,1,10,9.9,10,10,0,0,1,13.58,3.71l4.49,7.78A10,10,0,0,1,79,50a10,10,0,0,1,3.58,13.61l-4.49,7.78A10,10,0,0,1,64.49,75.1a10,10,0,0,1-10,9.9h-9a10,10,0,0,1-10-9.9,10,10,0,0,1-13.58-3.71l-4.49-7.78A10,10,0,0,1,21,50a10,10,0,0,1-3.58-13.61l4.49-7.78A10,10,0,0,1,35.51,24.9a10,10,0,0,1,10-9.9h9m0-5h-9a15,15,0,0,0-13.6,8.67q-0.65-.06-1.31-0.06a15,15,0,0,0-13,7.5l-4.49,7.78A15,15,0,0,0,13.82,50a15,15,0,0,0-.71,16.11l4.49,7.78a15,15,0,0,0,13,7.5q0.66,0,1.31-.06A15,15,0,0,0,45.51,90h9a15,15,0,0,0,13.6-8.67q0.65,0.06,1.31.06a15,15,0,0,0,13-7.5l4.49-7.78A15,15,0,0,0,86.18,50a15,15,0,0,0,.71-16.11L82.4,26.11a15,15,0,0,0-13-7.5q-0.66,0-1.31.06A15,15,0,0,0,54.49,10h0Z"/>
    </g>
    <path class="cls-2" d="M57.13,74.62a2.67,2.67,0,0,1-2.64,3h-9a2.67,2.67,0,0,1-2.64-3L45,60a0.67,0.67,0,0,0-1.07-.62L32.24,68.49a2.67,2.67,0,0,1-4-.76l-4.49-7.78a2.67,2.67,0,0,1,1.32-3.81l13.75-5.52a0.67,0.67,0,0,0,0-1.24L25.11,43.86a2.67,2.67,0,0,1-1.32-3.81l4.49-7.78a2.67,2.67,0,0,1,4-.76l11.65,9.15A0.67,0.67,0,0,0,45,40l-2.1-14.66a2.67,2.67,0,0,1,2.64-3h9a2.67,2.67,0,0,1,2.64,3L55,40a0.67,0.67,0,0,0,1.07.62l11.65-9.15a2.67,2.67,0,0,1,4,.76l4.49,7.78a2.67,2.67,0,0,1-1.32,3.81L61.14,49.38a0.67,0.67,0,0,0,0,1.24l13.75,5.52a2.67,2.67,0,0,1,1.32,3.81l-4.49,7.78a2.67,2.67,0,0,1-4,.76L56.11,59.34A0.67,0.67,0,0,0,55,60Z"/>
  </g>
</svg>
