<svg id="Layer_8" data-name="Layer 8" xmlns="http://www.w3.org/2000/svg" width="100" height="100" viewBox="0 0 100 100">
  <defs>
    <style>
      .cls-1 {
        fill: none;
      }

      .cls-2 {
        fill: #fff;
      }

      .cls-3 {
        fill: #fed25f;
      }

      .cls-4 {
        fill: #01af6b;
      }

      .cls-5 {
        fill: #231f20;
      }
    </style>
  </defs>
  <title>fat framed icons</title>
  <rect class="cls-1" x="10" y="10" width="80" height="80"/>
  <g>
    <g>
      <path class="cls-2" d="M47,90.17a14.55,14.55,0,0,1-12.91-7.89,12.49,12.49,0,0,1-4.93-9.94V67A32.73,32.73,0,0,1,17.5,42.33a32.5,32.5,0,0,1,65,0A32.73,32.73,0,0,1,70.83,67v5.33a12.49,12.49,0,0,1-4.93,9.94A14.55,14.55,0,0,1,53,90.17H47Z"/>
      <path class="cls-2" d="M50,12.33A29.82,29.82,0,0,1,68.33,65.81v6.52a10,10,0,0,1-4.4,8.28A12,12,0,0,1,53,87.67H47a12,12,0,0,1-10.93-7.05,10,10,0,0,1-4.4-8.28V65.81A29.82,29.82,0,0,1,50,12.33m0-5a34.8,34.8,0,0,0-23.33,60.8v4.2a15,15,0,0,0,5.47,11.58A17.05,17.05,0,0,0,47,92.67h6a17.05,17.05,0,0,0,14.87-8.76,15,15,0,0,0,5.47-11.58v-4.2A34.8,34.8,0,0,0,50,7.33h0Z"/>
    </g>
    <path class="cls-3" d="M72.67,42.33a22.67,22.67,0,0,0-45.33,0A23,23,0,0,0,38.52,61.67h23A23,23,0,0,0,72.67,42.33Z"/>
    <path d="M31.67,43A0.67,0.67,0,0,1,31,42.33a19,19,0,0,1,19-19,0.67,0.67,0,0,1,0,1.33A17.69,17.69,0,0,0,32.33,42.33,0.67,0.67,0,0,1,31.67,43ZM80,42.33A30.16,30.16,0,0,1,68.33,65.81v6.52a10,10,0,0,1-4.4,8.28A12,12,0,0,1,53,87.67H47a12,12,0,0,1-10.93-7.05,10,10,0,0,1-4.4-8.28V65.81A29.91,29.91,0,1,1,80,42.33Zm-19,30V69.67H39v2.67A2.67,2.67,0,0,0,41.67,75H58.33A2.67,2.67,0,0,0,61,72.33Zm-3.38,4H42.38a4.67,4.67,0,0,0,4.62,4h6A4.67,4.67,0,0,0,57.62,76.33ZM46,49a2.67,2.67,0,1,0-2.67,2.67H46V49Zm6.67,4H47.33v8.67h5.33V53ZM39,63v5.33H61V63H39ZM72.67,42.33a22.67,22.67,0,0,0-45.33,0A23,23,0,0,0,38.52,61.67H46V53H43.33a4,4,0,1,1,4-4v2.67h5.33V49a4,4,0,1,1,4,4H54v8.67h7.48A23,23,0,0,0,72.67,42.33Zm-16,9.33A2.67,2.67,0,1,0,54,49v2.67h2.67Z"/>
    <rect class="cls-1" x="10" y="10" width="80" height="80"/>
  </g>
  <g>
    <path class="cls-4" d="M79.67,92.5a6.17,6.17,0,0,1-6.17-6.17v-0.5H73A6.17,6.17,0,1,1,73,73.5h0.5V73a6.17,6.17,0,1,1,12.33,0v0.5h0.5a6.17,6.17,0,1,1,0,12.33h-0.5v0.5A6.17,6.17,0,0,1,79.67,92.5Z"/>
    <path class="cls-5" d="M79.67,69.33A3.67,3.67,0,0,1,83.33,73v3h3a3.67,3.67,0,1,1,0,7.33h-3v3a3.67,3.67,0,1,1-7.33,0v-3H73A3.67,3.67,0,1,1,73,76h3V73a3.67,3.67,0,0,1,3.67-3.67m0-5a8.68,8.68,0,0,0-8.48,6.86,8.67,8.67,0,0,0,0,17,8.67,8.67,0,0,0,17,0,8.67,8.67,0,0,0,0-17,8.68,8.68,0,0,0-8.48-6.86h0Z"/>
  </g>
</svg>
