<svg id="Layer_2" data-name="Layer 2" xmlns="http://www.w3.org/2000/svg" width="100" height="100" viewBox="0 0 100 100">
  <defs>
    <style>
      .cls-1 {
        fill: #fff;
      }

      .cls-2 {
        fill: #e6e7e8;
      }
    </style>
  </defs>
  <title>fat framed icons</title>
  <g>
    <rect class="cls-1" x="3.83" y="10.83" width="58.33" height="78.33" rx="15.83" ry="15.83"/>
    <path class="cls-1" d="M46.33,13.33A13.35,13.35,0,0,1,59.67,26.67V73.33A13.35,13.35,0,0,1,46.33,86.67H19.67A13.35,13.35,0,0,1,6.33,73.33V26.67A13.35,13.35,0,0,1,19.67,13.33H46.33m0-5H19.67A18.35,18.35,0,0,0,1.33,26.67V73.33A18.35,18.35,0,0,0,19.67,91.67H46.33A18.35,18.35,0,0,0,64.67,73.33V26.67A18.35,18.35,0,0,0,46.33,8.33h0Z"/>
  </g>
  <g>
    <path class="cls-1" d="M82.21,77.17a5.17,5.17,0,0,1-3.65-8.82,24.83,24.83,0,0,0,0-35.12,5.17,5.17,0,0,1,7.31-7.31,35.17,35.17,0,0,1,0,49.73A5.13,5.13,0,0,1,82.21,77.17Z"/>
    <path class="cls-1" d="M82.21,26.91a2.66,2.66,0,0,1,1.89.78,32.67,32.67,0,0,1,0,46.2,2.67,2.67,0,0,1-3.77-3.77,27.33,27.33,0,0,0,0-38.66,2.67,2.67,0,0,1,1.89-4.55m0-5A7.67,7.67,0,0,0,76.79,35a22.33,22.33,0,0,1,0,31.58A7.67,7.67,0,1,0,87.63,77.42a37.67,37.67,0,0,0,0-53.27,7.62,7.62,0,0,0-5.42-2.25h0Z"/>
  </g>
  <g>
    <path class="cls-1" d="M75.14,70.1a5.17,5.17,0,0,1-3.65-8.82,14.83,14.83,0,0,0,0-21A5.17,5.17,0,1,1,78.8,33a25.17,25.17,0,0,1,0,35.59A5.13,5.13,0,0,1,75.14,70.1Z"/>
    <path class="cls-1" d="M75.14,34a2.66,2.66,0,0,1,1.89.78,22.67,22.67,0,0,1,0,32.06A2.67,2.67,0,0,1,73.26,63a17.33,17.33,0,0,0,0-24.51A2.67,2.67,0,0,1,75.14,34m0-5a7.67,7.67,0,0,0-5.42,13.09,12.33,12.33,0,0,1,0,17.44A7.67,7.67,0,0,0,80.56,70.35a27.67,27.67,0,0,0,0-39.13A7.61,7.61,0,0,0,75.14,29h0Z"/>
  </g>
  <g>
    <path class="cls-1" d="M68.07,63a5.17,5.17,0,0,1-3.65-8.82,4.83,4.83,0,0,0,0-6.84,5.17,5.17,0,1,1,7.31-7.31,15.17,15.17,0,0,1,0,21.45A5.13,5.13,0,0,1,68.07,63Z"/>
    <path class="cls-1" d="M68.07,41a2.66,2.66,0,0,1,1.89.78,12.67,12.67,0,0,1,0,17.91A2.67,2.67,0,0,1,66.19,56a7.33,7.33,0,0,0,0-10.37A2.67,2.67,0,0,1,68.07,41m0-5a7.67,7.67,0,0,0-5.42,13.09,2.33,2.33,0,0,1,0,3.3A7.67,7.67,0,1,0,73.49,63.28a17.67,17.67,0,0,0,0-25A7.62,7.62,0,0,0,68.07,36h0Z"/>
  </g>
  <path d="M38,76.67H28A1.67,1.67,0,0,1,26.33,75h0A1.67,1.67,0,0,1,28,73.33H38A1.67,1.67,0,0,1,39.67,75h0A1.67,1.67,0,0,1,38,76.67Zm21.67-50V73.33A13.35,13.35,0,0,1,46.33,86.67H19.67A13.35,13.35,0,0,1,6.33,73.33V26.67A13.35,13.35,0,0,1,19.67,13.33H46.33A13.35,13.35,0,0,1,59.67,26.67Zm-46,42.69H52.33v-39l-38.67.6V69.36Zm0-42.69v3l38.67-.6V26.67a6,6,0,0,0-6-6H19.67A6,6,0,0,0,13.67,26.67ZM52.33,73.33V70.64H13.67v2.69a6,6,0,0,0,6,6H46.33A6,6,0,0,0,52.33,73.33ZM28,23.33A1.67,1.67,0,1,0,29.67,25,1.67,1.67,0,0,0,28,23.33ZM39.67,25h0A1.67,1.67,0,0,0,38,23.33H34.67A1.67,1.67,0,0,0,33,25h0a1.67,1.67,0,0,0,1.67,1.67H38A1.67,1.67,0,0,0,39.67,25ZM84.1,73.89a32.67,32.67,0,0,0,0-46.2,2.67,2.67,0,0,0-3.77,3.77,27.33,27.33,0,0,1,0,38.66A2.67,2.67,0,1,0,84.1,73.89ZM77,66.81a22.67,22.67,0,0,0,0-32.06,2.67,2.67,0,1,0-3.77,3.77,17.33,17.33,0,0,1,0,24.51A2.67,2.67,0,1,0,77,66.81ZM70,59.74a12.67,12.67,0,0,0,0-17.91,2.67,2.67,0,0,0-3.77,3.77,7.33,7.33,0,0,1,0,10.37A2.67,2.67,0,1,0,70,59.74Z"/>
  <g>
    <polygon class="cls-2" points="13.67 69.36 52.33 69.36 52.33 30.35 13.67 30.94 13.67 69.36"/>
    <path d="M13.67,26.67v3l38.67-.6V26.67a6,6,0,0,0-6-6H19.67A6,6,0,0,0,13.67,26.67Z"/>
    <path d="M52.33,73.33V70.64H13.67v2.69a6,6,0,0,0,6,6H46.33A6,6,0,0,0,52.33,73.33Z"/>
    <rect class="cls-1" x="26.33" y="73.33" width="13.33" height="3.33" rx="1.67" ry="1.67"/>
    <circle class="cls-1" cx="28" cy="25" r="1.67"/>
    <rect class="cls-1" x="34.67" y="21.67" width="3.33" height="6.67" rx="1.67" ry="1.67" transform="translate(61.33 -11.33) rotate(90)"/>
  </g>
</svg>
