<svg id="Layer_2" data-name="Layer 2" xmlns="http://www.w3.org/2000/svg" width="100" height="100" viewBox="0 0 100 100">
  <defs>
    <style>
      .cls-1 {
        fill: #fff;
      }
    </style>
  </defs>
  <title>call-alt-3</title>
  <g>
    <rect class="cls-1" x="3.83" y="10.83" width="58.33" height="78.33" rx="15.83" ry="15.83"/>
    <path class="cls-1" d="M46.33,13.33A13.35,13.35,0,0,1,59.67,26.67V73.33A13.35,13.35,0,0,1,46.33,86.67H19.67A13.35,13.35,0,0,1,6.33,73.33V26.67A13.35,13.35,0,0,1,19.67,13.33H46.33m0-5H19.67A18.35,18.35,0,0,0,1.33,26.67V73.33A18.35,18.35,0,0,0,19.67,91.67H46.33A18.35,18.35,0,0,0,64.67,73.33V26.67A18.35,18.35,0,0,0,46.33,8.33h0Z"/>
  </g>
  <g>
    <path class="cls-1" d="M82.21,63.67a5.17,5.17,0,0,1-3.65-8.82,24.83,24.83,0,0,0,0-35.12,5.17,5.17,0,0,1,7.31-7.31,35.17,35.17,0,0,1,0,49.73A5.13,5.13,0,0,1,82.21,63.67Z"/>
    <path class="cls-1" d="M82.21,13.41a2.66,2.66,0,0,1,1.89.78,32.67,32.67,0,0,1,0,46.2,2.67,2.67,0,0,1-3.77-3.77,27.33,27.33,0,0,0,0-38.66,2.67,2.67,0,0,1,1.89-4.55m0-5A7.67,7.67,0,0,0,76.79,21.5a22.33,22.33,0,0,1,0,31.58A7.67,7.67,0,1,0,87.63,63.92a37.67,37.67,0,0,0,0-53.27,7.62,7.62,0,0,0-5.42-2.25h0Z"/>
  </g>
  <g>
    <path class="cls-1" d="M75.14,56.6a5.17,5.17,0,0,1-3.65-8.82,14.83,14.83,0,0,0,0-21,5.17,5.17,0,1,1,7.31-7.31,25.17,25.17,0,0,1,0,35.59A5.13,5.13,0,0,1,75.14,56.6Z"/>
    <path class="cls-1" d="M75.14,20.48a2.66,2.66,0,0,1,1.89.78,22.67,22.67,0,0,1,0,32.06,2.67,2.67,0,0,1-3.77-3.77,17.33,17.33,0,0,0,0-24.51,2.67,2.67,0,0,1,1.89-4.55m0-5a7.67,7.67,0,0,0-5.42,13.09,12.33,12.33,0,0,1,0,17.44A7.67,7.67,0,0,0,80.56,56.85a27.67,27.67,0,0,0,0-39.13,7.61,7.61,0,0,0-5.42-2.25h0Z"/>
  </g>
  <g>
    <path class="cls-1" d="M68.07,49.52a5.17,5.17,0,0,1-3.65-8.82,4.83,4.83,0,0,0,0-6.84,5.17,5.17,0,1,1,7.31-7.31,15.17,15.17,0,0,1,0,21.45A5.13,5.13,0,0,1,68.07,49.52Z"/>
    <path class="cls-1" d="M68.07,27.55a2.66,2.66,0,0,1,1.89.78,12.67,12.67,0,0,1,0,17.91,2.67,2.67,0,0,1-3.77-3.77,7.33,7.33,0,0,0,0-10.37,2.67,2.67,0,0,1,1.89-4.55m0-5a7.67,7.67,0,0,0-5.42,13.09,2.33,2.33,0,0,1,0,3.3A7.67,7.67,0,1,0,73.49,49.78a17.67,17.67,0,0,0,0-25,7.62,7.62,0,0,0-5.42-2.25h0Z"/>
  </g>
  <path d="M38,76.67H28A1.67,1.67,0,0,1,26.33,75h0A1.67,1.67,0,0,1,28,73.33H38A1.67,1.67,0,0,1,39.67,75h0A1.67,1.67,0,0,1,38,76.67Zm21.67-50V73.33A13.35,13.35,0,0,1,46.33,86.67H19.67A13.35,13.35,0,0,1,6.33,73.33V26.67A13.35,13.35,0,0,1,19.67,13.33H46.33A13.35,13.35,0,0,1,59.67,26.67Zm-46,42.69H52.33v-39l-38.67.6V69.36Zm0-42.69v3l38.67-.6V26.67a6,6,0,0,0-6-6H19.67A6,6,0,0,0,13.67,26.67ZM52.33,73.33V70.64H13.67v2.69a6,6,0,0,0,6,6H46.33A6,6,0,0,0,52.33,73.33ZM28,23.33A1.67,1.67,0,1,0,29.67,25,1.67,1.67,0,0,0,28,23.33ZM39.67,25h0A1.67,1.67,0,0,0,38,23.33H34.67A1.67,1.67,0,0,0,33,25h0a1.67,1.67,0,0,0,1.67,1.67H38A1.67,1.67,0,0,0,39.67,25ZM84.1,60.39a32.67,32.67,0,0,0,0-46.2A2.67,2.67,0,0,0,80.33,18a27.33,27.33,0,0,1,0,38.66A2.67,2.67,0,1,0,84.1,60.39ZM77,53.31a22.67,22.67,0,0,0,0-32.06A2.67,2.67,0,1,0,73.26,25a17.33,17.33,0,0,1,0,24.51A2.67,2.67,0,1,0,77,53.31ZM70,46.24a12.67,12.67,0,0,0,0-17.91,2.67,2.67,0,0,0-3.77,3.77,7.33,7.33,0,0,1,0,10.37A2.67,2.67,0,1,0,70,46.24Z"/>
</svg>
