<svg id="Layer_2" data-name="Layer 2" xmlns="http://www.w3.org/2000/svg" width="100" height="100" viewBox="0 0 100 100">
  <defs>
    <style>
      .cls-1 {
        fill: none;
      }

      .cls-2 {
        fill: #fff;
      }

      .cls-3 {
        fill: #231f20;
      }

      .cls-4 {
        fill: #01af6b;
      }
    </style>
  </defs>
  <title>fat framed icons</title>
  <g>
    <rect class="cls-1" x="10" y="10" width="80" height="80"/>
    <g>
      <rect class="cls-2" x="10.83" y="14.17" width="78.33" height="71.67" rx="15.83" ry="15.83"/>
      <path class="cls-2" d="M73.33,16.67A13.35,13.35,0,0,1,86.67,30V70A13.35,13.35,0,0,1,73.33,83.33H26.67A13.35,13.35,0,0,1,13.33,70V30A13.35,13.35,0,0,1,26.67,16.67H73.33m0-5H26.67A18.35,18.35,0,0,0,8.33,30V70A18.35,18.35,0,0,0,26.67,88.33H73.33A18.35,18.35,0,0,0,91.67,70V30A18.35,18.35,0,0,0,73.33,11.67h0Z"/>
    </g>
    <path class="cls-3" d="M73.33,16.67H26.67A13.35,13.35,0,0,0,13.33,30V70A13.35,13.35,0,0,0,26.67,83.33H73.33A13.35,13.35,0,0,0,86.67,70V30A13.35,13.35,0,0,0,73.33,16.67ZM26.67,24H73.33a6,6,0,0,1,6,6V52.67H70a20,20,0,0,0-40,0H20.67V30A6,6,0,0,1,26.67,24ZM63.33,53.33A13.33,13.33,0,1,1,50,40,13.35,13.35,0,0,1,63.33,53.33ZM73.33,76H26.67a6,6,0,0,1-6-6V54H30a20,20,0,0,0,40,0h9.35V70A6,6,0,0,1,73.33,76ZM41.67,54A0.67,0.67,0,0,1,41,53.33a9,9,0,0,1,9-9,0.67,0.67,0,0,1,0,1.33,7.68,7.68,0,0,0-7.67,7.67A0.67,0.67,0,0,1,41.67,54ZM72,34.67H65.33a3.33,3.33,0,0,1,0-6.67H72A3.33,3.33,0,0,1,72,34.67Z"/>
    <g>
      <path class="cls-4" d="M79.67,92.5a6.17,6.17,0,0,1-6.17-6.17v-0.5H73A6.17,6.17,0,1,1,73,73.5h0.5V73a6.17,6.17,0,1,1,12.33,0v0.5h0.5a6.17,6.17,0,1,1,0,12.33h-0.5v0.5A6.17,6.17,0,0,1,79.67,92.5Z"/>
      <path class="cls-3" d="M79.67,69.33A3.67,3.67,0,0,1,83.33,73v3h3a3.67,3.67,0,0,1,0,7.33h-3v3a3.67,3.67,0,1,1-7.33,0v-3H73A3.67,3.67,0,0,1,73,76h3V73a3.67,3.67,0,0,1,3.67-3.67m0-5a8.68,8.68,0,0,0-8.48,6.86,8.67,8.67,0,0,0,0,17,8.67,8.67,0,0,0,17,0,8.67,8.67,0,0,0,0-17,8.68,8.68,0,0,0-8.48-6.86h0Z"/>
    </g>
  </g>
</svg>
