<svg xmlns="http://www.w3.org/2000/svg" viewBox="0 0 100 100"><defs><style>.cls-1{fill:#231f20;}.cls-2{fill:#fff;}.cls-3{fill:#fbad23;}.cls-4{fill:#fff0c8;}.cls-5{fill:#fed25f;}</style></defs><title>fat framed icons 3</title><g id="Layer_15" data-name="Layer 15"><circle class="cls-1" cx="50" cy="50" r="37.5"/><path class="cls-2" d="M50,15A35,35,0,1,1,15,50,35,35,0,0,1,50,15m0-5A40,40,0,1,0,90,50,40,40,0,0,0,50,10Z"/><path class="cls-3" d="M50,77.67a27.69,27.69,0,1,1,19.56-8.11A27.57,27.57,0,0,1,50,77.67Z"/><circle cx="50" cy="50" r="24" transform="translate(-8.55 89.64) rotate(-79.1)"/><path class="cls-4" d="M50,27.33A22.67,22.67,0,0,0,34,66L66,34A22.59,22.59,0,0,0,50,27.33Z"/><path class="cls-5" d="M72.67,50A22.64,22.64,0,0,0,66,34L34,66a22.67,22.67,0,0,0,38.7-16Z"/><path d="M43.87,61.55a6.12,6.12,0,0,1-1.48-.23,4.31,4.31,0,0,1-1.12-.52,3.28,3.28,0,0,1-.8-.78,5.58,5.58,0,0,1-.54-1,6.57,6.57,0,0,1-.32-1.17,12.6,12.6,0,0,1-.16-1.29c0-.41-.05-.87-.05-1.39V47H37.73V43.77H39.4V38.44h5v5.33h2.52V47H44.41v9.08c0,.92.52,1.4,1.58,1.43a3.22,3.22,0,0,0,.44,0,3.35,3.35,0,0,0,.4,0l.31,0,.17,0v3.9a17.44,17.44,0,0,1-2.93.27Z"/><path d="M55.16,65.5v-3a6.22,6.22,0,0,1-4.73-2q-1.56-1.87-1.68-5.76L53.41,54A8.12,8.12,0,0,0,54,57.4a1.69,1.69,0,0,0,1.58,1.05c.92,0,1.38-.59,1.38-1.78a4.6,4.6,0,0,0-.36-1.83,5.15,5.15,0,0,0-.87-1.43A14.54,14.54,0,0,0,54.24,52l-2.18-1.88a16.08,16.08,0,0,1-1.3-1.25,9.39,9.39,0,0,1-1-1.34A5.67,5.67,0,0,1,49,45.81a8.57,8.57,0,0,1-.24-2.09A6.17,6.17,0,0,1,50.4,39.2a6.88,6.88,0,0,1,4.48-1.9V34.5h1.56v2.79a6.39,6.39,0,0,1,1.76.34,5.33,5.33,0,0,1,1.33.68,4.72,4.72,0,0,1,.95,1,5.78,5.78,0,0,1,.64,1.15,7.75,7.75,0,0,1,.39,1.28A12.84,12.84,0,0,1,61.72,43c0,.38.06.79.08,1.25l-4.71.61c0-.42,0-.76,0-1S57,43.26,57,43a3.33,3.33,0,0,0-.16-.74,2.4,2.4,0,0,0-.27-.53,1,1,0,0,0-.43-.35,1.5,1.5,0,0,0-.62-.09,1.26,1.26,0,0,0-1.09.6A2.4,2.4,0,0,0,54,43.17a4.52,4.52,0,0,0,.17,1.26,3.27,3.27,0,0,0,.6,1.11,8.72,8.72,0,0,0,.69.8c.17.18.47.46.89.83L58.46,49a18.74,18.74,0,0,1,1.48,1.48,12.09,12.09,0,0,1,1.19,1.6,7,7,0,0,1,.85,2,8.48,8.48,0,0,1,.29,2.3,6,6,0,0,1-1.52,4.17,6.07,6.07,0,0,1-4.06,2v3Z"/></g></svg>