<svg xmlns="http://www.w3.org/2000/svg" viewBox="0 0 100 100"><defs><style>.cls-1{fill:#231f20;}.cls-2{fill:#fff;}.cls-3{fill:#fff0c8;}.cls-4{fill:#fed25f;}</style></defs><title>fat framed icons 3</title><g id="Layer_15" data-name="Layer 15"><circle class="cls-1" cx="50" cy="50" r="37.5"/><path class="cls-2" d="M50,15A35,35,0,1,1,15,50,35,35,0,0,1,50,15m0-5A40,40,0,1,0,90,50,40,40,0,0,0,50,10Z"/><path class="cls-3" d="M42.84,23.28A27.66,27.66,0,0,0,36.17,74L63.83,26A27.54,27.54,0,0,0,42.84,23.28Z"/><path class="cls-4" d="M76.72,42.84A27.56,27.56,0,0,0,63.83,26h0L36.17,74h0A27.66,27.66,0,0,0,76.72,42.84Z"/><path d="M27.33,50A.67.67,0,1,1,26,50,24,24,0,0,1,50,26a.67.67,0,1,1,0,1.33A22.67,22.67,0,0,0,27.33,50Z"/><path d="M43.41,62.41a6.39,6.39,0,0,1-1.59-.24,4.77,4.77,0,0,1-1.2-.55,3.47,3.47,0,0,1-.86-.85,5,5,0,0,1-.59-1.05,7.13,7.13,0,0,1-.34-1.26q-.12-.72-.18-1.38c0-.44,0-.94,0-1.5v-8.8H36.8V43.3h1.81V37.57H44V43.3H46.7v3.48H44v9.76q0,1.49,1.71,1.53h.47l.43,0,.34-.05.18,0v4.19a19.32,19.32,0,0,1-3.16.29A4.87,4.87,0,0,1,43.41,62.41Z"/><path d="M55.55,66.67V63.49a6.68,6.68,0,0,1-5.09-2.18c-1.11-1.34-1.72-3.41-1.8-6.2l5-.76a8.69,8.69,0,0,0,.6,3.61A1.82,1.82,0,0,0,56,59.09c1,0,1.48-.64,1.48-1.92a5.09,5.09,0,0,0-.38-2,6,6,0,0,0-.94-1.54,18.36,18.36,0,0,0-1.57-1.5l-2.34-2a19.11,19.11,0,0,1-1.41-1.34,11.17,11.17,0,0,1-1.09-1.45,6.18,6.18,0,0,1-.79-1.86,9.28,9.28,0,0,1-.25-2.25,6.62,6.62,0,0,1,1.75-4.85,7.36,7.36,0,0,1,4.82-2v-3h1.68v3a7.28,7.28,0,0,1,1.89.37,5.39,5.39,0,0,1,1.42.73,4.57,4.57,0,0,1,1,1.07A7,7,0,0,1,62,39.73a8.9,8.9,0,0,1,.41,1.37,10.42,10.42,0,0,1,.23,1.38c0,.4.06.85.09,1.34l-5.06.65c0-.45,0-.82,0-1.11s-.05-.6-.09-.93a3.29,3.29,0,0,0-.18-.8,2.55,2.55,0,0,0-.29-.57,1,1,0,0,0-.46-.37,1.55,1.55,0,0,0-.67-.1,1.35,1.35,0,0,0-1.17.65,2.56,2.56,0,0,0-.41,1.41A4.88,4.88,0,0,0,54.51,44a3.47,3.47,0,0,0,.64,1.19,10.38,10.38,0,0,0,.74.86c.19.19.51.49,1,.89l2.25,2a19.83,19.83,0,0,1,1.59,1.59A13.26,13.26,0,0,1,62,52.25a7.92,7.92,0,0,1,.92,2.12,9.85,9.85,0,0,1,.31,2.48,6.43,6.43,0,0,1-6,6.61v3.21Z"/></g></svg>