<!-- Generator: Adobe Illustrator 19.2.0, SVG Export Plug-In  -->
<svg version="1.1"
	 xmlns="http://www.w3.org/2000/svg" xmlns:xlink="http://www.w3.org/1999/xlink" xmlns:a="http://ns.adobe.com/AdobeSVGViewerExtensions/3.0/"
	 x="0px" y="0px" width="80px" height="80px" viewBox="0 0 80 80" style="enable-background:new 0 0 80 80;" xml:space="preserve">
<style type="text/css">
	.Graphic_x0020_Style{fill:#FFFFFF;stroke:#FFFFFF;stroke-width:5;stroke-miterlimit:10;}
	.st0{fill:none;}
	.st1{fill:#FFFFFF;}
</style>
<defs>
</defs>
<g>
	<rect class="st0" width="80" height="80"/>
	<g>
		<path class="st1" d="M40,75.9C20.2,75.9,4.1,59.8,4.1,40S20.2,4.1,40,4.1S75.9,20.2,75.9,40S59.8,75.9,40,75.9z"/>
		<path class="st1" d="M40,6.6c18.4,0,33.4,15,33.4,33.4S58.4,73.4,40,73.4S6.6,58.4,6.6,40S21.6,6.6,40,6.6 M40,1.6
			C18.8,1.6,1.6,18.8,1.6,40S18.8,78.4,40,78.4c21.2,0,38.4-17.2,38.4-38.4S61.2,1.6,40,1.6L40,1.6z"/>
	</g>
	<path d="M40,6.6C21.6,6.6,6.6,21.6,6.6,40c0,18.4,15,33.4,33.4,33.4c18.4,0,33.4-15,33.4-33.4C73.4,21.6,58.4,6.6,40,6.6z M40,66.1
		c-14.4,0-26.1-11.7-26.1-26.1S25.6,13.9,40,13.9S66.1,25.6,66.1,40S54.4,66.1,40,66.1z M48.4,22.4l-14.7,13
		c-0.4,0.4-0.7,0.9-0.8,1.5l-3.9,19.3c-0.3,1.5,1.5,2.5,2.6,1.5l14.7-13c0.4-0.4,0.7-0.9,0.8-1.5l3.9-19.3
		C51.4,22.4,49.6,21.3,48.4,22.4z M40,44c-2.2,0-4-1.8-4-4s1.8-4,4-4s4,1.8,4,4S42.2,44,40,44z"/>
</g>
</svg>
