<svg id="Layer_11" data-name="Layer 11" xmlns="http://www.w3.org/2000/svg" width="100" height="100" viewBox="0 0 100 100">
  <defs>
    <style>
      .cls-1 {
        fill: #fff;
      }
    </style>
  </defs>
  <title>fat framed icons</title>
  <g>
    <path d="M50,87.5A37.5,37.5,0,1,1,87.5,50,37.54,37.54,0,0,1,50,87.5Z"/>
    <path class="cls-1" d="M50,15A35,35,0,1,1,15,50,35,35,0,0,1,50,15m0-5A40,40,0,1,0,90,50,40,40,0,0,0,50,10h0Z"/>
  </g>
  <path class="cls-1" d="M50,77.67A27.67,27.67,0,1,1,77.67,50,27.7,27.7,0,0,1,50,77.67Z"/>
  <path d="M50,26A24,24,0,1,0,74,50,24,24,0,0,0,50,26Z"/>
  <path class="cls-1" d="M50,72.67A22.67,22.67,0,1,1,72.67,50,22.69,22.69,0,0,1,50,72.67Z"/>
  <path d="M50,32.33A17.69,17.69,0,0,0,32.33,50,0.67,0.67,0,1,1,31,50,19,19,0,0,1,50,31,0.67,0.67,0,1,1,50,32.33Z"/>
  <path d="M60.35,32.08a2.73,2.73,0,0,0-3.16.24L43.77,43.63a7.07,7.07,0,0,0-2.4,4.15L38.28,65.06a2.73,2.73,0,0,0,1.37,2.86,2.85,2.85,0,0,0,1.43.39,2.68,2.68,0,0,0,1.73-.63L56.23,56.37a7.07,7.07,0,0,0,2.4-4.15l3.09-17.28A2.73,2.73,0,0,0,60.35,32.08Z"/>
  <path class="cls-1" d="M57.32,52L60.4,34.7a1.4,1.4,0,0,0-.72-1.47A1.57,1.57,0,0,0,58.91,33a1.32,1.32,0,0,0-.87.32L44.63,44.65a5.72,5.72,0,0,0-1.27,1.51l13.28,7.66A5.73,5.73,0,0,0,57.32,52Z"/>
  <path class="cls-1" d="M43.36,46.17A5.73,5.73,0,0,0,42.68,48L39.59,65.3A1.47,1.47,0,0,0,42,66.66L55.37,55.35a5.72,5.72,0,0,0,1.27-1.51Z"/>
  <circle cx="50" cy="50" r="5.67"/>
  <circle class="cls-1" cx="50" cy="50" r="4.33"/>
</svg>
