<svg id="Layer_9" data-name="Layer 9" xmlns="http://www.w3.org/2000/svg" width="100" height="100" viewBox="0 0 100 100">
  <defs>
    <style>
      .cls-1 {
        fill: #fff;
      }
    </style>
  </defs>
  <title>fat framed icons</title>
  <g>
    <path class="cls-1" d="M28.95,85.83A14.8,14.8,0,0,1,14.17,71.05V49.72A10.3,10.3,0,0,1,24.46,39.43h9a10.26,10.26,0,0,1,5,1.27l2.31-2.31a10.26,10.26,0,0,1-1.27-5v-9A10.3,10.3,0,0,1,49.72,14.17H71.05A14.8,14.8,0,0,1,85.83,28.95V50.28A10.3,10.3,0,0,1,75.54,60.57h-9a10.26,10.26,0,0,1-5-1.27L59.3,61.61a10.26,10.26,0,0,1,1.27,5v9A10.3,10.3,0,0,1,50.28,85.83H28.95Z"/>
    <path class="cls-1" d="M71.05,16.67A12.29,12.29,0,0,1,83.33,28.95V50.28a7.8,7.8,0,0,1-7.79,7.79h-9a7.76,7.76,0,0,1-5.24-2L56,61.33a7.76,7.76,0,0,1,2,5.24v9a7.8,7.8,0,0,1-7.79,7.79H28.95A12.29,12.29,0,0,1,16.67,71.05V49.72a7.8,7.8,0,0,1,7.79-7.79h9a7.76,7.76,0,0,1,5.24,2L44,38.67a7.76,7.76,0,0,1-2-5.24v-9a7.8,7.8,0,0,1,7.79-7.79H71.05m0-5H49.72A12.8,12.8,0,0,0,36.93,24.46v9a12.77,12.77,0,0,0,.71,4.2,12.77,12.77,0,0,0-4.2-.71h-9A12.8,12.8,0,0,0,11.67,49.72V71.05A17.3,17.3,0,0,0,28.95,88.33H50.28A12.8,12.8,0,0,0,63.07,75.54v-9a12.77,12.77,0,0,0-.71-4.2,12.77,12.77,0,0,0,4.2.71h9A12.8,12.8,0,0,0,88.33,50.28V28.95A17.3,17.3,0,0,0,71.05,11.67h0Z"/>
  </g>
  <path d="M71.05,16.67H49.72a7.8,7.8,0,0,0-7.79,7.79v9a7.76,7.76,0,0,0,2,5.24L38.67,44a7.76,7.76,0,0,0-5.24-2h-9a7.8,7.8,0,0,0-7.79,7.79V71.05A12.29,12.29,0,0,0,28.95,83.33H50.28a7.8,7.8,0,0,0,7.79-7.79v-9a7.76,7.76,0,0,0-2-5.24L61.33,56a7.76,7.76,0,0,0,5.24,2h9a7.8,7.8,0,0,0,7.79-7.79V28.95A12.29,12.29,0,0,0,71.05,16.67ZM40.89,66.11h9.39a0.46,0.46,0,0,1,.46.46v9a0.46,0.46,0,0,1-.46.46H28.95A5,5,0,0,1,24,71.05V49.72a0.46,0.46,0,0,1,.46-0.46h9a0.46,0.46,0,0,1,.46.46v9.39L59.11,33.89H49.72a0.46,0.46,0,0,1-.46-0.46v-9A0.46,0.46,0,0,1,49.72,24H71.05A5,5,0,0,1,76,28.95V50.28a0.46,0.46,0,0,1-.46.46h-9a0.46,0.46,0,0,1-.46-0.46V40.89ZM66,28.33a0.67,0.67,0,0,1,.67-0.67h4.39a1.28,1.28,0,0,1,1.28,1.28v9.39a0.67,0.67,0,1,1-1.33,0V29H66.67A0.67,0.67,0,0,1,66,28.33Z"/>
</svg>
