<svg id="Layer_2" data-name="Layer 2" xmlns="http://www.w3.org/2000/svg" width="100" height="100" viewBox="0 0 100 100">
  <defs>
    <style>
      .cls-1 {
        fill: #fff;
      }

      .cls-2 {
        fill: #5586bc;
      }
    </style>
  </defs>
  <title>fat framed icons</title>
  <g>
    <g>
      <rect x="12.5" y="12.5" width="75" height="75" rx="12.5" ry="12.5"/>
      <path class="cls-1" d="M75,15A10,10,0,0,1,85,25V75A10,10,0,0,1,75,85H25A10,10,0,0,1,15,75V25A10,10,0,0,1,25,15H75m0-5H25A15,15,0,0,0,10,25V75A15,15,0,0,0,25,90H75A15,15,0,0,0,90,75V25A15,15,0,0,0,75,10h0Z"/>
    </g>
    <rect class="cls-2" x="22.33" y="22.33" width="55.33" height="55.33" rx="2.67" ry="2.67"/>
    <path d="M27.67,33.33V50A5.67,5.67,0,1,0,39,50V47L53,61H50a5.67,5.67,0,1,0,0,11.33H66.67a5.67,5.67,0,0,0,5.67-5.67V50A5.67,5.67,0,1,0,61,50v3L47,39h3a5.67,5.67,0,1,0,0-11.33H33.33A5.67,5.67,0,0,0,27.67,33.33Z"/>
    <path class="cls-1" d="M50,29a4.33,4.33,0,0,1,0,8.67H45.4a0.67,0.67,0,0,0-.47,1.14L61.2,55.07a0.67,0.67,0,0,0,1.14-.47V50A4.33,4.33,0,0,1,71,50V66.67A4.34,4.34,0,0,1,66.67,71H50a4.33,4.33,0,0,1,0-8.67h4.6a0.67,0.67,0,0,0,.47-1.14L38.8,44.93a0.67,0.67,0,0,0-1.14.47V50A4.33,4.33,0,0,1,29,50V33.33A4.34,4.34,0,0,1,33.33,29H50Z"/>
  </g>
</svg>
