<svg id="Layer_9" data-name="Layer 9" xmlns="http://www.w3.org/2000/svg" width="100" height="100" viewBox="0 0 100 100">
  <defs>
    <style>
      .cls-1 {
        fill: #fff;
      }
    </style>
  </defs>
  <title>fat framed icons</title>
  <g>
    <path class="cls-1" d="M52.39,85.83A10.3,10.3,0,0,1,42.1,75.54v-9a10.25,10.25,0,0,1,1.27-5L41.06,59.3a10.25,10.25,0,0,1-5,1.27h-9A10.3,10.3,0,0,1,16.83,50.28V28.95A14.8,14.8,0,0,1,31.62,14.17H52.95A10.3,10.3,0,0,1,63.24,24.46v9a10.25,10.25,0,0,1-1.27,5l2.31,2.31a10.25,10.25,0,0,1,5-1.27h9A10.3,10.3,0,0,1,88.5,49.72V71.05A14.8,14.8,0,0,1,73.72,85.83H52.39Z"/>
    <path class="cls-1" d="M52.95,16.67a7.8,7.8,0,0,1,7.79,7.79v9a7.76,7.76,0,0,1-2,5.24L64,44a7.76,7.76,0,0,1,5.24-2h9A7.8,7.8,0,0,1,86,49.72V71.05A12.29,12.29,0,0,1,73.72,83.33H52.39a7.8,7.8,0,0,1-7.79-7.79v-9a7.76,7.76,0,0,1,2-5.24L41.34,56a7.76,7.76,0,0,1-5.24,2h-9a7.8,7.8,0,0,1-7.79-7.79V28.95A12.29,12.29,0,0,1,31.62,16.67H52.95m0-5H31.62A17.3,17.3,0,0,0,14.33,28.95V50.28A12.8,12.8,0,0,0,27.12,63.07h9a12.77,12.77,0,0,0,4.2-.71,12.77,12.77,0,0,0-.71,4.2v9A12.8,12.8,0,0,0,52.39,88.33H73.72A17.3,17.3,0,0,0,91,71.05V49.72A12.8,12.8,0,0,0,78.21,36.93h-9a12.77,12.77,0,0,0-4.2.71,12.77,12.77,0,0,0,.71-4.2v-9A12.8,12.8,0,0,0,52.95,11.67h0Z"/>
  </g>
  <path d="M16.67,28.95V50.28a7.8,7.8,0,0,0,7.79,7.79h9a7.76,7.76,0,0,0,5.24-2L44,61.33a7.76,7.76,0,0,0-2,5.24v9a7.8,7.8,0,0,0,7.79,7.79H71.05A12.29,12.29,0,0,0,83.33,71.05V49.72a7.8,7.8,0,0,0-7.79-7.79h-9a7.76,7.76,0,0,0-5.24,2L56,38.67a7.76,7.76,0,0,0,2-5.24v-9a7.8,7.8,0,0,0-7.79-7.79H28.95A12.29,12.29,0,0,0,16.67,28.95ZM33.89,40.89v9.39a0.46,0.46,0,0,1-.46.46h-9A0.46,0.46,0,0,1,24,50.28V28.95A5,5,0,0,1,28.95,24H50.28a0.46,0.46,0,0,1,.46.46v9a0.46,0.46,0,0,1-.46.46H40.89L66.11,59.11V49.72a0.46,0.46,0,0,1,.46-0.46h9a0.46,0.46,0,0,1,.46.46V71.05A5,5,0,0,1,71.05,76H49.72a0.46,0.46,0,0,1-.46-0.46v-9a0.46,0.46,0,0,1,.46-0.46h9.39ZM33.33,29H29v9.33a0.67,0.67,0,1,1-1.33,0V28.95a1.28,1.28,0,0,1,1.28-1.28h4.39A0.67,0.67,0,1,1,33.33,29Z"/>
</svg>
