<svg id="Layer_9" data-name="Layer 9" xmlns="http://www.w3.org/2000/svg" width="100" height="100" viewBox="0 0 100 100">
  <defs>
    <style>
      .cls-1 {
        fill: #fff;
      }

      .cls-2 {
        fill: #5586bc;
      }
    </style>
  </defs>
  <title>fat framed icons</title>
  <g>
    <g>
      <path class="cls-1" d="M50,79.17c-18.16,0-34.11-10.91-38.78-26.54a9.16,9.16,0,0,1,0-5.25C15.89,31.75,31.84,20.83,50,20.83S84.11,31.75,88.78,47.37a9.16,9.16,0,0,1,0,5.25C84.11,68.25,68.16,79.17,50,79.17Z"/>
      <path class="cls-1" d="M50,23.33c17.07,0,32,10.18,36.39,24.76a6.67,6.67,0,0,1,0,3.82C82,66.49,67.07,76.67,50,76.67S18,66.49,13.61,51.91a6.67,6.67,0,0,1,0-3.82C18,33.51,32.93,23.33,50,23.33m0-5C30.74,18.33,13.81,30,8.82,46.66a11.63,11.63,0,0,0,0,6.68C13.81,70,30.74,81.67,50,81.67S86.19,70,91.18,53.34a11.63,11.63,0,0,0,0-6.68C86.19,30,69.26,18.33,50,18.33h0Z"/>
    </g>
    <path class="cls-1" d="M86.39,48.09C82,33.51,67.07,23.33,50,23.33S18,33.51,13.61,48.09a6.67,6.67,0,0,0,0,3.82C18,66.49,32.93,76.67,50,76.67S82,66.49,86.39,51.91A6.67,6.67,0,0,0,86.39,48.09Z"/>
    <path class="cls-2" d="M50,36A14,14,0,1,0,64,50,14,14,0,0,0,50,36Z"/>
    <path d="M86.39,48.09C82,33.51,67.07,23.33,50,23.33S18,33.51,13.61,48.09a6.67,6.67,0,0,0,0,3.82C18,66.49,32.93,76.67,50,76.67S82,66.49,86.39,51.91A6.67,6.67,0,0,0,86.39,48.09ZM50,69.33c-13.77,0-25.79-7.94-29.3-19.33C24.21,38.61,36.23,30.67,50,30.67S75.79,38.61,79.3,50C75.79,61.39,63.77,69.33,50,69.33ZM50,36A14,14,0,1,0,64,50,14,14,0,0,0,50,36Zm0,26.67A12.67,12.67,0,1,1,62.67,50,12.68,12.68,0,0,1,50,62.67Zm0.67-21a0.67,0.67,0,0,1-.67.67A7.68,7.68,0,0,0,42.33,50,0.67,0.67,0,1,1,41,50a9,9,0,0,1,9-9A0.67,0.67,0,0,1,50.67,41.67Z"/>
    <path class="cls-1" d="M50.67,41.67a0.67,0.67,0,0,1-.67.67A7.68,7.68,0,0,0,42.33,50,0.67,0.67,0,1,1,41,50a9,9,0,0,1,9-9A0.67,0.67,0,0,1,50.67,41.67Z"/>
  </g>
</svg>
