<svg id="Layer_9" data-name="Layer 9" xmlns="http://www.w3.org/2000/svg" width="100" height="100" viewBox="0 0 100 100">
  <defs>
    <style>
      .cls-1 {
        fill: #fff;
      }

      .cls-2 {
        fill: #5586bc;
      }
    </style>
  </defs>
  <title>fat framed icons</title>
  <g>
    <g>
      <path class="cls-1" d="M50,79.17c-18.16,0-34.11-10.91-38.78-26.54a9.16,9.16,0,0,1,0-5.25C15.89,31.75,31.84,20.83,50,20.83S84.11,31.75,88.78,47.37a9.16,9.16,0,0,1,0,5.25C84.11,68.25,68.16,79.17,50,79.17Z"/>
      <path class="cls-1" d="M50,23.33c17.07,0,32,10.18,36.39,24.76a6.67,6.67,0,0,1,0,3.82C82,66.49,67.07,76.67,50,76.67S18,66.49,13.61,51.91a6.67,6.67,0,0,1,0-3.82C18,33.51,32.93,23.33,50,23.33m0-5C30.74,18.33,13.81,30,8.82,46.66a11.63,11.63,0,0,0,0,6.68C13.81,70,30.74,81.67,50,81.67S86.19,70,91.18,53.34a11.63,11.63,0,0,0,0-6.68C86.19,30,69.26,18.33,50,18.33h0Z"/>
    </g>
    <path class="cls-2" d="M50,70h0A13.33,13.33,0,1,0,36.67,56.67,13.35,13.35,0,0,0,50,70Z"/>
    <path class="cls-1" d="M80,50C76.56,38.5,64.43,30,50,30S23.44,38.5,20,50A27,27,0,0,0,31.78,64.9a20,20,0,1,1,36.44,0A27,27,0,0,0,80,50Z"/>
    <path d="M50,49a7.68,7.68,0,0,0-7.67,7.67,0.67,0.67,0,0,1-1.33,0,9,9,0,0,1,9-9A0.67,0.67,0,1,1,50,49Zm36.39,2.91C82,66.49,67.07,76.67,50,76.67h0c-17.07,0-32-10.18-36.39-24.76a6.67,6.67,0,0,1,0-3.82C18,33.51,32.93,23.33,50,23.33S82,33.51,86.39,48.09A6.67,6.67,0,0,1,86.39,51.91ZM50,70h0A13.33,13.33,0,1,0,36.67,56.67,13.35,13.35,0,0,0,50,70ZM80,50C76.56,38.5,64.43,30,50,30S23.44,38.5,20,50A27,27,0,0,0,31.78,64.9a20,20,0,1,1,36.44,0A27,27,0,0,0,80,50Z"/>
    <path class="cls-1" d="M50,49a7.68,7.68,0,0,0-7.67,7.67,0.67,0.67,0,0,1-1.33,0,9,9,0,0,1,9-9A0.67,0.67,0,1,1,50,49Z"/>
  </g>
</svg>
