<svg id="Layer_8" data-name="Layer 8" xmlns="http://www.w3.org/2000/svg" width="100" height="100" viewBox="0 0 100 100">
  <defs>
    <style>
      .cls-1 {
        fill: none;
      }

      .cls-2 {
        fill: #fff;
      }

      .cls-3 {
        fill: #e14f4e;
      }
    </style>
  </defs>
  <title>fat framed icons</title>
  <rect class="cls-1" x="10" y="10" width="80" height="80"/>
  <g>
    <g>
      <path class="cls-2" d="M38.19,91a12.52,12.52,0,0,1-12.07-9.26L12.31,30.24A12.5,12.5,0,0,1,33.55,18.51L68,9.29a9.16,9.16,0,0,1,11.23,6.48L87.81,48A9.17,9.17,0,0,1,81.32,59.2L48.32,68l1.94,7.24A12.5,12.5,0,0,1,38.19,91Z"/>
      <path class="cls-2" d="M70.33,11.48a6.67,6.67,0,0,1,6.44,4.94l8.63,32.2a6.67,6.67,0,0,1-4.71,8.16L45.26,66.27l2.59,9.66a10,10,0,1,1-19.32,5.18L14.73,29.59a10,10,0,0,1,17.9-8.25l36-9.64a6.67,6.67,0,0,1,1.73-.23m0-5a11.69,11.69,0,0,0-3,.4l-33,8.85A15,15,0,0,0,9.9,30.89L23.7,82.4a15,15,0,1,0,29-7.76l-1.29-4.83L82,61.61a11.67,11.67,0,0,0,8.25-14.29l-8.63-32.2A11.68,11.68,0,0,0,70.33,6.48h0Z"/>
    </g>
    <path class="cls-2" d="M38.88,81.1a2.67,2.67,0,0,1-3.27-1.89L21.81,27.7a2.67,2.67,0,0,1,1.89-3.27,2.7,2.7,0,0,1,.69-0.09,2.67,2.67,0,0,1,2.57,2l0.82,3,8.85,33h0l4.14,15.45A2.67,2.67,0,0,1,38.88,81.1Z"/>
    <polygon class="cls-3" points="37.57 60.74 29.46 30.47 29.29 29.83 69.85 18.96 78.14 49.87 37.57 60.74"/>
    <path d="M85.39,48.62l-8.63-32.2a6.66,6.66,0,0,0-8.16-4.71l-36,9.64a10,10,0,0,0-17.9,8.25l13.8,51.52a10,10,0,1,0,19.32-5.18l-2.59-9.66,35.42-9.49A6.67,6.67,0,0,0,85.39,48.62ZM38.88,81.1a2.67,2.67,0,0,1-3.27-1.89L21.81,27.7a2.67,2.67,0,0,1,1.89-3.27,2.7,2.7,0,0,1,.69-0.09,2.67,2.67,0,0,1,2.57,2l0.82,3,8.85,33h0l4.14,15.45A2.67,2.67,0,0,1,38.88,81.1ZM37.57,60.74L29.46,30.47l-0.17-.64L69.85,19l8.28,30.91Z"/>
    <rect class="cls-1" x="10" y="10" width="80" height="80"/>
  </g>
</svg>
