<svg id="Layer_15" data-name="Layer 15" xmlns="http://www.w3.org/2000/svg" width="100" height="100" viewBox="0 0 100 100">
  <defs>
    <style>
      .cls-1 {
        fill: #fed25f;
      }

      .cls-2 {
        fill: #fff;
      }
    </style>
  </defs>
  <title>fat framed icons</title>
  <path d="M82.33,53.1L79.58,50l2.75-3.1a10.4,10.4,0,0,0,1.23-12.12L80,28.55a10.41,10.41,0,0,0-11.11-5l-4.06.83-1.31-3.93a10.4,10.4,0,0,0-9.88-7.12H46.4a10.4,10.4,0,0,0-9.88,7.12l-1.31,3.93-4.06-.83a10.41,10.41,0,0,0-11.11,5l-3.6,6.23A10.4,10.4,0,0,0,17.67,46.9L20.42,50l-2.75,3.1a10.4,10.4,0,0,0-1.23,12.12L20,71.45a10.41,10.41,0,0,0,11.11,5l4.06-.83,1.31,3.93a10.4,10.4,0,0,0,9.88,7.12H53.6a10.4,10.4,0,0,0,9.88-7.12l1.31-3.93,4.06,0.83a10.42,10.42,0,0,0,11.11-5l3.6-6.23A10.4,10.4,0,0,0,82.33,53.1Z"/>
  <path class="cls-1" d="M66.38,65.44a0.67,0.67,0,0,0-.94,0,21.87,21.87,0,0,1-9.79,5.65,0.67,0.67,0,0,0,.17,1.31l0.17,0a23.2,23.2,0,0,0,2.41-.8l-1.88,5.65a3.08,3.08,0,0,1-2.93,2.11H46.4a3.08,3.08,0,0,1-2.93-2.11L41.6,71.58a23.16,23.16,0,0,0,2.41.8l0.17,0a0.67,0.67,0,0,0,.17-1.31,21.83,21.83,0,0,1-9.79-5.65,0.67,0.67,0,1,0-.94.94,23,23,0,0,0,1.9,1.69l-5.83,1.19a3.08,3.08,0,0,1-3.29-1.48l-3.6-6.23A3.08,3.08,0,0,1,23.16,58l3.95-4.45A23,23,0,0,0,27.62,56a0.67,0.67,0,0,0,.64.49l0.17,0a0.67,0.67,0,0,0,.47-0.82,21.84,21.84,0,0,1,0-11.3A0.67,0.67,0,0,0,27.62,44a23.15,23.15,0,0,0-.51,2.49l-4-4.45a3.08,3.08,0,0,1-.36-3.59l3.6-6.23a3.08,3.08,0,0,1,3.29-1.48l5.83,1.19a23.17,23.17,0,0,0-1.9,1.68,0.67,0.67,0,1,0,.94.94,21.87,21.87,0,0,1,9.79-5.65A0.67,0.67,0,0,0,44,27.62a23.18,23.18,0,0,0-2.41.8l1.88-5.65a3.08,3.08,0,0,1,2.93-2.11H53.6a3.08,3.08,0,0,1,2.93,2.11l1.88,5.65a23.15,23.15,0,0,0-2.41-.8,0.67,0.67,0,0,0-.35,1.29,21.83,21.83,0,0,1,9.79,5.65,0.67,0.67,0,1,0,.94-0.94,23,23,0,0,0-1.9-1.69l5.83-1.19a3.08,3.08,0,0,1,3.29,1.48l3.6,6.23A3.08,3.08,0,0,1,76.84,42l-3.95,4.45A23,23,0,0,0,72.38,44a0.67,0.67,0,0,0-1.29.35,21.84,21.84,0,0,1,0,11.3,0.67,0.67,0,0,0,.47.82l0.17,0A0.67,0.67,0,0,0,72.38,56a23.15,23.15,0,0,0,.51-2.49l4,4.46a3.08,3.08,0,0,1,.36,3.59l-3.6,6.23a3.08,3.08,0,0,1-3.29,1.48l-5.83-1.19a23.17,23.17,0,0,0,1.9-1.68A0.67,0.67,0,0,0,66.38,65.44Z"/>
  <path d="M44.67,40.76a10.67,10.67,0,1,0,14.57,3.9A10.68,10.68,0,0,0,44.67,40.76Z"/>
  <path class="cls-2" d="M54.67,58.08a9.33,9.33,0,1,1,3.42-12.75A9.26,9.26,0,0,1,54.67,58.08Z"/>
  <path d="M50,33.33A16.69,16.69,0,0,0,33.33,50,0.67,0.67,0,1,1,32,50,18,18,0,0,1,50,32,0.67,0.67,0,0,1,50,33.33Z"/>
</svg>
