<svg id="Layer_2" data-name="Layer 2" xmlns="http://www.w3.org/2000/svg" width="100" height="100" viewBox="0 0 100 100">
  <defs>
    <style>
      .cls-1 {
        fill: #e14f4e;
      }

      .cls-2 {
        fill: #fff;
      }

      .cls-3 {
        fill: none;
      }
    </style>
  </defs>
  <title>fat framed icons</title>
  <g>
    <g>
      <path class="cls-1" d="M50,83.78a21.09,21.09,0,0,1-11.21-3.22c-7.53-4.72-25.17-17.89-26.26-38.32a25.13,25.13,0,0,1,6.8-18.56A23.6,23.6,0,0,1,36.6,16.22,24.22,24.22,0,0,1,50,20.28a24.19,24.19,0,0,1,13.38-4.06,23.59,23.59,0,0,1,17.29,7.45,25.14,25.14,0,0,1,6.8,18.56c-1.09,20.43-18.72,33.6-26.26,38.32A21.09,21.09,0,0,1,50,83.78Z"/>
      <path class="cls-2" d="M63.43,18.72A21.09,21.09,0,0,1,78.85,25.4,22.62,22.62,0,0,1,85,42.11c-1,19.26-17.89,31.82-25.09,36.33a18.61,18.61,0,0,1-19.76,0C32.92,73.93,16.06,61.36,15,42.11A22.62,22.62,0,0,1,21.15,25.4,21.1,21.1,0,0,1,36.6,18.72,21.49,21.49,0,0,1,50,23.38a21.47,21.47,0,0,1,13.39-4.65h0m0-5h0A26.76,26.76,0,0,0,50,17.34a26.77,26.77,0,0,0-13.39-3.61A26.08,26.08,0,0,0,17.52,22,27.64,27.64,0,0,0,10,42.37C11.19,64,29.6,77.75,37.47,82.68a23.61,23.61,0,0,0,25.07,0C70.4,77.75,88.81,64,90,42.37A27.64,27.64,0,0,0,82.48,22a26,26,0,0,0-19.05-8.23h0Z"/>
    </g>
    <path d="M78.85,25.4a21.09,21.09,0,0,0-15.43-6.67h0A21.47,21.47,0,0,0,50,23.38,21.49,21.49,0,0,0,36.6,18.72,21.1,21.1,0,0,0,21.15,25.4,22.62,22.62,0,0,0,15,42.11c1,19.26,17.89,31.82,25.09,36.33a18.61,18.61,0,0,0,19.76,0C67.08,73.93,83.94,61.36,85,42.11A22.62,22.62,0,0,0,78.85,25.4ZM44,72.22C25.31,60.51,22.64,47,22.36,41.72a15.26,15.26,0,0,1,4.12-11.28,13.82,13.82,0,0,1,10.1-4.38h0a14.17,14.17,0,0,1,12.81,8,0.69,0.69,0,0,0,1.2,0,14.17,14.17,0,0,1,12.81-8h0a13.82,13.82,0,0,1,10.1,4.38,15.26,15.26,0,0,1,4.12,11.28C77.36,47,74.69,60.51,56,72.22A11.35,11.35,0,0,1,44,72.22ZM37.24,30.39a0.67,0.67,0,0,1-.67.67,8.87,8.87,0,0,0-6.48,2.82,10.24,10.24,0,0,0-2.75,7.57,0.67,0.67,0,0,1-.63.7h0A0.67,0.67,0,0,1,26,41.52,11.58,11.58,0,0,1,29.13,33a10.19,10.19,0,0,1,7.44-3.24A0.67,0.67,0,0,1,37.24,30.39Z"/>
    <rect class="cls-3" x="10" y="10" width="80" height="80"/>
  </g>
</svg>
