<svg id="Layer_9" data-name="Layer 9" xmlns="http://www.w3.org/2000/svg" width="100" height="100" viewBox="0 0 100 100">
  <defs>
    <style>
      .cls-1 {
        fill: #fff;
      }

      .cls-2 {
        fill: #c2d5e8;
      }

      .cls-3 {
        fill: #5586bc;
      }

      .cls-4 {
        fill: none;
      }

      .cls-5 {
        fill: #01af6b;
      }
    </style>
  </defs>
  <title>fat framed icons</title>
  <g>
    <path class="cls-1" d="M65,86.17a9.12,9.12,0,0,1-3.41-.66L50,80.87,38.4,85.51a9.17,9.17,0,0,1-6.81,0l-15-6A9.12,9.12,0,0,1,10.83,71V29a9.12,9.12,0,0,1,5.76-8.51l15-6a9.17,9.17,0,0,1,6.81,0L50,19.13l11.6-4.64a9.17,9.17,0,0,1,6.81,0l15,6A9.12,9.12,0,0,1,89.17,29V71a9.12,9.12,0,0,1-5.76,8.51l-15,6A9.12,9.12,0,0,1,65,86.17Z"/>
    <path class="cls-1" d="M65,16.33a6.67,6.67,0,0,1,2.48.48l15,6A6.67,6.67,0,0,1,86.67,29V71a6.67,6.67,0,0,1-4.19,6.19l-15,6a6.66,6.66,0,0,1-5,0L50,78.18l-12.52,5a6.66,6.66,0,0,1-5,0l-15-6A6.67,6.67,0,0,1,13.33,71V29a6.67,6.67,0,0,1,4.19-6.19l15-6a6.66,6.66,0,0,1,5,0l12.52,5,12.52-5A6.67,6.67,0,0,1,65,16.33m0-5a11.61,11.61,0,0,0-4.33.83L50,16.43,39.33,12.17a11.66,11.66,0,0,0-8.67,0l-15,6A11.61,11.61,0,0,0,8.33,29V71a11.61,11.61,0,0,0,7.33,10.83l15,6a11.66,11.66,0,0,0,8.67,0L50,83.57l10.67,4.27a11.66,11.66,0,0,0,8.67,0l15-6A11.61,11.61,0,0,0,91.67,71V29a11.61,11.61,0,0,0-7.33-10.83l-15-6A11.61,11.61,0,0,0,65,11.33h0Z"/>
  </g>
  <polygon class="cls-2" points="34.33 23.98 20.67 29.45 20.67 70.55 34.33 76.02 34.33 23.98"/>
  <polygon class="cls-3" points="35.67 23.98 35.67 76.02 49.33 70.55 49.33 29.45 35.67 23.98"/>
  <rect class="cls-4" x="10" y="10" width="80" height="80"/>
  <path class="cls-2" d="M58.49,43a6.19,6.19,0,0,1,5.84-6.18V24L50.67,29.45v41.1L64.33,76V49.21A6.19,6.19,0,0,1,58.49,43Z"/>
  <path class="cls-3" d="M65.67,24V36.92a6.19,6.19,0,0,1,0,12.23V76l13.67-5.47V29.45Z"/>
  <path d="M82.48,22.81l-15-6a6.67,6.67,0,0,0-5,0L50,21.82l-12.52-5a6.67,6.67,0,0,0-5,0l-15,6A6.67,6.67,0,0,0,13.33,29V71a6.67,6.67,0,0,0,4.19,6.19l15,6a6.67,6.67,0,0,0,5,0l12.52-5,12.52,5a6.67,6.67,0,0,0,5,0l15-6A6.67,6.67,0,0,0,86.67,71V29A6.67,6.67,0,0,0,82.48,22.81ZM34.33,76L20.67,70.55V29.45L34.33,24V76Zm15-5.47L35.67,76V24l13.67,5.47v41.1ZM65,48.1a4.92,4.92,0,1,1,5-4.92A5,5,0,0,1,65,48.1ZM50.67,70.55V29.45L64.33,24v9.38A9.79,9.79,0,0,0,55,43.75c0.53,6.72,6,12.35,8.6,14.67a2,2,0,0,0,.7.4V76Zm28.67,0L65.67,76V58.82a2,2,0,0,0,.71-0.4C69.12,56,75,50,75,42.7c0-5-4.12-9-9.33-9.33V24l13.67,5.47v41.1Z"/>
  <g>
    <path class="cls-5" d="M79.33,85.3a6.17,6.17,0,0,1-6.17-6.17v-0.5h-0.5a6.17,6.17,0,1,1,0-12.33h0.5V65.8a6.17,6.17,0,1,1,12.33,0v0.5H86a6.17,6.17,0,1,1,0,12.33H85.5v0.5A6.17,6.17,0,0,1,79.33,85.3Z"/>
    <path d="M79.33,62.13A3.67,3.67,0,0,1,83,65.8v3h3a3.67,3.67,0,1,1,0,7.33H83v3a3.67,3.67,0,0,1-7.33,0v-3h-3a3.67,3.67,0,1,1,0-7.33h3v-3a3.67,3.67,0,0,1,3.67-3.67m0-5A8.68,8.68,0,0,0,70.86,64a8.67,8.67,0,0,0,0,17,8.67,8.67,0,0,0,17,0,8.67,8.67,0,0,0,0-17,8.68,8.68,0,0,0-8.48-6.86h0Z"/>
  </g>
</svg>
