<svg id="Layer_9" data-name="Layer 9" xmlns="http://www.w3.org/2000/svg" width="100" height="100" viewBox="0 0 100 100">
  <defs>
    <style>
      .cls-1 {
        fill: #fff;
      }

      .cls-2 {
        fill: #c2d5e8;
      }

      .cls-3 {
        fill: #5586bc;
      }

      .cls-4 {
        fill: none;
      }
    </style>
  </defs>
  <title>fat framed icons</title>
  <g>
    <path class="cls-1" d="M65,86.17a9.11,9.11,0,0,1-3.41-.66L50,80.87,38.4,85.51a9.16,9.16,0,0,1-6.81,0l-15-6A9.12,9.12,0,0,1,10.83,71V29a9.12,9.12,0,0,1,5.76-8.51l15-6a9.17,9.17,0,0,1,6.81,0L50,19.13l11.6-4.64a9.17,9.17,0,0,1,6.81,0l15,6A9.12,9.12,0,0,1,89.17,29V71a9.12,9.12,0,0,1-5.76,8.51l-15,6A9.12,9.12,0,0,1,65,86.17Z"/>
    <path class="cls-1" d="M65,16.33a6.67,6.67,0,0,1,2.48.48l15,6A6.67,6.67,0,0,1,86.67,29V71a6.67,6.67,0,0,1-4.19,6.19l-15,6a6.67,6.67,0,0,1-5,0L50,78.18l-12.52,5a6.67,6.67,0,0,1-5,0l-15-6A6.67,6.67,0,0,1,13.33,71V29a6.67,6.67,0,0,1,4.19-6.19l15-6a6.67,6.67,0,0,1,5,0l12.52,5,12.52-5A6.67,6.67,0,0,1,65,16.33m0-5a11.62,11.62,0,0,0-4.33.83L50,16.43,39.33,12.17a11.67,11.67,0,0,0-8.67,0l-15,6A11.61,11.61,0,0,0,8.33,29V71a11.61,11.61,0,0,0,7.33,10.83l15,6a11.67,11.67,0,0,0,8.67,0L50,83.57l10.67,4.27a11.67,11.67,0,0,0,8.67,0l15-6A11.61,11.61,0,0,0,91.67,71V29a11.61,11.61,0,0,0-7.33-10.83l-15-6A11.62,11.62,0,0,0,65,11.33h0Z"/>
  </g>
  <path class="cls-2" d="M60.9,39a4,4,0,0,1,3.43-4V24L50.67,29.45v41.1L64.33,76V43A4,4,0,0,1,60.9,39Z"/>
  <path class="cls-3" d="M65.67,24V35.07a4,4,0,0,1,0,7.93V76l13.67-5.47V29.45Z"/>
  <path class="cls-2" d="M31,58.35a4,4,0,0,1,3.37-4V24L20.67,29.45v41.1L34.33,76V62.32A4,4,0,0,1,31,58.35Z"/>
  <path class="cls-3" d="M35.67,24V54.38a4,4,0,0,1,0,7.94V76l13.67-5.47V29.45Z"/>
  <path d="M82.48,22.81l-15-6a6.67,6.67,0,0,0-5,0L50,21.82l-12.52-5a6.67,6.67,0,0,0-5,0l-15,6A6.67,6.67,0,0,0,13.33,29V71a6.67,6.67,0,0,0,4.19,6.19l15,6a6.67,6.67,0,0,0,5,0l12.52-5,12.52,5a6.67,6.67,0,0,0,5,0l15-6A6.67,6.67,0,0,0,86.67,71V29A6.67,6.67,0,0,0,82.48,22.81ZM35,61.87a3.54,3.54,0,1,1,3.6-3.54A3.57,3.57,0,0,1,35,61.87ZM20.67,70.55V29.45L34.33,24V51.27a7,7,0,0,0-6.51,7.47C28.2,63.58,32.14,67.63,34,69.3a1.43,1.43,0,0,0,.32.21V76Zm28.67,0L35.67,76V69.51A1.45,1.45,0,0,0,36,69.3C38,67.56,42.2,63.22,42.2,58a6.93,6.93,0,0,0-6.53-6.71V24l13.67,5.47v41.1ZM65,42.54A3.54,3.54,0,1,1,68.6,39,3.57,3.57,0,0,1,65,42.54Zm-14.33,28V29.45L64.33,24v8a7,7,0,0,0-6.51,7.47C58.2,44.25,62.14,48.29,64,50a1.43,1.43,0,0,0,.32.21V76Zm28.67,0L65.67,76V50.17A1.45,1.45,0,0,0,66,50c2-1.74,6.21-6.08,6.21-11.32a6.93,6.93,0,0,0-6.53-6.71V24l13.67,5.47v41.1Z"/>
  <g>
    <path d="M45.13,60.4a1.34,1.34,0,0,1-1.33-1.33,1.34,1.34,0,0,1,.39-0.95,1.38,1.38,0,0,1,1.88,0,1.34,1.34,0,0,1,.39.95A1.34,1.34,0,0,1,45.13,60.4Z"/>
    <path d="M48.36,59.14a1.33,1.33,0,0,1,1.37-1.3h0A1.34,1.34,0,0,1,51,59.21h0a1.33,1.33,0,0,1-1.37,1.3h0A1.33,1.33,0,0,1,48.36,59.14Zm4.57,0.07a1.33,1.33,0,0,1,1.18-1.47h0a1.33,1.33,0,0,1,1.47,1.18h0a1.33,1.33,0,0,1-1.18,1.47H54.25A1.33,1.33,0,0,1,52.93,59.21Zm4.55-.78a1.33,1.33,0,0,1,.14-1.88h0a1.33,1.33,0,0,1,1.88.14h0a1.33,1.33,0,0,1-.14,1.88h0a1.32,1.32,0,0,1-.87.33h0A1.32,1.32,0,0,1,57.47,58.43Zm1.19-4.91a1.34,1.34,0,0,1,1.25-1.42h0a1.34,1.34,0,0,1,1.41,1.25h0a1.33,1.33,0,0,1-1.25,1.41H60A1.33,1.33,0,0,1,58.66,53.52Zm-1.75-2.21a1.33,1.33,0,0,1-.75-1.73h0a1.33,1.33,0,0,1,1.73-.75h0a1.34,1.34,0,0,1,.75,1.73h0a1.34,1.34,0,0,1-1.24.84h0A1.28,1.28,0,0,1,56.91,51.31Zm-4.09-.73h0a1.33,1.33,0,0,1-1.22-1.43h0A1.34,1.34,0,0,1,53,47.91h0a1.34,1.34,0,0,1,1.23,1.43h0a1.34,1.34,0,0,1-1.33,1.23H52.81Zm-4.61-.36A1.33,1.33,0,0,1,47,48.73h0a1.33,1.33,0,0,1,1.48-1.17h0A1.33,1.33,0,0,1,49.69,49h0a1.33,1.33,0,0,1-1.32,1.18H48.21Zm-4.93-1.53a1.32,1.32,0,0,1-.33-1.85h0a1.33,1.33,0,0,1,1.85-.34h0a1.34,1.34,0,0,1,.33,1.86h0a1.33,1.33,0,0,1-1.09.57h0A1.33,1.33,0,0,1,43.28,48.68Zm-1-3.75a1.34,1.34,0,0,1-1.19-1.47h0a1.34,1.34,0,0,1,1.47-1.19h0a1.32,1.32,0,0,1,1.19,1.46h0a1.33,1.33,0,0,1-1.32,1.2H42.29Zm1.57-4.21A1.34,1.34,0,0,1,44.63,39h0a1.33,1.33,0,0,1,1.72.77h0a1.34,1.34,0,0,1-.77,1.72h0a1.29,1.29,0,0,1-.47.09h0A1.34,1.34,0,0,1,43.86,40.73Zm4.41-1.11a1.33,1.33,0,0,1,1.31-1.35h0a1.34,1.34,0,0,1,1.35,1.31h0a1.34,1.34,0,0,1-1.31,1.35h0A1.33,1.33,0,0,1,48.27,39.61Z"/>
    <path d="M54.27,41a1.33,1.33,0,0,1-1.33-1.33,1.31,1.31,0,0,1,.39-0.94,1.37,1.37,0,0,1,1.88,0A1.33,1.33,0,0,1,54.27,41Z"/>
  </g>
  <rect class="cls-4" x="10" y="10" width="80" height="80"/>
</svg>
