<svg id="Layer_9" data-name="Layer 9" xmlns="http://www.w3.org/2000/svg" width="100" height="100" viewBox="0 0 100 100">
  <defs>
    <style>
      .cls-1 {
        fill: #fff;
      }

      .cls-2 {
        fill: #c2d5e8;
      }

      .cls-3 {
        fill: #5586bc;
      }

      .cls-4 {
        fill: none;
      }
    </style>
  </defs>
  <title>fat framed icons</title>
  <g>
    <path class="cls-1" d="M65,86.17a9.11,9.11,0,0,1-3.41-.66L50,80.87,38.4,85.51a9.16,9.16,0,0,1-6.81,0l-15-6A9.12,9.12,0,0,1,10.83,71V29a9.12,9.12,0,0,1,5.76-8.51l15-6a9.17,9.17,0,0,1,6.81,0L50,19.13l11.6-4.64a9.17,9.17,0,0,1,6.81,0l15,6A9.12,9.12,0,0,1,89.17,29V71a9.12,9.12,0,0,1-5.76,8.51l-15,6A9.12,9.12,0,0,1,65,86.17Z"/>
    <path class="cls-1" d="M65,16.33a6.67,6.67,0,0,1,2.48.48l15,6A6.67,6.67,0,0,1,86.67,29V71a6.67,6.67,0,0,1-4.19,6.19l-15,6a6.67,6.67,0,0,1-5,0L50,78.18l-12.52,5a6.67,6.67,0,0,1-5,0l-15-6A6.67,6.67,0,0,1,13.33,71V29a6.67,6.67,0,0,1,4.19-6.19l15-6a6.67,6.67,0,0,1,5,0l12.52,5,12.52-5A6.67,6.67,0,0,1,65,16.33m0-5a11.62,11.62,0,0,0-4.33.83L50,16.43,39.33,12.17a11.67,11.67,0,0,0-8.67,0l-15,6A11.61,11.61,0,0,0,8.33,29V71a11.61,11.61,0,0,0,7.33,10.83l15,6a11.67,11.67,0,0,0,8.67,0L50,83.57l10.67,4.27a11.67,11.67,0,0,0,8.67,0l15-6A11.61,11.61,0,0,0,91.67,71V29a11.61,11.61,0,0,0-7.33-10.83l-15-6A11.62,11.62,0,0,0,65,11.33h0Z"/>
  </g>
  <g>
    <path class="cls-2" d="M60.9,39a4,4,0,0,1,3.43-4V24L50.67,29.45v41.1L64.33,76V43A4,4,0,0,1,60.9,39Z"/>
    <path class="cls-3" d="M65.67,24V35.07a4,4,0,0,1,0,7.93V76l13.67-5.47V29.45Z"/>
    <path class="cls-2" d="M31,58.35a4,4,0,0,1,3.37-4V24L20.67,29.45v41.1L34.33,76V62.32A4,4,0,0,1,31,58.35Z"/>
    <path class="cls-3" d="M35.67,24V54.38a4,4,0,0,1,0,7.94V76l13.67-5.47V29.45Z"/>
  </g>
  <path d="M82.48,22.81l-15-6a6.67,6.67,0,0,0-5,0L50,21.82l-12.52-5a6.67,6.67,0,0,0-5,0l-15,6A6.67,6.67,0,0,0,13.33,29V71a6.67,6.67,0,0,0,4.19,6.19l15,6a6.67,6.67,0,0,0,5,0l12.52-5,12.52,5a6.67,6.67,0,0,0,5,0l15-6A6.67,6.67,0,0,0,86.67,71V29A6.67,6.67,0,0,0,82.48,22.81ZM35,61.87a3.54,3.54,0,1,1,3.6-3.54A3.57,3.57,0,0,1,35,61.87ZM20.67,70.55V29.45L34.33,24V51.27a7,7,0,0,0-6.51,7.47C28.2,63.58,32.14,67.63,34,69.3a1.43,1.43,0,0,0,.32.21V76Zm28.67,0L35.67,76V69.51A1.45,1.45,0,0,0,36,69.3C38,67.56,42.2,63.22,42.2,58a6.93,6.93,0,0,0-6.53-6.71V24l13.67,5.47v41.1ZM65,42.54A3.54,3.54,0,1,1,68.6,39,3.57,3.57,0,0,1,65,42.54Zm-14.33,28V29.45L64.33,24v8a7,7,0,0,0-6.51,7.47C58.2,44.25,62.14,48.29,64,50a1.43,1.43,0,0,0,.32.21V76Zm28.67,0L65.67,76V50.17A1.45,1.45,0,0,0,66,50c2-1.74,6.21-6.08,6.21-11.32a6.93,6.93,0,0,0-6.53-6.71V24l13.67,5.47v41.1Z"/>
  <path d="M38.67,49.67h0A1.34,1.34,0,0,1,40,48.33h0a1.34,1.34,0,0,1,1.33,1.33h0A1.33,1.33,0,0,1,40,51h0A1.33,1.33,0,0,1,38.67,49.67ZM40.22,47a1.33,1.33,0,0,1-.68-1.76h0a1.32,1.32,0,0,1,1.75-.68h0A1.33,1.33,0,0,1,42,46.31h0a1.34,1.34,0,0,1-1.23.8h0A1.38,1.38,0,0,1,40.22,47Zm1.93-3.51a1.33,1.33,0,0,1,.23-1.87h0a1.33,1.33,0,0,1,1.87.23h0A1.33,1.33,0,0,1,44,43.71h0a1.34,1.34,0,0,1-.82.28h0A1.33,1.33,0,0,1,42.15,43.49Zm3.31-2.23a1.33,1.33,0,0,1,.83-1.69h0a1.33,1.33,0,0,1,1.69.83h0a1.33,1.33,0,0,1-.83,1.69h0a1.2,1.2,0,0,1-.43.07h0A1.33,1.33,0,0,1,45.47,41.25Zm3.83-1.13a1.33,1.33,0,0,1,1.15-1.5h0a1.33,1.33,0,0,1,1.5,1.14h0a1.33,1.33,0,0,1-1.14,1.5H50.61A1.33,1.33,0,0,1,49.29,40.12ZM54.63,41a1.33,1.33,0,0,1-1.35-1.31h0a1.33,1.33,0,0,1,1.31-1.35h0a1.33,1.33,0,0,1,1.36,1.31h0A1.34,1.34,0,0,1,54.63,41h0Z"/>
  <rect class="cls-4" x="10" y="10" width="80" height="80"/>
</svg>
