<svg id="Layer_14" data-name="Layer 14" xmlns="http://www.w3.org/2000/svg" width="100" height="100" viewBox="0 0 100 100">
  <defs>
    <style>
      .cls-1 {
        fill: #fff;
      }

      .cls-2 {
        fill: #fff0c8;
      }

      .cls-3 {
        fill: #fbad23;
      }

      .cls-4 {
        fill: #e14f4e;
      }
    </style>
  </defs>
  <title>fat framed icons</title>
  <g>
    <path d="M86.77,36.56L63.44,13.23a13.5,13.5,0,0,0-19.09,0L38,19.59l-2.65,2.65L30,27.54,27.38,30.2,11.47,46.11a7.5,7.5,0,0,0-2.17,6l1.59,17.5L12,81.26A7.5,7.5,0,0,0,18.74,88l11.67,1.06,17.5,1.59q0.34,0,.68,0a7.5,7.5,0,0,0,5.3-2.2L69.8,72.62,72.46,70l5.3-5.3L80.41,62l6.36-6.36A13.5,13.5,0,0,0,86.77,36.56ZM64.5,66.26l-7.42-7.42h0l-8-8L33.74,35.5l1.59-1.59L50.71,49.29,66.09,64.67ZM31.43,80.92l-6.17-6.17-6.17-6.17L17.64,52.68l9.18,4.59L32,67.65a0.75,0.75,0,0,0,.34.34l10.38,5.19,4.59,9.18Zm1.25-44.36,6.89,6.89L27.23,55.8,18,51.2ZM63.44,67.32L48.8,82l-4.6-9.19L56.55,60.42Zm-8-8L43.14,71.71l-9.9-4.95-4.95-9.9L40.64,44.51l7.42,7.42ZM51.77,48.23L36.39,32.85l4.24-4.24L56,44,71.4,59.36l-4.24,4.24Zm5.3-5.3L41.7,27.54,43.29,26,74,56.71,72.46,58.3Zm-12.73-18,5.83-5.83a5.25,5.25,0,0,1,7.42,0L80.94,42.39a5.26,5.26,0,0,1,0,7.42l-5.83,5.83Zm12.73-3.18A0.75,0.75,0,1,1,56,22.77L55,21.71a1.54,1.54,0,0,0-2.12,0l-3.71,3.71a0.75,0.75,0,0,1-1.06-1.06l3.71-3.71a3,3,0,0,1,4.24,0Z"/>
    <g>
      <path d="M48.59,93.23c-0.3,0-.6,0-0.9,0L18.52,90.54a10,10,0,0,1-9.05-9.05L6.81,52.31a10,10,0,0,1,2.89-8L42.58,11.46a16,16,0,0,1,22.63,0L88.54,34.79a16,16,0,0,1,0,22.63L55.66,90.3A9.93,9.93,0,0,1,48.59,93.23Z"/>
      <path class="cls-1" d="M53.89,9.27a13.41,13.41,0,0,1,9.55,4L86.77,36.56a13.5,13.5,0,0,1,0,19.09L80.41,62l-2.65,2.65L72.46,70,69.8,72.62,53.89,88.53a7.5,7.5,0,0,1-5.3,2.2q-0.34,0-.68,0l-17.5-1.59L18.74,88A7.5,7.5,0,0,1,12,81.26L10.89,69.59,9.3,52.09a7.5,7.5,0,0,1,2.17-6L27.38,30.2,30,27.54l5.3-5.3L38,19.59l6.36-6.36a13.41,13.41,0,0,1,9.55-4m0-5A18.38,18.38,0,0,0,40.81,9.69l-6.36,6.36L31.8,18.71,26.49,24l-2.65,2.65L7.93,42.57a12.47,12.47,0,0,0-3.61,10L5.91,70,7,81.71A12.5,12.5,0,0,0,18.29,93L30,94.09l17.5,1.59c0.38,0,.76.05,1.13,0.05a12.42,12.42,0,0,0,8.84-3.66L73.34,76.16,76,73.51l5.3-5.3,2.65-2.65,6.36-6.36a18.5,18.5,0,0,0,0-26.16L67,9.69A18.38,18.38,0,0,0,53.89,4.27h0Z"/>
    </g>
    <polygon class="cls-1" points="64.5 66.26 57.08 58.83 57.08 58.83 57.08 58.83 49.12 50.88 33.74 35.5 35.33 33.91 50.71 49.29 66.09 64.67 64.5 66.26"/>
    <path class="cls-2" d="M31.43,80.92l-6.17-6.17-6.17-6.17L17.64,52.68l9.18,4.59L32,67.65a0.75,0.75,0,0,0,.34.34l10.38,5.19,4.59,9.18Z"/>
    <path class="cls-3" d="M32.68,36.56l6.89,6.89L27.23,55.8,18,51.2ZM63.44,67.32L48.8,82l-4.6-9.19L56.55,60.42Zm-8-8L43.14,71.71l-9.9-4.95-4.95-9.9L40.64,44.51l7.42,7.42Z"/>
    <polygon class="cls-1" points="51.77 48.23 36.39 32.85 40.64 28.61 56.02 43.98 71.4 59.36 67.15 63.61 51.77 48.23"/>
    <polygon class="cls-1" points="57.08 42.92 41.7 27.54 43.29 25.95 74.05 56.71 72.46 58.3 57.08 42.92"/>
    <path class="cls-4" d="M44.35,24.89l5.83-5.83a5.25,5.25,0,0,1,7.42,0L80.94,42.39a5.26,5.26,0,0,1,0,7.42l-5.83,5.83Z"/>
    <path d="M57.08,21.71A0.75,0.75,0,1,1,56,22.77L55,21.71a1.54,1.54,0,0,0-2.12,0l-3.71,3.71a0.75,0.75,0,0,1-1.06-1.06l3.71-3.71a3,3,0,0,1,4.24,0Z"/>
  </g>
</svg>
