<svg id="Layer_13" data-name="Layer 13" xmlns="http://www.w3.org/2000/svg" width="100" height="100" viewBox="0 0 100 100">
  <defs>
    <style>
      .cls-1 {
        fill: #fff;
      }

      .cls-2 {
        fill: #5586bc;
      }

      .cls-3 {
        fill: #01af6b;
      }
    </style>
  </defs>
  <title>fat framed icons</title>
  <g>
    <path class="cls-1" d="M22.4,89.17A11.39,11.39,0,0,1,10.83,78V22A11.39,11.39,0,0,1,22.4,10.83H77.6A11.39,11.39,0,0,1,89.17,22V78A11.39,11.39,0,0,1,77.6,89.17H22.4Z"/>
    <path class="cls-1" d="M77.6,13.33A8.88,8.88,0,0,1,86.67,22V78a8.88,8.88,0,0,1-9.07,8.67H22.4A8.88,8.88,0,0,1,13.33,78V22a8.88,8.88,0,0,1,9.07-8.67H77.6m0-5H22.4A13.89,13.89,0,0,0,8.33,22V78A13.89,13.89,0,0,0,22.4,91.67H77.6A13.89,13.89,0,0,0,91.67,78V22A13.89,13.89,0,0,0,77.6,8.33h0Z"/>
  </g>
  <polygon class="cls-2" points="23.65 67.33 30 67.33 70 67.33 75.65 67.33 75.65 24 23.65 24 23.65 67.33"/>
  <path class="cls-3" d="M31.26,66l6.54-9.67a2.67,2.67,0,0,1,4.42,0l2,2.92a0.69,0.69,0,0,0,.57.29,0.67,0.67,0,0,0,.55-0.32L52.72,47a2.67,2.67,0,0,1,4.56,0L68.81,66H31.26Z"/>
  <path class="cls-1" d="M33.63,40.92a2.76,2.76,0,0,0,.5,0h11.2a2.36,2.36,0,0,0,.44,0,4.18,4.18,0,0,0,4-4,4.24,4.24,0,0,0-4.29-4.06,6.5,6.5,0,0,0-11.42,0,4.24,4.24,0,0,0-4.29,4.06A4.16,4.16,0,0,0,33.63,40.92Z"/>
  <path d="M77.6,13.33H22.4A8.88,8.88,0,0,0,13.33,22V78a8.88,8.88,0,0,0,9.07,8.67H77.6A8.88,8.88,0,0,0,86.67,78V22A8.88,8.88,0,0,0,77.6,13.33ZM79.33,22V78a1.58,1.58,0,0,1-1.73,1.33H22.4A1.58,1.58,0,0,1,20.67,78V22a1.58,1.58,0,0,1,1.73-1.33H77.6A1.58,1.58,0,0,1,79.33,22ZM33.63,40.92a2.76,2.76,0,0,0,.5,0h11.2a2.36,2.36,0,0,0,.44,0,4.18,4.18,0,0,0,4-4,4.24,4.24,0,0,0-4.29-4.06,6.5,6.5,0,0,0-11.42,0,4.24,4.24,0,0,0-4.29,4.06A4.16,4.16,0,0,0,33.63,40.92Zm0.5-6.74h0.12l0.15,0a0.66,0.66,0,0,0,.68-0.43,5.13,5.13,0,0,1,9.32,0,0.66,0.66,0,0,0,.68.43l0.15,0h0.12a2.92,2.92,0,0,1,3.07,2.73,2.88,2.88,0,0,1-2.81,2.7l-0.25,0H34.13l-0.32,0a2.86,2.86,0,0,1-2.75-2.7A2.92,2.92,0,0,1,34.13,34.18Zm2.81,0.32a3,3,0,0,1,2.79-1.71,0.67,0.67,0,0,1,0,1.33,1.62,1.62,0,0,0-1.55.85A0.67,0.67,0,1,1,36.94,34.5ZM55.57,48.77L46.5,63.68A0.67,0.67,0,0,1,45.36,63l9.07-14.91A0.67,0.67,0,0,1,55.57,48.77Zm-15.2,8.5a0.67,0.67,0,0,1,.18.93l-3.72,5.51a0.67,0.67,0,1,1-1.1-.75l3.72-5.51A0.67,0.67,0,0,1,40.37,57.27ZM23.65,67.33h52V24h-52V67.33ZM31.26,66l6.54-9.67a2.67,2.67,0,0,1,4.42,0l2,2.92a0.69,0.69,0,0,0,.57.29,0.67,0.67,0,0,0,.55-0.32L52.72,47a2.67,2.67,0,0,1,4.56,0L68.81,66H31.26ZM25,25.33H74.32V66H70.37l-12-19.65a4,4,0,0,0-6.83,0l-6.88,11.3-1.39-2.06a4,4,0,0,0-6.63,0L29.65,66H25V25.33Z"/>
  <g>
    <path class="cls-3" d="M80.33,85.3a6.17,6.17,0,0,1-6.17-6.17v-0.5h-0.5a6.17,6.17,0,1,1,0-12.33h0.5V65.8a6.17,6.17,0,1,1,12.33,0v0.5H87a6.17,6.17,0,1,1,0,12.33H86.5v0.5A6.17,6.17,0,0,1,80.33,85.3Z"/>
    <path d="M80.33,62.13A3.67,3.67,0,0,1,84,65.8v3h3a3.67,3.67,0,1,1,0,7.33H84v3a3.67,3.67,0,0,1-7.33,0v-3h-3a3.67,3.67,0,1,1,0-7.33h3v-3a3.67,3.67,0,0,1,3.67-3.67m0-5A8.68,8.68,0,0,0,71.86,64a8.67,8.67,0,0,0,0,17,8.67,8.67,0,0,0,17,0,8.67,8.67,0,0,0,0-17,8.68,8.68,0,0,0-8.48-6.86h0Z"/>
  </g>
</svg>
