<svg id="Layer_11" data-name="Layer 11" xmlns="http://www.w3.org/2000/svg" width="100" height="100" viewBox="0 0 100 100">
  <defs>
    <style>
      .cls-1 {
        fill: #fff;
      }

      .cls-2 {
        fill: #01af6b;
      }
    </style>
  </defs>
  <title>fat framed icons</title>
  <g>
    <g>
      <path d="M50,88.26c-27.65,0-37.5-9.47-37.5-18.33,0-4.44,2.19-10.36,12.13-14.32a33.45,33.45,0,0,1-3.8-15.09,29.17,29.17,0,0,1,58.33,0,33.45,33.45,0,0,1-3.8,15.09c9.94,4,12.13,9.87,12.13,14.32C87.5,78.79,77.65,88.26,50,88.26Z"/>
      <path class="cls-1" d="M50,14.24A26.5,26.5,0,0,1,76.67,40.51,32.32,32.32,0,0,1,71.76,57C80.38,59.69,85,64.14,85,69.93c0,11.69-18.85,15.83-35,15.83S15,81.61,15,69.93C15,64.14,19.62,59.69,28.24,57a32.32,32.32,0,0,1-4.9-16.47A26.5,26.5,0,0,1,50,14.24m0-5A31.51,31.51,0,0,0,18.33,40.51a35,35,0,0,0,3,13.86C15.77,57.11,10,61.89,10,69.93c0,15.36,20.66,20.83,40,20.83s40-5.47,40-20.83c0-8-5.77-12.81-11.3-15.55a35,35,0,0,0,3-13.86A31.51,31.51,0,0,0,50,9.24h0Z"/>
    </g>
    <path class="cls-1" d="M49.43,70.35l0.11,0.07h0l0.09,0.06a0.67,0.67,0,0,0,.58.06l0.14-.06,0.09-.06h0l0.11-.08c0.42-.28,1.47-1,2.89-2.1,4.3,0.4,5.81,1.37,5.87,1.67-0.12.62-3.53,1.84-9.33,1.84s-9.21-1.21-9.33-1.83c0.06-.31,1.58-1.28,5.87-1.68C48,69.36,49,70.07,49.43,70.35Z"/>
    <path class="cls-1" d="M43.28,65.54l0.09,0.08,0.76,0.66,0.05,0,0.9,0.76c-2.45.34-5.75,1.12-5.75,2.85,0,2.5,6.71,3.17,10.67,3.17s10.67-.67,10.67-3.17c0-1.73-3.3-2.51-5.75-2.85L55,67l0.06,0,0.7-.59,0.12-.1,0.69-.6,0.17-.15,0.34-.31c7,0.94,10.59,3.07,10.59,4.71,0,2.44-7.26,5.17-17.67,5.17s-17.67-2.72-17.67-5.17c0-1.64,3.64-3.77,10.59-4.71Z"/>
    <path class="cls-2" d="M50,69.12C47.32,67.3,30.67,55.34,30.67,40.51a19.34,19.34,0,0,1,38.67,0C69.33,55.33,52.68,67.3,50,69.12Z"/>
    <path class="cls-1" d="M39.67,62.06l0.21,0.22L40.56,63l0.22,0.21,0.71,0.69,0.18,0.17h0C36.28,64.93,31,66.86,31,69.93c0,4.22,9.79,6.5,19,6.5s19-2.28,19-6.5c0-3.07-5.28-5-10.67-5.87l0.2-.19,0.61-.6L59.45,63,60,62.37l0.3-.3c10.23,1.31,17.34,4.53,17.34,7.86,0,4.1-11.12,8.5-27.67,8.5S22.33,74,22.33,69.93C22.33,66.59,29.44,63.37,39.67,62.06Z"/>
    <path d="M50,31.44a9.07,9.07,0,1,0,9.24,9.07A9.16,9.16,0,0,0,50,31.44Z"/>
    <ellipse class="cls-1" cx="50" cy="40.51" rx="7.9" ry="7.74"/>
    <path d="M50,25.77A14.91,14.91,0,0,0,35,40.51a0.67,0.67,0,0,1-1.33,0A16.25,16.25,0,0,1,50,24.44,0.67,0.67,0,1,1,50,25.77Z"/>
  </g>
</svg>
