<svg id="Layer_14" data-name="Layer 14" xmlns="http://www.w3.org/2000/svg" width="100" height="100" viewBox="0 0 100 100">
  <defs>
    <style>
      .cls-1 {
        fill: #fff;
      }

      .cls-2 {
        fill: #01af6b;
      }
    </style>
  </defs>
  <title>fat framed icons</title>
  <g>
    <path d="M50,88.72a9.13,9.13,0,0,1-5.19-1.61c-1.11-.76-27.31-19-27.31-43.33a32.5,32.5,0,0,1,65,0c0,24.31-26.19,42.57-27.31,43.33A9.13,9.13,0,0,1,50,88.72Z"/>
    <path class="cls-1" d="M50,13.78a30,30,0,0,1,30,30c0,23-25.15,40.54-26.22,41.27a6.67,6.67,0,0,1-7.55,0C45.15,84.31,20,66.76,20,43.78a30,30,0,0,1,30-30m0-5a35,35,0,0,0-35,35C15,54.44,19.82,65.6,28.94,76A84.61,84.61,0,0,0,43.39,89.17a11.67,11.67,0,0,0,13.21,0A84.61,84.61,0,0,0,71.06,76C80.18,65.6,85,54.44,85,43.78a35,35,0,0,0-35-35h0Z"/>
  </g>
  <path class="cls-2" d="M50,21.11A22.69,22.69,0,0,1,72.67,43.78c0,17.79-19.67,32.78-22.67,35-3-2.18-22.67-17.17-22.67-35A22.69,22.69,0,0,1,50,21.11Z"/>
  <path d="M39.33,43.78A10.67,10.67,0,1,0,50,33.11,10.68,10.68,0,0,0,39.33,43.78Z"/>
  <path class="cls-1" d="M59.33,43.78A9.33,9.33,0,1,1,50,34.44,9.34,9.34,0,0,1,59.33,43.78Z"/>
  <path d="M31,43.78a19,19,0,0,1,19-19,0.67,0.67,0,1,1,0,1.33A17.69,17.69,0,0,0,32.33,43.78,0.67,0.67,0,0,1,31,43.78Z"/>
</svg>
