<svg id="Layer_15" data-name="Layer 15" xmlns="http://www.w3.org/2000/svg" width="100" height="100" viewBox="0 0 100 100">
  <defs>
    <style>
      .cls-1 {
        fill: #231f20;
      }

      .cls-2 {
        fill: #fff;
      }

      .cls-3 {
        fill: #e14f4e;
      }

      .cls-4 {
        fill: #f3c0c1;
      }
    </style>
  </defs>
  <title>save-alt-1</title>
  <g>
    <g>
      <path class="cls-1" d="M73.33,87.5A9.12,9.12,0,0,1,68,85.79L50,72.93,32,85.79a9.17,9.17,0,0,1-14.5-7.46V25A12.51,12.51,0,0,1,30,12.5H70A12.51,12.51,0,0,1,82.5,25V78.33A9.17,9.17,0,0,1,73.33,87.5Z"/>
      <path class="cls-2" d="M70,15A10,10,0,0,1,80,25V78.33a6.67,6.67,0,0,1-10.54,5.42L50,69.86,30.54,83.76A6.67,6.67,0,0,1,20,78.33V25A10,10,0,0,1,30,15H70m0-5H30A15,15,0,0,0,15,25V78.33a11.67,11.67,0,0,0,18.45,9.49L50,76,66.55,87.83A11.67,11.67,0,0,0,85,78.33V25A15,15,0,0,0,70,10h0Z"/>
    </g>
    <path class="cls-3" d="M50.67,22.33H70A2.67,2.67,0,0,1,72.67,25V77l-22-15.71v-39Z"/>
    <path class="cls-4" d="M49.33,61.32L27.33,77V25A2.67,2.67,0,0,1,30,22.33H49.33v39Z"/>
    <path d="M31,41.67v-15A0.67,0.67,0,0,1,31.67,26H40a0.67,0.67,0,0,1,0,1.33H32.33V41.67A0.67,0.67,0,1,1,31,41.67Z"/>
  </g>
</svg>
