<!-- Generator: Adobe Illustrator 19.2.0, SVG Export Plug-In  -->
<svg version="1.1"
	 xmlns="http://www.w3.org/2000/svg" xmlns:xlink="http://www.w3.org/1999/xlink" xmlns:a="http://ns.adobe.com/AdobeSVGViewerExtensions/3.0/"
	 x="0px" y="0px" width="80px" height="82px" viewBox="0 0 80 82" style="enable-background:new 0 0 80 82;" xml:space="preserve">
<style type="text/css">
	.Graphic_x0020_Style{fill:#FFFFFF;stroke:#FFFFFF;stroke-width:5;stroke-miterlimit:10;}
	.st0{fill:none;}
	.st1{fill:#FFFFFF;}
</style>
<defs>
</defs>
<g>
	<rect y="1" class="st0" width="80" height="80"/>
	<g>
		<path class="st1" d="M29.7,79.5c-0.7,0-1.4-0.1-2-0.3c-4.2-1.1-6.7-5.4-5.5-9.6l2.5-9.5C12.6,53.2,6.6,38.9,10.2,25.4
			C13.8,11.9,26.1,2.5,40,2.5c2.7,0,5.4,0.4,8,1.1C64.4,8,74.2,24.9,69.8,41.3C66.2,54.8,53.9,64.2,40,64.2c0,0-0.1,0-0.1,0
			l-2.5,9.5C36.4,77.1,33.3,79.5,29.7,79.5z"/>
		<path class="st1" d="M40,5c2.4,0,4.9,0.3,7.3,1c15.1,4,24.1,19.6,20,34.7c-3.4,12.6-14.9,21-27.4,21c-0.7,0-1.4,0-2-0.1L34.9,73
			c-0.6,2.4-2.8,4-5.1,4c-0.5,0-0.9-0.1-1.4-0.2c-2.8-0.8-4.5-3.7-3.8-6.5l3.1-11.4C15.7,53,9.1,39.3,12.6,26C16,13.4,27.5,5,40,5
			 M40,0L40,0C24.9,0,11.7,10.2,7.8,24.7C4,38.8,9.9,53.5,21.8,61.3L19.8,69c-1.5,5.5,1.8,11.2,7.3,12.7c0.9,0.2,1.8,0.4,2.7,0.4
			c4.7,0,8.8-3.2,10-7.7l2.1-7.7C56.1,65.9,68.5,55.9,72.2,42c2.3-8.6,1.1-17.6-3.3-25.3C64.4,9,57.2,3.4,48.6,1.1
			C45.8,0.4,42.9,0,40,0L40,0z"/>
	</g>
	<path d="M24.9,30c-0.4-0.1-0.6-0.5-0.5-0.8c2.3-8.6,11.2-13.7,19.8-11.4c0.4,0.1,0.6,0.5,0.5,0.8s-0.5,0.6-0.8,0.5
		c-7.9-2.1-16,2.6-18.1,10.5C25.6,29.9,25.2,30.1,24.9,30z M38,61.6L34.9,73c-0.8,2.8-3.7,4.5-6.5,3.8c-2.8-0.8-4.5-3.7-3.8-6.5
		l3.1-11.4C15.7,53,9.1,39.3,12.6,26c4-15.1,19.6-24.1,34.7-20s24.1,19.6,20,34.7C63.8,54,51.2,62.6,38,61.6z M60.3,38.8
		c3-11.2-3.7-22.7-14.8-25.7s-22.7,3.7-25.7,14.8s3.7,22.7,14.8,25.7C45.7,56.6,57.3,50,60.3,38.8z"/>
</g>
</svg>
