<svg xmlns="http://www.w3.org/2000/svg" viewBox="0 0 100 100"><defs><style>.cls-1{isolation:isolate;}.cls-2{fill:#fff;}.cls-3{fill:#e6e7e8;}.cls-4,.cls-5{fill:#c2d5e8;}.cls-5,.cls-7{opacity:0.5;mix-blend-mode:multiply;}.cls-6,.cls-7{fill:#c49a6c;}</style></defs><title>search-list</title><g class="cls-1"><g id="Layer_15" data-name="Layer 15"><path d="M65,87.5a12.44,12.44,0,0,1-3.33-.45,12.5,12.5,0,0,1-15.38-8.74,32,32,0,0,1-3.68-1.11L36,83.85A12.51,12.51,0,0,1,27,87.5a14.84,14.84,0,0,1-14.44-13A12.68,12.68,0,0,1,16.15,64l6.64-6.65A33.38,33.38,0,1,1,86,55.74a12.5,12.5,0,0,1,1,9.26,12.58,12.58,0,0,1,0,6.67A12.51,12.51,0,0,1,75,87.5ZM24.87,72.76a1.82,1.82,0,0,0,.68,1.69,2.37,2.37,0,0,0,1.33.71H27a.46.46,0,0,0,.22,0L36,66.42l-2.37-2.37ZM54.12,24.83a21,21,0,0,0-7.93,40.53l.09-.36A12.51,12.51,0,0,1,61.67,49.62,12.44,12.44,0,0,1,65,49.17h9.91a21.36,21.36,0,0,0,.26-3.29A21.07,21.07,0,0,0,54.12,24.83Z"/><path class="cls-2" d="M54.12,15A30.86,30.86,0,0,1,83.27,56.05a10,10,0,0,1,1.16,9,10,10,0,0,1,0,6.67A9.91,9.91,0,0,1,85,75,10,10,0,0,1,75,85H65a9.91,9.91,0,0,1-3.33-.57,10,10,0,0,1-13.26-8.22A30,30,0,0,1,42,74.27l-.52.53-7.29,7.29A10.05,10.05,0,0,1,27,85,12.34,12.34,0,0,1,15.07,74.2a10.19,10.19,0,0,1,2.84-8.39l7.29-7.29.53-.52A30.88,30.88,0,0,1,54.12,15M48.35,68.7c0-.12,0-.24,0-.37A10,10,0,0,1,48.9,65,10,10,0,0,1,61.67,52.24,9.91,9.91,0,0,1,65,51.67H75a10,10,0,0,1,1.9.18A23.52,23.52,0,1,0,48.35,68.7M27,77.67a2.74,2.74,0,0,0,2-.77L39.49,66.42l-3-3-3-3L23.1,71c-1.25,1.25-.94,3.59.68,5.22a4.86,4.86,0,0,0,2.83,1.42,2.83,2.83,0,0,0,.41,0M54.12,10a35.91,35.91,0,0,0-34.2,46.73l-5.54,5.55A15.14,15.14,0,0,0,10.1,74.75,17.32,17.32,0,0,0,27,90a15,15,0,0,0,10.7-4.38l5.55-5.55,1.07.32a15,15,0,0,0,14,9.61,15.54,15.54,0,0,0,3.34-.37A15.45,15.45,0,0,0,65,90H75A15,15,0,0,0,90,75a15.45,15.45,0,0,0-.37-3.33,15.22,15.22,0,0,0,0-6.67A15.45,15.45,0,0,0,90,61.67a14.92,14.92,0,0,0-1.32-6.16A35.9,35.9,0,0,0,54.12,10ZM43.35,61A19,19,0,0,1,41,59a18.53,18.53,0,1,1,31.65-13.1c0,.26,0,.52,0,.79H65a14.84,14.84,0,0,0-3.33.37A15,15,0,0,0,43.35,61Z"/><path class="cls-3" d="M70.76,29.24a23.53,23.53,0,1,0,6.91,16.64A23.43,23.43,0,0,0,70.76,29.24ZM54.12,65.91a20,20,0,1,1,20-20A19.94,19.94,0,0,1,54.12,65.91Z"/><path class="cls-3" d="M74.16,45.88A20,20,0,0,1,40,60l-2.48,2.48A23.53,23.53,0,1,0,70.76,29.24l-2.48,2.48A19.94,19.94,0,0,1,74.16,45.88Z"/><path d="M68.28,31.72a20,20,0,1,0,5.88,14.16A19.94,19.94,0,0,0,68.28,31.72ZM54.12,64.58a18.7,18.7,0,1,1,18.7-18.7A18.61,18.61,0,0,1,54.12,64.58Z"/><path d="M54.12,65.91A20,20,0,0,0,68.28,31.72l-.94.94A18.69,18.69,0,1,1,40.91,59.09L40,60A19.94,19.94,0,0,0,54.12,65.91Z"/><path class="cls-4" d="M67.34,32.66a18.7,18.7,0,1,0,5.48,13.22A18.61,18.61,0,0,0,67.34,32.66Z"/><path class="cls-5" d="M54.12,64.58A18.7,18.7,0,0,0,67.34,32.66L40.91,59.09A18.61,18.61,0,0,0,54.12,64.58Z"/><path d="M40.27,45.88A13.86,13.86,0,0,1,54.12,32a.67.67,0,0,0,0-1.34,15.22,15.22,0,0,0-15.19,15.2.67.67,0,0,0,1.34,0Z"/><path class="cls-6" d="M36.54,63.46l-3-3L23.1,71c-1.25,1.25-.94,3.59.68,5.22a4.83,4.83,0,0,0,2.83,1.42A2.81,2.81,0,0,0,29,76.9L39.49,66.42Z"/><path class="cls-7" d="M26.61,77.64A2.81,2.81,0,0,0,29,76.9L39.49,66.42l-3-3L23.78,76.22A4.83,4.83,0,0,0,26.61,77.64Z"/><path d="M84.43,65A10,10,0,0,0,75,51.67H65a9.91,9.91,0,0,0-3.33.57A10,10,0,0,0,48.9,65a10,10,0,0,0,0,6.67A9.91,9.91,0,0,0,48.33,75a10,10,0,0,0,13.34,9.43A9.91,9.91,0,0,0,65,85H75A10,10,0,0,0,85,75a9.91,9.91,0,0,0-.57-3.33,10,10,0,0,0,0-6.67Z"/><path class="cls-2" d="M75,77.67H65a2.67,2.67,0,0,1,0-5.34H75a2.67,2.67,0,0,1,0,5.34Z"/><circle class="cls-2" cx="58.33" cy="75" r="2.67"/><circle class="cls-2" cx="58.33" cy="61.67" r="2.67"/><circle class="cls-2" cx="58.33" cy="68.33" r="2.67"/><path class="cls-2" d="M75,71H65a2.67,2.67,0,1,1,0-5.33H75A2.67,2.67,0,1,1,75,71Z"/><path class="cls-2" d="M75,64.33H65A2.67,2.67,0,1,1,65,59H75a2.67,2.67,0,1,1,0,5.33Z"/></g></g></svg>