<!-- Generator: Adobe Illustrator 19.2.0, SVG Export Plug-In  -->
<svg version="1.1"
	 xmlns="http://www.w3.org/2000/svg" xmlns:xlink="http://www.w3.org/1999/xlink" xmlns:a="http://ns.adobe.com/AdobeSVGViewerExtensions/3.0/"
	 x="0px" y="0px" width="86px" height="88px" viewBox="0 0 86 88" style="enable-background:new 0 0 86 88;" xml:space="preserve">
<style type="text/css">
	.st0{fill:#FFFFFF;}
	.st1{fill:none;}
</style>
<defs>
</defs>
<g>
	<g>
		<path class="st0" d="M69.7,85C66,85,63,82,63,78.3c-3.7,0-6.7-3-6.7-6.7c0-3.7,3-6.7,6.7-6.7c0-3.7,3-6.7,6.7-6.7
			c3.7,0,6.7,3,6.7,6.7c3.7,0,6.7,3,6.7,6.7c0,3.7-3,6.7-6.7,6.7C76.3,82,73.3,85,69.7,85z M29.7,81c-0.7,0-1.5-0.1-2.2-0.3
			c-2.1-0.6-3.9-2-5.1-3.9c-1.1-1.9-1.4-4.2-0.8-6.3l2.4-9.1c-12-7.1-18.1-21.4-14.4-35.1C13.4,12.6,25.8,3,40,3
			c2.7,0,5.5,0.4,8.1,1.1c8.1,2.2,14.8,7.4,19,14.6c4.2,7.3,5.3,15.7,3.1,23.8c-3.6,13.6-16,23.1-30,23.2l-2.4,9.1
			C36.8,78.4,33.5,81,29.7,81z"/>
		<path class="st0" d="M40,6c2.4,0,4.9,0.3,7.3,1c15.1,4,24.1,19.6,20,34.7c-3.4,12.6-14.9,21-27.4,21c-0.7,0-1.4,0-2-0.1L34.9,74
			c-0.6,2.4-2.8,4-5.1,4c-0.5,0-0.9-0.1-1.4-0.2c-2.8-0.8-4.5-3.7-3.8-6.5l3.1-11.4C15.7,54,9.1,40.3,12.6,27C16,14.4,27.5,6,40,6
			 M69.7,61.3c2,0,3.7,1.6,3.7,3.7v3h3c2,0,3.7,1.6,3.7,3.7c0,2-1.6,3.7-3.7,3.7h-3v3c0,2-1.6,3.7-3.7,3.7c-2,0-3.7-1.6-3.7-3.7v-3
			h-3c-2,0-3.7-1.6-3.7-3.7c0-2,1.6-3.7,3.7-3.7h3v-3C66,63,67.6,61.3,69.7,61.3 M40,0L40,0C24.5,0,10.9,10.5,6.8,25.5
			C3,39.7,8.8,54.6,20.7,62.7l-1.9,7c-0.8,2.9-0.4,6,1.1,8.6c1.5,2.6,4,4.5,6.9,5.3c1,0.3,1.9,0.4,2.9,0.4c5.1,0,9.6-3.5,10.9-8.4
			l1.9-7c5.1-0.4,9.9-1.9,14.2-4.3c-2.1,1.8-3.4,4.4-3.4,7.4c0,4.4,3,8.2,7,9.3c1.2,4.1,4.9,7,9.3,7c4.4,0,8.2-3,9.3-7
			c4.1-1.2,7-4.9,7-9.3c0-4.4-3-8.2-7-9.3c-1.2-4.1-4.9-7-9.3-7c-1,0-1.9,0.1-2.8,0.4c2.9-3.6,5.1-7.9,6.3-12.5
			c2.4-8.8,1.1-18.1-3.4-26c-4.6-7.9-12-13.6-20.8-16C46,0.4,43,0,40,0L40,0z M59.2,62.8c0.4-0.3,0.9-0.6,1.3-0.9
			c-0.1,0.2-0.1,0.3-0.2,0.5C60,62.5,59.6,62.6,59.2,62.8L59.2,62.8z"/>
	</g>
	<rect y="2" class="st1" width="80" height="80"/>
	<path d="M24.9,31c-0.4-0.1-0.6-0.5-0.5-0.8c2.3-8.6,11.2-13.7,19.8-11.4c0.4,0.1,0.6,0.5,0.5,0.8c-0.1,0.4-0.5,0.6-0.8,0.5
		c-7.9-2.1-16,2.6-18.1,10.5C25.6,30.9,25.2,31.1,24.9,31z M38,62.6L34.9,74c-0.8,2.8-3.7,4.5-6.5,3.8c-2.8-0.8-4.5-3.7-3.8-6.5
		l3.1-11.4C15.7,54,9.1,40.3,12.6,27c4-15.1,19.6-24.1,34.7-20s24.1,19.6,20,34.7C63.8,55,51.2,63.6,38,62.6z M60.3,39.8
		c3-11.2-3.7-22.7-14.8-25.7s-22.7,3.7-25.7,14.8s3.7,22.7,14.8,25.7C45.7,57.6,57.3,51,60.3,39.8z M76.3,68h-3v-3
		c0-2-1.6-3.7-3.7-3.7c-2,0-3.7,1.6-3.7,3.7v3h-3c-2,0-3.7,1.6-3.7,3.7c0,2,1.6,3.7,3.7,3.7h3v3c0,2,1.6,3.7,3.7,3.7
		c2,0,3.7-1.6,3.7-3.7v-3h3c2,0,3.7-1.6,3.7-3.7C80,69.6,78.4,68,76.3,68z"/>
</g>
</svg>
