<svg id="Layer_2" data-name="Layer 2" xmlns="http://www.w3.org/2000/svg" width="100" height="100" viewBox="0 0 100 100">
  <defs>
    <style>
      .cls-1 {
        fill: #fff;
      }

      .cls-2 {
        fill: none;
      }

      .cls-3 {
        fill: #01af6b;
      }
    </style>
  </defs>
  <title>fat framed icons</title>
  <g>
    <path class="cls-1" d="M39.74,88.49a7.84,7.84,0,0,1-7.57-9.86l2.55-9.51A30.84,30.84,0,1,1,50,73.17H49.85L47.3,82.69A7.84,7.84,0,0,1,39.74,88.49Z"/>
    <path class="cls-1" d="M50,14a28.33,28.33,0,1,1,0,56.67q-1,0-2-.07L44.88,82a5.33,5.33,0,0,1-10.3-2.76l3.07-11.44A28.33,28.33,0,0,1,50,14m0-5h0A33.33,33.33,0,0,0,31.82,70.28L29.75,78a10.33,10.33,0,1,0,20,5.35l2.07-7.71A33.33,33.33,0,0,0,50,9h0Z"/>
  </g>
  <rect class="cls-2" x="10" y="10" width="80" height="80"/>
  <path d="M34.88,39a0.67,0.67,0,0,1-.47-0.82A16.16,16.16,0,0,1,54.18,26.75,0.67,0.67,0,0,1,53.83,28,14.83,14.83,0,0,0,35.7,38.51,0.67,0.67,0,0,1,34.88,39ZM48,70.6L44.88,82a5.33,5.33,0,1,1-10.3-2.76l3.07-11.44A28.33,28.33,0,1,1,48,70.6ZM70.28,47.78A21,21,0,1,0,44.56,62.63,21,21,0,0,0,70.28,47.78Z"/>
  <g>
    <path class="cls-3" d="M79.67,92.5a6.17,6.17,0,0,1-6.17-6.17v-0.5H73A6.17,6.17,0,1,1,73,73.5h0.5V73a6.17,6.17,0,1,1,12.33,0v0.5h0.5a6.17,6.17,0,1,1,0,12.33h-0.5v0.5A6.17,6.17,0,0,1,79.67,92.5Z"/>
    <path d="M79.67,69.33A3.67,3.67,0,0,1,83.33,73v3h3a3.67,3.67,0,0,1,0,7.33h-3v3a3.67,3.67,0,1,1-7.33,0v-3H73A3.67,3.67,0,0,1,73,76h3V73a3.67,3.67,0,0,1,3.67-3.67m0-5a8.68,8.68,0,0,0-8.48,6.86,8.67,8.67,0,0,0,0,17,8.67,8.67,0,0,0,17,0,8.67,8.67,0,0,0,0-17,8.68,8.68,0,0,0-8.48-6.86h0Z"/>
  </g>
</svg>
