<svg id="Layer_11" data-name="Layer 11" xmlns="http://www.w3.org/2000/svg" width="100" height="100" viewBox="0 0 100 100">
  <defs>
    <style>
      .cls-1 {
        fill: gray;
      }

      .cls-2 {
        fill: #fff;
      }

      .cls-3 {
        fill: none;
      }
    </style>
  </defs>
  <title>fat framed icons</title>
  <g>
    <path class="cls-1" d="M25.85,88.31a14.17,14.17,0,0,1-10-24.18l6.3-6.3A34.47,34.47,0,0,1,30,21.7,34.15,34.15,0,1,1,42.17,77.87l-6.29,6.29A14.07,14.07,0,0,1,25.85,88.31Z"/>
    <path class="cls-2" d="M54.14,14.19A31.67,31.67,0,1,1,41.57,74.93L34.1,82.39a11.67,11.67,0,1,1-16.5-16.5l7.46-7.46a31.79,31.79,0,0,1,6.68-35,31.46,31.46,0,0,1,22.39-9.28m0-5A36.43,36.43,0,0,0,28.21,19.93a37,37,0,0,0-9,37.23l-5.19,5.19A16.67,16.67,0,0,0,37.64,85.93l5.18-5.18A36.67,36.67,0,1,0,54.14,9.19h0Z"/>
  </g>
  <path class="cls-2" d="M32.93,60.94l6.13,6.13L28.92,77.21a4.33,4.33,0,1,1-6.13-6.13Z"/>
  <path class="cls-2" d="M29.81,45.86A24.33,24.33,0,1,1,54.14,70.19,24.36,24.36,0,0,1,29.81,45.86Z"/>
  <path class="cls-1" d="M74.81,45.86A20.67,20.67,0,1,0,54.14,66.52,20.69,20.69,0,0,0,74.81,45.86Z"/>
  <path class="cls-2" d="M34.81,45.86A19.33,19.33,0,1,1,54.14,65.19,19.36,19.36,0,0,1,34.81,45.86Z"/>
  <path class="cls-1" d="M54.14,31.52A14.35,14.35,0,0,0,39.81,45.86a0.67,0.67,0,1,1-1.33,0A15.68,15.68,0,0,1,54.14,30.19,0.67,0.67,0,0,1,54.14,31.52Z"/>
  <path class="cls-1" d="M87.45,60A10,10,0,0,0,80,43.33H53.33A10,10,0,0,0,45.89,60a10,10,0,0,0,0,13.33A10,10,0,0,0,53.33,90H80a10,10,0,0,0,7.45-16.67A10,10,0,0,0,87.45,60Z"/>
  <path class="cls-2" d="M80,82.67H53.33a2.67,2.67,0,0,1,0-5.33H80A2.67,2.67,0,0,1,80,82.67Zm0-13.33H53.33a2.67,2.67,0,0,1,0-5.33H80A2.67,2.67,0,1,1,80,69.33ZM80,56H53.33a2.67,2.67,0,0,1,0-5.33H80A2.67,2.67,0,1,1,80,56Z"/>
  <rect class="cls-3" x="10" y="10" width="80" height="80"/>
</svg>
