<svg id="Layer_2" data-name="Layer 2" xmlns="http://www.w3.org/2000/svg" width="100" height="100" viewBox="0 0 100 100">
  <defs>
    <style>
      .cls-1 {
        fill: none;
      }

      .cls-2 {
        fill: #fed25f;
      }

      .cls-3 {
        fill: #fff;
      }

      .cls-4 {
        fill: #5586bc;
      }

      .cls-5 {
        fill: #c2d5e8;
      }

      .cls-6 {
        fill: #01af6b;
      }
    </style>
  </defs>
  <title>fat framed icons</title>
  <rect class="cls-1" x="10" y="10" width="80" height="80"/>
  <g>
    <path class="cls-2" d="M53.44,88.57a11.87,11.87,0,0,1-9.71-5.06L36.2,72.76A21.52,21.52,0,0,1,13,56.93,21.54,21.54,0,0,1,27.16,30.85a10.24,10.24,0,0,1,4.19-2.26l5.71-1.53a10.23,10.23,0,0,1,6.9.57c5.77-2.41,8.62-5.35,9.78-6.85a12.51,12.51,0,0,1,24.18-.09l9.41,35.13a12.5,12.5,0,0,1-21,12,19.35,19.35,0,0,0-5.52-1.22l2.3,3.28A11.86,11.86,0,0,1,53.44,88.57Z"/>
    <path class="cls-3" d="M65.86,13.93a10,10,0,0,1,9.66,7.41l9.41,35.13a10,10,0,0,1-17.09,9.29A22.64,22.64,0,0,0,58.53,64q-1.22,0-2.48.09l5.05,7.22A9.36,9.36,0,1,1,45.78,82.08l-8.42-12a19,19,0,0,1-8.9-37A7.7,7.7,0,0,1,32,31l5.72-1.53a7.73,7.73,0,0,1,6.1.91c7.65-2.92,11.1-6.9,12.25-8.52a10,10,0,0,1,9.79-7.93m0-5A15,15,0,0,0,51.48,19.61a21.51,21.51,0,0,1-7.56,5.31,12.73,12.73,0,0,0-7.51-.28L30.7,26.18a12.76,12.76,0,0,0-4.8,2.46A24,24,0,0,0,33.76,75.4q0.6,0,1.21,0l6.71,9.58A14.36,14.36,0,0,0,66.8,71.45a15,15,0,0,0,23-16.27L80.35,20.05A15,15,0,0,0,65.86,8.93h0Z"/>
  </g>
  <path d="M84.93,56.47L75.52,21.34a10,10,0,0,0-19.45.52c-1.16,1.62-4.61,5.6-12.25,8.52a7.73,7.73,0,0,0-6.1-.91L32,31a7.7,7.7,0,0,0-3.54,2.07,19,19,0,0,0,8.9,37l8.42,12A9.36,9.36,0,1,0,61.11,71.35l-5.05-7.22Q57.31,64,58.53,64a22.64,22.64,0,0,1,9.3,1.72A10,10,0,0,0,84.93,56.47Zm-12.31,3.3L63.21,24.64a2.74,2.74,0,1,1,5.29-1.42l9.41,35.13A2.74,2.74,0,0,1,72.62,59.77ZM39.94,62.51l-0.06-.24L33.6,38.85l-0.06-.24A0.48,0.48,0,0,1,33.88,38l5.72-1.53a0.48,0.48,0,0,1,.59.34l0.42,1.56,5.57,20.78,0.42,1.56a0.48,0.48,0,0,1-.34.59h0l-5.53,1.48-0.15,0A0.48,0.48,0,0,1,39.94,62.51Zm-1.35-.41a11.91,11.91,0,0,1-1.77.63A11.78,11.78,0,0,1,30.72,40a11.91,11.91,0,0,1,1.85-.34Zm7.51,0.49,9,12.92h0a2.09,2.09,0,0,1-3.43,2.4L41.81,63.74Zm1.06-4.3L41.9,38.65c12.89-3.6,18.49-10.2,20.35-13l9,33.65C68.28,57.88,60.13,55,47.16,58.29Z"/>
  <path class="cls-3" d="M72.62,59.77L63.21,24.64a2.74,2.74,0,1,1,5.29-1.42l9.41,35.13A2.74,2.74,0,0,1,72.62,59.77Z"/>
  <path class="cls-3" d="M39.94,62.51l-0.06-.24L33.6,38.85l-0.06-.24A0.48,0.48,0,0,1,33.88,38l5.72-1.53a0.48,0.48,0,0,1,.59.34l0.42,1.56,5.57,20.78,0.42,1.56a0.48,0.48,0,0,1-.34.59h0l-5.53,1.48-0.15,0A0.48,0.48,0,0,1,39.94,62.51Z"/>
  <path class="cls-4" d="M38.59,62.1a11.91,11.91,0,0,1-1.77.63A11.78,11.78,0,0,1,30.72,40a11.91,11.91,0,0,1,1.85-.34Z"/>
  <path class="cls-3" d="M46.11,62.59l9,12.92h0a2.09,2.09,0,0,1-3.43,2.4L41.81,63.74Z"/>
  <path class="cls-5" d="M47.16,58.29L41.9,38.65c12.89-3.6,18.49-10.2,20.35-13l9,33.65C68.28,57.88,60.13,55,47.16,58.29Z"/>
  <g>
    <path class="cls-6" d="M79.67,92.5a6.17,6.17,0,0,1-6.17-6.17v-0.5H73A6.17,6.17,0,1,1,73,73.5h0.5V73a6.17,6.17,0,1,1,12.33,0v0.5h0.5a6.17,6.17,0,1,1,0,12.33h-0.5v0.5A6.17,6.17,0,0,1,79.67,92.5Z"/>
    <path d="M79.67,69.33A3.67,3.67,0,0,1,83.33,73v3h3a3.67,3.67,0,0,1,0,7.33h-3v3a3.67,3.67,0,1,1-7.33,0v-3H73A3.67,3.67,0,0,1,73,76h3V73a3.67,3.67,0,0,1,3.67-3.67m0-5a8.68,8.68,0,0,0-8.48,6.86,8.67,8.67,0,0,0,0,17,8.67,8.67,0,0,0,17,0,8.67,8.67,0,0,0,0-17,8.68,8.68,0,0,0-8.48-6.86h0Z"/>
  </g>
</svg>
