<!-- Generator: Adobe Illustrator 19.2.0, SVG Export Plug-In  -->
<svg version="1.1"
	 xmlns="http://www.w3.org/2000/svg" xmlns:xlink="http://www.w3.org/1999/xlink" xmlns:a="http://ns.adobe.com/AdobeSVGViewerExtensions/3.0/"
	 x="0px" y="0px" width="87.3px" height="88.1px" viewBox="0 0 87.3 88.1" style="enable-background:new 0 0 87.3 88.1;"
	 xml:space="preserve">
<style type="text/css">
	.st0{fill:none;}
	.st1{fill:#FFFFFF;}
</style>
<defs>
</defs>
<g>
	<rect x="1.3" y="2.1" class="st0" width="80" height="80"/>
	<g>
		<path class="st1" d="M70.9,85.1c-3.7,0-6.7-3-6.7-6.7c-3.7,0-6.7-3-6.7-6.7c0-3.7,3-6.7,6.7-6.7c0-0.4,0-0.8,0.1-1.1
			c-2.6-0.4-5.1-1.7-7-3.6c-0.8-0.3-2.2-0.8-4.2-1l1.7,2.4c3.9,5.6,2.5,13.3-3,17.2c-2.1,1.5-4.5,2.2-7.1,2.2c-4,0-7.8-2-10.1-5.3
			l-7.4-10.5c-0.7,0.1-1.5,0.1-2.2,0.1c-10,0-18.7-6.7-21.3-16.3C2.2,43.4,3,37.5,6,32.4c2.7-4.7,7.1-8.2,12.2-9.9
			c1.2-1.1,2.7-1.9,4.3-2.3l5.7-1.5c0.9-0.2,1.8-0.4,2.8-0.4c1.5,0,2.9,0.3,4.3,0.9c5.4-2.3,8.2-5.1,9.3-6.5c1.2-4.5,4.7-8,9.2-9.2
			C54.9,3.1,56,3,57.1,3c5.9,0,11,4,12.6,9.6l9.4,35.1c0.9,3.4,0.4,6.9-1.3,9.9c-0.6,1-1.3,1.9-2.1,2.8c1.2,1.2,1.9,2.9,1.9,4.7
			c3.7,0,6.7,3,6.7,6.7c0,3.7-3,6.7-6.7,6.7C77.6,82.1,74.6,85.1,70.9,85.1z"/>
		<path class="st1" d="M57.1,6c4.5,0,8.5,3,9.7,7.4l9.4,35.1c0.7,2.6,0.3,5.3-1,7.6c-1.3,2.3-3.5,4-6.1,4.7
			c-0.8,0.2-1.7,0.3-2.6,0.3c-2.9,0-5.6-1.2-7.4-3.3c-1.3-0.6-4.4-1.7-9.3-1.7c-0.8,0-1.6,0-2.5,0.1l5.1,7.2c3,4.2,1.9,10.1-2.3,13
			c-1.6,1.1-3.4,1.7-5.4,1.7c-3.1,0-5.9-1.5-7.7-4l-8.4-12c-1.2,0.2-2.4,0.3-3.6,0.3c-8.6,0-16.2-5.8-18.4-14.1
			c-1.3-4.9-0.6-10,1.9-14.4c2.5-4.3,6.4-7.4,11.2-8.8c1-1,2.2-1.7,3.5-2.1l5.7-1.5c0.7-0.2,1.3-0.3,2-0.3c1.5,0,2.9,0.4,4.1,1.2
			c7.6-2.9,11.1-6.9,12.3-8.5c0.8-3.6,3.5-6.6,7.2-7.6C55.4,6.1,56.3,6,57.1,6 M70.9,61.4c2,0,3.7,1.6,3.7,3.7v3h3
			c2,0,3.7,1.6,3.7,3.7c0,2-1.6,3.7-3.7,3.7h-3v3c0,2-1.6,3.7-3.7,3.7c-2,0-3.7-1.6-3.7-3.7v-3h-3c-2,0-3.7-1.6-3.7-3.7
			c0-2,1.6-3.7,3.7-3.7h3v-3C67.3,63,68.9,61.4,70.9,61.4 M57.1,0c-1.4,0-2.8,0.2-4.1,0.5C47.6,2,43.5,6,41.9,11.2
			c-1,1.1-3,3-6.7,4.7c-1.3-0.4-2.7-0.6-4.1-0.6c-1.2,0-2.4,0.2-3.6,0.5l-5.7,1.5c-1.8,0.5-3.6,1.4-5,2.5c-5.6,2-10.3,5.9-13.3,11.1
			c-3.3,5.8-4.2,12.5-2.5,19C3.8,60.8,13.7,68.5,25,68.5c0.2,0,0.5,0,0.7,0l6.4,9.1c2.9,4.1,7.6,6.5,12.6,6.5c3.2,0,6.2-1,8.8-2.8
			c1.3-0.9,2.5-2.1,3.4-3.3c1.2,1.4,2.8,2.5,4.7,3c1.2,4.1,4.9,7,9.3,7c4.4,0,8.2-3,9.3-7c4.1-1.2,7-4.9,7-9.3c0-4.4-3-8.2-7-9.3
			c-0.2-0.7-0.4-1.3-0.8-1.9c0.3-0.5,0.6-0.9,0.9-1.4c2.1-3.7,2.7-8,1.6-12.1l-9.4-35.1C70.7,4.9,64.4,0,57.1,0L57.1,0z"/>
	</g>
	<path d="M76.2,48.5l-9.4-35.1C65.6,9,61.7,6,57.1,6c-0.9,0-1.7,0.1-2.6,0.3c-3.7,1-6.4,4-7.2,7.6c-1.2,1.6-4.6,5.6-12.3,8.5
		c-1.2-0.7-2.6-1.2-4.1-1.2c-0.7,0-1.4,0.1-2,0.3l-5.7,1.5c-1.4,0.4-2.6,1.1-3.5,2.1C15,26.5,11,29.6,8.6,33.9
		C6,38.3,5.3,43.4,6.7,48.4c2.2,8.3,9.8,14.1,18.4,14.1c1.2,0,2.4-0.1,3.6-0.3l8.4,12c1.7,2.5,4.6,4,7.7,4c1.9,0,3.8-0.6,5.4-1.7
		c4.2-3,5.3-8.8,2.3-13l-5.1-7.2c0.8-0.1,1.7-0.1,2.5-0.1c4.9,0,8,1.1,9.3,1.7c1.9,2.1,4.5,3.3,7.4,3.3c0.9,0,1.7-0.1,2.6-0.3
		c2.6-0.7,4.7-2.3,6.1-4.7C76.5,53.8,76.9,51.1,76.2,48.5z M63.9,51.8l-9.4-35.1c-0.4-1.5,0.5-3,1.9-3.4c1.5-0.4,3,0.5,3.4,1.9
		l9.4,35.1c0.4,1.5-0.5,3-1.9,3.4S64.3,53.3,63.9,51.8z M31.2,54.6l-0.1-0.2l-6.3-23.4l-0.1-0.2c-0.1-0.3,0.1-0.5,0.3-0.6l5.7-1.5
		c0.3-0.1,0.5,0.1,0.6,0.3l0.4,1.6l5.6,20.8l0.4,1.6c0.1,0.3-0.1,0.5-0.3,0.6l0,0L32,54.9l-0.1,0C31.6,55,31.3,54.8,31.2,54.6z
		 M29.9,54.2c-0.6,0.3-1.2,0.5-1.8,0.6c-6.3,1.7-12.7-2.1-14.4-8.3C12,40.2,15.7,33.7,22,32c0.6-0.2,1.2-0.3,1.9-0.3L29.9,54.2z
		 M37.4,54.7l9,12.9l0,0c0.3,0.5,0.4,1,0.3,1.6c-0.1,0.6-0.4,1-0.9,1.4C45,71.2,43.7,70.9,43,70l-9.9-14.2L37.4,54.7z M38.4,50.4
		l-5.3-19.6c12.9-3.6,18.5-10.2,20.4-13l9,33.6C59.6,49.9,51.4,47,38.4,50.4z M81.3,71.7c0,2-1.6,3.7-3.7,3.7h-3v3
		c0,2-1.6,3.7-3.7,3.7s-3.7-1.6-3.7-3.7v-3h-3c-2,0-3.7-1.6-3.7-3.7c0-2,1.6-3.7,3.7-3.7h3v-3c0-2,1.6-3.7,3.7-3.7s3.7,1.6,3.7,3.7
		v3h3C79.6,68.1,81.3,69.7,81.3,71.7z"/>
</g>
</svg>
