<!-- Generator: Adobe Illustrator 19.2.0, SVG Export Plug-In  -->
<svg version="1.1"
	 xmlns="http://www.w3.org/2000/svg" xmlns:xlink="http://www.w3.org/1999/xlink" xmlns:a="http://ns.adobe.com/AdobeSVGViewerExtensions/3.0/"
	 x="0px" y="0px" width="80.6px" height="82.1px" viewBox="0 0 80.6 82.1" style="enable-background:new 0 0 80.6 82.1;"
	 xml:space="preserve">
<style type="text/css">
	.st0{fill:none;}
	.st1{fill:#FFFFFF;}
</style>
<defs>
</defs>
<g>
	<rect x="0.3" y="1.1" class="st0" width="80" height="80"/>
	<g>
		<path class="st1" d="M43.7,79.6c-3.9,0-7.5-1.9-9.7-5.1l-7.5-10.8C25.7,63.9,24.9,64,24,64c-9.7,0-18.3-6.6-20.8-16
			c-1.5-5.6-0.7-11.4,2.2-16.3c2.7-4.7,6.9-8.1,12-9.7c1.2-1.1,2.6-1.8,4.2-2.3l5.7-1.5c0.9-0.2,1.8-0.3,2.7-0.3
			c1.5,0,2.9,0.3,4.2,0.9c5.8-2.4,8.6-5.3,9.8-6.8c1.1-4.4,4.5-7.8,8.9-8.9C54,2.6,55,2.5,56.1,2.5c5.6,0,10.6,3.8,12.1,9.3
			l9.4,35.1c0.9,3.2,0.4,6.6-1.2,9.5c-1.7,2.9-4.4,5-7.6,5.8c-1.1,0.3-2.1,0.4-3.2,0.4c-3.3,0-6.6-1.3-8.9-3.7c-1-0.4-2.8-1-5.5-1.2
			l2.3,3.3c1.8,2.6,2.5,5.7,2,8.9s-2.3,5.8-4.9,7.7C48.5,78.9,46.2,79.6,43.7,79.6z"/>
		<path class="st1" d="M56.1,5c4.5,0,8.5,3,9.7,7.4l9.4,35.1c0.7,2.6,0.3,5.3-1,7.6c-1.3,2.3-3.5,4-6.1,4.7
			c-0.8,0.2-1.7,0.3-2.6,0.3c-2.9,0-5.6-1.2-7.4-3.3c-1.3-0.6-4.4-1.7-9.3-1.7c-0.8,0-1.6,0-2.5,0.1l5.1,7.2c3,4.2,1.9,10.1-2.3,13
			c-1.6,1.1-3.4,1.7-5.4,1.7c-3.1,0-5.9-1.5-7.7-4l-8.4-12c-1.2,0.2-2.4,0.3-3.6,0.3c-8.6,0-16.2-5.8-18.4-14.1
			c-1.3-4.9-0.6-10,1.9-14.4c2.5-4.3,6.4-7.4,11.2-8.8c1-1,2.2-1.7,3.5-2.1l5.7-1.5c0.7-0.2,1.3-0.3,2-0.3c1.5,0,2.9,0.4,4.1,1.2
			c7.6-2.9,11.1-6.9,12.3-8.5c0.8-3.6,3.5-6.6,7.2-7.6C54.4,5.1,55.3,5,56.1,5 M56.1,0c-1.3,0-2.6,0.2-3.9,0.5
			c-5.1,1.4-9,5.2-10.5,10.2c-1,1.2-3.3,3.4-7.6,5.3c-1.3-0.5-2.8-0.7-4.2-0.7c-1.1,0-2.2,0.1-3.3,0.4L21,17.2
			c-1.8,0.5-3.4,1.3-4.8,2.5c-5.5,1.9-10,5.6-13,10.7C0,36-0.8,42.4,0.8,48.6C3.6,59.1,13.2,66.5,24,66.5c0.4,0,0.8,0,1.2,0L32,76
			c2.7,3.8,7.1,6.1,11.8,6.1c3,0,5.8-0.9,8.2-2.6c5.5-3.9,7.5-11,5.1-17c2.5,1.7,5.4,2.6,8.5,2.6c1.3,0,2.6-0.2,3.9-0.5
			c3.9-1,7.1-3.5,9.1-7c2-3.5,2.5-7.5,1.5-11.4l-9.4-35.1C68.9,4.6,62.9,0,56.1,0L56.1,0z"/>
	</g>
	<path d="M75.2,47.5l-9.4-35.1C64.6,8,60.7,5,56.1,5c-0.9,0-1.7,0.1-2.6,0.3c-3.7,1-6.4,4-7.2,7.6c-1.2,1.6-4.6,5.6-12.3,8.5
		c-1.2-0.7-2.6-1.2-4.1-1.2c-0.7,0-1.4,0.1-2,0.3l-5.7,1.5c-1.4,0.4-2.6,1.1-3.5,2.1C14,25.5,10,28.6,7.6,32.9
		C5,37.3,4.3,42.4,5.7,47.4c2.2,8.3,9.8,14.1,18.4,14.1c1.2,0,2.4-0.1,3.6-0.3l8.4,12c1.7,2.5,4.6,4,7.7,4c1.9,0,3.8-0.6,5.4-1.7
		c4.2-3,5.3-8.8,2.3-13l-5.1-7.2c0.8-0.1,1.7-0.1,2.5-0.1c4.9,0,8,1.1,9.3,1.7c1.9,2.1,4.5,3.3,7.4,3.3c0.9,0,1.7-0.1,2.6-0.3
		c2.6-0.7,4.7-2.3,6.1-4.7C75.5,52.8,75.9,50.1,75.2,47.5z M62.9,50.8l-9.4-35.1c-0.4-1.5,0.5-3,1.9-3.4c1.5-0.4,3,0.5,3.4,1.9
		l9.4,35.1c0.4,1.5-0.5,3-1.9,3.4C64.8,53.2,63.3,52.3,62.9,50.8z M30.2,53.6l-0.1-0.2l-6.3-23.4l-0.1-0.2c-0.1-0.3,0.1-0.5,0.3-0.6
		l5.7-1.5c0.3-0.1,0.5,0.1,0.6,0.3l0.4,1.6l5.6,20.8l0.4,1.6c0.1,0.3-0.1,0.5-0.3,0.6l0,0L31,53.9l-0.1,0
		C30.6,54,30.3,53.8,30.2,53.6z M28.9,53.2c-0.6,0.3-1.2,0.5-1.8,0.6c-6.3,1.7-12.7-2.1-14.4-8.3C11,39.2,14.7,32.7,21,31
		c0.6-0.2,1.2-0.3,1.9-0.3L28.9,53.2z M36.4,53.7l9,12.9l0,0c0.3,0.5,0.4,1,0.3,1.6c-0.1,0.6-0.4,1-0.9,1.4C44,70.2,42.7,69.9,42,69
		l-9.9-14.2L36.4,53.7z M37.4,49.4l-5.3-19.6c12.9-3.6,18.5-10.2,20.4-13l9,33.6C58.6,48.9,50.4,46,37.4,49.4z"/>
</g>
</svg>
