<svg id="Layer_8" data-name="Layer 8" xmlns="http://www.w3.org/2000/svg" width="100" height="100" viewBox="0 0 100 100">
  <defs>
    <style>
      .cls-1 {
        fill: none;
      }

      .cls-2 {
        fill: #fff;
      }
    </style>
  </defs>
  <title>fat framed icons</title>
  <rect class="cls-1" x="10" y="10" width="80" height="80"/>
  <g>
    <path d="M70,55a15,15,0,0,0-10.58,4.38L45,50.71c0-.24,0-0.47,0-0.71s0-.5,0-0.75l14.36-8.7a15,15,0,1,0-3.73-6.31L42.71,42a15,15,0,1,0,0,15.87l12.91,7.75A15,15,0,1,0,70,55Zm0-32.67A7.67,7.67,0,1,1,62.33,30,7.68,7.68,0,0,1,70,22.33ZM30,57.67A7.67,7.67,0,1,1,37.67,50,7.68,7.68,0,0,1,30,57.67Zm40,20A7.67,7.67,0,1,1,77.67,70,7.68,7.68,0,0,1,70,77.67ZM69.33,26.33A0.67,0.67,0,0,1,70,25.67a4,4,0,0,1,4,4,0.67,0.67,0,0,1-1.33,0A2.67,2.67,0,0,0,70,27,0.67,0.67,0,0,1,69.33,26.33ZM34,50a0.67,0.67,0,1,1-1.33,0A2.67,2.67,0,0,0,30,47.33,0.67,0.67,0,1,1,30,46,4,4,0,0,1,34,50ZM74,70a0.67,0.67,0,1,1-1.33,0A2.67,2.67,0,0,0,70,67.33,0.67,0.67,0,1,1,70,66,4,4,0,0,1,74,70Z"/>
    <rect class="cls-1" x="10" y="10" width="80" height="80"/>
    <g>
      <path class="cls-2" d="M70,87.5A17.5,17.5,0,0,1,52.78,66.86l-9.37-5.62a17.5,17.5,0,1,1,0-22.51L52.77,33A17.5,17.5,0,1,1,70,47.5c-1.65,0-4.45,1-7,2.12,2.32,1.39,5.3,2.88,7,2.88A17.5,17.5,0,0,1,70,87.5Z"/>
      <path class="cls-2" d="M70,15a15,15,0,0,1,0,30c-4.16,0-11.87,4.25-11.87,4.25C58.14,49.5,65.88,55,70,55A15,15,0,1,1,55.64,65.66L42.73,57.92a15,15,0,1,1,0-15.87l12.9-7.82A15,15,0,0,1,70,15m0-5A20,20,0,0,0,50,30q0,0.87.08,1.74l-6.26,3.8a20,20,0,1,0,0,28.89l6.23,3.74Q50,69.07,50,70A20,20,0,1,0,70,50a20,20,0,0,0,0-40h0Z"/>
    </g>
    <path d="M70,55a15,15,0,0,0-10.58,4.38L45,50.71c0-.24,0-0.47,0-0.71s0-.5,0-0.75l14.36-8.7a15,15,0,1,0-3.73-6.31L42.71,42a15,15,0,1,0,0,15.87l12.91,7.75A15,15,0,1,0,70,55Zm0-32.67A7.67,7.67,0,1,1,62.33,30,7.68,7.68,0,0,1,70,22.33ZM30,57.67A7.67,7.67,0,1,1,37.67,50,7.68,7.68,0,0,1,30,57.67Zm40,20A7.67,7.67,0,1,1,77.67,70,7.68,7.68,0,0,1,70,77.67ZM69.33,26.33A0.67,0.67,0,0,1,70,25.67a4,4,0,0,1,4,4,0.67,0.67,0,0,1-1.33,0A2.67,2.67,0,0,0,70,27,0.67,0.67,0,0,1,69.33,26.33ZM34,50a0.67,0.67,0,1,1-1.33,0A2.67,2.67,0,0,0,30,47.33,0.67,0.67,0,1,1,30,46,4,4,0,0,1,34,50ZM74,70a0.67,0.67,0,1,1-1.33,0A2.67,2.67,0,0,0,70,67.33,0.67,0.67,0,1,1,70,66,4,4,0,0,1,74,70Z"/>
  </g>
</svg>
