<svg id="Layer_2" data-name="Layer 2" xmlns="http://www.w3.org/2000/svg" width="100" height="100" viewBox="0 0 100 100">
  <defs>
    <style>
      .cls-1 {
        fill: #fbad23;
      }

      .cls-2 {
        fill: #fff;
      }

      .cls-3 {
        fill: none;
      }
    </style>
  </defs>
  <title>fat framed icons</title>
  <g>
    <g>
      <path class="cls-1" d="M64.39,85.1a15.42,15.42,0,0,1-7.14-1.78L50,79.51l-7.25,3.81A15.35,15.35,0,0,1,20.48,67.14l1.38-8.07L16,53.36a15.35,15.35,0,0,1,8.51-26.18L32.61,26l3.62-7.34a15.35,15.35,0,0,1,27.53,0L67.39,26l8.1,1.18A15.35,15.35,0,0,1,84,53.36l-5.86,5.71,1.38,8.07A15.36,15.36,0,0,1,64.39,85.1Z"/>
      <path class="cls-2" d="M50,12.6a12.77,12.77,0,0,1,11.52,7.16l4.2,8.52,9.4,1.37a12.85,12.85,0,0,1,7.12,21.92l-6.8,6.63,1.61,9.36A12.83,12.83,0,0,1,58.41,81.11L50,76.69l-8.41,4.42A12.85,12.85,0,0,1,22.95,67.56l1.61-9.36-6.8-6.63a12.85,12.85,0,0,1,7.12-21.92l9.4-1.37,4.2-8.52A12.77,12.77,0,0,1,50,12.6m0-5a17.74,17.74,0,0,0-16,10l-3,6.16-6.8,1a17.85,17.85,0,0,0-9.89,30.45l4.92,4.8L18,66.72a17.83,17.83,0,0,0,25.9,18.82L50,82.34l6.08,3.2A17.85,17.85,0,0,0,82,66.72l-1.16-6.77,4.92-4.8A17.85,17.85,0,0,0,75.85,24.7l-6.8-1-3-6.16a17.74,17.74,0,0,0-16-10h0Z"/>
    </g>
    <path d="M85.5,38.4a12.77,12.77,0,0,0-10.37-8.75l-9.4-1.37-4.2-8.52a12.85,12.85,0,0,0-23,0l-4.2,8.52-9.4,1.37a12.85,12.85,0,0,0-7.12,21.92l6.8,6.63-1.61,9.36A12.83,12.83,0,0,0,41.59,81.11L50,76.69l8.41,4.42A12.85,12.85,0,0,0,77.05,67.56L75.45,58.2l6.8-6.63A12.77,12.77,0,0,0,85.5,38.4Zm-17.68,17a0.67,0.67,0,0,0-.19.59l2.2,12.82a5.52,5.52,0,0,1-8,5.82L50.31,68.57a0.66,0.66,0,0,0-.62,0L38.18,74.62a5.52,5.52,0,0,1-8-5.82L32.37,56a0.67,0.67,0,0,0-.19-0.59l-9.31-9.08a5.52,5.52,0,0,1,3.06-9.41L38.8,35a0.67,0.67,0,0,0,.5-0.36L45.05,23a5.52,5.52,0,0,1,9.89,0L60.7,34.67a0.67,0.67,0,0,0,.5.36l12.87,1.87a5.52,5.52,0,0,1,3.06,9.41ZM50.67,24.27a0.67,0.67,0,0,1-.67.67,0.46,0.46,0,0,0-.46.29l-4.43,9a0.67,0.67,0,0,1-1.2-.59l4.44-9a1.79,1.79,0,0,1,1.66-1A0.67,0.67,0,0,1,50.67,24.27Z"/>
    <rect class="cls-3" x="10" y="10" width="80" height="80"/>
  </g>
</svg>
