<svg id="Layer_8" data-name="Layer 8" xmlns="http://www.w3.org/2000/svg" width="100" height="100" viewBox="0 0 100 100">
  <defs>
    <style>
      .cls-1 {
        fill: none;
      }

      .cls-2 {
        fill: #fff;
      }

      .cls-3 {
        fill: #e14f4e;
      }

      .cls-4 {
        fill: #231f20;
      }
    </style>
  </defs>
  <title>fat framed icons</title>
  <rect class="cls-1" x="10" y="10" width="80" height="80"/>
  <g>
    <rect class="cls-1" x="10" y="10" width="80" height="80"/>
    <g>
      <path class="cls-2" d="M75,86.84a14,14,0,0,1-12.13-7l-3.28-5.69q-0.51.12-1,.2a14,14,0,0,1-8.65,5,14,14,0,0,1-23-1.83l-5-8.67-7.47-13-0.17-.31A29,29,0,0,1,64.44,26.62c0.1,0.15.1,0.15,22.69,39.23A14,14,0,0,1,75,86.84Z"/>
      <path class="cls-2" d="M40,16.16A25.84,25.84,0,0,1,61.91,28.23L84.53,67.35A11,11,0,0,1,75,83.84a11,11,0,0,1-2.85-.38,10.92,10.92,0,0,1-6.68-5.12L61,70.52a11,11,0,0,1-4,1,11,11,0,0,1-8.65,5A11,11,0,0,1,29.55,76l-5-8.67,0,0L17.07,54.38,17,54.19a26,26,0,0,1,23-38m0-6A32,32,0,0,0,11.65,57l0.22,0.4L19.3,70.27l0,0.08,5,8.68A17,17,0,0,0,51.52,82.1a17,17,0,0,0,7.15-3.57l1.62,2.81a17,17,0,0,0,29.44-17C67.11,25.22,67.11,25.22,67,25A31.82,31.82,0,0,0,40,10.16h0Z"/>
    </g>
    <path d="M84.53,67.35L61.91,28.23A26,26,0,0,0,17,54.19l0.1,0.19,7.45,12.93,0,0,5,8.67a11,11,0,0,0,18.75.49,11,11,0,0,0,8.65-5,11,11,0,0,0,4-1l4.51,7.82a10.92,10.92,0,0,0,6.68,5.12,11,11,0,0,0,8.34-1.1A11,11,0,0,0,84.53,67.35ZM28.61,60.41c0,0.15-.07.31-0.1,0.47l-5.64-9.8A19.31,19.31,0,0,1,56.27,31.79h0c0.15,0.23.29,0.46,0.43,0.71a19.21,19.21,0,0,1,2.42,7.08A19.45,19.45,0,0,1,56.71,51.8l-0.06.11-0.15.27a19.26,19.26,0,0,1-1.88,2.58l-0.07.09a4.33,4.33,0,0,1-6.43-5.79,10.68,10.68,0,0,0,1.11-12.23h0c-0.09-.16-0.24-0.39-0.49-0.77a10.71,10.71,0,0,0-14.06-3.13,0.67,0.67,0,1,0,.67,1.15A9.37,9.37,0,0,1,47.61,36.8l0.45,0.7a9.21,9.21,0,0,1,1.13,6.1,9.33,9.33,0,0,1-2.1,4.59,5.65,5.65,0,0,0-1.36,3.9,5.66,5.66,0,0,0-8.66,5A5.66,5.66,0,0,0,28.61,60.41ZM43.25,71.65a4.33,4.33,0,0,1-7.93,1l-5-8.65a4.33,4.33,0,0,1,3.74-6.49,4.36,4.36,0,0,1,1.13.15,4.3,4.3,0,0,1,2.63,2l5,8.65A4.3,4.3,0,0,1,43.25,71.65Zm8.65-5a4.33,4.33,0,0,1-7.93,1L39,59a4.33,4.33,0,0,1,7.5-4.33l5,8.65A4.3,4.3,0,0,1,51.9,66.65Zm6.63-2.37a4.33,4.33,0,0,1-5.91-1.58l-3.17-5.49,0.46,0.15a5.66,5.66,0,0,0,5.6-1.6l0.11-.12a20.7,20.7,0,0,0,1.64-2.21l2.86,5A4.33,4.33,0,0,1,58.53,64.29ZM79.19,74a4.33,4.33,0,0,1-7.93,1l-10-17.3h0L58,52.12a20.78,20.78,0,0,0,2.4-12.72c0-.2-0.06-0.4-0.09-0.59L78.76,70.68A4.3,4.3,0,0,1,79.19,74Z"/>
  </g>
  <g>
    <rect class="cls-1" x="10" y="10" width="80" height="80"/>
    <g>
      <path class="cls-2" d="M75,86.84a14,14,0,0,1-12.13-7l-3.28-5.69q-0.51.12-1,.2a14,14,0,0,1-8.65,5,14,14,0,0,1-23-1.83l-5-8.67-7.47-13-0.17-.31A29,29,0,0,1,64.44,26.62c0.1,0.15.1,0.15,22.69,39.23A14,14,0,0,1,75,86.84Z"/>
      <path class="cls-2" d="M40,16.16A25.84,25.84,0,0,1,61.91,28.23L84.53,67.35A11,11,0,0,1,75,83.84a11,11,0,0,1-2.85-.38,10.92,10.92,0,0,1-6.68-5.12L61,70.52a11,11,0,0,1-4,1,11,11,0,0,1-8.65,5A11,11,0,0,1,29.55,76l-5-8.67,0,0L17.07,54.38,17,54.19a26,26,0,0,1,23-38m0-6A32,32,0,0,0,11.65,57l0.22,0.4L19.3,70.27l0,0.08,5,8.68A17,17,0,0,0,51.52,82.1a17,17,0,0,0,7.15-3.57l1.62,2.81a17,17,0,0,0,29.44-17C67.11,25.22,67.11,25.22,67,25A31.82,31.82,0,0,0,40,10.16h0Z"/>
    </g>
    <path d="M84.53,67.35L61.91,28.23A26,26,0,0,0,17,54.19l0.1,0.19,7.45,12.93,0,0,5,8.67a11,11,0,0,0,18.75.49,11,11,0,0,0,8.65-5,11,11,0,0,0,4-1l4.51,7.82a10.92,10.92,0,0,0,6.68,5.12,11,11,0,0,0,8.34-1.1A11,11,0,0,0,84.53,67.35ZM28.61,60.41c0,0.15-.07.31-0.1,0.47l-5.64-9.8A19.31,19.31,0,0,1,56.27,31.79h0c0.15,0.23.29,0.46,0.43,0.71a19.21,19.21,0,0,1,2.42,7.08A19.45,19.45,0,0,1,56.71,51.8l-0.06.11-0.15.27a19.26,19.26,0,0,1-1.88,2.58l-0.07.09a4.33,4.33,0,0,1-6.43-5.79,10.68,10.68,0,0,0,1.11-12.23h0c-0.09-.16-0.24-0.39-0.49-0.77a10.71,10.71,0,0,0-14.06-3.13,0.67,0.67,0,1,0,.67,1.15A9.37,9.37,0,0,1,47.61,36.8l0.45,0.7a9.21,9.21,0,0,1,1.13,6.1,9.33,9.33,0,0,1-2.1,4.59,5.65,5.65,0,0,0-1.36,3.9,5.66,5.66,0,0,0-8.66,5A5.66,5.66,0,0,0,28.61,60.41ZM43.25,71.65a4.33,4.33,0,0,1-7.93,1l-5-8.65a4.33,4.33,0,0,1,3.74-6.49,4.36,4.36,0,0,1,1.13.15,4.3,4.3,0,0,1,2.63,2l5,8.65A4.3,4.3,0,0,1,43.25,71.65Zm8.65-5a4.33,4.33,0,0,1-7.93,1L39,59a4.33,4.33,0,0,1,7.5-4.33l5,8.65A4.3,4.3,0,0,1,51.9,66.65Zm6.63-2.37a4.33,4.33,0,0,1-5.91-1.58l-3.17-5.49,0.46,0.15a5.66,5.66,0,0,0,5.6-1.6l0.11-.12a20.7,20.7,0,0,0,1.64-2.21l2.86,5A4.33,4.33,0,0,1,58.53,64.29ZM79.19,74a4.33,4.33,0,0,1-7.93,1l-10-17.3h0L58,52.12a20.78,20.78,0,0,0,2.4-12.72c0-.2-0.06-0.4-0.09-0.59L78.76,70.68A4.3,4.3,0,0,1,79.19,74Z"/>
  </g>
  <g>
    <path class="cls-3" d="M84.38,90.55A6.12,6.12,0,0,1,80,88.74l-0.35-.35-0.35.35A6.17,6.17,0,0,1,70.59,80l0.35-.35-0.35-.35a6.17,6.17,0,0,1,8.72-8.72l0.35,0.35L80,70.59a6.17,6.17,0,1,1,8.72,8.72l-0.35.35L88.74,80A6.17,6.17,0,0,1,84.38,90.55Z"/>
    <path class="cls-4" d="M84.38,71.29A3.67,3.67,0,0,1,87,77.55l-2.12,2.12L87,81.79A3.67,3.67,0,0,1,81.79,87l-2.12-2.12L77.55,87a3.67,3.67,0,1,1-5.19-5.19l2.12-2.12-2.12-2.12a3.67,3.67,0,0,1,5.19-5.19l2.12,2.12,2.12-2.12a3.66,3.66,0,0,1,2.59-1.07m0-5a8.61,8.61,0,0,0-4.71,1.39,8.67,8.67,0,0,0-12,12,8.67,8.67,0,0,0,12,12,8.67,8.67,0,0,0,12-12,8.67,8.67,0,0,0-7.27-13.38h0Z"/>
  </g>
</svg>
