<!-- Generator: Adobe Illustrator 19.2.0, SVG Export Plug-In  -->
<svg version="1.1"
	 xmlns="http://www.w3.org/2000/svg" xmlns:xlink="http://www.w3.org/1999/xlink" xmlns:a="http://ns.adobe.com/AdobeSVGViewerExtensions/3.0/"
	 x="0px" y="0px" width="82px" height="80px" viewBox="0 0 82 80" style="enable-background:new 0 0 82 80;" xml:space="preserve">
<style type="text/css">
	.Graphic_x0020_Style{fill:#FFFFFF;stroke:#FFFFFF;stroke-width:5;stroke-miterlimit:10;}
	.st0{fill:none;}
	.st1{fill:#FFFFFF;}
</style>
<defs>
</defs>
<g>
	<rect x="1" class="st0" width="80" height="80"/>
	<g>
		<path class="st1" d="M66,76.3c-1.2,0-2.4-0.2-3.5-0.5c-3.5-0.9-6.4-3.2-8.2-6.3l-3.5-6c-0.5,0.1-1,0.2-1.5,0.3
			c-1.1,1.3-2.4,2.5-3.9,3.3c-1.5,0.9-3.1,1.4-4.8,1.7c-1.1,1.3-2.4,2.5-3.9,3.3c-2,1.2-4.4,1.8-6.7,1.8c-4.8,0-9.3-2.6-11.7-6.7
			l-5.1-8.8L5.9,45.6c-0.1-0.1-0.1-0.2-0.2-0.3c-7.1-13.6-2.3-30.2,11-37.8C21.1,5,26,3.7,31,3.7c9.8,0,18.8,4.9,24,13.2
			c0.1,0.1,0.1,0.1,22.7,39.2c1.8,3.1,2.3,6.8,1.3,10.2c-0.9,3.5-3.2,6.4-6.3,8.2C70.7,75.7,68.4,76.3,66,76.3z"/>
		<path class="st1" d="M31,6.2c8.9,0,17.1,4.5,21.9,12.1c0.1,0.1,0.1,0.1,22.6,39.1c1.5,2.5,1.9,5.5,1.1,8.3
			c-0.8,2.8-2.6,5.2-5.1,6.7c-1.7,1-3.6,1.5-5.5,1.5c-1,0-1.9-0.1-2.9-0.4c-2.8-0.8-5.2-2.6-6.7-5.1L52,60.5c-1.3,0.6-2.6,0.9-4,1
			c-0.9,1.4-2.2,2.7-3.7,3.5c-1.5,0.9-3.2,1.4-4.9,1.5c-0.9,1.4-2.2,2.7-3.7,3.5c-1.7,1-3.6,1.5-5.5,1.5c-3.9,0-7.6-2.1-9.5-5.5
			l-5-8.7c0,0,0,0,0,0L8.1,44.4c0-0.1-0.1-0.1-0.1-0.2C1.5,31.8,5.9,16.6,18,9.7C22,7.4,26.5,6.2,31,6.2 M31,1.2
			c-5.4,0-10.8,1.4-15.5,4.2C1.1,13.7-4.2,31.7,3.6,46.5c0.1,0.1,0.1,0.2,0.2,0.4l7.4,12.9l0,0l0,0l0,0l5,8.7c2.8,4.9,8.2,8,13.9,8
			c2.8,0,5.6-0.7,8-2.1c1.5-0.8,2.8-1.9,3.9-3.2c1.7-0.3,3.3-1,4.7-1.8c1.2-0.7,2.2-1.5,3.2-2.4l2.2,3.9c2.1,3.7,5.6,6.3,9.7,7.5
			c1.4,0.4,2.8,0.5,4.1,0.5c2.8,0,5.6-0.7,8-2.1c3.7-2.1,6.3-5.6,7.5-9.7c1.1-4.1,0.5-8.4-1.6-12.1C57.3,15.7,57.3,15.7,57.1,15.6
			C51.4,6.5,41.7,1.2,31,1.2L31,1.2z"/>
	</g>
	<path d="M75.5,57.4C53,18.3,53,18.3,52.9,18.2C48.1,10.7,39.9,6.2,31,6.2c-4.5,0-9,1.2-13,3.5C5.9,16.6,1.5,31.8,8,44.2
		c0,0.1,0.1,0.1,0.1,0.2l7.4,12.9c0,0,0,0,0,0l5,8.7c2,3.4,5.6,5.5,9.5,5.5c1.9,0,3.8-0.5,5.5-1.5c1.5-0.9,2.8-2.1,3.7-3.5
		c1.7-0.1,3.4-0.6,4.9-1.5c1.5-0.9,2.8-2.1,3.7-3.5c1.4-0.1,2.8-0.4,4-1l4.5,7.8c1.5,2.5,3.8,4.4,6.7,5.1c0.9,0.3,1.9,0.4,2.9,0.4
		c1.9,0,3.8-0.5,5.5-1.5c2.5-1.5,4.4-3.8,5.1-6.7C77.4,62.9,77,59.9,75.5,57.4z M19.6,50.4c0,0.2-0.1,0.3-0.1,0.5l-5.6-9.8
		c-4.8-9.2-1.5-20.5,7.5-25.7c9-5.2,20.4-2.4,25.9,6.4l0,0c0.1,0.2,0.3,0.5,0.4,0.7c1.3,2.2,2.1,4.6,2.4,7.1
		c0.6,4.2-0.3,8.5-2.4,12.2l-0.1,0.1c-0.1,0.1-0.1,0.2-0.2,0.3c-0.5,0.9-1.2,1.8-1.9,2.6l-0.1,0.1c-0.3,0.3-0.6,0.6-1,0.8
		c-1,0.6-2.2,0.7-3.3,0.4c-1.1-0.3-2.1-1-2.6-2c-0.9-1.6-0.7-3.6,0.5-5c1.3-1.5,2.1-3.3,2.4-5.2c0.4-2.4-0.1-4.9-1.3-7l0,0
		c-0.1-0.2-0.2-0.4-0.5-0.8c-3.1-4.5-9.3-5.9-14.1-3.1c-0.3,0.2-0.4,0.6-0.2,0.9c0.2,0.3,0.6,0.4,0.9,0.2c4.2-2.4,9.6-1.2,12.3,2.7
		c0,0,0.4,0.6,0.5,0.7c1.1,1.9,1.5,4,1.1,6.1c-0.3,1.7-1,3.3-2.1,4.6c-1,1.1-1.4,2.5-1.4,3.9c-1.7-1.1-4-1.2-5.8-0.1
		c-1.9,1.1-2.9,3.1-2.8,5.1c-0.5-0.3-1-0.5-1.5-0.7c-1.5-0.4-3-0.2-4.3,0.6C20.9,47.7,20,49,19.6,50.4z M34.3,61.6
		c-0.3,1.1-1,2-2,2.6c-2.1,1.2-4.7,0.5-5.9-1.6l-5-8.7c-0.6-1-0.7-2.2-0.4-3.3c0.3-1.1,1-2,2-2.6c0.7-0.4,1.4-0.6,2.2-0.6
		c0.4,0,0.8,0,1.1,0.1c1.1,0.3,2,1,2.6,2l5,8.7C34.4,59.4,34.6,60.5,34.3,61.6z M42.9,56.7c-0.3,1.1-1,2-2,2.6
		c-1,0.6-2.2,0.7-3.3,0.4c-1.1-0.3-2-1-2.6-2L30,49c-1.2-2.1-0.5-4.7,1.6-5.9c0.7-0.4,1.4-0.6,2.2-0.6c1.5,0,3,0.8,3.8,2.2l5,8.7
		C43.1,54.4,43.2,55.5,42.9,56.7z M49.5,54.3c-2.1,1.2-4.7,0.5-5.9-1.6l-3.2-5.5c0.2,0.1,0.3,0.1,0.5,0.1c1.5,0.4,3,0.2,4.3-0.6
		c0.5-0.3,0.9-0.6,1.3-1l0.1-0.1c0.6-0.7,1.1-1.4,1.6-2.2l2.9,5C52.3,50.4,51.6,53.1,49.5,54.3z M70.2,64c-0.3,1.1-1,2-2,2.6
		c-1,0.6-2.2,0.7-3.3,0.4c-1.1-0.3-2.1-1-2.6-2l-10-17.3c0,0,0,0,0,0l-3.2-5.6c2.1-3.9,3-8.4,2.4-12.7c0-0.2-0.1-0.4-0.1-0.6
		l18.4,31.9C70.3,61.7,70.5,62.9,70.2,64z"/>
</g>
</svg>
