<!-- Generator: Adobe Illustrator 19.2.0, SVG Export Plug-In  -->
<svg version="1.1"
	 xmlns="http://www.w3.org/2000/svg" xmlns:xlink="http://www.w3.org/1999/xlink" xmlns:a="http://ns.adobe.com/AdobeSVGViewerExtensions/3.0/"
	 x="0px" y="0px" width="80px" height="80px" viewBox="0 0 80 80" style="enable-background:new 0 0 80 80;" xml:space="preserve">
<style type="text/css">
	.st0{fill:none;}
	.st1{fill:#FFFFFF;}
</style>
<defs>
</defs>
<g>
	<rect class="st0" width="80" height="80"/>
	<g>
		<path class="st1" d="M50.5,75.8c-1.7,0-3.3-0.4-4.8-1.3c-0.7-0.1-1.3-0.2-1.9-0.5c-7-2.4-8.6-6.1-9.1-7.3
			c-0.3-0.7-0.5-1.2-0.6-1.5c-0.6-1-1.1-2.1-1.4-3.3c-0.4-0.5-0.7-1-1-1.5c-0.2-0.2-0.4-0.5-0.6-0.7c-1.1,0.4-2.4,0.6-3.6,0.6
			c-2.8,0-5.1-1.2-6.9-2.1c-0.2-0.1-0.4-0.2-0.5-0.3c-1.8-0.9-6.7-4.2-8.2-9.3c-0.6-0.5-1.2-1-1.7-1.5c-0.1,0-0.3-0.2-0.7-0.5
			c-0.2-0.2-0.4-0.3-0.6-0.4c-0.5-0.4-3-2.4-4.3-5.3c-1.6-3.6-1.4-7.6,0.6-10.6c1.9-2.9,5.1-4.7,8.6-4.7H18v-12
			c0-5.3,4.3-9.6,9.6-9.6h13.7c5.3,0,9.6,4.3,9.6,9.6V16c0.4,0.1,0.7,0.3,1,0.4c0.2,0,0.5,0,0.7,0l0.1,0c0.3,0,0.5,0,0.8,0
			c0.8,0,1.5,0.1,2.2,0.2c0.8-0.1,1.5-0.2,2.2-0.2c0.6-0.1,1.2-0.2,1.9-0.2c0.8,0,1.6,0.1,2.4,0.3c1.6,0.4,2.8,1.1,3.5,1.6
			c0.1,0.1,0.2,0.2,0.4,0.2c0.3,0.1,0.7,0.2,1,0.3c3.3,1.1,5.7,3.8,6.7,7.2c0.5,1.8,0.7,3.8,0.4,6.1c0,0.1,0,0.3,0,0.6
			c0.4,0.8,0.7,1.6,0.9,2.4c2.1,3.7,1.3,7.6,0.7,9.6c0,1.4-0.1,3.3-1.2,5.3c-0.2,0.7-0.5,1.4-0.9,2.1c-1.3,2.4-3.5,4.1-6.1,4.9
			c-2,2-4.4,3.6-6.4,4.6c0.4,2.7,1,7.7-3.4,11.2c-0.5,0.4-0.9,0.7-1.3,1l-0.3,0.2C54.7,75.2,52.6,75.8,50.5,75.8z"/>
		<path class="st1" d="M41.3,6.7c3.9,0,7.1,3.2,7.1,7.1v4.3c1.1,0.1,2.1,0.4,3.1,0.9c0.4-0.1,0.8-0.1,1.2-0.1c0.1,0,0.1,0,0.2,0
			c0.2,0,0.5,0,0.7,0c0.7,0,1.5,0.1,2.2,0.3c0.7-0.2,1.6-0.3,2.4-0.3c0,0,0.1,0,0.1,0c0.5-0.1,1-0.2,1.6-0.2c0.6,0,1.2,0.1,1.8,0.2
			c1.2,0.3,2.1,0.9,2.8,1.3c0.2,0.1,0.5,0.3,0.8,0.5c0.4,0.1,0.7,0.2,1.1,0.3c2.5,0.9,4.4,2.9,5.2,5.6c0.4,1.5,0.6,3.2,0.3,5.1
			c0,0.2,0,0.7,0,1.4c0.5,0.9,0.8,1.8,1,2.7c1.6,2.6,1.4,5.9,0.5,8.4c0.1,1.1,0.1,2.9-1,4.7c-0.2,0.6-0.4,1.3-0.7,1.9
			c-1.1,2-3,3.3-5.2,3.8c-0.1,0.1-0.2,0.2-0.3,0.3c-2.2,2.3-5.1,4-7,4.8c-0.2,0.1-0.3,0.3-0.5,0.4c0.1,0.4,0.1,0.8,0.2,1.2
			c0.4,2.4,1.1,6.5-2.5,9.3c-0.5,0.4-0.9,0.7-1.2,0.9l-0.3,0.2c-1.3,1-2.8,1.5-4.4,1.5c-1.7,0-3.1-0.6-4-1.2c-0.1,0-0.1,0-0.2,0
			c-0.6-0.1-1.2-0.2-1.7-0.4c-6-2.1-7.2-5-7.6-5.9c-0.4-0.9-0.6-1.4-0.8-1.7c-0.6-0.8-1-1.8-1.2-3.1c-0.4-0.5-0.9-1.1-1.2-1.9
			c-0.5-0.5-1.2-1.3-1.7-2.5c-1.2,0.8-2.7,1.4-4.5,1.4c-2.2,0-4.1-1-5.8-1.8l0,0c-0.2-0.1-0.4-0.2-0.6-0.3c-1.6-0.8-6.1-3.9-7.1-8.5
			c-0.7-0.5-1.4-1-2.1-1.8c-0.2-0.2-0.7-0.6-1-0.8c-0.2-0.2-0.4-0.3-0.5-0.4c-0.2-0.2-2.5-2-3.5-4.3c-1.3-2.8-1.1-5.9,0.4-8.2
			c1.4-2.2,3.9-3.5,6.5-3.5h6.8V13.8c0-3.9,3.2-7.1,7.1-7.1H41.3 M41.3,1.7H27.6c-6.7,0-12.1,5.4-12.1,12.1v9.5h-1.8
			c-4.4,0-8.4,2.2-10.7,5.8c-2.4,3.8-2.7,8.7-0.7,13c1.5,3.3,4.2,5.6,5,6.2c0.2,0.1,0.4,0.3,0.6,0.5C8,48.9,8.2,49,8.4,49.2
			c0.4,0.4,0.8,0.8,1.2,1.2c1.9,5.3,6.8,8.9,9.3,10.1c0.1,0,0.2,0.1,0.3,0.2l0.1,0c2,1,4.7,2.4,8.1,2.4c0.9,0,1.7-0.1,2.6-0.2
			c0.1,0.1,0.2,0.3,0.3,0.4c0.3,1.2,0.8,2.4,1.5,3.4c0.1,0.3,0.3,0.7,0.5,1.2c2.5,5.9,8.6,8,10.6,8.7c0.6,0.2,1.3,0.4,2,0.5
			c1.8,0.9,3.7,1.4,5.6,1.4c2.7,0,5.2-0.9,7.4-2.5l0.2-0.2c0.4-0.3,0.9-0.6,1.4-1.1c4.6-3.7,4.9-8.6,4.6-11.8c1.5-0.9,3.3-2.1,5-3.8
			c3-1,5.5-3.1,7-5.8c0.4-0.8,0.8-1.6,1-2.4c1.2-2.3,1.4-4.6,1.4-5.9c1.1-3.8,0.8-7.7-0.9-10.8c-0.2-0.7-0.4-1.4-0.7-2
			c0.3-2.5,0.1-4.8-0.5-6.8c-1.3-4.2-4.3-7.4-8.3-8.9c-0.3-0.1-0.5-0.2-0.8-0.3c0,0,0,0,0,0c-0.8-0.5-2.2-1.4-4.2-1.9
			c-1-0.2-2-0.4-3-0.4c-0.7,0-1.4,0.1-2.1,0.2c-0.6,0-1.3,0.1-2,0.2c-0.7-0.1-1.5-0.2-2.2-0.2c-0.1,0-0.1,0-0.2,0v-0.1
			C53.4,7.1,48,1.7,41.3,1.7L41.3,1.7z"/>
	</g>
	<path d="M72.9,35.8c-0.2-0.9-0.5-1.8-1-2.7c0-0.7,0-1.2,0-1.4c0.2-1.9,0.1-3.6-0.3-5.1c-0.8-2.7-2.7-4.7-5.2-5.6
		c-0.3-0.1-0.7-0.2-1.1-0.3c-0.3-0.1-0.6-0.4-0.8-0.5c-0.7-0.4-1.5-1-2.8-1.3c-0.6-0.2-1.2-0.2-1.8-0.2c-0.6,0-1.1,0.1-1.6,0.2
		c0,0-0.1,0-0.1,0c-0.9,0-1.7,0.1-2.4,0.3c-0.7-0.2-1.4-0.3-2.2-0.3c-0.3,0-0.5,0-0.7,0c-0.1,0-0.1,0-0.2,0c-0.4,0-0.8,0-1.2,0.1
		c-0.9-0.5-2-0.9-3.1-0.9v-4.3c0-3.9-3.2-7.1-7.1-7.1H27.6c-3.9,0-7.1,3.2-7.1,7.1v14.5h-6.8c-2.7,0-5.1,1.3-6.5,3.5
		c-1.5,2.4-1.7,5.4-0.4,8.2c1.1,2.4,3.3,4.1,3.5,4.3c0.1,0.1,0.3,0.2,0.5,0.4c0.3,0.2,0.8,0.6,1,0.8c0.7,0.7,1.4,1.3,2.1,1.8
		c1,4.6,5.5,7.8,7.1,8.5c0.2,0.1,0.4,0.2,0.6,0.3l0,0c1.7,0.9,3.6,1.8,5.8,1.8c1.9,0,3.4-0.6,4.5-1.4c0.5,1.2,1.2,2,1.7,2.5
		c0.4,0.7,0.8,1.3,1.2,1.9c0.2,1.3,0.7,2.3,1.2,3.1c0.1,0.3,0.4,0.8,0.8,1.7c0.4,1,1.7,3.9,7.6,5.9c0.5,0.2,1.1,0.3,1.7,0.4
		c0.1,0,0.1,0,0.2,0c1,0.6,2.3,1.2,4,1.2c1.6,0,3.1-0.5,4.4-1.5l0.3-0.2c0.3-0.3,0.8-0.6,1.2-0.9c3.6-2.8,2.9-6.9,2.5-9.3
		c-0.1-0.4-0.1-0.8-0.2-1.2c0.2-0.2,0.4-0.3,0.5-0.4c1.9-0.8,4.7-2.5,7-4.8c0.1-0.1,0.3-0.3,0.3-0.3c2.2-0.5,4.1-1.9,5.2-3.8
		c0.3-0.6,0.6-1.2,0.7-1.9c1.1-1.8,1.1-3.6,1-4.7C74.3,41.8,74.5,38.5,72.9,35.8z M66.3,42.3c-0.2,0.3-0.3,0.8-0.2,2.1
		c0,0.3,0,0.6,0,0.7c0,0-0.2,0.1-0.3,0.2c-0.2,0.1-0.4,0.3-0.5,0.5l-0.3,0.3l0.2,0.4c0.1,0.2,0.2,0.5,0.1,0.7
		c-0.1,0.1-0.3,0.2-0.5,0.3c-0.8,0.1-2.2,0.6-3.9,2.4c-1.4,1.4-3.4,2.7-4.7,3.3c-1.3,0.5-5.2,3.5-4.9,6.5c0.1,1.1,0.3,2.2,0.4,3.1
		c0.2,1,0.4,2.2,0.2,2.4c-0.4,0.3-0.7,0.6-1,0.8L50.5,66c-0.1,0-0.4-0.3-0.5-0.4c-0.4-0.4-0.6-0.6-0.9-0.6l-0.1,0
		c-0.5,0-1.8-0.1-2-0.1c-1.7-0.6-3.1-1.4-3.3-1.9c-1.1-2.5-1.3-2.8-1.4-2.9l-0.1-0.1l0,0c0-0.1,0-0.3,0-0.5c0-1.1-0.1-1.8-0.5-2.1
		c-0.6-0.4-1.3-1-1.6-1.8c-0.2-0.5-0.5-0.9-0.9-1.2c-0.2-0.2-0.4-0.4-0.5-0.6c-0.1-0.1-0.2-0.4-0.4-0.8c-0.5-1.1-1.1-2.3-1.2-2.9
		L37,49.8l-0.1-0.1c-1-1.3-2-2.5-2.9-2.7c-0.9-0.2-2.6-0.4-3.2-0.2c-0.8,0.2-1.7,1.1-1.8,2.6c-0.5,0.6-1,1.3-1.6,1.3
		c-0.5,0-1.7-0.6-2.5-1c-0.3-0.1-0.5-0.3-0.7-0.4c-0.9-0.4-3-2.3-3.1-3.5c-0.1-1.4-0.8-3.1-1.5-3.6L19.3,42
		c-0.7-0.3-1.4-0.7-2.1-1.5c-0.7-0.7-1.5-1.3-2.1-1.7c-0.1-0.1-0.2-0.2-0.3-0.2c-0.4-0.3-1.1-1.1-1.4-1.6c-0.2-0.3-0.3-1-0.1-1.2
		c0.1-0.1,0.2-0.1,0.3-0.1h14.1V14h13.3v9.6l0.4,0.2c0.3,0.2,1,0.4,1.8,0.3l0.1,0.1c0.8,1,1.7,1.7,4.5,1.2c0.1,0.1,0.3,0.2,0.4,0.3
		c0.6,0.5,0.9,0.7,1.5,0.4c0.2,0,0.3,0.1,0.4,0.2c0.2,0.1,0.4,0.3,0.8,0.3c0.2,0,0.4-0.1,0.7-0.2c0.4-0.1,0.9-0.2,1-0.2l0.2,0.1
		l0.3-0.1c0.3-0.1,0.5-0.1,0.6,0c0.1,0.1,0.1,0.1,0.2,0.2c0.3,0.3,0.5,0.6,1,0.5c0.1,0,0.3-0.1,0.9-0.3c0.7-0.3,1.9-0.7,2.5-0.6
		c0.6,0.1,1,0,1.3-0.1c0.2-0.1,0.2-0.1,0.3-0.1c0.1,0,0.4,0.2,0.6,0.4c0.9,0.5,2.3,1.4,3.4,1.5c0.8,0.3,0.7,2,0.6,2.9
		c-0.1,1.1,0,3.6,0,4.4l0,0.2l0.2,0.2c0.5,0.6,0.9,1.3,0.9,1.6c0,0.8,0.5,2,0.9,2.4C66.9,40,66.6,41.9,66.3,42.3z"/>
</g>
</svg>
