<svg id="Layer_11" data-name="Layer 11" xmlns="http://www.w3.org/2000/svg" width="100" height="100" viewBox="0 0 100 100">
  <defs>
    <style>
      .cls-1 {
        fill: #fff;
      }

      .cls-2 {
        fill: #e6e7e8;
      }

      .cls-3 {
        fill: #939598;
      }

      .cls-4 {
        fill: #f78e1e;
      }

      .cls-5 {
        fill: #fff0c8;
      }
    </style>
  </defs>
  <title>fat framed icons</title>
  <g>
    <g>
      <path d="M52.48,87.5A32.53,32.53,0,0,1,21.2,46.12l-3.49-3.49a9.17,9.17,0,0,1,0-13l9.43-9.43a9.18,9.18,0,0,1,8.68-2.42,9.17,9.17,0,0,1,8.32-5.32H60.81A9.18,9.18,0,0,1,70,21.67v5a9.27,9.27,0,0,1,0,.93A32.49,32.49,0,0,1,52.48,87.5Z"/>
      <path class="cls-1" d="M60.81,15a6.67,6.67,0,0,1,6.67,6.67v5a6.66,6.66,0,0,1-.36,2.16,30,30,0,1,1-43,16.44A6.7,6.7,0,0,1,23,44.39l-3.54-3.54a6.67,6.67,0,0,1,0-9.43L28.91,22a6.67,6.67,0,0,1,8.58-.72A6.67,6.67,0,0,1,44.14,15H60.81m0-5H44.14a11.67,11.67,0,0,0-9.63,5.08q-0.44,0-.89,0a11.59,11.59,0,0,0-8.25,3.42l-9.43,9.43a11.67,11.67,0,0,0,0,16.5l2.48,2.48A35,35,0,1,0,72.48,26.29V21.67A11.68,11.68,0,0,0,60.81,10h0Z"/>
    </g>
    <polygon class="cls-2" points="34.2 32.27 29.48 36.98 29.48 36.98 27.73 38.74 25.13 36.14 33.62 27.66 36.21 30.25 34.2 32.27 34.2 32.27"/>
    <rect class="cls-3" x="48.14" y="27.33" width="8.67" height="3.67"/>
    <polygon class="cls-2" points="60.14 26 57.48 26 47.48 26 44.81 26 44.81 22.33 60.14 22.33 60.14 26"/>
    <rect class="cls-3" x="31.41" y="35.03" width="5.33" height="3.67" transform="translate(-16.09 34.89) rotate(-45)"/>
    <path class="cls-4" d="M52.48,32.33A22.67,22.67,0,1,1,29.81,55,22.69,22.69,0,0,1,52.48,32.33Z"/>
    <path d="M52.48,74a19,19,0,1,0-19-19A19,19,0,0,0,52.48,74Z"/>
    <path class="cls-5" d="M52.48,37.33A17.67,17.67,0,1,1,34.81,55,17.69,17.69,0,0,1,52.48,37.33Z"/>
    <path d="M39.81,55a0.67,0.67,0,0,1-1.33,0,14,14,0,0,1,14-14,0.67,0.67,0,1,1,0,1.33A12.68,12.68,0,0,0,39.81,55Z"/>
    <path d="M49.31,55a3.17,3.17,0,0,0,5.41,2.24c1-1,7.06-10.25,7.75-11.3A0.67,0.67,0,0,0,61.54,45c-1.05.69-10.31,6.75-11.3,7.75A3.15,3.15,0,0,0,49.31,55Z"/>
    <path class="cls-2" d="M51.18,53.7c0.54-.54,4.67-3.33,8.39-5.8-2.46,3.72-5.25,7.85-5.8,8.39a1.88,1.88,0,0,1-2.59,0A1.83,1.83,0,0,1,51.18,53.7Z"/>
  </g>
</svg>
