<svg id="Layer_11" data-name="Layer 11" xmlns="http://www.w3.org/2000/svg" width="100" height="100" viewBox="0 0 100 100">
  <defs>
    <style>
      .cls-1 {
        fill: #fff;
      }

      .cls-2 {
        fill: #939598;
      }

      .cls-3 {
        fill: #e6e7e8;
      }

      .cls-4 {
        fill: #5586bc;
      }

      .cls-5 {
        fill: #c2d5e8;
      }
    </style>
  </defs>
  <title>fat framed icons</title>
  <g>
    <g>
      <path d="M51.89,87.5A32.54,32.54,0,0,1,21.17,44.32L18.3,41.45a9.17,9.17,0,0,1,0-13l7.07-7.07a9.19,9.19,0,0,1,9.36-2.23,9.18,9.18,0,0,1,8.83-6.69H60.22a9.18,9.18,0,0,1,9.17,9.17v5a9.27,9.27,0,0,1,0,.93A32.49,32.49,0,0,1,51.89,87.5Z"/>
      <path class="cls-1" d="M60.22,15a6.67,6.67,0,0,1,6.67,6.67v5a6.66,6.66,0,0,1-.36,2.16A30,30,0,1,1,24.1,43.66q-0.26-.21-0.49-0.45l-3.54-3.54a6.67,6.67,0,0,1,0-9.43l7.07-7.07a6.67,6.67,0,0,1,9.43,0l0.32,0.32V21.67A6.67,6.67,0,0,1,43.55,15H60.22m0-5H43.55a11.68,11.68,0,0,0-10.36,6.3,11.88,11.88,0,0,0-1.34-.08,11.59,11.59,0,0,0-8.25,3.42l-7.07,7.07a11.67,11.67,0,0,0,0,16.5l1.8,1.8A35,35,0,1,0,71.89,26.28V21.67A11.68,11.68,0,0,0,60.22,10h0Z"/>
    </g>
    <rect class="cls-2" x="47.55" y="27.33" width="8.67" height="3.67"/>
    <polygon class="cls-3" points="59.55 26 56.89 26 46.89 26 44.22 26 44.22 22.33 59.55 22.33 59.55 26"/>
    <rect class="cls-2" x="30.95" y="34.9" width="5.33" height="3.67" transform="translate(-16.13 34.53) rotate(-45)"/>
    <polygon class="cls-3" points="33.74 32.14 29.02 36.85 29.02 36.85 28.32 37.56 25.72 34.97 31.85 28.84 34.44 31.43 33.74 32.14"/>
    <path class="cls-4" d="M51.89,32.33A22.67,22.67,0,1,1,29.22,55,22.69,22.69,0,0,1,51.89,32.33Z"/>
    <path d="M51.89,74a19,19,0,1,0-19-19A19,19,0,0,0,51.89,74Z"/>
    <path class="cls-5" d="M51.89,37.33A17.67,17.67,0,1,1,34.22,55,17.69,17.69,0,0,1,51.89,37.33Z"/>
    <path d="M39.22,55a0.67,0.67,0,1,1-1.33,0,14,14,0,0,1,14-14,0.67,0.67,0,1,1,0,1.33A12.68,12.68,0,0,0,39.22,55Z"/>
    <path d="M49.65,57.24a3.17,3.17,0,0,0,4.48,0c1-1,7.06-10.25,7.75-11.3A0.67,0.67,0,0,0,60.95,45c-1.05.69-10.31,6.75-11.3,7.75A3.17,3.17,0,0,0,49.65,57.24Z"/>
    <path class="cls-3" d="M50.59,53.7c0.54-.54,4.67-3.33,8.39-5.8-2.46,3.72-5.25,7.85-5.8,8.39A1.83,1.83,0,0,1,50.59,53.7Z"/>
  </g>
</svg>
