<svg id="Layer_2" data-name="Layer 2" xmlns="http://www.w3.org/2000/svg" width="100" height="100" viewBox="0 0 100 100">
  <defs>
    <style>
      .cls-1 {
        fill: #fff;
      }

      .cls-2 {
        fill: #e14f4e;
      }

      .cls-3 {
        fill: #c72127;
      }
    </style>
  </defs>
  <title>fat framed icons</title>
  <g>
    <g>
      <path d="M33.33,89.17A15.85,15.85,0,0,1,17.5,73.33V41.82a12.52,12.52,0,0,1-3.33-8.49V30a12.51,12.51,0,0,1,12.5-12.5h3.76a15.9,15.9,0,0,1,12.9-6.67H56.67a15.9,15.9,0,0,1,12.9,6.67h3.76A12.51,12.51,0,0,1,85.83,30v3.33a12.52,12.52,0,0,1-3.33,8.49V73.33A15.85,15.85,0,0,1,66.67,89.17H33.33Z"/>
      <path class="cls-1" d="M56.67,13.33A13.34,13.34,0,0,1,68.21,20h5.12a10,10,0,0,1,10,10v3.33A10,10,0,0,1,80,40.78V73.33A13.35,13.35,0,0,1,66.67,86.67H33.33A13.35,13.35,0,0,1,20,73.33V40.78a10,10,0,0,1-3.33-7.45V30a10,10,0,0,1,10-10h5.12a13.34,13.34,0,0,1,11.54-6.67H56.67m0-5H43.33A18.41,18.41,0,0,0,29.2,15H26.67a15,15,0,0,0-15,15v3.33A15,15,0,0,0,15,42.75V73.33A18.35,18.35,0,0,0,33.33,91.67H66.67A18.35,18.35,0,0,0,85,73.33V42.75a15,15,0,0,0,3.33-9.42V30a15,15,0,0,0-15-15H70.8A18.41,18.41,0,0,0,56.67,8.33h0Z"/>
    </g>
    <path class="cls-2" d="M66.67,79.33H33.33a6,6,0,0,1-6-6v-36H72.67v36A6,6,0,0,1,66.67,79.33Z"/>
    <path class="cls-2" d="M36.67,42.67a4,4,0,0,0-4,4V70a4,4,0,0,0,8,0V46.67A4,4,0,0,0,36.67,42.67Z"/>
    <path d="M39.33,70A2.67,2.67,0,1,1,34,70V46.67a2.67,2.67,0,1,1,5.33,0V70Z"/>
    <path class="cls-2" d="M63.33,42.67a4,4,0,0,0-4,4V70a4,4,0,0,0,8,0V46.67A4,4,0,0,0,63.33,42.67Z"/>
    <path d="M66,70a2.67,2.67,0,1,1-5.33,0V46.67a2.67,2.67,0,1,1,5.33,0V70Z"/>
    <path class="cls-2" d="M50,42.67a4,4,0,0,0-4,4V70a4,4,0,0,0,8,0V46.67A4,4,0,0,0,50,42.67Z"/>
    <path d="M52.67,70a2.67,2.67,0,0,1-5.33,0V46.67a2.67,2.67,0,0,1,5.33,0V70Z"/>
    <path class="cls-3" d="M73.33,36H26.67A2.67,2.67,0,0,1,24,33.33V30a2.67,2.67,0,0,1,2.67-2.67H73.33A2.67,2.67,0,0,1,76,30v3.33A2.67,2.67,0,0,1,73.33,36Z"/>
    <path class="cls-2" d="M43.33,20.67H56.67a6,6,0,0,1,6,5.33H37.37A6,6,0,0,1,43.33,20.67Z"/>
  </g>
</svg>
