<svg id="Layer_11" data-name="Layer 11" xmlns="http://www.w3.org/2000/svg" width="100" height="100" viewBox="0 0 100 100">
  <defs>
    <style>
      .cls-1 {
        fill: gray;
      }

      .cls-2 {
        fill: #fff;
      }
    </style>
  </defs>
  <title>fat framed icons</title>
  <g>
    <path class="cls-1" d="M36.55,89.17A12.59,12.59,0,0,1,29,86.67H28.94a13.2,13.2,0,0,1-1.35-.07,13.06,13.06,0,0,1-10-6.52A13.27,13.27,0,0,1,17,68,34.79,34.79,0,0,1,30.17,53.2a25.83,25.83,0,1,1,39.66,0A34.79,34.79,0,0,1,83,68a13.27,13.27,0,0,1-.54,12.12,13.06,13.06,0,0,1-10,6.52,13.41,13.41,0,0,1-1.35.07H71a12.59,12.59,0,0,1-7.54,2.5H36.55Z"/>
    <path class="cls-2" d="M50,13.33A23.32,23.32,0,0,1,65.82,53.8,32.48,32.48,0,0,1,80.69,69a10.76,10.76,0,0,1-.44,9.83,10.56,10.56,0,0,1-8.08,5.27,11,11,0,0,1-1.1.06q-0.46,0-.91,0a10.08,10.08,0,0,1-6.7,2.54H36.55a10.07,10.07,0,0,1-6.7-2.54q-0.45,0-.91,0a11,11,0,0,1-1.1-.05,10.56,10.56,0,0,1-8.08-5.27A10.76,10.76,0,0,1,19.31,69,32.48,32.48,0,0,1,34.18,53.8,23.32,23.32,0,0,1,50,13.33m0-5A28.31,28.31,0,0,0,26.6,52.61,37,37,0,0,0,14.77,66.92a15.77,15.77,0,0,0,.64,14.4,15.57,15.57,0,0,0,11.92,7.77l0.86,0.06a15.09,15.09,0,0,0,8.35,2.52h26.9a15.09,15.09,0,0,0,8.35-2.52l0.86-.06a15.56,15.56,0,0,0,11.92-7.77,15.77,15.77,0,0,0,.64-14.4A37,37,0,0,0,73.4,52.61,28.31,28.31,0,0,0,50,8.33h0Z"/>
  </g>
  <path class="cls-2" d="M50,20.67a16,16,0,1,1-16,16A16,16,0,0,1,50,20.67Z"/>
  <path class="cls-2" d="M32.74,73.21v0a4,4,0,0,1-3.79,3.6l-0.36,0a3.17,3.17,0,0,1-2.45-1.62A3.41,3.41,0,0,1,26,72.08,25.46,25.46,0,0,1,41.33,58.72,21,21,0,0,0,32.74,73.21Z"/>
  <path class="cls-2" d="M63.45,79.33H36.55a2.7,2.7,0,0,1-2.73-2.67c0-10.3,6.78-18.75,15.29-19.3,0.3,0,.59,0,0.89,0,8.92,0,16.18,8.67,16.18,19.37A2.69,2.69,0,0,1,63.45,79.33Z"/>
  <path class="cls-2" d="M71.49,77.48l-0.43,0a4.34,4.34,0,0,1-3.57-2c-0.38-8.28-4.91-15.28-11.18-18.14A26.41,26.41,0,0,1,74.63,71.8,4,4,0,0,1,71.49,77.48Z"/>
  <path class="cls-1" d="M37.67,36.67A12.35,12.35,0,0,1,50,24.33a0.67,0.67,0,0,1,0,1.33,11,11,0,0,0-11,11A0.67,0.67,0,0,1,37.67,36.67Z"/>
  <circle class="cls-1" cx="41.67" cy="43.67" r="1.67"/>
  <path class="cls-1" d="M46.67,45.33h6.67A3.33,3.33,0,1,1,46.67,45.33Z"/>
  <circle class="cls-1" cx="58.33" cy="43.67" r="1.67"/>
</svg>
