<svg id="Layer_11" data-name="Layer 11" xmlns="http://www.w3.org/2000/svg" width="100" height="100" viewBox="0 0 100 100">
  <defs>
    <style>
      .cls-1 {
        fill: gray;
      }

      .cls-2 {
        fill: #fff;
      }
    </style>
  </defs>
  <title>fat framed icons</title>
  <g>
    <path class="cls-1" d="M36.55,89.17A12.59,12.59,0,0,1,29,86.67H28.94a13.2,13.2,0,0,1-1.35-.07,13.06,13.06,0,0,1-10-6.52A13.27,13.27,0,0,1,17,68,34.79,34.79,0,0,1,30.17,53.2a25.83,25.83,0,1,1,39.66,0A34.79,34.79,0,0,1,83,68a13.27,13.27,0,0,1-.54,12.12,13.06,13.06,0,0,1-10,6.52,13.4,13.4,0,0,1-1.35.07H71a12.59,12.59,0,0,1-7.54,2.5H36.55Z"/>
    <path class="cls-2" d="M50,13.33A23.32,23.32,0,0,1,65.82,53.8,32.48,32.48,0,0,1,80.69,69a10.76,10.76,0,0,1-.44,9.83,10.56,10.56,0,0,1-8.08,5.27,11,11,0,0,1-1.1.06q-0.46,0-.91,0a10.08,10.08,0,0,1-6.7,2.54H36.55a10.07,10.07,0,0,1-6.7-2.54q-0.45,0-.91,0a11,11,0,0,1-1.1-.05,10.56,10.56,0,0,1-8.08-5.27A10.76,10.76,0,0,1,19.31,69,32.48,32.48,0,0,1,34.18,53.8,23.32,23.32,0,0,1,50,13.33m0-5A28.31,28.31,0,0,0,26.6,52.61,37,37,0,0,0,14.77,66.92a15.77,15.77,0,0,0,.64,14.4,15.57,15.57,0,0,0,11.92,7.77l0.86,0.06a15.09,15.09,0,0,0,8.35,2.52h26.9a15.09,15.09,0,0,0,8.35-2.52l0.86-.06a15.56,15.56,0,0,0,11.92-7.77,15.77,15.77,0,0,0,.64-14.4A37,37,0,0,0,73.4,52.61,28.31,28.31,0,0,0,50,8.33h0Z"/>
  </g>
  <path class="cls-2" d="M67.26,73.16Q67.18,72.6,67.07,72l0-.17c-0.08-.4-0.17-0.8-0.27-1.2h6.55c0.27,0.5.51,1,.72,1.41a3.41,3.41,0,0,1-.15,3.12,3.17,3.17,0,0,1-2.45,1.62l-0.36,0a4,4,0,0,1-3.79-3.59V73.16Z"/>
  <path class="cls-2" d="M33,71.73c0,0.16-.06.32-0.1,0.49s-0.09.49-.12,0.73c0,0.09,0,.19,0,0.28a4,4,0,0,1-3.79,3.6l-0.36,0a3.17,3.17,0,0,1-2.45-1.62A3.41,3.41,0,0,1,26,72.08c0.21-.45.44-0.92,0.72-1.41h6.55c0,0.12-.05.24-0.08,0.36S33,71.49,33,71.73Z"/>
  <path class="cls-2" d="M50,20.67a16,16,0,1,1-16,16A16,16,0,0,1,50,20.67Z"/>
  <path class="cls-2" d="M58.72,58.76a25.88,25.88,0,0,1,13.8,10.58H66.37A20.22,20.22,0,0,0,58.72,58.76Z"/>
  <path class="cls-2" d="M33.63,69.33H27.48a25.88,25.88,0,0,1,13.8-10.58A20.23,20.23,0,0,0,33.63,69.33Z"/>
  <path class="cls-2" d="M34.05,73.4a22.33,22.33,0,0,1,.7-3.21h0c2.14-7.15,7.7-12.38,14.32-12.82h0.37l0.55,0,0.55,0h0.37c6.67,0.45,12.26,5.74,14.37,13,0.13,0.45.25,0.9,0.35,1.36l0,0.12c0.1,0.48.19,1,.26,1.46a23.15,23.15,0,0,1,.26,3.41,2.69,2.69,0,0,1-2.73,2.63H36.55a2.69,2.69,0,0,1-2.73-2.67A23,23,0,0,1,34.05,73.4Z"/>
  <path class="cls-1" d="M37.67,36.67A12.35,12.35,0,0,1,50,24.33a0.67,0.67,0,0,1,0,1.33,11,11,0,0,0-11,11A0.67,0.67,0,0,1,37.67,36.67Z"/>
</svg>
