<svg xmlns="http://www.w3.org/2000/svg" viewBox="0 0 100 100"><defs><style>.cls-1{isolation:isolate;}.cls-2{fill:#fff;}.cls-3{fill:#c2d5e8;}.cls-4,.cls-5{fill:#5586bc;}.cls-5{opacity:0.5;mix-blend-mode:multiply;}</style></defs><title>bookmark-alt-2</title><g class="cls-1"><g id="Layer_15" data-name="Layer 15"><path d="M73.33,87.5A9.07,9.07,0,0,1,68,85.79L50,72.93,32,85.79A9.16,9.16,0,0,1,17.5,78.33V21.67a9.18,9.18,0,0,1,9.17-9.17H73.33a9.18,9.18,0,0,1,9.17,9.17V78.33a9.17,9.17,0,0,1-9.17,9.17Z"/><path class="cls-2" d="M73.33,15A6.66,6.66,0,0,1,80,21.67V78.33a6.67,6.67,0,0,1-3.62,5.93,6.57,6.57,0,0,1-3,.74,6.67,6.67,0,0,1-3.87-1.24L50,69.86,30.54,83.76A6.67,6.67,0,0,1,26.67,85a6.57,6.57,0,0,1-3.05-.74A6.67,6.67,0,0,1,20,78.33V21.67A6.66,6.66,0,0,1,26.67,15H73.33m0-5H26.67A11.68,11.68,0,0,0,15,21.67V78.33a11.62,11.62,0,0,0,6.33,10.38A11.78,11.78,0,0,0,26.67,90a11.62,11.62,0,0,0,6.78-2.17L50,76,66.55,87.83A11.62,11.62,0,0,0,73.33,90a11.78,11.78,0,0,0,5.34-1.29A11.62,11.62,0,0,0,85,78.33V21.67A11.68,11.68,0,0,0,73.33,10Z"/><path class="cls-3" d="M27.33,32.33H72.67V77L50.39,61.12a.69.69,0,0,0-.78,0L27.33,77Z"/><rect class="cls-4" x="27.33" y="22.33" width="45.33" height="8.67"/><path class="cls-5" d="M50.39,61.12,72.67,77V32.33H50V61A.69.69,0,0,1,50.39,61.12Z"/><rect class="cls-5" x="50" y="22.33" width="22.67" height="8.67"/></g></g></svg>