<svg xmlns="http://www.w3.org/2000/svg" viewBox="0 0 100 100"><defs><style>.cls-1{isolation:isolate;}.cls-2{fill:#fff;}.cls-3,.cls-5{fill:#e14f4e;}.cls-4{fill:#f3c0c1;}.cls-5{opacity:0.5;mix-blend-mode:multiply;}</style></defs><title>bookmark-alt-7</title><g class="cls-1"><g id="Layer_15" data-name="Layer 15"><path d="M73.33,87.5A9.12,9.12,0,0,1,68,85.79L50,72.93,32,85.79A9.16,9.16,0,0,1,17.5,78.33V25A12.52,12.52,0,0,1,30,12.5H70A12.52,12.52,0,0,1,82.5,25V78.33a9.17,9.17,0,0,1-9.17,9.17Z"/><path class="cls-2" d="M70,15A10,10,0,0,1,80,25V78.33a6.67,6.67,0,0,1-3.62,5.93,6.57,6.57,0,0,1-3,.74,6.67,6.67,0,0,1-3.87-1.24L50,69.86,30.54,83.76A6.67,6.67,0,0,1,26.67,85a6.57,6.57,0,0,1-3.05-.74A6.67,6.67,0,0,1,20,78.33V25A10,10,0,0,1,30,15H70m0-5H30A15,15,0,0,0,15,25V78.33a11.62,11.62,0,0,0,6.33,10.38A11.78,11.78,0,0,0,26.67,90a11.62,11.62,0,0,0,6.78-2.17L50,76,66.55,87.83A11.62,11.62,0,0,0,73.33,90a11.78,11.78,0,0,0,5.34-1.29A11.62,11.62,0,0,0,85,78.33V25A15,15,0,0,0,70,10Z"/><path class="cls-3" d="M72.67,31H27.33V25A2.68,2.68,0,0,1,30,22.33H70A2.68,2.68,0,0,1,72.67,25Z"/><path class="cls-4" d="M27.33,32.33H72.67V77L50.39,61.12a.69.69,0,0,0-.78,0L27.33,77Z"/><path d="M40.67,36.67a.66.66,0,0,1-.67.66H32.33V51.67a.67.67,0,0,1-1.33,0v-15a.67.67,0,0,1,.67-.67H40A.67.67,0,0,1,40.67,36.67Z"/><path class="cls-5" d="M72.67,25A2.68,2.68,0,0,0,70,22.33H50V31H72.67Z"/><path class="cls-5" d="M50.39,61.12,72.67,77V32.33H50V61A.69.69,0,0,1,50.39,61.12Z"/></g></g></svg>