<svg xmlns="http://www.w3.org/2000/svg" viewBox="0 0 100 100"><defs><style>.cls-1{isolation:isolate;}.cls-2{fill:#fff;}.cls-3,.cls-4{fill:#fed25f;}.cls-4,.cls-6,.cls-8{opacity:0.5;mix-blend-mode:multiply;}.cls-5,.cls-6{fill:#c2b59b;}.cls-7,.cls-8{fill:#c2d5e8;}.cls-9{fill:#fbad23;}</style></defs><title>explore-alt-1</title><g class="cls-1"><g id="Layer_15" data-name="Layer 15"><path d="M40.56,87.5a9.12,9.12,0,0,1-6.49-2.68L15.19,65.93a9.16,9.16,0,0,1,0-13l4.44-4.44a8.65,8.65,0,0,1-.05-.88,9.11,9.11,0,0,1,2.69-6.48L31.43,32a9.22,9.22,0,0,1,2.64-7.36l9.45-9.45a9.17,9.17,0,0,1,13,0l1.9,1.91a25.67,25.67,0,0,1,17,7.54,26.16,26.16,0,0,1,7.54,17l1.91,1.91a9.17,9.17,0,0,1,0,13l-9.44,9.45a9.1,9.1,0,0,1-6.48,2.68,8.51,8.51,0,0,1-.88,0l-9.17,9.16a9.11,9.11,0,0,1-6.48,2.69,8.65,8.65,0,0,1-.88,0L47,84.82A9.12,9.12,0,0,1,40.56,87.5Z"/><path class="cls-2" d="M50,15A6.63,6.63,0,0,1,54.71,17l2.61,2.61A23.17,23.17,0,0,1,73.6,26.4a23.45,23.45,0,0,1,6.84,16.28l2.61,2.61a6.66,6.66,0,0,1,0,9.42L73.6,64.16a6.65,6.65,0,0,1-6.44,1.72L57.08,76a6.63,6.63,0,0,1-6.51,1.71,7.21,7.21,0,0,1-.58.66l-4.72,4.72a6.68,6.68,0,0,1-9.43,0L17,64.16a6.68,6.68,0,0,1,0-9.43L21.67,50a7.21,7.21,0,0,1,.66-.58A6.63,6.63,0,0,1,24,42.92l4.72-4.72,5.36-5.36a6.63,6.63,0,0,1,1.72-6.44L45.29,17A6.63,6.63,0,0,1,50,15m0-5a11.55,11.55,0,0,0-8.25,3.42l-9.44,9.44A11.74,11.74,0,0,0,28.89,31l-3.67,3.67L20.5,39.39a11.59,11.59,0,0,0-3.42,8.14l-3.66,3.66a11.66,11.66,0,0,0,0,16.5L32.31,86.58a11.65,11.65,0,0,0,16.49,0l3.67-3.66a11.59,11.59,0,0,0,8.14-3.42L69,71.11a11.6,11.6,0,0,0,8.14-3.42l9.44-9.44a11.68,11.68,0,0,0,0-16.5L85.33,40.5a28.62,28.62,0,0,0-8.19-17.64,28.12,28.12,0,0,0-17.65-8.2l-1.24-1.24A11.55,11.55,0,0,0,50,10Z"/><polygon class="cls-3" points="61.33 38.67 47.64 24.97 41.5 31.11 42.92 32.53 55.19 44.81 67.47 57.08 68.89 58.5 75.03 52.36 61.33 38.67"/><polygon class="cls-4" points="68.89 58.5 75.03 52.36 61.33 38.67 55.19 44.81 67.47 57.08 68.89 58.5"/><polygon class="cls-5" points="40.08 59.92 33.47 53.3 29.69 57.08 36.3 63.7 42.92 70.31 46.7 66.53 40.08 59.92"/><rect class="cls-6" x="38.83" y="60.44" width="5.34" height="9.35" transform="translate(-33.88 48.41) rotate(-45)"/><polygon class="cls-3" points="44.81 55.19 33.47 43.86 29.69 47.64 33.47 51.42 41.03 58.97 48.58 66.53 52.36 70.31 56.14 66.53 44.81 55.19"/><polygon class="cls-4" points="48.58 66.53 52.36 70.31 56.14 66.53 44.81 55.19 41.03 58.97 48.58 66.53"/><polygon class="cls-3" points="35.36 64.64 26.39 55.66 22.61 59.45 31.58 68.42 40.56 77.39 44.34 73.61 35.36 64.64"/><rect class="cls-4" x="35.29" y="64.67" width="5.34" height="12.69" transform="translate(-39.1 47.64) rotate(-45)"/><polygon class="cls-5" points="54.25 45.75 42.92 34.41 34.41 42.92 45.75 54.25 57.08 65.58 65.58 57.08 54.25 45.75"/><rect class="cls-6" x="49.66" y="47.65" width="12.02" height="16.03" transform="translate(-23.06 55.67) rotate(-45)"/><path class="cls-7" d="M68.42,31.58h0a15.91,15.91,0,0,0-12.23-4.67l8.45,8.45h0l8.45,8.45A15.91,15.91,0,0,0,68.42,31.58Z"/><path class="cls-8" d="M68.42,31.58h0l-3.78,3.78,8.45,8.45A15.91,15.91,0,0,0,68.42,31.58Z"/><polygon class="cls-9" points="63.7 36.3 53.31 25.92 53.31 25.92 50 22.61 48.58 24.03 62.28 37.72 75.97 51.42 77.39 50 63.7 36.3"/><rect class="cls-4" x="68.83" y="34.18" width="2.01" height="19.37" transform="translate(-10.56 62.23) rotate(-45)"/></g></g></svg>