<svg xmlns="http://www.w3.org/2000/svg" viewBox="0 0 100 100"><defs><style>.cls-1{isolation:isolate;}.cls-2{fill:#fff;}.cls-3,.cls-6{fill:#c49a6c;}.cls-4{fill:#e6e7e8;}.cls-5,.cls-8{fill:#c2d5e8;}.cls-6,.cls-8{opacity:0.5;}.cls-6,.cls-7,.cls-8{mix-blend-mode:multiply;}.cls-7{opacity:0.75;}</style></defs><title>search-alt-1</title><g class="cls-1"><g id="Layer_15" data-name="Layer 15"><path d="M26.4,87.5a13.9,13.9,0,0,1-9.83-23.73l6.13-6.13A33.74,33.74,0,0,1,30.39,22.3,33.45,33.45,0,1,1,54.05,79.4a33.09,33.09,0,0,1-11.69-2.1l-6.13,6.13A13.8,13.8,0,0,1,26.4,87.5Z"/><path class="cls-2" d="M54.05,15A31,31,0,1,1,41.76,74.37l-7.3,7.29a11.41,11.41,0,0,1-16.13,0,11.43,11.43,0,0,1,0-16.13l7.3-7.29a31.09,31.09,0,0,1,6.53-34.18A30.78,30.78,0,0,1,54.05,15m0-5A35.72,35.72,0,0,0,28.62,20.53,36.27,36.27,0,0,0,19.83,57l-5,5A16.4,16.4,0,0,0,38,85.2l5-5A36,36,0,0,0,90,46,36,36,0,0,0,54.05,10Z"/><path class="cls-3" d="M29.39,76.59l9.91-9.9-3-3L23.41,76.6A4.24,4.24,0,0,0,29.39,76.59Z"/><path class="cls-3" d="M23.4,70.6a4.24,4.24,0,0,0,0,6h0l12.9-12.91-3-3Z"/><path class="cls-4" d="M33.84,46A20.2,20.2,0,0,1,68.33,31.67l2.53-2.53A23.77,23.77,0,1,0,37.24,62.76l2.53-2.53A20.14,20.14,0,0,1,33.84,46Z"/><path class="cls-4" d="M68.33,31.67A20.19,20.19,0,1,1,39.77,60.23l-2.53,2.53A23.77,23.77,0,1,0,70.86,29.14Z"/><path d="M54.05,25.75A20.19,20.19,0,0,0,39.77,60.23l.92-.92A18.89,18.89,0,1,1,67.4,32.6l.93-.93A20.18,20.18,0,0,0,54.05,25.75Z"/><path d="M72.94,46A18.89,18.89,0,0,1,40.69,59.31l-.92.92A20.19,20.19,0,1,0,68.33,31.67l-.93.93A18.79,18.79,0,0,1,72.94,46Z"/><path class="cls-5" d="M72.94,46A18.79,18.79,0,0,0,67.4,32.6L40.69,59.31A18.89,18.89,0,0,0,72.94,46Z"/><path class="cls-6" d="M29.39,76.59l9.91-9.9-3-3L23.41,76.6A4.24,4.24,0,0,0,29.39,76.59Z"/><path class="cls-7" d="M72.94,46A18.89,18.89,0,0,1,40.69,59.31l-.92.92A20.19,20.19,0,1,0,68.33,31.67l-.93.93A18.79,18.79,0,0,1,72.94,46Z"/><path class="cls-8" d="M72.94,46A18.79,18.79,0,0,0,67.4,32.6L40.69,59.31A18.89,18.89,0,0,0,72.94,46Z"/><path class="cls-5" d="M54.05,27.05A18.89,18.89,0,0,0,40.69,59.31L67.4,32.6A18.79,18.79,0,0,0,54.05,27.05Zm0,4.89A14,14,0,0,0,40,46a.66.66,0,0,1-.66.65.65.65,0,0,1-.65-.65A15.33,15.33,0,0,1,54.05,30.64a.65.65,0,0,1,0,1.3Z"/><path d="M54.05,30.64A15.33,15.33,0,0,0,38.73,46a.65.65,0,0,0,.65.65A.66.66,0,0,0,40,46a14,14,0,0,1,14-14,.65.65,0,0,0,0-1.3Z"/></g></g></svg>