<svg xmlns="http://www.w3.org/2000/svg" viewBox="0 0 70 70"><defs><style>.cls-1{fill:#e1c5b6;}.cls-2{fill:#231f20;}.cls-3{fill:#eacbc6;}.cls-4{fill:#c2d5e8;}.cls-5{fill:#fff;}</style></defs><title>person</title><g id="Layer_2" data-name="Layer 2"><path d="M63.88,62.42A10.34,10.34,0,0,1,56,67.58a9.77,9.77,0,0,1-1.08.06c-.24,0-.49,0-.73,0A9.87,9.87,0,0,1,47.7,70H22.29a9.86,9.86,0,0,1-6.45-2.39c-.24,0-.49,0-.73,0s-.72,0-1.08,0a10.38,10.38,0,0,1-7.91-5.17,10.55,10.55,0,0,1-.44-9.62A31,31,0,0,1,19.42,38.5a22.41,22.41,0,1,1,31.16,0A31,31,0,0,1,64.32,52.8,10.55,10.55,0,0,1,63.88,62.42Z"/><circle class="cls-1" cx="35" cy="22.41" r="15.07"/><path class="cls-2" d="M24,23.07a.65.65,0,0,1-.66-.66A11.7,11.7,0,0,1,35,10.72a.67.67,0,1,1,0,1.34A10.36,10.36,0,0,0,24.65,22.41.66.66,0,0,1,24,23.07Z"/><path class="cls-3" d="M57,54.56H50.88a21.3,21.3,0,0,1,.47,2.38,3.77,3.77,0,0,0,3.54,3.37l.34,0a3,3,0,0,0,2.29-1.51,3.22,3.22,0,0,0,.14-2.91C57.46,55.45,57.24,55,57,54.56Z"/><path class="cls-3" d="M19.12,54.56H13c-.25.46-.47.89-.67,1.31a3.22,3.22,0,0,0,.14,2.91,3,3,0,0,0,2.29,1.51l.34,0a3.77,3.77,0,0,0,3.54-3.38c0-.15.06-.31.08-.47l.06-.34C18.88,55.6,19,55.07,19.12,54.56Z"/><path class="cls-4" d="M43.53,43.4l.1.13a19.16,19.16,0,0,1,6.79,9.56s0,.09.07.13H56.2A24.37,24.37,0,0,0,43.53,43.4Z"/><path class="cls-4" d="M19.55,53.14a19.27,19.27,0,0,1,6.79-9.6l.13-.14A24.37,24.37,0,0,0,13.8,53.22h5.71Z"/><path class="cls-5" d="M50.25,60.22C50.25,50.14,43.41,42,35,42S19.75,50.14,19.75,60.18a2.52,2.52,0,0,0,2.54,2.49H47.7A2.52,2.52,0,0,0,50.25,60.22Z"/></g></svg>