<svg xmlns="http://www.w3.org/2000/svg" viewBox="0 0 70 70"><defs><style>.cls-1{fill:#e1c5b6;}.cls-2{fill:#ceab97;}.cls-3{fill:#231f20;}.cls-4{fill:#a8dac7;}.cls-5{fill:#01af6b;}</style></defs><title>person</title><g id="Layer_2" data-name="Layer 2"><path d="M63.88,62.42A10.34,10.34,0,0,1,56,67.58a9.77,9.77,0,0,1-1.08.06c-.24,0-.49,0-.73,0A9.87,9.87,0,0,1,47.7,70H22.3a9.87,9.87,0,0,1-6.46-2.39c-.24,0-.49,0-.73,0s-.72,0-1.08,0a10.38,10.38,0,0,1-7.91-5.17,10.55,10.55,0,0,1-.44-9.62A31,31,0,0,1,19.42,38.5a22.41,22.41,0,1,1,31.16,0A31,31,0,0,1,64.32,52.8,10.55,10.55,0,0,1,63.88,62.42Z"/><path class="cls-1" d="M35,37.47V7.34a15.07,15.07,0,1,0,0,30.13Z"/><path class="cls-2" d="M45.66,33.07A15.07,15.07,0,0,0,35,7.34V37.47A15,15,0,0,0,45.66,33.07Z"/><path class="cls-3" d="M24,23.07a.66.66,0,0,1-.67-.66A11.7,11.7,0,0,1,35,10.72a.67.67,0,1,1,0,1.34A10.36,10.36,0,0,0,24.65,22.41.66.66,0,0,1,24,23.07Z"/><path class="cls-4" d="M19.75,60.18a2.52,2.52,0,0,0,2.55,2.49H47.71a2.51,2.51,0,0,0,2.54-2.45C50.25,50.14,43.41,42,35,42S19.75,50.14,19.75,60.18Z"/><path class="cls-5" d="M51.35,56.94a3.77,3.77,0,0,0,3.54,3.37l.34,0a3,3,0,0,0,2.29-1.51,3.22,3.22,0,0,0,.14-2.91A24,24,0,0,0,43.49,43.36a1.7,1.7,0,0,0,.19.19,20,20,0,0,1,7.64,13.29Z"/><path class="cls-5" d="M26.37,43.52l.14-.16A24,24,0,0,0,12.34,55.87a3.22,3.22,0,0,0,.14,2.91,3,3,0,0,0,2.29,1.51l.34,0c2,0,3.11-1.73,3.54-3.37,0,0,0-.07,0-.11A19.93,19.93,0,0,1,26.37,43.52Z"/></g></svg>