<svg xmlns="http://www.w3.org/2000/svg" viewBox="0 0 100 100"><defs><style>.cls-1{fill:#fff;}.cls-2{fill:#d1d3d4;}</style></defs><title>share-alt-7</title><g id="Layer_15" data-name="Layer 15"><path d="M69.25,88.2a18.23,18.23,0,0,1-18-21.3L49.67,66a21.75,21.75,0,1,1,0-30.66l1.59-.87A18.27,18.27,0,1,1,57.05,45l-1.59.87a21.78,21.78,0,0,1,0,9.64l1.59.87A18.25,18.25,0,1,1,69.25,88.2Z"/><path class="cls-1" d="M69.25,15.7A15.75,15.75,0,1,1,57.49,41.91l-5,2.74a19.16,19.16,0,0,1,0,12.1l5,2.74A15.74,15.74,0,1,1,53.5,70a15.89,15.89,0,0,1,.61-4.33l-5-2.74a19.25,19.25,0,1,1,0-24.36l5-2.74A15.74,15.74,0,0,1,69.25,15.7m0-5A20.78,20.78,0,0,0,48.5,31.09a24.25,24.25,0,1,0,0,39.22A20.75,20.75,0,1,0,77,50.7a20.75,20.75,0,0,0-7.75-40ZM58.45,52.24c0-.51,0-1,0-1.54s0-1,0-1.54a21,21,0,0,0,3.07,1.54,21,21,0,0,0-3.07,1.54Z"/><path class="cls-1" d="M22.7,50.7A11.56,11.56,0,0,0,34.25,62.25V39.15A11.56,11.56,0,0,0,22.7,50.7Z"/><path class="cls-2" d="M34.25,38.45v23.1a11.55,11.55,0,0,0,0-23.1Z"/><path class="cls-1" d="M61.2,31.45a8.06,8.06,0,0,0,8,8.05V23.4A8.06,8.06,0,0,0,61.2,31.45Z"/><path class="cls-2" d="M69.25,23.4V39.5a8.05,8.05,0,0,0,0-16.1Z"/><path class="cls-1" d="M61.2,70a8.06,8.06,0,0,0,8,8V61.9A8.06,8.06,0,0,0,61.2,70Z"/><path class="cls-2" d="M69.25,61.9V78a8.05,8.05,0,0,0,0-16.1Z"/></g></svg>