<svg xmlns="http://www.w3.org/2000/svg" viewBox="0 0 100 100"><defs><style>.cls-1{isolation:isolate;}.cls-2{fill:#fff;}.cls-3{fill:#c2d5e8;}.cls-4{fill:#5586bc;opacity:0.5;mix-blend-mode:multiply;}</style></defs><title>share-alt-2</title><g class="cls-1"><g id="Layer_15" data-name="Layer 15"><path d="M69.25,87.5a18.23,18.23,0,0,1-18-21.3l-1.59-.87a21.75,21.75,0,1,1,0-30.66l1.59-.87a18.27,18.27,0,1,1,5.79,10.51l-1.59.87a21.78,21.78,0,0,1,0,9.64l1.59.87A18.25,18.25,0,1,1,69.25,87.5Z"/><path class="cls-2" d="M69.25,15A15.75,15.75,0,1,1,57.49,41.21l-5,2.74a19.16,19.16,0,0,1,0,12.1l5,2.74a15.74,15.74,0,1,1-4,10.46,15.89,15.89,0,0,1,.61-4.33l-5-2.74a19.25,19.25,0,1,1,0-24.36l5-2.74A15.74,15.74,0,0,1,69.25,15m0-5A20.78,20.78,0,0,0,48.5,30.39a24.25,24.25,0,1,0,0,39.22A20.75,20.75,0,1,0,77,50a20.75,20.75,0,0,0-7.75-40ZM58.45,51.54c0-.51,0-1,0-1.54s0-1,0-1.54A21,21,0,0,0,61.52,50a21,21,0,0,0-3.07,1.54Z"/><circle class="cls-3" cx="69.25" cy="30.75" r="8.05"/><circle class="cls-3" cx="34.25" cy="50" r="11.55"/><circle class="cls-3" cx="69.25" cy="69.25" r="8.05"/><path class="cls-4" d="M34.25,38.45v23.1a11.55,11.55,0,0,0,0-23.1Z"/><path class="cls-4" d="M69.25,61.2V77.3a8,8,0,0,0,0-16.1Z"/><path class="cls-4" d="M69.25,22.7V38.8a8.05,8.05,0,0,0,0-16.1Z"/><path d="M65.05,30.75a4.2,4.2,0,0,1,4.2-4.2.7.7,0,1,1,0,1.4,2.81,2.81,0,0,0-2.8,2.8.7.7,0,1,1-1.4,0Z"/><path d="M70,65.75a.7.7,0,0,1-.7.7,2.81,2.81,0,0,0-2.8,2.8.7.7,0,0,1-1.4,0,4.2,4.2,0,0,1,4.2-4.2A.7.7,0,0,1,70,65.75Z"/><path d="M35,43a.7.7,0,0,1-.7.7A6.31,6.31,0,0,0,28,50a.7.7,0,0,1-1.4,0,7.7,7.7,0,0,1,7.7-7.7A.7.7,0,0,1,35,43Z"/></g></g></svg>